<svg width="525" height="210" viewBox="0 0 525 210" fill="none" xmlns="http://www.w3.org/2000/svg">
<path d="M189.045 0.175674C163.807 2.94693 139.524 10.4524 113.668 23.4427C60.325 50.1738 17.9993 93.1282 4.73392 133.947C1.92345 142.549 0.855469 149.015 0.855469 157.387C0.855469 168.76 2.93522 176.093 8.61237 184.811C16.7627 197.397 31.9393 205.826 51.8936 208.886C59.0884 209.983 77.6375 209.81 86.8559 208.597C98.6599 207.038 113.668 203.401 125.64 199.244C155.769 188.737 185.728 171.416 210.91 149.997L218.161 143.819L208.718 143.646L199.331 143.53L195.284 147.399C158.804 182.963 113.049 205.249 76.3447 205.422C52.4557 205.537 35.4243 196.531 27.4425 179.615C21.0909 166.162 21.0346 150.401 27.2739 130.54C33.6818 110.044 48.1838 86.7774 66.7891 67.09C79.2114 53.9265 90.3971 44.1694 103.831 34.7009C149.473 2.54279 198.825 -7.73396 226.255 9.06679C231.033 12.0112 237.61 18.7085 240.251 23.2117C245.029 31.5255 246.772 38.6846 246.772 49.7119C246.715 57.2751 245.423 66.6281 243.568 71.9974C243.118 73.3253 242.725 74.48 242.725 74.5954C242.725 74.7109 247.896 74.8264 254.135 74.8264H265.602L266.501 71.4778C270.38 57.6215 270.323 44.8044 266.22 33.8349C260.88 19.5745 248.177 8.6049 231.202 3.582C221.815 0.810745 217.374 0.233398 203.94 0.0601959C196.97 -0.0552673 190.281 0.00247192 189.045 0.175674Z" fill="#613843"/>
<path d="M305.016 82.7357C304.06 82.9666 304.004 84.5832 304.004 105.772V128.519H309.906H315.808V105.483V82.5048L310.918 82.447C308.163 82.447 305.522 82.5625 305.016 82.7357Z" fill="#05628C"/>
<path d="M331.662 83.5439C328.908 84.9872 326.772 87.5853 326.21 90.2411L325.816 92.1463H346.951H368.086L368.198 110.159L368.367 128.23L373.594 128.404L378.766 128.577V110.333V92.1463H399.282C419.574 92.1463 419.799 92.1463 419.799 90.9916C419.799 87.9317 416.314 83.948 412.772 82.9665C411.255 82.5624 398.102 82.3314 372.302 82.3314C334.473 82.3314 334.079 82.3314 331.662 83.5439Z" fill="#05628C"/>
<path d="M438.339 83.2543C433.28 85.506 431.594 88.9123 431.594 96.7642C431.594 103.635 432.549 106.233 435.922 108.369L438.058 109.754L476.28 109.928L514.503 110.043L514.671 114.951L514.84 119.858H473.47C445.028 119.858 432.156 120.031 432.156 120.435C432.156 121.763 433.955 124.477 435.641 125.862C439.07 128.518 440.25 128.576 479.934 128.403L517.313 128.23L519.843 126.497C523.777 123.726 524.901 121.186 524.901 114.777C524.901 109.293 524.508 107.907 522.428 105.54C519.73 102.422 520.517 102.48 487.129 102.538C470.153 102.538 452.785 102.364 448.625 102.191L441.093 101.787L441.262 96.8219L441.43 91.8568L483.194 91.6836C506.127 91.6258 524.901 91.3949 524.901 91.2794C524.901 91.1062 524.395 89.9515 523.777 88.7391C522.428 85.9679 519.843 83.7162 517.144 82.9079C515.795 82.5615 501.743 82.3306 477.685 82.3306C445.59 82.3883 440.025 82.5038 438.339 83.2543Z" fill="#05628C"/>
<path d="M101.025 84.2372C99.564 85.0455 97.8215 86.662 96.866 88.1631L95.1797 90.7035V109.756V128.808H100.52H105.859V119.686C105.859 111.026 105.916 110.564 106.984 110.275C107.602 110.16 121.373 110.102 137.618 110.16L167.072 110.333L172.018 118.936C174.716 123.67 177.133 127.769 177.358 128C177.808 128.404 189.33 129.039 189.33 128.635C189.33 128.52 186.913 124.536 183.991 119.802C181.068 115.067 178.651 110.968 178.651 110.622C178.651 110.333 179.213 110.045 179.943 110.045C182.023 110.045 185.508 107.62 187.363 104.964C188.937 102.597 189.049 102.135 189.049 96.8233C189.049 91.5695 188.937 90.9921 187.363 88.3941C186.239 86.5466 184.834 85.1609 183.204 84.2372L180.73 82.9093H142.115H103.499L101.025 84.2372ZM177.976 96.5924L178.145 101.384H142.115H106.141V96.4769V91.5695L142.002 91.6849L177.808 91.8581L177.976 96.5924Z" fill="#05628C"/>
<path d="M200.846 83.6593C200.677 84.0057 200.621 94.1092 200.677 106.003L200.846 127.653H244.24H287.577L290.05 125.921C291.568 124.824 292.973 123.15 293.873 121.302C295.222 118.473 295.278 118.127 295.278 105.425C295.278 92.8968 295.222 92.3194 293.929 89.7214C292.411 86.7192 290.444 84.9872 287.015 83.717C283.867 82.5623 201.239 82.5046 200.846 83.6593ZM284.879 95.899V100.806L247.949 100.691L210.964 100.518L210.795 96.5341C210.683 94.3401 210.739 92.204 210.907 91.7421C211.132 91.107 217.653 90.9915 248.062 90.9915H284.879V95.899ZM284.879 114.085V118.704H248.343C228.276 118.704 211.638 118.762 211.413 118.82C210.907 118.993 210.458 111.43 210.907 110.217C211.132 109.582 217.653 109.467 248.062 109.467H284.879V114.085Z" fill="#05628C"/>
<path d="M85.9062 135.678V137.179H305.123C431.144 137.179 524.34 136.948 524.34 136.659C524.34 135.909 478.248 135.505 361.613 135.158C304.448 134.985 219.01 134.696 171.794 134.523L85.9062 134.119V135.678Z" fill="#05628C"/>
<path d="M244.98 151.611V159.694H251.164C256.953 159.694 257.347 159.636 257.347 158.539C257.347 157.5 256.953 157.384 252.513 157.384H247.735L247.903 154.902L248.072 152.477H252.175C255.998 152.477 256.222 152.419 256.222 151.149C256.222 149.936 255.998 149.879 252.007 149.879H247.791V147.858V145.837H252.288C256.391 145.837 256.784 145.722 256.784 144.683C256.784 143.586 256.391 143.528 250.882 143.528H244.98V151.611Z" fill="#03658D"/>
<path d="M306.816 144.683C306.816 145.549 307.21 145.838 308.222 145.838C309.233 145.838 309.627 145.549 309.627 144.683C309.627 143.817 309.233 143.529 308.222 143.529C307.21 143.529 306.816 143.817 306.816 144.683Z" fill="#04658D"/>
<path d="M392.091 144.337C391.697 145.434 392.147 145.838 393.777 145.838C394.676 145.838 395.07 145.491 395.07 144.683C395.07 143.875 394.676 143.529 393.721 143.529C392.99 143.529 392.259 143.875 392.091 144.337Z" fill="#04658D"/>
<path d="M457.457 151.611V159.694H458.862C460.099 159.694 460.211 159.463 460.38 156.345L460.549 153.054L464.09 152.881C467.069 152.708 467.575 152.535 467.575 151.611C467.575 150.687 467.069 150.514 464.09 150.341L460.549 150.167L460.38 147.974L460.211 145.837H464.427C468.305 145.837 468.699 145.722 468.699 144.683C468.699 143.586 468.305 143.528 463.078 143.528H457.457V151.611Z" fill="#03658D"/>
<path d="M477.691 144.683C477.691 145.549 478.085 145.838 479.097 145.838C480.108 145.838 480.502 145.549 480.502 144.683C480.502 143.817 480.108 143.529 479.097 143.529C478.085 143.529 477.691 143.817 477.691 144.683Z" fill="#04658D"/>
<path d="M270.379 148.497C269.705 148.959 269.143 149.074 269.143 148.785C269.143 148.439 268.524 148.15 267.737 148.15H266.332V153.924V159.697H267.737C269.086 159.697 269.143 159.582 269.143 155.887C269.143 151.441 269.817 149.882 271.672 149.882C273.527 149.882 274.201 151.441 274.201 155.887C274.201 159.639 274.258 159.697 275.663 159.697H277.124L276.899 154.443C276.731 150.113 276.45 149.016 275.607 148.381C274.201 147.342 271.953 147.342 270.379 148.497Z" fill="#03658D"/>
<path d="M287.409 149.015C286.229 150.17 286.004 150.978 286.004 153.634C286.004 156.348 286.229 157.098 287.465 158.311C288.871 159.812 290.894 159.985 293.48 158.83C294.21 158.484 294.435 158.715 294.435 159.812C294.435 160.562 294.154 161.486 293.761 161.89C292.974 162.698 290.163 162.814 289.714 162.063C289.264 161.371 286.622 160.909 286.229 161.486C286.06 161.775 286.622 162.698 287.409 163.507C288.758 164.892 289.208 165.008 291.962 164.777C296.627 164.373 296.909 163.853 297.19 155.366L297.358 148.149H295.897C295.11 148.149 294.435 148.438 294.435 148.784C294.435 149.073 293.873 148.958 293.199 148.496C291.344 147.168 288.983 147.341 287.409 149.015ZM293.536 150.805C295.391 152.71 293.929 157.964 291.512 157.964C289.32 157.964 287.971 153.692 289.376 150.978C290.107 149.65 292.356 149.535 293.536 150.805Z" fill="#03658D"/>
<path d="M323.114 148.551C322.159 149.244 321.709 149.301 321.54 148.84C321.428 148.435 320.866 148.147 320.248 148.147C319.292 148.147 319.18 148.609 319.18 153.92V159.694H320.585C321.934 159.694 321.99 159.578 321.99 155.421C321.99 150.802 322.608 149.648 324.913 149.994C326.15 150.167 326.206 150.456 326.374 154.902L326.543 159.694H328.229H329.972L329.747 154.44C329.635 150.052 329.41 149.07 328.51 148.378C327.049 147.281 324.801 147.338 323.114 148.551Z" fill="#03658D"/>
<path d="M340.924 148.208C338.507 149.652 337.552 154.328 339.126 157.33C340.756 160.563 346.208 161.141 348.063 158.312C348.85 157.042 348.85 156.926 347.726 156.637C347.107 156.464 346.208 156.695 345.758 157.157C345.309 157.619 344.466 157.965 343.904 157.965C342.779 157.965 340.981 155.771 341.43 154.963C341.599 154.732 343.341 154.501 345.365 154.501H348.962V152.712C348.962 149.017 344.128 146.303 340.924 148.208ZM345.253 150.229C345.758 150.402 346.152 151.095 346.152 151.672C346.152 152.596 345.702 152.769 343.623 152.769C340.924 152.769 340.531 152.25 341.992 150.806C342.892 149.825 343.847 149.652 345.253 150.229Z" fill="#03658D"/>
<path d="M358.972 149.421C357.455 151.095 357.286 151.557 357.511 154.386C357.848 158.081 359.141 159.64 362.232 160.102C363.919 160.333 364.762 160.102 365.998 159.12C366.842 158.428 367.516 157.677 367.516 157.388C367.516 156.465 365.661 156.234 364.706 157.1C363.525 158.197 362.232 158.197 361.108 157.042C359.197 155.137 359.984 154.502 364.2 154.502H368.247L367.91 152.308C367.179 147.574 362.12 145.957 358.972 149.421ZM364.593 150.576C365.998 152.019 365.324 152.77 362.738 152.77C361.052 152.77 360.209 152.539 360.209 152.019C360.209 150.922 361.389 149.883 362.738 149.883C363.413 149.883 364.2 150.172 364.593 150.576Z" fill="#03658D"/>
<path d="M380.664 148.554C379.933 149.305 379.596 149.363 379.427 148.843C379.315 148.497 378.753 148.15 378.134 148.15C377.179 148.15 377.066 148.612 377.066 153.924V159.697H378.472C379.821 159.697 379.877 159.582 379.877 156.002C379.877 151.268 380.214 150.46 382.125 150.46C383.193 150.46 383.755 150.113 383.98 149.363C384.149 148.728 384.093 148.093 383.924 147.919C383.306 147.226 381.619 147.573 380.664 148.554Z" fill="#03658D"/>
<path d="M408.552 148.554C407.596 149.247 407.147 149.305 406.978 148.843C406.866 148.439 406.303 148.15 405.685 148.15C404.73 148.15 404.617 148.612 404.617 153.924V159.697H406.022C407.371 159.697 407.428 159.582 407.428 155.713C407.428 151.441 408.215 149.882 410.238 149.882C411.812 149.882 412.487 151.672 412.487 155.887C412.487 159.582 412.543 159.697 413.948 159.697H415.409L415.185 154.443C415.072 150.055 414.847 149.074 413.948 148.381C412.487 147.284 410.238 147.342 408.552 148.554Z" fill="#03658D"/>
<path d="M425.915 148.784C424.735 149.823 424.566 150.516 424.566 153.634C424.566 156.405 424.847 157.56 425.634 158.484C426.927 159.927 429.681 160.1 431.48 158.772C432.661 157.906 432.717 157.964 432.717 159.523C432.717 160.447 432.436 161.486 432.042 161.89C431.255 162.698 428.445 162.814 427.995 162.063C427.827 161.774 427.04 161.428 426.253 161.313C425.185 161.082 424.847 161.255 424.847 162.063C424.847 164.777 431.255 165.989 433.897 163.795C435.19 162.756 435.246 162.236 435.415 155.424L435.64 148.149H434.178C433.391 148.149 432.717 148.438 432.717 148.784C432.717 149.073 432.155 148.957 431.48 148.495C429.738 147.225 427.546 147.341 425.915 148.784ZM432.323 152.017C433.447 155.943 431.143 158.945 428.445 157.098C427.433 156.463 427.096 155.712 427.096 154.153C427.096 151.036 427.995 149.766 430.075 149.997C431.536 150.112 431.93 150.516 432.323 152.017Z" fill="#03658D"/>
<path d="M493.652 148.554C492.921 149.305 492.584 149.363 492.415 148.843C492.303 148.497 491.741 148.15 491.123 148.15C490.167 148.15 490.055 148.612 490.055 153.924V159.697H491.46C492.809 159.697 492.865 159.582 492.865 155.887C492.865 151.268 493.54 149.767 495.338 150.229C496.35 150.46 496.744 150.286 496.968 149.363C497.081 148.728 497.081 148.093 496.912 147.919C496.294 147.226 494.608 147.573 493.652 148.554Z" fill="#03658D"/>
<path d="M508.839 148.554C508.108 149.305 507.771 149.363 507.603 148.843C507.49 148.497 506.759 148.15 506.029 148.15C504.68 148.15 504.68 148.208 504.68 153.924V159.697H506.085C507.434 159.697 507.49 159.524 507.546 156.349C507.659 151.268 508.108 150.171 510.02 150.171H511.706L511.874 154.905C512.043 159.582 512.043 159.697 513.392 159.697C514.741 159.697 514.797 159.524 514.797 156.291C514.797 151.441 515.528 149.767 517.495 149.998C519.013 150.171 519.013 150.229 519.182 154.905C519.35 159.582 519.35 159.697 520.699 159.697C522.105 159.697 522.105 159.639 522.105 154.559C522.105 149.825 521.992 149.305 520.868 148.497C519.238 147.342 517.608 147.342 516.034 148.497C514.854 149.363 514.629 149.363 513.729 148.497C512.437 147.284 510.076 147.342 508.839 148.554Z" fill="#03658D"/>
<path d="M306.816 153.924V159.697H308.222H309.627V153.924V148.15H308.222H306.816V153.924Z" fill="#03658D"/>
<path d="M392.243 153.343C392.243 156.172 392.187 158.713 392.13 158.944C392.018 159.232 392.636 159.463 393.536 159.579L395.053 159.752V153.979V148.147H393.648C392.243 148.147 392.243 148.205 392.243 153.343Z" fill="#03658D"/>
<path d="M477.691 153.92V159.694H479.097H480.502V153.92V148.147H479.097H477.691V153.92Z" fill="#03658D"/>
<path d="M250.594 174.706V177.015H253.123H255.653V174.706V172.396H253.123H250.594V174.706Z" fill="#35363A"/>
<path d="M257.344 174.706V177.015H259.873H262.403V174.706V172.396H259.873H257.344V174.706Z" fill="#35363A"/>
<path d="M327.055 174.706V177.015H329.584H332.114V174.706V172.396H329.584H327.055V174.706Z" fill="#35363A"/>
<path d="M365.273 183.078V193.759H362.181H359.09V189.948C359.09 182.154 356.898 180.249 347.848 180.191H341.946L341.89 183.193C341.834 185.791 341.609 186.426 340.091 187.87C339.079 188.851 338.236 190.352 338.011 191.622C337.618 193.759 337.562 193.759 334.864 193.759H332.166L331.997 186.946L331.828 180.191L329.468 180.018L327.051 179.845V186.773V193.759H323.959H320.868V190.93C320.868 184.521 317.776 180.999 311.424 180.133L308.501 179.729V182.096C308.501 184.521 309.064 185.098 311.593 185.098C312.324 185.098 313.617 185.676 314.403 186.426C315.584 187.465 315.921 188.274 315.977 190.583L316.09 193.47L310.637 193.643L305.129 193.816V196.068V198.377H343.07H381.012V185.387V172.397H378.482H375.953V183.135V193.816L373.03 193.643L370.051 193.47L369.882 182.904L369.77 172.397H367.521H365.273V183.078ZM353.694 186.022C353.862 186.542 354.031 188.505 354.031 190.352C354.031 193.816 354.031 193.816 352.513 193.643C351.221 193.528 350.883 193.123 350.602 191.334C350.265 188.909 349.366 187.639 347.792 187.119C347.23 186.888 346.724 186.369 346.724 185.907C346.724 184.694 353.244 184.752 353.694 186.022ZM345.487 190.987C345.881 191.391 346.162 192.142 346.162 192.719C346.162 193.47 345.712 193.759 344.475 193.759C343.07 193.759 342.789 193.528 342.789 192.431C342.789 190.294 344.138 189.602 345.487 190.987Z" fill="#35363A"/>
<path d="M432.145 185.387V198.377H434.393H436.641L436.697 186.657C436.697 180.249 436.81 174.418 436.866 173.667C436.979 172.512 436.754 172.397 434.562 172.397H432.145V185.387Z" fill="#35363A"/>
<path d="M453.504 185.446V198.436L455.921 198.263L458.282 198.089L458.45 185.215L458.563 172.398H456.033H453.504V185.446Z" fill="#35363A"/>
<path d="M259.189 180.48C252.106 181.923 246.542 188.101 245.249 195.895L244.855 198.377H247.329H249.802L250.814 195.086C251.994 190.93 253.568 188.332 255.704 186.773L257.334 185.618V191.969V198.377H279.256H301.234L301.065 189.255L300.896 180.191H298.648H296.4L296.231 186.946L296.062 193.759H293.308H290.498V188.505V183.309L288.137 183.482L285.776 183.655V188.562L285.72 193.47H282.909H280.099L279.93 190.121L279.762 186.83H277.569H275.321V190.294V193.759H268.857H262.393V186.83C262.393 183.02 262.224 179.902 261.999 179.96C261.718 180.018 260.482 180.249 259.189 180.48Z" fill="#35363A"/>
<path d="M405.742 182.5V185.098H407.991H410.239V182.5V179.902H407.991H405.742V182.5Z" fill="#35363A"/>
<path d="M412.48 182.504V185.159L414.897 184.986C417.258 184.813 417.258 184.813 417.258 182.504C417.258 180.194 417.258 180.194 414.897 180.021L412.48 179.848V182.504Z" fill="#35363A"/>
<path d="M423.159 186.83V193.759H413.097C407.532 193.759 402.361 193.528 401.574 193.181C400.169 192.662 400.113 192.488 400.113 187.523C400.113 184.694 400 182.269 399.888 182.154C399.719 181.981 398.539 181.981 397.246 182.096L394.941 182.327L395.166 187.985C395.56 198.031 396.234 198.377 414.39 198.377H427.655V189.14V179.902H425.407H423.159V186.83Z" fill="#35363A"/>
<path d="M444.91 180.249C444.685 180.48 444.517 184.983 444.517 190.295C444.517 200.456 444.292 201.264 441.875 201.264C440.751 201.264 440.582 201.553 440.582 203.574V205.883H442.887C444.742 205.883 445.528 205.537 447.046 203.978C449.407 201.553 449.688 199.648 449.463 188.563L449.294 180.191L447.327 180.018C446.203 179.903 445.135 180.018 444.91 180.249Z" fill="#35363A"/>
<path d="M465.989 182.272C466.158 184.812 466.158 184.812 468.631 185.158C471.891 185.62 473.184 187.237 473.184 190.932V193.761H467.844H462.504V196.07V198.38H481.615H500.726V200.169V201.959L505.729 201.728C510.113 201.555 510.956 201.382 512.193 200.169C514.385 198.091 514.835 195.435 514.666 187.41L514.498 180.193L509.888 180.251C502.75 180.367 500.726 182.503 500.726 190.008V193.761H489.484H478.243V191.163C478.243 188.334 477.118 184.928 475.544 183.196C474.083 181.521 472.003 180.597 468.743 180.136L465.82 179.731L465.989 182.272ZM509.72 190.066C509.72 195.666 509.158 197.225 507.19 197.225C505.785 197.225 505.785 197.225 505.785 191.567C505.785 188.449 505.954 185.678 506.179 185.505C506.347 185.274 507.247 185.101 508.146 185.101H509.72V190.066Z" fill="#35363A"/>
</svg>
