<svg width="118" height="148" viewBox="0 0 118 148" fill="none" xmlns="http://www.w3.org/2000/svg">
<ellipse cx="62.4517" cy="8.15104" rx="8.20072" ry="8.15104" fill="white"/>
<ellipse cx="114.179" cy="40.7551" rx="3.15412" ry="3.13502" fill="white"/>
<path d="M113.373 9.2122C116.027 15.7143 112.878 23.1246 106.339 25.7636C105.618 26.0547 104.886 26.2755 104.15 26.4294C100.055 27.2857 95.4825 28.4503 93.2915 31.9952C90.7335 36.1339 92.1315 41.5086 95.9088 44.5894C103.44 50.732 109.534 58.8281 113.32 68.4972C125.074 98.5135 110.132 132.322 79.948 144.009C49.7636 155.697 15.7662 140.839 4.01289 110.823C-7.74046 80.8065 7.20089 46.9985 37.3853 35.3106C50.5693 30.2055 64.4807 30.1649 76.9482 34.2396C81.464 35.7155 86.6125 34.3171 89.1015 30.29L90.027 28.7925C91.8624 25.8229 91.0135 21.9984 89.6953 18.7687C87.0416 12.2665 90.1908 4.85625 96.7294 2.21731C103.268 -0.421635 110.72 2.71008 113.373 9.2122Z" fill="white"/>
<path d="M113.373 9.18486C116.027 15.687 112.878 23.0973 106.339 25.7362C105.618 26.0273 104.886 26.2482 104.15 26.4021C100.055 27.2584 95.4825 28.423 93.2915 31.9679C90.7335 36.1066 92.1315 41.4813 95.9088 44.562C103.44 50.7046 109.534 58.8008 113.32 68.4698C125.074 98.4862 110.132 132.294 79.948 143.982C49.7636 155.67 15.7662 140.812 4.01289 110.795C-7.74046 80.7791 7.20089 46.9711 37.3853 35.2832C50.5693 30.1782 64.4807 30.1375 76.9482 34.2123C81.464 35.6882 86.6125 34.2898 89.1015 30.2626L90.027 28.7652C91.8624 25.7956 91.0135 21.9711 89.6953 18.7413C87.0416 12.2392 90.1908 4.82891 96.7294 2.18996C103.268 -0.448979 110.72 2.68274 113.373 9.18486Z" fill="white"/>
<ellipse cx="59.2906" cy="90.9156" rx="49.305" ry="49.5332" fill="white"/>
<path d="M58.5996 40.1295C58.7885 40.1298 58.9774 40.1302 59.1721 40.1305C61.9674 40.1394 64.6871 40.2383 67.4374 40.7776C67.6995 40.8249 67.6995 40.8249 67.9669 40.8731C72.5241 41.7015 76.9238 43.2152 81.0715 45.2781C81.2049 45.3444 81.3383 45.4108 81.4757 45.4791C85.6941 47.6042 89.6155 50.3973 92.9769 53.7225C93.362 54.1031 93.751 54.4792 94.1403 54.8555C95.7787 56.4538 97.2514 58.1039 98.601 59.9537C98.6838 60.0651 98.7665 60.1765 98.8517 60.2913C100.121 62.002 101.255 63.7724 102.302 65.6283C102.379 65.7635 102.456 65.8988 102.536 66.0381C106.714 73.4148 108.628 81.7708 108.595 90.2098C108.595 90.4945 108.595 90.4945 108.594 90.7849C108.585 93.5932 108.487 96.3255 107.95 99.0886C107.919 99.2641 107.887 99.4396 107.855 99.6205C106.139 109.147 101.573 117.957 94.9003 124.918C94.7772 125.047 94.6541 125.176 94.5273 125.309C92.7462 127.165 90.9353 128.875 88.8624 130.396C88.6382 130.564 88.414 130.732 88.1898 130.9C86.5944 132.082 84.9377 133.133 83.214 134.114C83.0794 134.192 82.9447 134.27 82.806 134.35C75.4633 138.547 67.1459 140.47 58.7457 140.437C58.4623 140.436 58.4623 140.436 58.1733 140.436C55.378 140.427 52.6582 140.328 49.9079 139.789C49.7332 139.757 49.5585 139.726 49.3785 139.693C39.8954 137.969 31.126 133.382 24.1979 126.679C24.0695 126.555 23.9411 126.431 23.8088 126.304C21.9607 124.514 20.2584 122.695 18.7443 120.613C18.5772 120.387 18.4101 120.162 18.2429 119.937C17.067 118.335 16.0186 116.671 15.0436 114.938C14.9653 114.8 14.887 114.661 14.8063 114.519C11.9329 109.392 10.0757 103.729 9.20046 97.9145C9.14887 97.5851 9.14887 97.5851 9.09623 97.249C8.77351 94.9766 8.73326 92.7229 8.73788 90.43C8.73798 90.2319 8.73809 90.0339 8.7382 89.8299C8.74613 86.5957 8.92209 83.4778 9.59001 80.3038C9.63279 80.1 9.67556 79.8961 9.71963 79.686C11.6502 70.7941 15.9008 62.3292 22.2805 55.8202C22.6592 55.4333 23.0337 55.0424 23.4082 54.6514C24.9992 53.0053 26.6416 51.5259 28.4829 50.17C28.5938 50.0869 28.7047 50.0038 28.8189 49.9181C30.5214 48.6432 32.2831 47.5018 34.1313 46.4522C34.2691 46.3735 34.4068 46.2948 34.5487 46.2137C39.6416 43.3331 45.2941 41.4353 51.0765 40.582C51.3112 40.5473 51.5458 40.5126 51.7875 40.4768C54.0581 40.1639 56.3104 40.1205 58.5996 40.1295ZM49.5184 53.8878C49.3814 53.9208 49.2444 53.9537 49.1033 53.9877C40.9589 55.9985 33.6519 61.2752 28.6777 67.9764C28.5559 68.1388 28.4342 68.3012 28.3087 68.4686C25.2233 72.737 23.2444 77.5317 22.0554 82.6519C22.018 82.8091 21.9806 82.9662 21.9421 83.1281C20.8348 88.0277 21.0913 93.8459 22.2502 98.6972C22.2899 98.869 22.3296 99.0408 22.3704 99.2177C24.3827 107.691 29.5491 115.233 36.4686 120.417C36.7111 120.601 36.7111 120.601 36.9586 120.788C44.7528 126.474 54.6971 128.904 64.2143 127.423C74.0136 125.771 82.7131 120.612 88.6676 112.59C88.7894 112.428 88.9112 112.265 89.0366 112.098C92.122 107.829 94.1009 103.035 95.2899 97.9145C95.346 97.6788 95.346 97.6788 95.4033 97.4383C96.5105 92.5387 96.2541 86.7205 95.0951 81.8692C95.0555 81.6975 95.0158 81.5257 94.9749 81.3487C92.9626 72.8754 87.7962 65.3333 80.8767 60.1494C80.715 60.0271 80.5533 59.9047 80.3868 59.7787C71.4772 53.2787 60.1608 51.2567 49.5184 53.8878Z" fill="url(#paint0_linear_4230_5761)"/>
<path d="M58.5996 40.1295C58.7885 40.1298 58.9775 40.1302 59.1721 40.1305C61.9674 40.1394 64.6871 40.2383 67.4374 40.7776C67.6995 40.8249 67.6995 40.8249 67.9669 40.8731C72.5241 41.7015 76.9238 43.2152 81.0715 45.2781C81.2049 45.3444 81.3383 45.4108 81.4757 45.4791C85.6941 47.6042 89.6155 50.3973 92.9769 53.7225C93.362 54.1031 93.751 54.4792 94.1403 54.8555C95.7788 56.4538 97.2514 58.1039 98.601 59.9537C98.6838 60.0651 98.7665 60.1765 98.8517 60.2913C100.121 62.002 101.255 63.7724 102.302 65.6283C102.379 65.7635 102.456 65.8988 102.536 66.0381C106.714 73.4148 108.628 81.7708 108.595 90.2098C108.595 90.4945 108.595 90.4945 108.594 90.7849C108.585 93.5932 108.487 96.3255 107.95 99.0886C107.919 99.2641 107.887 99.4396 107.855 99.6205C106.139 109.147 101.573 117.957 94.9004 124.918C94.7772 125.047 94.6541 125.176 94.5273 125.309C92.7462 127.165 90.9353 128.875 88.8624 130.396C88.6382 130.564 88.414 130.732 88.1898 130.9C86.5944 132.082 84.9377 133.133 83.214 134.114C83.0794 134.192 82.9447 134.27 82.806 134.35C75.4633 138.547 67.1459 140.47 58.7457 140.437C58.4623 140.436 58.4623 140.436 58.1733 140.436C55.378 140.427 52.6582 140.328 49.9079 139.789C49.7332 139.757 49.5585 139.726 49.3785 139.693C39.8955 137.969 31.126 133.382 24.1979 126.679C24.0695 126.555 23.9411 126.431 23.8088 126.304C21.9607 124.514 20.2584 122.695 18.7443 120.613C18.5772 120.387 18.4101 120.162 18.2429 119.937C17.067 118.335 16.0186 116.671 15.0436 114.938C14.9653 114.8 14.887 114.661 14.8063 114.519C11.9329 109.392 10.0757 103.729 9.20046 97.9145C9.14887 97.5851 9.14887 97.5851 9.09623 97.249C8.77351 94.9766 8.73326 92.7229 8.73788 90.43C8.73798 90.2319 8.73809 90.0339 8.7382 89.8299C8.74613 86.5957 8.92209 83.4778 9.59001 80.3038C9.63279 80.1 9.67556 79.8961 9.71963 79.686C11.6502 70.7941 15.9008 62.3292 22.2805 55.8202C22.6592 55.4333 23.0337 55.0424 23.4082 54.6514C24.9992 53.0053 26.6416 51.5259 28.4829 50.17C28.5938 50.0869 28.7047 50.0038 28.8189 49.9181C30.5214 48.6432 32.2831 47.5018 34.1313 46.4522C34.2691 46.3735 34.4068 46.2948 34.5487 46.2137C39.6416 43.3331 45.2941 41.4353 51.0765 40.582C51.3112 40.5473 51.5458 40.5126 51.7875 40.4768C54.0581 40.1639 56.3104 40.1205 58.5996 40.1295ZM49.7131 44.1041C49.5745 44.13 49.4358 44.1559 49.2929 44.1826C41.2284 45.713 33.8216 49.6224 27.7038 55.0619C27.5321 55.2127 27.3604 55.3635 27.1834 55.5189C23.3631 58.916 20.2681 62.9266 17.7705 67.3893C17.6993 67.5139 17.6281 67.6385 17.5548 67.7668C15.2092 71.8927 13.7102 76.3611 12.7672 81.0009C12.7278 81.1951 12.6883 81.3893 12.6476 81.5894C12.1001 84.4072 11.8475 87.1614 11.8542 90.0264C11.8542 90.182 11.8542 90.3375 11.8542 90.4978C11.8607 93.5448 12.1555 96.4798 12.7064 99.4799C12.7345 99.6388 12.7625 99.7977 12.7915 99.9614C14.4389 108.967 19.3775 116.995 25.5613 123.548C25.7692 123.769 25.7692 123.769 25.9813 123.995C26.9995 125.049 28.1165 125.964 29.262 126.874C29.5441 127.104 29.5441 127.104 29.8319 127.338C36.3089 132.506 43.7809 135.389 51.8556 136.854C51.9947 136.88 52.1338 136.907 52.2771 136.934C63.2297 138.977 75.7618 135.547 84.8209 129.332C88.6618 126.634 92.1764 123.524 95.0951 119.83C95.2478 119.641 95.4004 119.452 95.5577 119.257C98.7975 115.157 101.103 110.64 102.886 105.741C102.938 105.599 102.991 105.456 103.044 105.308C103.734 103.4 104.215 101.462 104.639 99.4799C104.679 99.298 104.719 99.1162 104.76 98.9288C104.867 98.3964 104.952 97.8652 105.029 97.3275C105.065 97.0765 105.101 96.8255 105.138 96.567C105.789 91.4812 105.605 86.3074 104.639 81.2822C104.61 81.1205 104.581 80.9587 104.551 80.7921C102.895 71.663 98.0617 63.671 91.784 57.0186C91.6454 56.871 91.5068 56.7235 91.364 56.5714C90.346 55.5173 89.2294 54.6018 88.0833 53.6921C87.884 53.5322 87.6846 53.3723 87.4792 53.2075C85.9903 52.0251 84.4499 50.9583 82.8245 49.9743C82.633 49.8578 82.633 49.8578 82.4377 49.739C72.6651 43.8642 60.8623 41.9406 49.7131 44.1041Z" fill="url(#paint1_linear_4230_5761)"/>
<path d="M65.9425 49.6759C66.1645 49.7152 66.1645 49.7152 66.3909 49.7553C74.5643 51.2337 81.7582 55.5665 87.5623 61.4163C87.6954 61.5432 87.8284 61.6701 87.9655 61.8008C94.8041 68.3967 98.9063 78.57 99.1018 88.0143C99.1426 90.6406 99.1464 93.2657 98.6643 95.855C98.6339 96.0325 98.6036 96.2099 98.5723 96.3928C97.214 104.29 93.7895 111.177 88.5361 117.183C88.4101 117.334 88.2841 117.485 88.1542 117.64C87.3778 118.563 86.5342 119.342 85.6146 120.119C85.4255 120.284 85.2364 120.45 85.0417 120.621C78.4998 126.333 69.6335 130.357 60.8785 130.489C60.6977 130.494 60.517 130.499 60.3308 130.504C49.3111 130.777 38.9137 127.186 30.8506 119.521C23.4059 112.36 18.3471 102.553 18.0071 92.0626C17.8312 81.1102 20.9284 70.9749 28.268 62.7115C28.5685 62.3693 28.8612 62.0211 29.1541 61.6724C29.5585 61.1973 29.9669 60.7665 30.4453 60.3646C30.8692 60.0042 31.2856 59.6434 31.6892 59.2601C40.6464 50.7809 53.9844 47.4401 65.9425 49.6759ZM49.3869 53.3937C49.2499 53.4266 49.113 53.4596 48.9718 53.4935C40.8274 55.5044 33.5204 60.781 28.5462 67.4822C28.4245 67.6447 28.3027 67.8071 28.1772 67.9745C25.0919 72.2428 23.1129 77.0376 21.924 82.1578C21.8866 82.3149 21.8491 82.4721 21.8106 82.634C20.7033 87.5336 20.9598 93.3518 22.1187 98.2031C22.1584 98.3749 22.1981 98.5466 22.2389 98.7236C24.2512 107.197 29.4176 114.739 36.3371 119.923C36.5797 120.106 36.5797 120.106 36.8271 120.294C44.6213 125.98 54.5656 128.41 64.0828 126.929C73.8821 125.277 82.5816 120.118 88.5361 112.096C88.6579 111.934 88.7797 111.771 88.9052 111.604C91.9905 107.335 93.9694 102.541 95.1584 97.4204C95.2145 97.1847 95.2145 97.1847 95.2718 96.9442C96.379 92.0446 96.1226 86.2264 94.9636 81.3751C94.924 81.2033 94.8843 81.0315 94.8434 80.8546C92.8311 72.3813 87.6647 64.8391 80.7452 59.6553C80.5836 59.5329 80.4219 59.4106 80.2553 59.2845C71.3457 52.7846 60.0293 50.7625 49.3869 53.3937Z" fill="url(#paint2_linear_4230_5761)"/>
<path d="M65.3974 102.599H52.8455H65.3974Z" fill="white"/>
<path d="M65.3974 102.599H52.8455" stroke="white" stroke-width="1.8" stroke-linecap="round"/>
<path d="M48.7344 69.9712C48.1445 70.5037 47.6278 71.0707 47.1487 71.7055C47.0926 71.779 47.0926 71.779 47.0353 71.8539C45.7461 73.5507 44.8737 75.3795 44.3389 77.4428C44.3209 77.5112 44.3029 77.5796 44.2844 77.65C43.9696 78.9557 43.9233 80.2846 43.9325 81.6203C43.9329 81.7734 43.9331 81.9266 43.9333 82.0797C43.934 82.4768 43.9359 82.8739 43.938 83.2711C43.9399 83.6787 43.9408 84.0863 43.9417 84.4939C43.9437 85.2893 43.9469 86.0847 43.9509 86.8801C43.8622 86.9086 43.7736 86.937 43.6823 86.9664C42.7254 87.2933 41.9694 88.0337 41.5114 88.916C41.1456 89.6928 41.0211 90.3943 41.022 91.2499C41.0216 91.3705 41.0216 91.3705 41.0212 91.4935C41.0204 91.7623 41.0202 92.0311 41.0201 92.2998C41.0196 92.4928 41.0192 92.6858 41.0187 92.8788C41.0174 93.4027 41.0168 93.9266 41.0164 94.4505C41.0161 94.7781 41.0157 95.1057 41.0153 95.4333C41.014 96.4591 41.0131 97.4849 41.0128 98.5107C41.0123 99.6933 41.0107 100.876 41.008 102.059C41.0059 102.974 41.005 103.889 41.0049 104.804C41.0048 105.35 41.0042 105.896 41.0025 106.442C41.001 106.956 41.0008 107.47 41.0016 107.984C41.0017 108.172 41.0013 108.36 41.0003 108.548C40.993 110.108 41.0996 111.471 42.1914 112.694C43.251 113.707 44.4459 113.98 45.871 113.976C45.9876 113.976 46.1041 113.977 46.2242 113.977C46.5461 113.978 46.868 113.978 47.19 113.978C47.5378 113.978 47.8856 113.979 48.2335 113.98C48.9144 113.981 49.5953 113.982 50.2762 113.982C50.83 113.982 51.3838 113.983 51.9375 113.983C53.5091 113.985 55.0807 113.986 56.6523 113.986C56.7369 113.985 56.8216 113.985 56.9088 113.985C56.9936 113.985 57.0783 113.985 57.1657 113.985C58.5387 113.985 59.9118 113.987 61.2848 113.99C62.6962 113.993 64.1075 113.994 65.5188 113.994C66.3106 113.994 67.1023 113.994 67.8941 113.996C68.5683 113.998 69.2425 113.998 69.9168 113.997C70.2604 113.996 70.604 113.996 70.9476 113.998C71.3211 114 71.6946 113.999 72.0681 113.997C72.2289 113.999 72.2289 113.999 72.3929 114C73.5973 113.99 74.7576 113.642 75.6641 112.83C76.6028 111.853 76.9945 110.688 76.9881 109.36C76.9885 109.279 76.9889 109.199 76.9892 109.115C76.9902 108.848 76.9898 108.58 76.9895 108.312C76.9899 108.119 76.9903 107.926 76.9909 107.733C76.9922 107.21 76.9922 106.687 76.992 106.164C76.9919 105.727 76.9923 105.29 76.9928 104.853C76.9938 103.821 76.9939 102.79 76.9933 101.758C76.9927 100.695 76.9939 99.6326 76.9959 98.57C76.9976 97.6561 76.9981 96.7422 76.9978 95.8283C76.9976 95.2832 76.9979 94.7381 76.9992 94.1929C77.0004 93.68 77.0002 93.1671 76.999 92.6542C76.9988 92.4667 76.999 92.2791 76.9998 92.0915C77.0062 90.4372 76.8649 89.0961 75.6862 87.8475C74.8063 87.0038 73.7718 86.6328 72.5606 86.6477C72.4637 86.6474 72.3668 86.6471 72.267 86.6467C71.9452 86.6461 71.6235 86.6482 71.3018 86.6502C71.07 86.6503 70.8382 86.6503 70.6064 86.65C70.1088 86.65 69.6113 86.651 69.1137 86.6531C68.3944 86.6562 67.675 86.6572 66.9557 86.6576C65.7883 86.6584 64.621 86.6609 63.4537 86.6645C62.3203 86.6679 61.1869 86.6706 60.0535 86.6722C59.9835 86.6723 59.9136 86.6724 59.8415 86.6725C59.4905 86.673 59.1395 86.6734 58.7885 86.6739C55.8804 86.6778 52.9724 86.6844 50.0644 86.6928C50.0701 85.8377 50.0774 84.9826 50.0865 84.1275C50.0907 83.7303 50.0944 83.3332 50.0969 82.936C50.0994 82.5515 50.1032 82.167 50.1079 81.7826C50.1095 81.6371 50.1106 81.4916 50.1112 81.3461C50.1229 78.7269 50.9643 76.4766 52.8202 74.5749C54.7016 72.8023 56.9893 72.1159 59.5421 72.1483C61.855 72.2191 63.9404 73.3015 65.5445 74.9338C66.8938 76.3966 67.7879 78.3988 67.8677 80.3896C67.9112 81.4285 68.0689 82.3321 68.781 83.1333C69.5593 83.8036 70.2647 84.0251 71.2877 84.0052C72.1304 83.9279 72.8425 83.5943 73.3896 82.9459C74.3974 81.4185 74.0968 79.6023 73.7658 77.8878C72.9191 74.01 70.5861 70.5639 67.2499 68.3863C61.3669 64.6459 53.9076 65.3987 48.7344 69.9712ZM62.1972 96.0598C62.9744 97.0901 63.1563 98.1723 63.0437 99.4319C62.8049 100.518 62.154 101.407 61.2567 102.055C61.1009 102.119 60.9442 102.182 60.7864 102.242C60.7894 102.343 60.7894 102.343 60.7924 102.445C60.8003 102.752 60.8051 103.059 60.81 103.366C60.8131 103.471 60.8163 103.577 60.8195 103.685C60.8283 104.434 60.7435 104.957 60.2394 105.526C60.1852 105.569 60.131 105.611 60.0752 105.655C59.9935 105.722 59.9935 105.722 59.9102 105.789C59.4956 106.066 59.0077 106.04 58.5292 105.989C58.0215 105.819 57.7033 105.474 57.4005 105.052C57.2278 104.697 57.19 104.418 57.194 104.026C57.1949 103.87 57.1949 103.87 57.1959 103.71C57.1975 103.602 57.199 103.495 57.2007 103.384C57.2015 103.274 57.2024 103.164 57.2032 103.052C57.2054 102.782 57.2085 102.512 57.2124 102.242C57.1396 102.215 57.0668 102.187 56.9918 102.159C56.1766 101.818 55.6112 101.044 55.2373 100.275C55.1895 100.179 55.1895 100.179 55.1407 100.081C54.7604 99.1631 54.8469 97.9831 55.2009 97.0726C55.7136 96.0369 56.4796 95.2586 57.5578 94.8212C59.2856 94.2466 60.968 94.7433 62.1972 96.0598Z" fill="url(#paint3_linear_4230_5761)"/>
<defs>
<linearGradient id="paint0_linear_4230_5761" x1="48.8591" y1="40.1284" x2="100.588" y2="131.398" gradientUnits="userSpaceOnUse">
<stop stop-color="#16968C"/>
<stop offset="1" stop-color="#0E3434"/>
</linearGradient>
<linearGradient id="paint1_linear_4230_5761" x1="48.8591" y1="40.1284" x2="100.588" y2="131.398" gradientUnits="userSpaceOnUse">
<stop stop-color="#16968C"/>
<stop offset="1" stop-color="#0E3434"/>
</linearGradient>
<linearGradient id="paint2_linear_4230_5761" x1="50.5923" y1="49" x2="92.6397" y2="123.158" gradientUnits="userSpaceOnUse">
<stop stop-color="#16968C"/>
<stop offset="1" stop-color="#0E3434"/>
</linearGradient>
<linearGradient id="paint3_linear_4230_5761" x1="62.5357" y1="66" x2="34.8142" y2="102.849" gradientUnits="userSpaceOnUse">
<stop stop-color="#16968C"/>
<stop offset="1" stop-color="#0E3434"/>
</linearGradient>
</defs>
</svg>
