<svg width="115" height="46" viewBox="0 0 115 46" fill="none" xmlns="http://www.w3.org/2000/svg">
<path d="M41.2979 0.0385246C35.7594 0.646671 30.4306 2.29374 24.7565 5.14444C13.0505 11.0105 3.7622 20.4368 0.851121 29.3944C0.234367 31.2822 0 32.7012 0 34.5383C0 37.0342 0.456398 38.6433 1.70224 40.5564C3.49083 43.3184 6.8213 45.1682 11.2003 45.8397C12.7791 46.0805 16.8497 46.0425 18.8727 45.7764C21.463 45.4343 24.7565 44.6361 27.3839 43.7239C33.9955 41.418 40.5701 37.6171 46.0962 32.9166L47.6874 31.5609L45.6151 31.5229L43.5552 31.4976L42.667 32.3464C34.6616 40.151 24.6208 45.0415 16.566 45.0795C11.3236 45.1049 7.58608 43.1284 5.83449 39.4162C4.44063 36.4641 4.42829 33.0053 5.79749 28.6469C7.20369 24.1491 10.3861 19.0432 14.4691 14.7228C17.1951 11.8341 19.6498 9.69289 22.5979 7.61504C32.614 0.557983 43.4442 -1.69724 49.4637 1.98967C50.5122 2.63583 51.9554 4.10552 52.5351 5.09376C53.5836 6.91821 53.966 8.48926 53.966 10.9092C53.9536 12.5689 53.6699 14.6214 53.2629 15.7997C53.1642 16.0911 53.0779 16.3445 53.0779 16.3699C53.0779 16.3952 54.2127 16.4205 55.5819 16.4205H58.0982L58.2956 15.6857C59.1467 12.6449 59.1344 9.83225 58.2339 7.425C57.0621 4.29557 54.2744 1.88831 50.5492 0.786037C48.4892 0.177891 47.5147 0.0511932 44.5667 0.0131836C43.0371 -0.0121574 41.5692 0.000514984 41.2979 0.0385246Z" fill="#682032"/>
<path d="M66.7445 18.156C66.5348 18.2067 66.5225 18.5614 66.5225 23.2112V28.2031H67.8176H69.1128V23.1479V18.1053L68.0397 18.0926C67.4353 18.0926 66.8555 18.118 66.7445 18.156Z" fill="#125D89"/>
<path d="M72.5924 18.3334C71.988 18.6501 71.5193 19.2203 71.3959 19.8031L71.3096 20.2212H75.9476H80.5856L80.6102 24.1742L80.6472 28.1398L81.7944 28.1778L82.9292 28.2158V24.2122V20.2212H87.4315C91.8845 20.2212 91.9338 20.2212 91.9338 19.9678C91.9338 19.2963 91.1691 18.4221 90.3919 18.2067C90.0589 18.118 87.1725 18.0673 81.5107 18.0673C73.2092 18.0673 73.1228 18.0673 72.5924 18.3334Z" fill="#125D89"/>
<path d="M96.0036 18.2701C94.8935 18.7642 94.5234 19.5117 94.5234 21.2348C94.5234 22.7425 94.7331 23.3126 95.4732 23.7814L95.942 24.0855L104.33 24.1235L112.718 24.1488L112.755 25.2258L112.792 26.3027H103.713C97.4715 26.3027 94.6468 26.3407 94.6468 26.4294C94.6468 26.7208 95.0415 27.3163 95.4116 27.6203C96.164 28.2032 96.423 28.2158 105.132 28.1778L113.334 28.1398L113.89 27.7597C114.753 27.1516 115 26.5941 115 25.1878C115 23.9841 114.913 23.68 114.457 23.1606C113.865 22.4764 114.038 22.4891 106.71 22.5018C102.985 22.5018 99.1738 22.4638 98.261 22.4257L96.6081 22.3371L96.6451 21.2475L96.6821 20.1579L105.847 20.1198C110.88 20.1072 115 20.0565 115 20.0312C115 19.9931 114.889 19.7397 114.753 19.4737C114.457 18.8655 113.89 18.3714 113.297 18.194C113.001 18.118 109.918 18.0673 104.638 18.0673C97.5949 18.08 96.3737 18.1053 96.0036 18.2701Z" fill="#125D89"/>
<path d="M21.9801 18.4855C21.6594 18.6629 21.277 19.0177 21.0673 19.3471L20.6973 19.9046V24.0856V28.2666H21.8691H23.0409V26.2648C23.0409 24.3643 23.0533 24.263 23.2876 24.1996C23.4233 24.1743 26.4454 24.1616 30.0103 24.1743L36.4738 24.2123L37.5593 26.1001C38.1514 27.139 38.6818 28.0385 38.7312 28.0892C38.8298 28.1779 41.3585 28.3173 41.3585 28.2286C41.3585 28.2033 40.8281 27.329 40.1867 26.2901C39.5453 25.2512 39.0149 24.3516 39.0149 24.2756C39.0149 24.2123 39.1382 24.1489 39.2986 24.1489C39.755 24.1489 40.5197 23.6168 40.9268 23.034C41.2722 22.5145 41.2969 22.4132 41.2969 21.2476C41.2969 20.0946 41.2722 19.9679 40.9268 19.3978C40.6801 18.9923 40.3717 18.6883 40.014 18.4855L39.4713 18.1941H30.9971H22.5229L21.9801 18.4855ZM38.8668 21.1969L38.9038 22.2485H30.9971H23.1026V21.1715V20.0946L30.9724 20.1199L38.8298 20.1579L38.8668 21.1969Z" fill="#125D89"/>
<path d="M43.8883 18.3588C43.8513 18.4348 43.839 20.652 43.8513 23.262L43.8883 28.0132H53.411H62.9213L63.4641 27.6331C63.7971 27.3924 64.1055 27.0249 64.3029 26.6195C64.5989 25.9987 64.6112 25.9227 64.6112 23.1353C64.6112 20.386 64.5989 20.2593 64.3152 19.6891C63.9822 19.0303 63.5504 18.6502 62.798 18.3715C62.1072 18.1181 43.9747 18.1054 43.8883 18.3588ZM62.3293 21.0448V22.1217L54.2251 22.0964L46.1086 22.0584L46.0716 21.1842C46.0469 20.7027 46.0593 20.2339 46.0963 20.1326C46.1456 19.9932 47.5765 19.9679 54.2498 19.9679H62.3293V21.0448ZM62.3293 25.0358V26.0494H54.3115C49.9078 26.0494 46.2566 26.062 46.2073 26.0747C46.0963 26.1127 45.9976 24.453 46.0963 24.1869C46.1456 24.0475 47.5765 24.0222 54.2498 24.0222H62.3293V25.0358Z" fill="#125D89"/>
<path d="M18.6631 29.7741V30.1035H66.7699C94.4252 30.1035 114.877 30.0528 114.877 29.9895C114.877 29.8248 104.762 29.7361 79.1667 29.6601C66.6219 29.6221 47.8726 29.5587 37.5111 29.5207L18.6631 29.432V29.7741Z" fill="#125D89"/>
<path d="M53.5713 33.2712V35.0449H54.9281C56.1987 35.0449 56.285 35.0323 56.285 34.7915C56.285 34.5635 56.1987 34.5381 55.2242 34.5381H54.1757L54.2127 33.9933L54.2497 33.4612H55.1502C55.989 33.4612 56.0383 33.4485 56.0383 33.1698C56.0383 32.9037 55.989 32.8911 55.1132 32.8911H54.188V32.4476V32.0042H55.1748C56.0753 32.0042 56.1617 31.9788 56.1617 31.7508C56.1617 31.5101 56.0753 31.4974 54.8665 31.4974H53.5713V33.2712Z" fill="#125D89"/>
<path d="M67.1396 31.751C67.1396 31.941 67.226 32.0044 67.448 32.0044C67.6701 32.0044 67.7564 31.941 67.7564 31.751C67.7564 31.561 67.6701 31.4976 67.448 31.4976C67.226 31.4976 67.1396 31.561 67.1396 31.751Z" fill="#125D89"/>
<path d="M85.8526 31.675C85.7662 31.9157 85.8649 32.0044 86.2226 32.0044C86.42 32.0044 86.5063 31.9284 86.5063 31.751C86.5063 31.5736 86.42 31.4976 86.2103 31.4976C86.0499 31.4976 85.8896 31.5736 85.8526 31.675Z" fill="#125D89"/>
<path d="M100.198 33.2712V35.0449H100.507C100.778 35.0449 100.803 34.9942 100.84 34.3101L100.877 33.5879L101.654 33.5499C102.308 33.5119 102.419 33.4739 102.419 33.2712C102.419 33.0684 102.308 33.0304 101.654 32.9924L100.877 32.9544L100.84 32.473L100.803 32.0042H101.728C102.579 32.0042 102.665 31.9788 102.665 31.7508C102.665 31.5101 102.579 31.4974 101.432 31.4974H100.198V33.2712Z" fill="#125D89"/>
<path d="M104.639 31.751C104.639 31.941 104.725 32.0044 104.947 32.0044C105.169 32.0044 105.255 31.941 105.255 31.751C105.255 31.561 105.169 31.4976 104.947 31.4976C104.725 31.4976 104.639 31.561 104.639 31.751Z" fill="#125D89"/>
<path d="M59.1469 32.587C58.9989 32.6883 58.8755 32.7137 58.8755 32.6503C58.8755 32.5743 58.7399 32.511 58.5672 32.511H58.2588V33.7779V35.0449H58.5672C58.8632 35.0449 58.8755 35.0196 58.8755 34.2087C58.8755 33.2331 59.0236 32.8911 59.4306 32.8911C59.8377 32.8911 59.9857 33.2331 59.9857 34.2087C59.9857 35.0323 59.998 35.0449 60.3064 35.0449H60.6271L60.5778 33.892C60.5408 32.9417 60.4791 32.701 60.2941 32.5616C59.9857 32.3336 59.4923 32.3336 59.1469 32.587Z" fill="#125D89"/>
<path d="M62.8845 32.7012C62.6255 32.9546 62.5762 33.132 62.5762 33.7148C62.5762 34.3103 62.6255 34.475 62.8969 34.7411C63.2053 35.0705 63.6493 35.1085 64.2167 34.8551C64.3771 34.7791 64.4264 34.8297 64.4264 35.0705C64.4264 35.2352 64.3648 35.4379 64.2784 35.5266C64.1057 35.704 63.489 35.7293 63.3903 35.5646C63.2916 35.4126 62.7119 35.3112 62.6255 35.4379C62.5885 35.5012 62.7119 35.704 62.8845 35.8813C63.1806 36.1854 63.2793 36.2108 63.8837 36.1601C64.9075 36.0714 64.9692 35.9574 65.0309 34.0949L65.0679 32.5112H64.7471C64.5745 32.5112 64.4264 32.5745 64.4264 32.6505C64.4264 32.7139 64.3031 32.6886 64.1551 32.5872C63.748 32.2958 63.2299 32.3338 62.8845 32.7012ZM64.2291 33.094C64.6361 33.5121 64.3154 34.665 63.785 34.665C63.3039 34.665 63.0079 33.7275 63.3163 33.132C63.4766 32.8406 63.97 32.8153 64.2291 33.094Z" fill="#125D89"/>
<path d="M70.717 32.5997C70.5073 32.7517 70.4086 32.7644 70.3716 32.663C70.3469 32.5743 70.2236 32.511 70.0879 32.511C69.8782 32.511 69.8535 32.6123 69.8535 33.7779V35.0449H70.1619C70.4579 35.0449 70.4703 35.0196 70.4703 34.1074C70.4703 33.0938 70.606 32.8404 71.1117 32.9164C71.3831 32.9544 71.3954 33.0178 71.4324 33.9933L71.4694 35.0449H71.8395H72.2219L72.1725 33.892C72.1478 32.9291 72.0985 32.7137 71.9011 32.5616C71.5804 32.3209 71.087 32.3336 70.717 32.5997Z" fill="#125D89"/>
<path d="M74.6272 32.5235C74.0968 32.8403 73.8871 33.8665 74.2325 34.5254C74.5902 35.2349 75.7867 35.3616 76.1938 34.7408C76.3665 34.462 76.3665 34.4367 76.1198 34.3733C75.9841 34.3353 75.7867 34.386 75.6881 34.4874C75.5894 34.5887 75.4043 34.6647 75.281 34.6647C75.0343 34.6647 74.6396 34.1833 74.7383 34.0059C74.7753 33.9552 75.1576 33.9045 75.6017 33.9045H76.3912V33.5118C76.3912 32.7009 75.3303 32.1054 74.6272 32.5235ZM75.577 32.967C75.6881 33.005 75.7744 33.157 75.7744 33.2837C75.7744 33.4864 75.6757 33.5245 75.2193 33.5245C74.6272 33.5245 74.5409 33.4104 74.8616 33.0937C75.059 32.8783 75.2687 32.8403 75.577 32.967Z" fill="#125D89"/>
<path d="M78.5866 32.7893C78.2535 33.1568 78.2165 33.2581 78.2658 33.8789C78.3399 34.6898 78.6236 35.0319 79.302 35.1333C79.672 35.1839 79.8571 35.1333 80.1284 34.9179C80.3135 34.7658 80.4615 34.6011 80.4615 34.5378C80.4615 34.3351 80.0544 34.2844 79.8447 34.4744C79.5857 34.7151 79.302 34.7151 79.0553 34.4618C78.6359 34.0437 78.8086 33.9043 79.7337 33.9043H80.6219L80.5478 33.4228C80.3875 32.3839 79.2773 32.0292 78.5866 32.7893ZM79.8201 33.0427C80.1284 33.3595 79.9804 33.5242 79.413 33.5242C79.043 33.5242 78.8579 33.4735 78.8579 33.3595C78.8579 33.1188 79.117 32.8907 79.413 32.8907C79.561 32.8907 79.7337 32.9541 79.8201 33.0427Z" fill="#125D89"/>
<path d="M83.348 32.5997C83.1877 32.7644 83.1137 32.777 83.0767 32.663C83.052 32.587 82.9286 32.511 82.793 32.511C82.5833 32.511 82.5586 32.6123 82.5586 33.7779V35.0449H82.867C83.163 35.0449 83.1753 35.0196 83.1753 34.2341C83.1753 33.1951 83.2494 33.0178 83.6688 33.0178C83.9031 33.0178 84.0265 32.9417 84.0758 32.777C84.1128 32.6377 84.1005 32.4983 84.0635 32.4603C83.9278 32.3083 83.5577 32.3843 83.348 32.5997Z" fill="#125D89"/>
<path d="M89.467 32.5997C89.2573 32.7517 89.1586 32.7644 89.1216 32.663C89.0969 32.5743 88.9736 32.511 88.8379 32.511C88.6282 32.511 88.6035 32.6123 88.6035 33.7779V35.0449H88.9119C89.2079 35.0449 89.2203 35.0196 89.2203 34.1707C89.2203 33.2331 89.393 32.8911 89.837 32.8911C90.1824 32.8911 90.3304 33.2838 90.3304 34.2087C90.3304 35.0196 90.3428 35.0449 90.6511 35.0449H90.9719L90.9225 33.892C90.8978 32.9291 90.8485 32.7137 90.6511 32.5616C90.3304 32.3209 89.837 32.3336 89.467 32.5997Z" fill="#125D89"/>
<path d="M93.2775 32.6504C93.0185 32.8784 92.9814 33.0305 92.9814 33.7146C92.9814 34.3228 93.0431 34.5762 93.2158 34.7789C93.4995 35.0956 94.1039 35.1336 94.4987 34.8422C94.7577 34.6522 94.77 34.6649 94.77 35.0069C94.77 35.2097 94.7084 35.4377 94.622 35.5264C94.4493 35.7038 93.8326 35.7291 93.7339 35.5644C93.6969 35.5011 93.5242 35.4251 93.3515 35.3997C93.1171 35.349 93.0431 35.387 93.0431 35.5644C93.0431 36.1599 94.4493 36.426 95.0291 35.9445C95.3128 35.7165 95.3251 35.6024 95.3621 34.1074L95.4115 32.511H95.0907C94.9181 32.511 94.77 32.5744 94.77 32.6504C94.77 32.7137 94.6467 32.6884 94.4987 32.587C94.1163 32.3083 93.6352 32.3336 93.2775 32.6504ZM94.6837 33.3599C94.9304 34.2214 94.4246 34.8803 93.8326 34.4748C93.6105 34.3355 93.5365 34.1707 93.5365 33.8287C93.5365 33.1445 93.7339 32.8658 94.1903 32.9164C94.511 32.9418 94.5973 33.0305 94.6837 33.3599Z" fill="#125D89"/>
<path d="M108.142 32.5997C107.982 32.7644 107.908 32.777 107.871 32.663C107.846 32.587 107.723 32.511 107.587 32.511C107.377 32.511 107.353 32.6123 107.353 33.7779V35.0449H107.661C107.957 35.0449 107.969 35.0196 107.969 34.2087C107.969 33.1951 108.117 32.8657 108.512 32.9671C108.734 33.0178 108.82 32.9797 108.87 32.777C108.894 32.6377 108.894 32.4983 108.857 32.4603C108.722 32.3083 108.352 32.3843 108.142 32.5997Z" fill="#125D89"/>
<path d="M111.471 32.5997C111.311 32.7644 111.237 32.777 111.2 32.663C111.175 32.587 111.015 32.511 110.855 32.511C110.559 32.511 110.559 32.5236 110.559 33.7779V35.0449H110.867C111.163 35.0449 111.175 35.0069 111.188 34.3101C111.212 33.1951 111.311 32.9544 111.73 32.9544H112.1L112.137 33.9933C112.174 35.0196 112.174 35.0449 112.471 35.0449C112.767 35.0449 112.779 35.0069 112.779 34.2974C112.779 33.2331 112.939 32.8657 113.371 32.9164C113.704 32.9544 113.704 32.9671 113.741 33.9933C113.778 35.0196 113.778 35.0449 114.074 35.0449C114.382 35.0449 114.382 35.0323 114.382 33.9173C114.382 32.8784 114.358 32.7644 114.111 32.587C113.753 32.3336 113.396 32.3336 113.05 32.587C112.791 32.777 112.742 32.777 112.545 32.587C112.261 32.3209 111.743 32.3336 111.471 32.5997Z" fill="#125D89"/>
<path d="M67.1396 33.7779V35.0449H67.448H67.7564V33.7779V32.511H67.448H67.1396V33.7779Z" fill="#125D89"/>
<path d="M85.8889 33.6513C85.8889 34.2721 85.8766 34.8296 85.8642 34.8802C85.8396 34.9436 85.9752 34.9943 86.1726 35.0196L86.5056 35.0576V33.7906V32.511H86.1973C85.8889 32.511 85.8889 32.5237 85.8889 33.6513Z" fill="#125D89"/>
<path d="M104.639 33.7779V35.0449H104.947H105.255V33.7779V32.511H104.947H104.639V33.7779Z" fill="#125D89"/>
<path d="M54.8047 38.3389V38.8457H55.3598H55.9148V38.3389V37.8321H55.3598H54.8047V38.3389Z" fill="#682032"/>
<path d="M56.2852 38.3389V38.8457H56.8402H57.3953V38.3389V37.8321H56.8402H56.2852V38.3389Z" fill="#682032"/>
<path d="M71.5811 38.3389V38.8457H72.1361H72.6912V38.3389V37.8321H72.1361H71.5811V38.3389Z" fill="#682032"/>
<path d="M79.969 40.1762V42.5201H79.2906H78.6122V41.6839C78.6122 39.9735 78.1311 39.5554 76.1452 39.5427H74.85L74.8377 40.2015C74.8253 40.7717 74.776 40.911 74.4429 41.2278C74.2209 41.4432 74.0359 41.7726 73.9865 42.0513C73.9002 42.5201 73.8878 42.5201 73.2958 42.5201H72.7037L72.6667 41.0251L72.6297 39.5427L72.1116 39.5047L71.5812 39.4667V40.9871V42.5201H70.9028H70.2243V41.8993C70.2243 40.4929 69.5459 39.7201 68.152 39.53L67.5106 39.4414V39.9608C67.5106 40.4929 67.634 40.6196 68.189 40.6196C68.3494 40.6196 68.6331 40.7463 68.8058 40.911C69.0648 41.1391 69.1388 41.3165 69.1512 41.8233L69.1758 42.4568L67.9793 42.4948L66.7705 42.5328V43.0269V43.5337H75.0967H83.4229V40.683V37.8323H82.8678H82.3127V40.1889V42.5328L81.6713 42.4948L81.0175 42.4568L80.9805 40.1382L80.9558 37.8323H80.4624H79.969V40.1762ZM77.428 40.8224C77.465 40.9364 77.502 41.3672 77.502 41.7726C77.502 42.5328 77.502 42.5328 77.169 42.4948C76.8853 42.4694 76.8113 42.3807 76.7496 41.988C76.6756 41.4558 76.4782 41.1771 76.1328 41.0631C76.0095 41.0124 75.8985 40.8984 75.8985 40.797C75.8985 40.531 77.3293 40.5436 77.428 40.8224ZM75.6271 41.912C75.7134 42.0006 75.7751 42.1654 75.7751 42.2921C75.7751 42.4568 75.6764 42.5201 75.4051 42.5201C75.0967 42.5201 75.035 42.4694 75.035 42.2287C75.035 41.7599 75.3311 41.6079 75.6271 41.912Z" fill="#682032"/>
<path d="M94.6475 40.683V43.5337H95.1409H95.6343L95.6466 40.9617C95.6466 39.5554 95.6713 38.2757 95.6836 38.111C95.7083 37.8576 95.6589 37.8323 95.1779 37.8323H94.6475V40.683Z" fill="#682032"/>
<path d="M99.335 40.6957V43.5464L99.8654 43.5084L100.383 43.4704L100.42 40.645L100.445 37.8323H99.89H99.335V40.6957Z" fill="#682032"/>
<path d="M56.6923 39.6061C55.1381 39.9228 53.9169 41.2785 53.6332 42.9889L53.5469 43.5337H54.0896H54.6324L54.8544 42.8115C55.1134 41.8993 55.4588 41.3292 55.9275 40.9871L56.2853 40.7337V42.1273V43.5337H61.0959H65.919L65.882 41.5319L65.845 39.5427H65.3516H64.8581L64.8211 41.0251L64.7841 42.5201H64.1797H63.563V41.3672V40.2269L63.0449 40.2649L62.5268 40.3029V41.3798L62.5145 42.4568H61.8977H61.281L61.244 41.7219L61.207 40.9997H60.7259H60.2325V41.7599V42.5201H58.814H57.3954V40.9997C57.3954 40.1635 57.3584 39.4794 57.3091 39.492C57.2474 39.5047 56.976 39.5554 56.6923 39.6061Z" fill="#682032"/>
<path d="M88.8496 40.0495V40.6196H89.343H89.8364V40.0495V39.4793H89.343H88.8496V40.0495Z" fill="#682032"/>
<path d="M90.3291 40.049V40.6318L90.8595 40.5938C91.3776 40.5558 91.3776 40.5558 91.3776 40.049C91.3776 39.5422 91.3776 39.5422 90.8595 39.5042L90.3291 39.4662V40.049Z" fill="#682032"/>
<path d="M92.6737 40.9997V42.5201H90.4657C89.2445 42.5201 88.1097 42.4694 87.937 42.3934C87.6286 42.2794 87.6163 42.2414 87.6163 41.1518C87.6163 40.531 87.5916 39.9988 87.5669 39.9735C87.5299 39.9355 87.2709 39.9355 86.9872 39.9608L86.4814 40.0115L86.5308 41.2531C86.6171 43.4577 86.7652 43.5337 90.7494 43.5337H93.6605V41.5065V39.4794H93.1671H92.6737V40.9997Z" fill="#682032"/>
<path d="M97.4469 39.5558C97.3975 39.6065 97.3605 40.5947 97.3605 41.7603C97.3605 43.9902 97.3112 44.1676 96.7808 44.1676C96.5341 44.1676 96.4971 44.2309 96.4971 44.6744V45.1812H97.0028C97.4099 45.1812 97.5826 45.1051 97.9156 44.7631C98.4337 44.2309 98.4954 43.8128 98.446 41.3802L98.409 39.5431L97.9773 39.5051C97.7306 39.4798 97.4962 39.5051 97.4469 39.5558Z" fill="#682032"/>
<path d="M102.072 39.9989C102.109 40.5564 102.109 40.5564 102.652 40.6324C103.368 40.7338 103.651 41.0885 103.651 41.8994V42.5202H102.479H101.308V43.027V43.5338H105.502H109.695V43.9266V44.3193L110.793 44.2687C111.755 44.2306 111.94 44.1926 112.212 43.9266C112.693 43.4705 112.792 42.8877 112.755 41.1266L112.718 39.5428L111.706 39.5555C110.14 39.5808 109.695 40.0496 109.695 41.6967V42.5202H107.228H104.761V41.9501C104.761 41.3293 104.515 40.5818 104.169 40.2017C103.849 39.8342 103.392 39.6315 102.677 39.5302L102.035 39.4415L102.072 39.9989ZM111.669 41.7094C111.669 42.9383 111.546 43.2804 111.114 43.2804C110.806 43.2804 110.806 43.2804 110.806 42.0388C110.806 41.3546 110.843 40.7465 110.892 40.7085C110.929 40.6578 111.126 40.6198 111.324 40.6198H111.669V41.7094Z" fill="#682032"/>
</svg>
