<svg width="83" height="103" viewBox="0 0 83 103" fill="none" xmlns="http://www.w3.org/2000/svg">
<ellipse cx="43.6722" cy="5.67373" rx="5.73474" ry="5.67373" fill="#FF9500" fill-opacity="0.6"/>
<ellipse cx="79.8453" cy="28.3686" rx="2.20567" ry="2.1822" fill="#FF9500" fill-opacity="0.6"/>
<path d="M79.2817 6.39346C81.1374 10.9194 78.9352 16.0775 74.3628 17.9144C73.8584 18.1171 73.3463 18.2708 72.8317 18.3779C69.9683 18.974 66.7706 19.7846 65.2385 22.2521C63.4497 25.133 64.4273 28.8742 67.0687 31.0186C72.3354 35.2943 76.5971 40.9298 79.2447 47.6602C87.4637 68.5538 77.0153 92.0867 55.9074 100.222C34.7995 108.358 11.0253 98.0156 2.8062 77.122C-5.41288 56.2284 5.03556 32.6955 26.1435 24.5599C35.363 21.0064 45.0911 20.9781 53.8096 23.8144C56.9675 24.8418 60.5679 23.8683 62.3084 21.0652L62.9556 20.0228C64.2391 17.9558 63.6455 15.2936 62.7237 13.0455C60.8679 8.51951 63.0702 3.36139 67.6426 1.52449C72.2149 -0.31241 77.426 1.8675 79.2817 6.39346Z" fill="#FF9500" fill-opacity="0.6"/>
<circle cx="40.5892" cy="61.5381" r="34.4788" fill="white"/>
<path d="M40.9788 27.0601C41.1109 27.0603 41.243 27.0606 41.3791 27.0608C43.3338 27.067 45.2357 27.1358 47.159 27.5113C47.3423 27.5442 47.3423 27.5442 47.5292 27.5777C50.7161 28.1544 53.7928 29.2082 56.6933 30.6443C56.7865 30.6905 56.8798 30.7366 56.9759 30.7842C59.9258 32.2637 62.6681 34.2081 65.0187 36.5229C65.288 36.7878 65.56 37.0497 65.8322 37.3116C66.978 38.4243 68.0078 39.573 68.9516 40.8608C69.0095 40.9383 69.0673 41.0159 69.1269 41.0958C70.0145 42.2867 70.8073 43.5192 71.5395 44.8111C71.5935 44.9053 71.6476 44.9995 71.7033 45.0965C74.6253 50.2318 75.9635 56.0488 75.9406 61.9237C75.9402 62.1219 75.9402 62.1219 75.9398 62.3241C75.9336 64.279 75.8648 66.1812 75.4894 68.1047C75.4675 68.2269 75.4455 68.3491 75.423 68.475C74.223 75.1072 71.0299 81.2403 66.3637 86.0856C66.2776 86.1755 66.1915 86.2653 66.1028 86.3578C64.8573 87.6503 63.591 88.8408 62.1414 89.8998C61.9846 90.0167 61.8279 90.1336 61.6711 90.2504C60.5554 91.073 59.3969 91.8047 58.1915 92.488C58.0974 92.542 58.0032 92.5961 57.9062 92.6518C52.7715 95.5742 46.9551 96.9125 41.0809 96.8895C40.8828 96.8892 40.8828 96.8892 40.6806 96.8888C38.7259 96.8826 36.8239 96.8138 34.9007 96.4383C34.7785 96.4164 34.6563 96.3945 34.5304 96.3719C27.899 95.1718 21.7665 91.9783 16.9218 87.3116C16.832 87.2255 16.7421 87.1394 16.6496 87.0507C15.3573 85.805 14.1669 84.5386 13.1081 83.0888C12.9912 82.932 12.8743 82.7752 12.7574 82.6184C11.9351 81.5028 11.2019 80.3446 10.5202 79.1385C10.4654 79.0421 10.4106 78.9458 10.3542 78.8465C8.34485 75.2772 7.04612 71.3349 6.43407 67.2874C6.39799 67.058 6.39799 67.058 6.36118 66.824C6.1355 65.2421 6.10735 63.6732 6.11058 62.077C6.11066 61.9391 6.11073 61.8013 6.11081 61.6592C6.11635 59.4077 6.2394 57.2372 6.70647 55.0276C6.73639 54.8857 6.7663 54.7438 6.79712 54.5975C8.14719 48.4073 11.1196 42.5145 15.5809 37.9832C15.8458 37.7139 16.1076 37.4418 16.3695 37.1696C17.4821 36.0236 18.6306 34.9937 19.9182 34.0498C19.9958 33.992 20.0733 33.9341 20.1532 33.8745C21.3437 32.9869 22.5757 32.1923 23.8682 31.4616C23.9645 31.4069 24.0608 31.3521 24.16 31.2956C27.7214 29.2903 31.6742 27.9691 35.7179 27.3751C35.882 27.3509 36.046 27.3268 36.2151 27.3019C37.8028 27.0841 39.3779 27.0538 40.9788 27.0601ZM34.6283 36.638C34.5325 36.6609 34.4367 36.6839 34.338 36.7075C28.6426 38.1073 23.5329 41.7807 20.0544 46.4458C19.9693 46.5589 19.8841 46.6719 19.7964 46.7885C17.6388 49.7599 16.255 53.0978 15.4235 56.6622C15.3974 56.7716 15.3712 56.881 15.3442 56.9937C14.5699 60.4046 14.7493 64.455 15.5597 67.8322C15.5875 67.9518 15.6152 68.0714 15.6438 68.1946C17.051 74.0933 20.6638 79.3438 25.5026 82.9526C25.6722 83.0803 25.6722 83.0803 25.8452 83.2107C31.2957 87.1692 38.2497 88.8608 44.9051 87.8297C51.7577 86.6797 57.8413 83.0883 62.0052 77.5038C62.0904 77.3907 62.1755 77.2776 62.2633 77.1611C64.4208 74.1897 65.8047 70.8518 66.6361 67.2874C66.6754 67.1233 66.6754 67.1233 66.7154 66.9559C67.4897 63.545 67.3104 59.4946 66.4999 56.1174C66.4722 55.9978 66.4445 55.8782 66.4159 55.755C65.0087 49.8563 61.3958 44.6058 56.5571 40.997C56.444 40.9118 56.3309 40.8267 56.2144 40.7389C49.984 36.214 42.0705 34.8063 34.6283 36.638Z" fill="#FF9500"/>
<path d="M40.9788 27.0601C41.1109 27.0603 41.243 27.0606 41.3791 27.0608C43.3338 27.067 45.2357 27.1358 47.159 27.5113C47.3423 27.5442 47.3423 27.5442 47.5292 27.5777C50.7161 28.1544 53.7928 29.2082 56.6933 30.6443C56.7865 30.6905 56.8798 30.7366 56.9759 30.7842C59.9258 32.2637 62.6681 34.2081 65.0187 36.5229C65.288 36.7878 65.56 37.0497 65.8322 37.3116C66.978 38.4243 68.0078 39.573 68.9516 40.8608C69.0095 40.9383 69.0673 41.0159 69.1269 41.0958C70.0145 42.2867 70.8073 43.5192 71.5395 44.8111C71.5935 44.9053 71.6476 44.9995 71.7033 45.0965C74.6253 50.2318 75.9635 56.0488 75.9406 61.9237C75.9402 62.1219 75.9402 62.1219 75.9398 62.3241C75.9336 64.279 75.8648 66.1812 75.4894 68.1047C75.4675 68.2269 75.4455 68.3491 75.423 68.475C74.223 75.1072 71.0299 81.2403 66.3637 86.0856C66.2776 86.1755 66.1915 86.2653 66.1028 86.3578C64.8573 87.6503 63.591 88.8408 62.1414 89.8998C61.9846 90.0167 61.8279 90.1336 61.6711 90.2504C60.5554 91.073 59.3969 91.8047 58.1915 92.488C58.0974 92.542 58.0032 92.5961 57.9062 92.6518C52.7715 95.5742 46.9551 96.9125 41.0809 96.8895C40.8828 96.8892 40.8828 96.8892 40.6806 96.8888C38.7259 96.8826 36.8239 96.8138 34.9007 96.4383C34.7785 96.4164 34.6563 96.3945 34.5304 96.3719C27.899 95.1718 21.7665 91.9783 16.9218 87.3116C16.832 87.2255 16.7421 87.1394 16.6496 87.0507C15.3573 85.805 14.1669 84.5386 13.1081 83.0888C12.9912 82.932 12.8743 82.7752 12.7574 82.6184C11.9351 81.5028 11.2019 80.3446 10.5202 79.1385C10.4654 79.0421 10.4106 78.9458 10.3542 78.8465C8.34485 75.2772 7.04612 71.3349 6.43407 67.2874C6.39799 67.058 6.39799 67.058 6.36118 66.824C6.1355 65.2421 6.10735 63.6732 6.11058 62.077C6.11066 61.9391 6.11073 61.8013 6.11081 61.6592C6.11635 59.4077 6.2394 57.2372 6.70647 55.0276C6.73639 54.8857 6.7663 54.7438 6.79712 54.5975C8.14719 48.4073 11.1196 42.5145 15.5809 37.9832C15.8458 37.7139 16.1076 37.4418 16.3695 37.1696C17.4821 36.0236 18.6306 34.9937 19.9182 34.0498C19.9958 33.992 20.0733 33.9341 20.1532 33.8745C21.3437 32.9869 22.5757 32.1923 23.8682 31.4616C23.9645 31.4069 24.0608 31.3521 24.16 31.2956C27.7214 29.2903 31.6742 27.9691 35.7179 27.3751C35.882 27.3509 36.046 27.3268 36.2151 27.3019C37.8028 27.0841 39.3779 27.0538 40.9788 27.0601ZM34.7645 29.827C34.6675 29.8451 34.5705 29.8631 34.4706 29.8817C28.8311 30.947 23.6516 33.6686 19.3734 37.4553C19.2533 37.5603 19.1332 37.6653 19.0095 37.7735C16.3379 40.1384 14.1736 42.9304 12.427 46.0371C12.3773 46.1238 12.3275 46.2106 12.2762 46.2999C10.6359 49.1721 9.58769 52.2829 8.9283 55.5129C8.90069 55.6481 8.87308 55.7833 8.84463 55.9225C8.46175 57.8842 8.28513 59.8016 8.28984 61.796C8.28983 61.9043 8.28981 62.0126 8.28979 62.1242C8.29434 64.2454 8.50053 66.2886 8.88573 68.3771C8.90538 68.4877 8.92502 68.5983 8.94526 68.7123C10.0973 74.9816 13.5509 80.5703 17.8752 85.1321C18.0206 85.2862 18.0206 85.2862 18.1689 85.4434C18.8809 86.1773 19.662 86.8139 20.4631 87.4478C20.6603 87.6077 20.6603 87.6077 20.8616 87.7708C25.3909 91.3682 30.616 93.3756 36.2627 94.395C36.36 94.4135 36.4572 94.432 36.5575 94.451C44.2165 95.8733 52.9802 93.4854 59.3152 89.1591C62.0012 87.2802 64.4589 85.1157 66.4999 82.5439C66.6067 82.4122 66.7134 82.2805 66.8234 82.1449C69.089 79.2908 70.7016 76.1462 71.9481 72.7361C71.9846 72.6367 72.0212 72.5372 72.0588 72.4347C72.5409 71.1059 72.8776 69.7567 73.1739 68.3771C73.2018 68.2505 73.2298 68.1239 73.2585 67.9935C73.3333 67.6228 73.3925 67.253 73.4463 66.8787C73.4716 66.704 73.4969 66.5293 73.5229 66.3493C73.9785 62.8088 73.8492 59.207 73.1739 55.7087C73.1536 55.5961 73.1332 55.4835 73.1122 55.3675C71.9544 49.0122 68.5745 43.4486 64.1845 38.8175C64.0876 38.7148 63.9906 38.612 63.8908 38.5062C63.1789 37.7723 62.3981 37.135 61.5966 36.5018C61.4572 36.3904 61.3178 36.2791 61.1742 36.1644C60.133 35.3413 59.0558 34.5986 57.9191 33.9136C57.7852 33.8325 57.7852 33.8325 57.6486 33.7498C50.8147 29.66 42.561 28.3209 34.7645 29.827Z" fill="#FF9500"/>
<path d="M46.2053 34.05C46.3605 34.0773 46.3605 34.0773 46.5188 34.1052C52.2345 35.1345 57.2651 38.1508 61.3239 42.2231C61.417 42.3115 61.51 42.3998 61.6059 42.4908C66.3881 47.0826 69.2567 54.1648 69.3934 60.7394C69.4219 62.5677 69.4247 64.3952 69.0875 66.1978C69.0663 66.3213 69.045 66.4449 69.0231 66.5722C68.0733 72.0702 65.6786 76.8642 62.0049 81.0457C61.9168 81.1505 61.8286 81.2553 61.7378 81.3633C61.1949 82.0058 60.605 82.5485 59.9619 83.089C59.8296 83.2043 59.6974 83.3197 59.5612 83.4386C54.9865 87.4155 48.7863 90.2167 42.664 90.3086C42.5376 90.3119 42.4112 90.3152 42.281 90.3186C34.575 90.5089 27.3041 88.0089 21.6656 82.6732C16.4595 77.688 12.9219 70.8604 12.6841 63.5576C12.5612 55.9332 14.727 48.8774 19.8596 43.1248C20.0697 42.8866 20.2744 42.6442 20.4792 42.4014C20.762 42.0707 21.0476 41.7707 21.3821 41.491C21.6786 41.2401 21.9698 40.9889 22.252 40.7221C28.5157 34.8193 37.843 32.4935 46.2053 34.05ZM34.6279 36.6381C34.5322 36.6611 34.4364 36.684 34.3377 36.7076C28.6423 38.1075 23.5325 41.7809 20.0541 46.4459C19.969 46.559 19.8838 46.6721 19.7961 46.7886C17.6385 49.7601 16.2547 53.0979 15.4232 56.6624C15.3971 56.7718 15.3709 56.8812 15.3439 56.9939C14.5696 60.4048 14.749 64.4551 15.5594 67.8324C15.5872 67.952 15.6149 68.0716 15.6435 68.1948C17.0507 74.0935 20.6635 79.344 25.5023 82.9528C25.6719 83.0805 25.6719 83.0805 25.8449 83.2108C31.2954 87.1694 38.2494 88.861 44.9048 87.8298C51.7574 86.6799 57.8409 83.0885 62.0049 77.504C62.0901 77.3909 62.1752 77.2778 62.263 77.1613C64.4205 74.1899 65.8044 70.852 66.6358 67.2875C66.6751 67.1234 66.6751 67.1234 66.7151 66.956C67.4894 63.5451 67.3101 59.4948 66.4996 56.1175C66.4719 55.9979 66.4442 55.8784 66.4156 55.7552C65.0084 49.8565 61.3955 44.6059 56.5568 40.9972C56.4437 40.912 56.3306 40.8268 56.2141 40.7391C49.9837 36.2141 42.0702 34.8065 34.6279 36.6381Z" fill="#FF9500"/>
<path d="M37.9692 43.3783C38.1201 43.3765 38.271 43.3748 38.4265 43.373C38.5888 43.3741 38.7512 43.3753 38.9184 43.3764C39.0856 43.3759 39.2529 43.3753 39.4252 43.3748C39.7787 43.3744 40.1323 43.3754 40.4858 43.3777C41.0275 43.3806 41.569 43.3777 42.1107 43.3743C42.454 43.3746 42.7974 43.3753 43.1407 43.3764C43.303 43.3753 43.4654 43.3742 43.6326 43.373C43.859 43.3756 43.859 43.3756 44.0899 43.3783C44.2225 43.3787 44.3552 43.3791 44.4919 43.3796C44.9515 43.4701 45.0945 43.6335 45.3881 43.9936C45.453 44.3208 45.453 44.3208 45.4481 44.6933C45.4474 44.8358 45.4466 44.9784 45.4459 45.1253C45.4421 45.2822 45.4382 45.4391 45.4343 45.6007C45.4321 45.7682 45.43 45.9356 45.4278 46.1082C45.4187 46.6749 45.4045 47.2412 45.3881 47.8078C45.3853 47.9065 45.3825 48.0052 45.3796 48.1069C45.3342 49.6665 45.2732 51.2253 45.209 52.7842C45.1937 53.1574 45.1786 53.5305 45.1636 53.9037C45.1109 55.2094 45.0574 56.515 45.0032 57.8206C44.9528 59.0328 44.9045 60.2451 44.857 61.4574C44.8158 62.5054 44.7733 63.5534 44.7296 64.6013C44.7037 65.2242 44.6783 65.8472 44.6544 66.4702C44.632 67.0534 44.6078 67.6365 44.5823 68.2196C44.5733 68.4329 44.5649 68.6462 44.5571 68.8596C44.5465 69.1514 44.5335 69.4431 44.52 69.7348C44.51 69.9792 44.51 69.9792 44.4998 70.2286C44.4229 70.7764 44.2761 71.1538 44.026 71.6462C43.5699 71.8743 43.0562 71.8105 42.5544 71.8149C42.3755 71.8165 42.3755 71.8165 42.193 71.8182C41.9405 71.8201 41.6879 71.8215 41.4353 71.8226C41.049 71.825 40.6629 71.8309 40.2767 71.8369C40.0314 71.8383 39.7862 71.8395 39.5409 71.8404C39.4254 71.8428 39.3099 71.8452 39.1909 71.8476C38.3933 71.8447 38.3933 71.8447 37.9644 71.5404C37.5927 70.9877 37.5996 70.4393 37.5719 69.784C37.5679 69.6928 37.5639 69.6015 37.5597 69.5076C37.5464 69.2019 37.534 68.8962 37.5215 68.5906C37.5121 68.3712 37.5027 68.1518 37.4932 67.9325C37.4677 67.3356 37.4428 66.7388 37.4181 66.1419C37.3974 65.6412 37.3763 65.1404 37.3551 64.6397C37.3052 63.4544 37.2558 62.269 37.2068 61.0836C37.1567 59.87 37.1055 58.6565 37.0539 57.443C37.0093 56.3958 36.9654 55.3485 36.922 54.3013C36.8962 53.6784 36.8701 53.0555 36.8434 52.4326C36.7777 50.8912 36.7168 49.3499 36.671 47.8078C36.6681 47.7095 36.6652 47.6111 36.6622 47.5098C36.644 46.8732 36.6323 46.2367 36.6243 45.5998C36.6186 45.3646 36.6186 45.3646 36.6127 45.1246C36.6121 44.9821 36.6114 44.8396 36.6107 44.6928C36.6091 44.5699 36.6076 44.4471 36.606 44.3206C36.7558 43.5676 37.267 43.3805 37.9692 43.3783Z" fill="#FF9500"/>
<path d="M38.9868 45.6284C40.3352 45.6284 41.6836 45.6284 43.0729 45.6284C43.0869 48.1256 43.0394 50.6081 42.9287 53.1024C42.9137 53.4542 42.8987 53.8059 42.8839 54.1577C42.8489 54.9812 42.8133 55.8047 42.7773 56.6282C42.7249 57.8262 42.6737 59.0242 42.6225 60.2222C42.5857 61.0839 42.5487 61.9456 42.5111 62.8072C42.4129 65.0721 42.3305 67.3372 42.2556 69.603C41.4466 69.603 40.6375 69.603 39.804 69.603C39.6968 66.8794 39.5902 64.1558 39.4843 61.4321C39.4351 60.1672 39.3858 58.9023 39.3359 57.6374C39.2924 56.5337 39.2493 55.4299 39.2066 54.3262C39.184 53.7429 39.1613 53.1596 39.1381 52.5763C39.046 50.2593 38.9622 47.9479 38.9868 45.6284Z" fill="#FF9500"/>
<path d="M42.5873 74.1665C43.3807 74.646 44.0235 75.3909 44.2983 76.2777C44.408 77.345 44.4515 78.4051 43.7535 79.2742C43.0991 79.9613 42.5057 80.4463 41.5376 80.5458C40.3776 80.5585 39.5753 80.516 38.7188 79.7003C37.8496 78.76 37.6951 78.0209 37.7191 76.747C37.8138 75.6761 38.3119 75.1132 39.1093 74.4315C40.0715 73.7685 41.5189 73.6931 42.5873 74.1665Z" fill="#FF9500"/>
<path d="M41.7103 76.2777C41.9913 76.4905 41.9913 76.4905 42.119 76.8225C42.1432 77.2109 42.1093 77.5434 41.9828 77.9122C41.5825 78.3006 41.3649 78.3208 40.808 78.3208C40.3483 78.1846 40.3483 78.1846 40.0759 77.8951C39.8978 77.383 39.9314 77.0703 40.0759 76.5501C40.5095 75.9952 41.0914 76.0889 41.7103 76.2777Z" fill="#FF9500"/>
</svg>
