<svg width="82" height="103" viewBox="0 0 82 103" fill="none" xmlns="http://www.w3.org/2000/svg">
<ellipse cx="43.6452" cy="5.67021" rx="5.73118" ry="5.67021" fill="#FE4035" fill-opacity="0.6"/>
<ellipse cx="79.7956" cy="28.3509" rx="2.2043" ry="2.18085" fill="#FE4035" fill-opacity="0.6"/>
<path d="M79.2325 6.38954C81.0871 10.9127 78.8862 16.0676 74.3167 17.9034C73.8126 18.1059 73.3008 18.2595 72.7865 18.3666C69.9249 18.9623 66.7292 19.7724 65.198 22.2384C63.4103 25.1174 64.3873 28.8563 67.0271 30.9994C72.2905 35.2725 76.5496 40.9045 79.1955 47.6307C87.4095 68.5114 76.9675 92.0296 55.8727 100.16C34.7779 108.291 11.0185 97.9549 2.80446 77.0742C-5.40952 56.1936 5.03244 32.6753 26.1272 24.5447C35.341 20.9934 45.0632 20.9651 53.7763 23.7997C56.9322 24.8264 60.5303 23.8536 62.2698 21.0521L62.9166 20.0105C64.1993 17.9447 63.606 15.2842 62.6847 13.0374C60.8302 8.51428 63.0311 3.35936 67.6006 1.5236C72.1701 -0.312163 77.3779 1.86639 79.2325 6.38954Z" fill="#FE4035" fill-opacity="0.6"/>
<circle cx="40.5639" cy="62.3722" r="34.4574" fill="white"/>
<circle cx="41.4359" cy="62.3725" r="34.4574" fill="white"/>
<path d="M40.8468 28.0007C40.9788 28.001 41.1108 28.0012 41.2468 28.0015C43.2004 28.0077 45.1011 28.0765 47.0232 28.4517C47.2063 28.4845 47.2063 28.4845 47.3932 28.5181C50.5781 29.0944 53.6529 30.1476 56.5515 31.5828C56.6448 31.6289 56.738 31.675 56.834 31.7226C59.7821 33.2011 62.5226 35.1443 64.8718 37.4577C65.1409 37.7225 65.4128 37.9842 65.6848 38.2459C66.8299 39.358 67.8591 40.5059 68.8023 41.7929C68.8601 41.8704 68.9179 41.9479 68.9775 42.0277C69.8645 43.2179 70.6568 44.4497 71.3885 45.7408C71.4426 45.8349 71.4966 45.929 71.5522 46.026C74.4725 51.1581 75.8098 56.9715 75.7869 62.8428C75.7865 63.0408 75.7865 63.0408 75.7861 63.2429C75.78 65.1966 75.7112 67.0976 75.336 69.0199C75.3141 69.142 75.2922 69.2641 75.2696 69.3899C74.0704 76.018 70.8793 82.1474 66.216 86.9897C66.13 87.0795 66.0439 87.1692 65.9553 87.2617C64.7105 88.5534 63.445 89.7432 61.9963 90.8015C61.8396 90.9183 61.683 91.0351 61.5263 91.1519C60.4113 91.974 59.2535 92.7052 58.0489 93.388C57.9548 93.4421 57.8607 93.4961 57.7637 93.5518C52.6322 96.4723 46.8194 97.8098 40.9489 97.7869C40.7508 97.7865 40.7508 97.7865 40.5488 97.7862C38.5953 97.78 36.6945 97.7112 34.7724 97.336C34.6503 97.314 34.5282 97.2921 34.4024 97.2696C27.7751 96.0702 21.6465 92.8788 16.8047 88.2149C16.7149 88.1289 16.6252 88.0428 16.5327 87.9541C15.2412 86.7093 14.0515 85.4436 12.9934 83.9947C12.8766 83.838 12.7598 83.6813 12.643 83.5246C11.8211 82.4097 11.0884 81.2522 10.4071 80.0468C10.3523 79.9505 10.2976 79.8543 10.2412 79.7551C8.23312 76.188 6.93519 72.2482 6.32351 68.2031C6.28746 67.9739 6.28746 67.9739 6.25067 67.74C6.02513 66.1591 5.997 64.5912 6.00023 62.9959C6.0003 62.8581 6.00038 62.7204 6.00045 62.5784C6.006 60.3283 6.12897 58.1592 6.59575 55.9509C6.62565 55.8091 6.65554 55.6673 6.68634 55.5211C8.03557 49.3348 11.0061 43.4456 15.4646 38.9171C15.7294 38.648 15.991 38.376 16.2528 38.104C17.3647 36.9588 18.5125 35.9295 19.7993 34.9862C19.8768 34.9283 19.9543 34.8705 20.0341 34.8109C21.2239 33.9239 22.4551 33.1298 23.7468 32.3996C23.8431 32.3448 23.9393 32.2901 24.0385 32.2337C27.5977 30.2296 31.548 28.9092 35.5892 28.3155C35.7531 28.2914 35.9171 28.2673 36.0861 28.2424C37.6728 28.0247 39.2469 27.9945 40.8468 28.0007ZM34.5002 37.5727C34.4045 37.5956 34.3088 37.6186 34.2102 37.6422C28.5183 39.0412 23.4117 42.7123 19.9354 47.3744C19.8503 47.4874 19.7652 47.6005 19.6776 47.7169C17.5213 50.6865 16.1383 54.0223 15.3074 57.5846C15.2812 57.6939 15.2551 57.8032 15.2282 57.9159C14.4543 61.3246 14.6336 65.3724 15.4435 68.7476C15.4712 68.8671 15.499 68.9866 15.5275 69.1098C16.9338 75.0048 20.5444 80.2521 25.3802 83.8586C25.5497 83.9863 25.5497 83.9863 25.7226 84.1165C31.1697 88.0726 38.1194 89.7632 44.7707 88.7326C51.6191 87.5834 57.6988 83.9942 61.8602 78.4132C61.9453 78.3002 62.0304 78.1872 62.1181 78.0707C64.2743 75.1011 65.6573 71.7653 66.4883 68.2031C66.5275 68.0391 66.5275 68.0391 66.5675 67.8718C67.3413 64.463 67.1621 60.4152 66.3521 57.04C66.3244 56.9205 66.2967 56.801 66.2681 56.6779C64.8618 50.7828 61.2512 45.5356 56.4154 41.929C56.3024 41.8439 56.1894 41.7588 56.073 41.6711C49.8465 37.1489 41.9378 35.7422 34.5002 37.5727Z" fill="#FE4035"/>
<path d="M40.9532 27.9155C41.0852 27.9158 41.2173 27.916 41.3533 27.9163C43.3068 27.9225 45.2076 27.9912 47.1296 28.3664C47.3128 28.3993 47.3128 28.3993 47.4996 28.4328C50.6845 29.0091 53.7593 30.0621 56.658 31.4972C56.7512 31.5433 56.8444 31.5894 56.9405 31.6369C59.8885 33.1153 62.6291 35.0583 64.9782 37.3714C65.2473 37.6361 65.5192 37.8978 65.7913 38.1596C66.9363 39.2714 67.9655 40.4193 68.9087 41.7061C68.9665 41.7836 69.0244 41.8611 69.0839 41.9409C69.971 43.131 70.7633 44.3626 71.495 45.6536C71.549 45.7477 71.603 45.8418 71.6587 45.9387C74.5789 51.0702 75.9163 56.883 75.8933 62.7536C75.893 62.9516 75.893 62.9516 75.8926 63.1536C75.8864 65.1071 75.8176 67.0079 75.4425 68.93C75.4205 69.0521 75.3986 69.1742 75.3761 69.3C74.1768 75.9273 70.9858 82.056 66.3225 86.8977C66.2364 86.9875 66.1504 87.0772 66.0617 87.1697C64.817 88.4612 63.5514 89.6509 62.1028 90.7091C61.9461 90.8259 61.7894 90.9427 61.6327 91.0595C60.5177 91.8814 59.36 92.6125 58.1553 93.2953C58.0612 93.3493 57.9671 93.4034 57.8702 93.459C52.7386 96.3793 46.9259 97.7166 41.0553 97.6937C40.8573 97.6933 40.8573 97.6933 40.6552 97.6929C38.7017 97.6868 36.801 97.618 34.8789 97.2428C34.7568 97.2209 34.6347 97.199 34.5089 97.1764C27.8816 95.9772 21.7529 92.7861 16.9111 88.1228C16.8214 88.0367 16.7316 87.9507 16.6392 87.8621C15.3476 86.6173 14.158 85.3518 13.0998 83.9031C12.983 83.7464 12.8662 83.5897 12.7494 83.4331C11.9276 82.3183 11.1949 81.1609 10.5135 79.9556C10.4588 79.8594 10.404 79.7631 10.3476 79.6639C8.33956 76.0972 7.04163 72.1579 6.42996 68.1133C6.3939 67.8841 6.3939 67.8841 6.35711 67.6503C6.13158 66.0695 6.10345 64.5018 6.10668 62.9067C6.10675 62.7689 6.10682 62.6312 6.1069 62.4893C6.11244 60.2394 6.23541 58.0705 6.7022 55.8625C6.73209 55.7207 6.76199 55.5789 6.79279 55.4328C8.14202 49.2471 11.1125 43.3586 15.5711 38.8307C15.8358 38.5615 16.0975 38.2896 16.3592 38.0176C17.4711 36.8725 18.6189 35.8434 19.9058 34.9001C19.9833 34.8423 20.0608 34.7845 20.1406 34.7249C21.3304 33.838 22.5616 33.044 23.8532 32.3139C23.9495 32.2591 24.0458 32.2044 24.1449 32.148C27.7041 30.1441 31.6545 28.8239 35.6956 28.2303C35.8596 28.2062 36.0236 28.182 36.1925 28.1572C37.7793 27.9395 39.3534 27.9093 40.9532 27.9155ZM34.7428 30.6804C34.6459 30.6985 34.5489 30.7165 34.4491 30.7351C28.8131 31.7996 23.6368 34.5192 19.3613 38.3031C19.2413 38.4081 19.1213 38.513 18.9976 38.6211C16.3277 40.9842 14.1647 43.7742 12.4192 46.8786C12.3695 46.9653 12.3197 47.052 12.2685 47.1412C10.6292 50.0114 9.58163 53.1198 8.92264 56.3474C8.89505 56.4825 8.86746 56.6176 8.83903 56.7568C8.45638 58.717 8.27987 60.6329 8.28458 62.6259C8.28457 62.7342 8.28455 62.8424 8.28453 62.9539C8.28908 65.0735 8.49514 67.1152 8.88011 69.2022C8.89974 69.3127 8.91937 69.4233 8.93959 69.5371C10.0909 75.8019 13.5423 81.3864 17.864 85.9449C18.0093 86.0989 18.0093 86.0989 18.1575 86.2559C18.869 86.9894 19.6497 87.6254 20.4502 88.2589C20.6474 88.4187 20.6474 88.4187 20.8485 88.5817C25.375 92.1764 30.5969 94.1823 36.2401 95.201C36.3373 95.2195 36.4345 95.2379 36.5347 95.257C44.189 96.6781 52.9472 94.292 59.2783 89.9689C61.9626 88.0914 64.4188 85.9285 66.4586 83.3586C66.5653 83.227 66.6719 83.0954 66.7819 82.9598C69.046 80.1078 70.6576 76.9656 71.9034 73.558C71.9399 73.4586 71.9764 73.3592 72.014 73.2568C72.4958 71.9289 72.8323 70.5808 73.1284 69.2022C73.1563 69.0757 73.1842 68.9492 73.213 68.8188C73.2877 68.4485 73.3469 68.0789 73.4007 67.7049C73.4259 67.5303 73.4512 67.3557 73.4772 67.1758C73.9325 63.638 73.8032 60.0389 73.1284 56.5431C73.1081 56.4306 73.0877 56.3181 73.0667 56.2022C71.9097 49.8516 68.5318 44.292 64.1445 39.6643C64.0477 39.5617 63.9508 39.459 63.851 39.3533C63.1396 38.6199 62.3593 37.9831 61.5583 37.3503C61.419 37.239 61.2796 37.1278 61.1361 37.0132C60.0956 36.1906 59.019 35.4485 57.8831 34.764C57.7493 34.683 57.7493 34.683 57.6127 34.6003C50.7831 30.5135 42.5345 29.1754 34.7428 30.6804Z" fill="#FE4035"/>
<path d="M32.6784 48.037C33.205 48.2328 33.5487 48.6358 33.9331 49.0429C34.1092 49.2215 34.1092 49.2215 34.2888 49.4036C34.7127 49.8336 35.1313 50.269 35.55 50.7044C35.7041 50.8643 35.8583 51.0241 36.0125 51.1839C36.4152 51.6015 36.8176 52.0194 37.2199 52.4374C37.6316 52.8652 38.0438 53.2926 38.4559 53.72C39.2622 54.5563 40.0681 55.3931 40.8738 56.2302C41.3897 56.0183 41.7336 55.6352 42.1154 55.2334C42.1876 55.1584 42.2599 55.0834 42.3344 55.0061C42.5728 54.7584 42.8102 54.5099 43.0477 54.2613C43.2132 54.0891 43.3789 53.9169 43.5445 53.7448C43.9802 53.2919 44.4152 52.8383 44.85 52.3844C45.5467 51.6573 46.2442 50.9311 46.9422 50.2054C47.1862 49.9513 47.4297 49.6969 47.6733 49.4424C47.8221 49.2873 47.9711 49.1323 48.12 48.9772C48.1879 48.906 48.2558 48.8348 48.3258 48.7615C48.7399 48.3313 48.9389 48.1507 49.5253 48.0544C50.2984 48.068 50.7223 48.6373 51.2336 49.1776C51.3386 49.2854 51.4436 49.3931 51.5518 49.5041C51.7728 49.7322 51.9925 49.9617 52.211 50.1923C52.5457 50.5445 52.8855 50.8908 53.2261 51.2368C53.4404 51.4594 53.6543 51.6823 53.8679 51.9055C53.9697 52.0088 54.0714 52.112 54.1762 52.2183C54.9433 53.04 54.9433 53.04 55 53.6255C54.9188 54.3171 54.4592 54.7178 53.9981 55.1847C53.8256 55.3671 53.8256 55.3671 53.6497 55.5531C53.2344 55.992 52.8141 56.4255 52.3935 56.859C52.2392 57.0187 52.0848 57.1783 51.9305 57.338C51.5273 57.755 51.1237 58.1717 50.72 58.5883C50.3069 59.0147 49.8942 59.4415 49.4814 59.8682C48.6738 60.7032 47.8657 61.5377 47.0574 62.372C47.2619 62.9062 47.6319 63.2624 48.0199 63.6577C48.1286 63.7699 48.1286 63.7699 48.2394 63.8845C48.4786 64.1313 48.7186 64.3772 48.9587 64.6231C49.125 64.7946 49.2913 64.966 49.4575 65.1376C49.8948 65.5888 50.3329 66.0392 50.7712 66.4894C51.4733 67.2109 52.1746 67.9332 52.8755 68.6559C53.1208 68.9086 53.3665 69.1608 53.6122 69.413C53.762 69.5672 53.9117 69.7214 54.0615 69.8756C54.1302 69.9459 54.199 70.0162 54.2698 70.0887C54.6852 70.5175 54.8596 70.7236 54.9527 71.3308C54.9395 72.1314 54.3898 72.5703 53.8679 73.0998C53.7639 73.2086 53.6599 73.3173 53.5527 73.4293C53.3324 73.6582 53.1108 73.8857 52.8881 74.1119C52.548 74.4586 52.2136 74.8104 51.8794 75.1631C51.6645 75.385 51.4492 75.6065 51.2336 75.8277C51.1339 75.9331 51.0343 76.0384 50.9316 76.1469C50.1381 76.9413 50.1381 76.9413 49.5726 77C48.9047 76.9159 48.5178 76.44 48.0669 75.9625C47.9495 75.8434 47.8321 75.7244 47.7112 75.6017C47.2873 75.1717 46.8687 74.7364 46.45 74.3009C46.2959 74.1411 46.1417 73.9812 45.9875 73.8214C45.5848 73.4039 45.1824 72.986 44.7801 72.5679C44.3684 72.1402 43.9562 71.7128 43.5441 71.2854C42.7378 70.449 41.9319 69.6123 41.1262 68.7752C40.6103 68.987 40.2664 69.3702 39.8846 69.7719C39.7762 69.8845 39.7762 69.8845 39.6656 69.9993C39.4272 70.2469 39.1898 70.4955 38.9523 70.7441C38.7867 70.9163 38.6211 71.0885 38.4555 71.2606C38.0198 71.7135 37.5848 72.1671 37.15 72.621C36.4533 73.348 35.7558 74.0742 35.0578 74.8C34.8138 75.054 34.5703 75.3085 34.3267 75.5629C34.1779 75.718 34.0289 75.8731 33.88 76.0281C33.8121 76.0993 33.7442 76.1705 33.6742 76.2439C33.2601 76.674 33.0611 76.8546 32.4747 76.951C31.7016 76.9374 31.2777 76.3681 30.7664 75.8277C30.6614 75.72 30.5564 75.6122 30.4482 75.5012C30.2272 75.2731 30.0075 75.0437 29.789 74.8131C29.4543 74.4609 29.1145 74.1146 28.7739 73.7685C28.5596 73.546 28.3457 73.3231 28.1321 73.0998C28.0303 72.9966 27.9286 72.8934 27.8238 72.787C27.0567 71.9654 27.0567 71.9654 27 71.3798C27.0812 70.6882 27.5408 70.2875 28.0019 69.8206C28.1169 69.6991 28.2319 69.5775 28.3503 69.4523C28.7656 69.0133 29.1859 68.5798 29.6065 68.1463C29.7608 67.9867 29.9152 67.8271 30.0695 67.6674C30.4727 67.2503 30.8763 66.8337 31.28 66.4171C31.6931 65.9907 32.1058 65.5639 32.5186 65.1372C33.3262 64.3022 34.1343 63.4676 34.9426 62.6334C34.7381 62.0992 34.3681 61.743 33.9801 61.3477C33.9077 61.2728 33.8352 61.198 33.7606 61.1209C33.5214 60.874 33.2814 60.6282 33.0413 60.3822C32.875 60.2108 32.7087 60.0393 32.5425 59.8678C32.1052 59.4166 31.6671 58.9662 31.2288 58.5159C30.5267 57.7945 29.8254 57.0722 29.1245 56.3494C28.8792 56.0968 28.6335 55.8445 28.3878 55.5924C28.238 55.4382 28.0883 55.284 27.9385 55.1298C27.8698 55.0595 27.801 54.9891 27.7301 54.9167C27.3148 54.4879 27.1404 54.2817 27.0473 53.6745C27.0605 52.874 27.6102 52.4351 28.1321 51.9055C28.2361 51.7968 28.3401 51.6881 28.4473 51.576C28.6676 51.3472 28.8892 51.1197 29.1119 50.8934C29.452 50.5468 29.7864 50.195 30.1206 49.8423C30.3355 49.6204 30.5508 49.3988 30.7664 49.1776C30.8661 49.0723 30.9657 48.967 31.0684 48.8584C31.9772 47.9487 31.9772 47.9487 32.6784 48.037Z" fill="#FE4035"/>
<path d="M33.9465 53.613C34.3684 53.7794 34.6496 54.0851 34.9615 54.4021C35.0211 54.4618 35.0806 54.5215 35.142 54.583C35.3384 54.78 35.5341 54.9778 35.7297 55.1755C35.8661 55.3125 36.0026 55.4495 36.1391 55.5864C36.498 55.9468 36.8564 56.3077 37.2147 56.6687C37.7887 57.2472 38.3634 57.8249 38.9385 58.4023C39.1395 58.6044 39.3402 58.8069 39.5409 59.0093C39.6635 59.1327 39.7862 59.2561 39.9089 59.3794C39.9649 59.4361 40.0209 59.4927 40.0785 59.5511C40.4605 59.9351 40.4605 59.9351 40.9614 60.1041C41.8965 59.9656 42.802 58.6726 43.4563 58.0154C43.5834 57.888 43.7106 57.7607 43.8378 57.6334C44.1701 57.3007 44.5021 56.9677 44.834 56.6347C45.1737 56.2939 45.5137 55.9535 45.8537 55.6129C46.519 54.9466 47.1839 54.2799 47.8486 53.613C48.2088 53.7826 48.4414 53.9776 48.7223 54.2623C48.8086 54.3493 48.8949 54.4362 48.9838 54.5258C49.073 54.6168 49.1622 54.7077 49.2542 54.8014C49.3449 54.8931 49.4357 54.9848 49.5293 55.0793C49.7532 55.3056 49.9767 55.5324 50.1997 55.7597C50.0333 56.1817 49.7276 56.4628 49.4107 56.7748C49.351 56.8343 49.2913 56.8939 49.2298 56.9552C49.0327 57.1516 48.835 57.3473 48.6372 57.543C48.5002 57.6794 48.3632 57.8158 48.2263 57.9523C47.866 58.3113 47.5051 58.6697 47.144 59.0279C46.5656 59.6019 45.9878 60.1766 45.4104 60.7517C45.2083 60.9527 45.0059 61.1534 44.8034 61.3541C44.68 61.4768 44.5567 61.5994 44.4333 61.7221C44.3767 61.7781 44.32 61.8341 44.2616 61.8918C43.8777 62.2737 43.8777 62.2737 43.7086 62.7747C43.8472 63.7098 45.1402 64.6152 45.7974 65.2695C45.9247 65.3967 46.0521 65.5238 46.1793 65.651C46.512 65.9833 46.845 66.3153 47.1781 66.6472C47.5188 66.9869 47.8593 67.3269 48.1998 67.6669C48.8661 68.3322 49.5328 68.9971 50.1997 69.6618C50.0302 70.022 49.8351 70.2546 49.5504 70.5355C49.4635 70.6218 49.3765 70.7081 49.2869 70.7971C49.196 70.8863 49.1051 70.9755 49.0114 71.0674C48.9197 71.1582 48.828 71.249 48.7335 71.3425C48.5071 71.5665 48.2803 71.7899 48.0531 72.0129C47.6311 71.8465 47.3499 71.5409 47.038 71.2239C46.9784 71.1642 46.9189 71.1045 46.8575 71.043C46.6611 70.846 46.4655 70.6482 46.2698 70.4505C46.1334 70.3134 45.9969 70.1765 45.8605 70.0395C45.5015 69.6792 45.1431 69.3183 44.7848 68.9573C44.2108 68.3788 43.6361 67.8011 43.0611 67.2236C42.86 67.0216 42.6593 66.8191 42.4587 66.6167C42.336 66.4933 42.2133 66.3699 42.0906 66.2466C42.0066 66.1616 42.0066 66.1616 41.921 66.0749C41.539 65.6909 41.539 65.6909 41.0381 65.5219C40.103 65.6604 39.1976 66.9534 38.5432 67.6106C38.4161 67.738 38.2889 67.8653 38.1617 67.9926C37.8294 68.3253 37.4975 68.6582 37.1655 68.9913C36.8258 69.3321 36.4858 69.6725 36.1458 70.013C35.4806 70.6794 34.8156 71.3461 34.1509 72.0129C33.7907 71.8434 33.5581 71.6484 33.2772 71.3637C33.1909 71.2767 33.1046 71.1897 33.0157 71.1001C32.9265 71.0092 32.8373 70.9183 32.7454 70.8246C32.6092 70.687 32.6092 70.687 32.4702 70.5467C32.2463 70.3203 32.0228 70.0935 31.7998 69.8663C31.9662 69.4443 32.2719 69.1631 32.5889 68.8512C32.6784 68.7619 32.6784 68.7619 32.7697 68.6707C32.9668 68.4744 33.1645 68.2787 33.3623 68.083C33.4993 67.9466 33.6363 67.8102 33.7732 67.6737C34.1335 67.3147 34.4944 66.9563 34.8555 66.5981C35.4339 66.024 36.0117 65.4493 36.5891 64.8743C36.7912 64.6732 36.9936 64.4726 37.1961 64.2719C37.3195 64.1492 37.4428 64.0265 37.5662 63.9038C37.6228 63.8479 37.6795 63.7919 37.7379 63.7342C38.1218 63.3522 38.1218 63.3522 38.2909 62.8513C38.1523 61.9162 36.8594 61.0108 36.2021 60.3565C36.0748 60.2293 35.9475 60.1021 35.8202 59.975C35.4875 59.6427 35.1545 59.3107 34.8215 58.9788C34.4807 58.6391 34.1402 58.299 33.7997 57.9591C33.1334 57.2938 32.4667 56.6289 31.7998 55.9641C31.9694 55.604 32.1644 55.3714 32.4491 55.0905C32.536 55.0042 32.623 54.9178 32.7126 54.8289C32.8035 54.7397 32.8945 54.6505 32.9881 54.5586C33.0798 54.4678 33.1716 54.377 33.266 54.2835C33.4924 54.0595 33.7192 53.8361 33.9465 53.613Z" fill="#FE4035"/>
</svg>
