<svg width="50" height="50" viewBox="0 0 50 50" fill="none" xmlns="http://www.w3.org/2000/svg">
<circle cx="25" cy="25" r="25" fill="url(#paint0_linear_1663_5433)"/>
<path d="M27.9336 15.8566L34.1432 22.0663C34.8867 22.8099 35.1157 23.9251 34.7252 24.9016L31.6165 32.6731C31.2623 33.5589 30.4558 34.184 29.5077 34.3043L22.8317 35.1373C22.66 35.1581 22.4795 35.1829 22.2918 35.2113L21.7089 35.3064C21.6088 35.3238 21.5072 35.3419 21.4045 35.3607L20.4544 35.5461L19.803 35.6839L18.824 35.9037L17.5681 36.2033L15.5285 36.7237L14.6793 36.9525C14.2645 37.0671 13.7578 36.9823 13.3877 36.6123C13.0588 36.2833 12.9553 35.8464 13.0168 35.462L13.0614 35.2704L13.4496 33.8088L13.7967 32.4319L14.0963 31.176L14.3161 30.1969L14.454 29.5455L14.6393 28.5954L14.7436 27.9947L14.8286 27.4321L15.6957 20.4922C15.8159 19.5441 16.4411 18.7376 17.3269 18.3833L25.0984 15.2747C26.0747 14.8842 27.19 15.1131 27.9336 15.8566ZM23.0587 23.2232C22.3585 23.9234 22.1359 24.9202 22.3907 25.809C22.2974 25.8642 22.2094 25.9319 22.1292 26.0121L16.7951 31.3461C16.76 31.3813 16.7356 31.4256 16.7246 31.474L16.608 31.9803L16.3746 32.9571C16.3362 33.1145 16.2981 33.2687 16.2608 33.4189C16.2127 33.6121 16.3879 33.7872 16.581 33.7393L17.5241 33.5091L18.5264 33.2753C18.5748 33.2642 18.6191 33.2398 18.6543 33.2047L23.988 27.8709C24.0683 27.7906 24.1361 27.7026 24.1912 27.609C25.0799 27.8636 26.0764 27.6409 26.7764 26.9409C27.803 25.9143 27.803 24.2497 26.7764 23.2232C25.7498 22.1966 24.0853 22.1966 23.0587 23.2232ZM29.1797 13.385C29.6535 12.9112 30.3991 12.8747 30.9147 13.2756L31.0386 13.385L36.615 18.9615C37.1283 19.4749 37.1283 20.3071 36.615 20.8204C36.1413 21.2942 35.3956 21.3307 34.88 20.9297L34.7562 20.8204L29.1797 15.2438C28.6663 14.7305 28.6663 13.8983 29.1797 13.385Z" fill="white"/>
<defs>
<linearGradient id="paint0_linear_1663_5433" x1="20.0893" y1="3.14224e-07" x2="45.8142" y2="45.5938" gradientUnits="userSpaceOnUse">
<stop stop-color="#16968C"/>
<stop offset="1" stop-color="#0E3434"/>
</linearGradient>
</defs>
</svg>
