<svg width="17" height="20" viewBox="0 0 17 20" fill="none" xmlns="http://www.w3.org/2000/svg">
<path fill-rule="evenodd" clip-rule="evenodd" d="M0.822426 1.003C1.34902 0.498353 2.06323 0.214844 2.80794 0.214844H9.28534C9.53922 0.214844 9.7827 0.311495 9.96222 0.483534L16.4396 6.69105C16.6191 6.86309 16.72 7.09642 16.72 7.33972V17.0944C16.72 17.8081 16.4242 18.4925 15.8976 18.9972C15.371 19.5018 14.6568 19.7853 13.9121 19.7853H2.80794C2.06323 19.7853 1.34902 19.5018 0.822426 18.9972C0.295836 18.4925 0 17.8081 0 17.0944V2.90578C0 2.1921 0.295835 1.50765 0.822426 1.003ZM2.80794 2.04958C2.57098 2.04958 2.34374 2.13978 2.17618 2.30035C2.00863 2.46092 1.9145 2.6787 1.9145 2.90578V17.0944C1.9145 17.3215 2.00863 17.5392 2.17618 17.6998C2.34374 17.8604 2.57099 17.9506 2.80794 17.9506H13.9121C14.149 17.9506 14.3763 17.8604 14.5438 17.6998C14.7114 17.5392 14.8055 17.3215 14.8055 17.0944V7.71971L8.88883 2.04958H2.80794Z" fill="#00B3A5"/>
<path fill-rule="evenodd" clip-rule="evenodd" d="M9.28538 0.214844C9.81405 0.214844 10.2426 0.625563 10.2426 1.13221V6.42236H15.7628C16.2915 6.42236 16.72 6.83308 16.72 7.33972C16.72 7.84637 16.2915 8.25709 15.7628 8.25709H9.28538C8.7567 8.25709 8.32812 7.84637 8.32812 7.33972V1.13221C8.32812 0.625563 8.7567 0.214844 9.28538 0.214844Z" fill="#00B3A5"/>
<path d="M5.95112 14.793L5.11168 13.6226L4.37203 14.793H3.23321L4.55401 12.8495L3.20386 10.9714H4.37203L5.19973 12.1255L5.92764 10.9714H7.06646L5.7574 12.8985L7.11929 14.793H5.95112Z" fill="#00B3A5"/>
<path d="M8.62702 14.0744H9.94195V14.793H7.62321V10.9714H8.62702V14.0744Z" fill="#00B3A5"/>
<path d="M11.9118 14.8311C11.6104 14.8311 11.3404 14.7857 11.1017 14.695C10.863 14.6043 10.6712 14.47 10.5264 14.2922C10.3855 14.1143 10.3112 13.9002 10.3033 13.6498H11.3717C11.3874 13.7913 11.4402 13.9002 11.5302 13.9764C11.6202 14.049 11.7376 14.0853 11.8824 14.0853C12.0311 14.0853 12.1485 14.0544 12.2346 13.9927C12.3207 13.9274 12.3638 13.8385 12.3638 13.726C12.3638 13.6316 12.3286 13.5536 12.2581 13.4919C12.1916 13.4302 12.1074 13.3794 12.0057 13.3395C11.9079 13.2996 11.767 13.2542 11.583 13.2034C11.3169 13.1272 11.0997 13.051 10.9314 12.9748C10.7632 12.8985 10.6184 12.786 10.497 12.6372C10.3757 12.4884 10.3151 12.2943 10.3151 12.0547C10.3151 11.6991 10.454 11.4215 10.7319 11.2218C11.0097 11.0186 11.3717 10.917 11.8178 10.917C12.2718 10.917 12.6377 11.0186 12.9156 11.2218C13.1934 11.4215 13.3421 11.7009 13.3617 12.0602H12.2757C12.2679 11.9368 12.219 11.8406 12.129 11.7717C12.039 11.6991 11.9235 11.6628 11.7826 11.6628C11.6613 11.6628 11.5635 11.6936 11.4891 11.7553C11.4148 11.8134 11.3776 11.8987 11.3776 12.0112C11.3776 12.1346 11.4402 12.2308 11.5654 12.2997C11.6907 12.3687 11.8863 12.4431 12.1524 12.5229C12.4186 12.6064 12.6338 12.6862 12.7982 12.7624C12.9665 12.8387 13.1112 12.9493 13.2326 13.0945C13.3539 13.2397 13.4145 13.4266 13.4145 13.6552C13.4145 13.873 13.3539 14.0708 13.2326 14.2486C13.1152 14.4264 12.943 14.568 12.716 14.6732C12.489 14.7785 12.2209 14.8311 11.9118 14.8311Z" fill="#00B3A5"/>
</svg>
