<svg width="18" height="18" viewBox="0 0 18 18" fill="none" xmlns="http://www.w3.org/2000/svg">
<path d="M6.63261 9.78849L3.08424 13.3367L1.90158 12.154C1.58266 11.835 1.10303 11.7397 0.686355 11.9122C0.269683 12.0848 -0.00195312 12.4915 -0.00195312 12.9425V16.8848C-0.00195312 17.5007 0.49731 17.9999 1.11314 17.9999L5.05557 18C5.05609 17.9999 5.05647 17.9999 5.05699 18C5.67289 18 6.17208 17.5007 6.17208 16.8849C6.17208 16.5595 6.03269 16.2667 5.81041 16.0628L4.66128 14.9137L8.20949 11.3655C8.64497 10.93 8.64497 10.224 8.20949 9.78856C7.77416 9.35301 7.06801 9.35308 6.63261 9.78849Z" fill="#6A1732"/>
<path d="M16.8838 0H12.9413C12.4903 0 12.0837 0.27171 11.9111 0.688382C11.7386 1.10505 11.834 1.58469 12.1529 1.90361L13.3357 3.08642L9.78755 6.63463C9.35207 7.07011 9.35207 7.77611 9.78755 8.21159C10.0053 8.42933 10.2907 8.53817 10.576 8.53817C10.8614 8.53817 11.1468 8.42933 11.3644 8.21152L14.9126 4.6633L16.0953 5.84604C16.3086 6.0594 16.5938 6.17269 16.884 6.17269C17.0277 6.17269 17.1726 6.14496 17.3105 6.08779C17.7271 5.91518 17.9988 5.50854 17.9988 5.0576V1.11509C17.9988 0.499263 17.4996 0 16.8838 0Z" fill="#6A1732"/>
</svg>
