<svg width="16" height="16" viewBox="0 0 16 16" fill="none" xmlns="http://www.w3.org/2000/svg">
<path d="M13.4034 13.4034C13.679 13.1278 13.8442 12.7504 13.9322 12.0953C14.0222 11.4261 14.0232 10.544 14.0232 9.30234L13.4034 13.4034ZM13.4034 13.4034C13.4034 13.4034 13.4034 13.4034 13.4034 13.4034C13.1278 13.679 12.7503 13.8442 12.0953 13.9322C11.4261 14.0222 10.5439 14.0233 9.30231 14.0233H9.15231H6.84766H6.69766C5.45601 14.0233 4.5739 14.0222 3.90473 13.9322C3.2514 13.8444 2.87423 13.6799 2.59885 13.4057C2.5981 13.4049 2.59735 13.4042 2.5966 13.4034C2.5966 13.4034 2.59659 13.4034 2.59658 13.4034C2.59657 13.4034 2.59655 13.4034 2.59654 13.4034C2.59652 13.4034 2.59651 13.4033 2.5965 13.4033C2.59576 13.4026 2.59503 13.4019 2.59429 13.4011L13.4034 13.4034ZM9.87956 3.19207L9.78227 3.30016C9.0117 2.60662 8.74285 2.37794 8.42843 2.2573L8.42843 2.25729C8.11415 2.13669 7.75916 2.12677 6.71707 2.12677C5.4647 2.12677 4.58949 2.12812 3.92919 2.21649C3.28682 2.30247 2.94525 2.46009 2.70265 2.70268C2.45955 2.94578 2.30224 3.28633 2.21641 3.92475L2.06775 3.90477L2.21641 3.92475C2.1281 4.58159 2.12674 5.45174 2.12674 6.69769V9.30234C2.12674 10.5483 2.1281 11.4184 2.21641 12.0753C2.30224 12.7137 2.45955 13.0543 2.70265 13.2974C2.94574 13.5404 3.2863 13.6978 3.92471 13.7836L3.92472 13.7836C4.58156 13.8719 5.45171 13.8733 6.69766 13.8733H9.30231C10.5482 13.8733 11.4184 13.8719 12.0753 13.7836C12.7136 13.6978 13.0542 13.5404 13.2973 13.2974C13.5404 13.0543 13.6977 12.7137 13.7835 12.0753L13.7835 12.0753C13.8719 11.4184 13.8732 10.5483 13.8732 9.30234V9.01772C13.8732 7.81794 13.8603 7.41056 13.7032 7.05773M9.87956 3.19207L13.7032 7.05773M9.87956 3.19207L9.78228 3.30016L12.3601 5.62018M9.87956 3.19207L12.3601 5.62018M13.7032 7.05773C13.546 6.70496 13.2518 6.42276 12.3601 5.62018M13.7032 7.05773L12.3601 5.62018M10.5361 2.46266L10.6364 2.35117L13.2142 4.67118C13.247 4.70073 13.2794 4.72988 13.3114 4.75865C14.0666 5.43765 14.588 5.90644 14.8694 6.53832C15.1508 7.1702 15.1505 7.87136 15.15 8.88694C15.15 8.92996 15.15 8.97355 15.15 9.01772V9.30234V9.3493C15.15 10.5374 15.15 11.4936 15.0489 12.2454C14.944 13.0254 14.7199 13.6803 14.2001 14.2002L14.2001 14.2002C13.6803 14.72 13.0254 14.9441 12.2454 15.049L12.2454 15.049C11.4936 15.15 10.5373 15.15 9.34924 15.15H9.30231H6.69766H6.65073C5.46265 15.15 4.50641 15.15 3.7546 15.049L3.75459 15.049C2.97457 14.9441 2.31971 14.72 1.79986 14.2002L1.79985 14.2002C1.28001 13.6803 1.05592 13.0254 0.95105 12.2454C0.849969 11.4936 0.849983 10.5372 0.85 9.34903L0.85 9.30234V6.69769L0.85 6.65101C0.849983 5.46282 0.849969 4.5065 0.95105 3.75463L1.08348 3.77244L0.95105 3.75463C1.05592 2.9746 1.28002 2.31974 1.79986 1.79989L1.79986 1.79989C2.3202 1.27955 2.97728 1.05577 3.75982 0.951032L3.77971 1.09965L3.75983 0.951032C4.51472 0.850002 5.47569 0.850016 6.67041 0.850033L6.71707 0.850033C6.75544 0.850033 6.7933 0.850017 6.83068 0.850001C7.71395 0.849624 8.32314 0.849363 8.88584 1.0653L10.5361 2.46266ZM10.5361 2.46266L10.6364 2.35116C10.6081 2.32568 10.5802 2.30053 10.5526 2.2757M10.5361 2.46266L10.5526 2.2757M10.5526 2.2757C9.89935 1.68727 9.44859 1.28123 8.88584 1.0653L10.5526 2.2757ZM14.2863 6.79804L13.8402 6.99671M14.1969 13.9848C14.6124 13.5154 14.8051 12.9329 14.9003 12.2254C14.9968 11.5072 14.9999 10.5957 15 9.45234C15 9.43584 15 9.41929 15 9.4027C15 9.38163 15 9.36048 15 9.33926V9.30234V9.16772V9.15234V9.01772C15 8.98089 15 8.94451 15 8.90857C15.0003 7.95075 15.0005 7.30563 14.7891 6.73829L14.7934 6.73637L14.7324 6.59935C14.7322 6.59896 14.7321 6.59856 14.7319 6.59817L14.6714 6.46232L14.6671 6.46424C14.3868 5.92761 13.9071 5.49621 13.195 4.8557C13.1687 4.83208 13.1421 4.80817 13.1152 4.78396L14.1969 13.9848Z" fill="url(#paint0_linear_4136_15052)" stroke="url(#paint1_linear_4136_15052)" stroke-width="0.3"/>
<path d="M8.65112 1.81415V3.44205C8.65112 4.97685 8.65112 5.74425 9.1279 6.22106C9.60475 6.69786 10.3721 6.69786 11.9069 6.69786H14.5116" stroke="url(#paint2_linear_4136_15052)" stroke-width="1.2"/>
<defs>
<linearGradient id="paint0_linear_4136_15052" x1="6.625" y1="1" x2="13.828" y2="13.7663" gradientUnits="userSpaceOnUse">
<stop stop-color="#16968C"/>
<stop offset="1" stop-color="#0E3434"/>
</linearGradient>
<linearGradient id="paint1_linear_4136_15052" x1="6.625" y1="1" x2="13.828" y2="13.7663" gradientUnits="userSpaceOnUse">
<stop stop-color="#16968C"/>
<stop offset="1" stop-color="#0E3434"/>
</linearGradient>
<linearGradient id="paint2_linear_4136_15052" x1="11.0058" y1="1.81415" x2="13.2665" y2="6.62224" gradientUnits="userSpaceOnUse">
<stop stop-color="#16968C"/>
<stop offset="1" stop-color="#0E3434"/>
</linearGradient>
</defs>
</svg>
