<svg width="26" height="25" viewBox="0 0 26 25" fill="none" xmlns="http://www.w3.org/2000/svg">
<path fill-rule="evenodd" clip-rule="evenodd" d="M15.1667 25H10.1667C5.4527 25 3.09569 25 1.63121 23.5355C0.166748 22.0711 0.166748 19.714 0.166748 15V10C0.166748 5.28595 0.166748 2.92894 1.63121 1.46446C3.09569 1.49012e-07 5.46511 0 10.204 0C10.9615 0 11.5685 -3.0268e-08 12.0792 0.020825C12.0625 0.120737 12.0536 0.222663 12.0532 0.325713L12.0417 3.86871C12.0416 5.24009 12.0415 6.45205 12.1729 7.42895C12.3152 8.48785 12.6421 9.54657 13.5062 10.4106C14.3702 11.2747 15.429 11.6016 16.4879 11.744C17.4649 11.8754 18.6767 11.8752 20.0481 11.8751H20.1667H25.1135C25.1667 12.543 25.1667 13.3626 25.1667 14.4536V15C25.1667 19.714 25.1667 22.0711 23.7022 23.5355C22.2379 25 19.8807 25 15.1667 25ZM4.22925 15.625C4.22925 15.1073 4.64899 14.6875 5.16675 14.6875H15.1667C15.6845 14.6875 16.1042 15.1073 16.1042 15.625C16.1042 16.1427 15.6845 16.5625 15.1667 16.5625H5.16675C4.64899 16.5625 4.22925 16.1427 4.22925 15.625ZM4.22925 20C4.22925 19.4823 4.64899 19.0625 5.16675 19.0625H12.0417C12.5595 19.0625 12.9792 19.4823 12.9792 20C12.9792 20.5177 12.5595 20.9375 12.0417 20.9375H5.16675C4.64899 20.9375 4.22925 20.5177 4.22925 20Z" fill="url(#paint0_linear_213_11665)"/>
<path d="M21.8564 7.02082L16.9079 2.56719C15.4981 1.29836 14.7932 0.663931 13.9282 0.332031L13.9167 3.75014C13.9167 6.69642 13.9167 8.16956 14.832 9.08484C15.7474 10.0001 17.2205 10.0001 20.1667 10.0001H24.6419C24.1886 9.11986 23.3772 8.38956 21.8564 7.02082Z" fill="url(#paint1_linear_213_11665)"/>
<defs>
<linearGradient id="paint0_linear_213_11665" x1="10.2114" y1="1.57112e-07" x2="23.0739" y2="22.7969" gradientUnits="userSpaceOnUse">
<stop offset="0.0185047" stop-color="#0C588B" stop-opacity="0.81"/>
<stop offset="0.437019" stop-color="#155A8A" stop-opacity="0.93"/>
<stop offset="0.96875" stop-color="#265E87" stop-opacity="0.92"/>
</linearGradient>
<linearGradient id="paint1_linear_213_11665" x1="18.2259" y1="0.332031" x2="22.9225" y2="9.56599" gradientUnits="userSpaceOnUse">
<stop offset="0.0185047" stop-color="#0C588B" stop-opacity="0.81"/>
<stop offset="0.437019" stop-color="#155A8A" stop-opacity="0.93"/>
<stop offset="0.96875" stop-color="#265E87" stop-opacity="0.92"/>
</linearGradient>
</defs>
</svg>
