<svg width="26" height="26" viewBox="0 0 26 26" fill="none" xmlns="http://www.w3.org/2000/svg">
<path d="M24.57 2.6H11.505C11.2187 1.84548 10.7126 1.19428 10.052 0.730725C9.39142 0.267167 8.60689 0.0126044 7.8 0C6.99982 0.00759533 6.22135 0.261149 5.57019 0.726264C4.91903 1.19138 4.4267 1.84554 4.16 2.6H1.43C1.2507 2.59126 1.07143 2.61797 0.902468 2.6786C0.733504 2.73924 0.578159 2.83261 0.445329 2.95336C0.312499 3.07412 0.204793 3.21989 0.128376 3.38233C0.0519602 3.54476 0.00833534 3.72068 0 3.9C0.00833534 4.07932 0.0519602 4.25524 0.128376 4.41768C0.204793 4.58011 0.312499 4.72588 0.445329 4.84664C0.578159 4.96739 0.733504 5.06076 0.902468 5.1214C1.07143 5.18203 1.2507 5.20874 1.43 5.2H4.16C4.4267 5.95446 4.91903 6.60862 5.57019 7.07374C6.22135 7.53885 6.99982 7.79241 7.8 7.8C8.60689 7.7874 9.39142 7.53283 10.052 7.06928C10.7126 6.60572 11.2187 5.95452 11.505 5.2H24.57C24.7493 5.20874 24.9286 5.18203 25.0975 5.1214C25.2665 5.06076 25.4218 4.96739 25.5547 4.84664C25.6875 4.72588 25.7952 4.58011 25.8716 4.41768C25.948 4.25524 25.9917 4.07932 26 3.9C25.9917 3.72068 25.948 3.54476 25.8716 3.38233C25.7952 3.21989 25.6875 3.07412 25.5547 2.95336C25.4218 2.83261 25.2665 2.73924 25.0975 2.6786C24.9286 2.61797 24.7493 2.59126 24.57 2.6Z" fill="white"/>
<path d="M24.5699 11.7H21.9049C21.6186 10.9455 21.1124 10.2943 20.4519 9.83073C19.7913 9.36717 19.0068 9.11261 18.1999 9.10001C17.3997 9.1076 16.6212 9.36116 15.9701 9.82627C15.3189 10.2914 14.8266 10.9455 14.5599 11.7H1.42988C1.0851 11.7 0.754441 11.837 0.510644 12.0808C0.266847 12.3246 0.129883 12.6552 0.129883 13C0.129883 13.3448 0.266847 13.6754 0.510644 13.9192C0.754441 14.163 1.0851 14.3 1.42988 14.3H14.5599C14.8266 15.0545 15.3189 15.7086 15.9701 16.1737C16.6212 16.6389 17.3997 16.8924 18.1999 16.9C19.0068 16.8874 19.7913 16.6328 20.4519 16.1693C21.1124 15.7057 21.6186 15.0545 21.9049 14.3H24.5699C24.9147 14.3 25.2453 14.163 25.4891 13.9192C25.7329 13.6754 25.8699 13.3448 25.8699 13C25.8699 12.6552 25.7329 12.3246 25.4891 12.0808C25.2453 11.837 24.9147 11.7 24.5699 11.7Z" fill="white"/>
<path d="M24.5699 20.8H13.4549C13.1686 20.0455 12.6624 19.3943 12.0019 18.9307C11.3413 18.4672 10.5568 18.2126 9.74988 18.2C8.94971 18.2076 8.17123 18.4611 7.52007 18.9263C6.86891 19.3914 6.37658 20.0455 6.10988 20.8H1.42988C1.0851 20.8 0.754441 20.937 0.510644 21.1808C0.266847 21.4246 0.129883 21.7552 0.129883 22.1C0.129883 22.4448 0.266847 22.7754 0.510644 23.0192C0.754441 23.263 1.0851 23.4 1.42988 23.4H6.10988C6.37658 24.1545 6.86891 24.8086 7.52007 25.2737C8.17123 25.7388 8.94971 25.9924 9.74988 26C10.5568 25.9874 11.3413 25.7328 12.0019 25.2693C12.6624 24.8057 13.1686 24.1545 13.4549 23.4H24.5699C24.9147 23.4 25.2453 23.263 25.4891 23.0192C25.7329 22.7754 25.8699 22.4448 25.8699 22.1C25.8699 21.7552 25.7329 21.4246 25.4891 21.1808C25.2453 20.937 24.9147 20.8 24.5699 20.8Z" fill="white"/>
</svg>
