<svg width="11" height="12" viewBox="0 0 11 12" fill="none" xmlns="http://www.w3.org/2000/svg">
<path d="M6.496 8.72H4.032L3.456 12H2.432L3.008 8.72H0.96V7.76H3.168L3.616 5.072H1.584V4.112H3.792L4.352 0.832H5.376L4.816 4.112H7.28L7.84 0.832H8.864L8.304 4.112H10.352V5.072H8.128L7.68 7.76H9.728V8.72H7.52L6.944 12H5.92L6.496 8.72ZM6.656 7.76L7.104 5.072H4.64L4.192 7.76H6.656Z" fill="url(#paint0_linear_584_22164)"/>
<path d="M6.496 8.72L6.88997 8.78918L6.97237 8.32H6.496V8.72ZM4.032 8.72V8.32H3.69612L3.63803 8.65082L4.032 8.72ZM3.456 12V12.4H3.79188L3.84997 12.0692L3.456 12ZM2.432 12L2.03803 11.9308L1.95564 12.4H2.432V12ZM3.008 8.72L3.40197 8.78918L3.48436 8.32H3.008V8.72ZM0.96 8.72H0.56V9.12H0.96V8.72ZM0.96 7.76V7.36H0.56V7.76H0.96ZM3.168 7.76V8.16H3.50685L3.56256 7.82576L3.168 7.76ZM3.616 5.072L4.01056 5.13776L4.08818 4.672H3.616V5.072ZM1.584 5.072H1.184V5.472H1.584V5.072ZM1.584 4.112V3.712H1.184V4.112H1.584ZM3.792 4.112V4.512H4.1295L4.1863 4.17932L3.792 4.112ZM4.352 0.832V0.432H4.0145L3.95771 0.764681L4.352 0.832ZM5.376 0.832L5.7703 0.899318L5.85008 0.432H5.376V0.832ZM4.816 4.112L4.42171 4.04468L4.34192 4.512H4.816V4.112ZM7.28 4.112V4.512H7.6175L7.67429 4.17932L7.28 4.112ZM7.84 0.832V0.432H7.5025L7.44571 0.764681L7.84 0.832ZM8.864 0.832L9.2583 0.899318L9.33808 0.432H8.864V0.832ZM8.304 4.112L7.90971 4.04468L7.82992 4.512H8.304V4.112ZM10.352 4.112H10.752V3.712H10.352V4.112ZM10.352 5.072V5.472H10.752V5.072H10.352ZM8.128 5.072V4.672H7.78915L7.73344 5.00624L8.128 5.072ZM7.68 7.76L7.28544 7.69424L7.20782 8.16H7.68V7.76ZM9.728 7.76H10.128V7.36H9.728V7.76ZM9.728 8.72V9.12H10.128V8.72H9.728ZM7.52 8.72V8.32H7.18412L7.12603 8.65082L7.52 8.72ZM6.944 12V12.4H7.27988L7.33797 12.0692L6.944 12ZM5.92 12L5.52603 11.9308L5.44363 12.4H5.92V12ZM6.656 7.76V8.16H6.99485L7.05056 7.82576L6.656 7.76ZM7.104 5.072L7.49856 5.13776L7.57618 4.672H7.104V5.072ZM4.64 5.072V4.672H4.30115L4.24544 5.00624L4.64 5.072ZM4.192 7.76L3.79744 7.69424L3.71982 8.16H4.192V7.76ZM6.496 8.32H4.032V9.12H6.496V8.32ZM3.63803 8.65082L3.06203 11.9308L3.84997 12.0692L4.42597 8.78918L3.63803 8.65082ZM3.456 11.6H2.432V12.4H3.456V11.6ZM2.82597 12.0692L3.40197 8.78918L2.61403 8.65082L2.03803 11.9308L2.82597 12.0692ZM3.008 8.32H0.96V9.12H3.008V8.32ZM1.36 8.72V7.76H0.56V8.72H1.36ZM0.96 8.16H3.168V7.36H0.96V8.16ZM3.56256 7.82576L4.01056 5.13776L3.22144 5.00624L2.77344 7.69424L3.56256 7.82576ZM3.616 4.672H1.584V5.472H3.616V4.672ZM1.984 5.072V4.112H1.184V5.072H1.984ZM1.584 4.512H3.792V3.712H1.584V4.512ZM4.1863 4.17932L4.74629 0.899318L3.95771 0.764681L3.39771 4.04468L4.1863 4.17932ZM4.352 1.232H5.376V0.432H4.352V1.232ZM4.98171 0.764681L4.42171 4.04468L5.2103 4.17932L5.7703 0.899318L4.98171 0.764681ZM4.816 4.512H7.28V3.712H4.816V4.512ZM7.67429 4.17932L8.23429 0.899318L7.44571 0.764681L6.88571 4.04468L7.67429 4.17932ZM7.84 1.232H8.864V0.432H7.84V1.232ZM8.46971 0.764681L7.90971 4.04468L8.6983 4.17932L9.2583 0.899318L8.46971 0.764681ZM8.304 4.512H10.352V3.712H8.304V4.512ZM9.952 4.112V5.072H10.752V4.112H9.952ZM10.352 4.672H8.128V5.472H10.352V4.672ZM7.73344 5.00624L7.28544 7.69424L8.07456 7.82576L8.52256 5.13776L7.73344 5.00624ZM7.68 8.16H9.728V7.36H7.68V8.16ZM9.328 7.76V8.72H10.128V7.76H9.328ZM9.728 8.32H7.52V9.12H9.728V8.32ZM7.12603 8.65082L6.55003 11.9308L7.33797 12.0692L7.91397 8.78918L7.12603 8.65082ZM6.944 11.6H5.92V12.4H6.944V11.6ZM6.31397 12.0692L6.88997 8.78918L6.10203 8.65082L5.52603 11.9308L6.31397 12.0692ZM7.05056 7.82576L7.49856 5.13776L6.70944 5.00624L6.26144 7.69424L7.05056 7.82576ZM7.104 4.672H4.64V5.472H7.104V4.672ZM4.24544 5.00624L3.79744 7.69424L4.58656 7.82576L5.03456 5.13776L4.24544 5.00624ZM4.192 8.16H6.656V7.36H4.192V8.16Z" fill="url(#paint1_linear_584_22164)"/>
<defs>
<linearGradient id="paint0_linear_584_22164" x1="5.22321" y1="-5" x2="16.4347" y2="8.59581" gradientUnits="userSpaceOnUse">
<stop offset="0.0185047" stop-color="#0C588B" stop-opacity="0.81"/>
<stop offset="0.437019" stop-color="#155A8A" stop-opacity="0.93"/>
<stop offset="0.96875" stop-color="#265E87" stop-opacity="0.92"/>
</linearGradient>
<linearGradient id="paint1_linear_584_22164" x1="5.22321" y1="-5" x2="16.4347" y2="8.59581" gradientUnits="userSpaceOnUse">
<stop offset="0.0185047" stop-color="#0C588B" stop-opacity="0.81"/>
<stop offset="0.437019" stop-color="#155A8A" stop-opacity="0.93"/>
<stop offset="0.96875" stop-color="#265E87" stop-opacity="0.92"/>
</linearGradient>
</defs>
</svg>
