<svg width="22" height="26" viewBox="0 0 22 26" fill="none" xmlns="http://www.w3.org/2000/svg">
<path d="M21.6902 8.49756C20.3888 2.63805 15.3938 0 11.0062 0C11.0062 0 11.0062 0 10.9938 0C6.61857 0 1.61124 2.62537 0.309832 8.48488C-1.14031 15.0293 2.77631 20.5717 6.32111 24.0595C7.63491 25.3532 9.32058 26 11.0062 26C12.6919 26 14.3775 25.3532 15.6789 24.0595C19.2237 20.5717 23.1403 15.042 21.6902 8.49756ZM11.0062 14.8517C8.84959 14.8517 7.10195 13.0634 7.10195 10.8566C7.10195 8.64976 8.84959 6.86146 11.0062 6.86146C13.1628 6.86146 14.9104 8.64976 14.9104 10.8566C14.9104 13.0634 13.1628 14.8517 11.0062 14.8517Z" fill="url(#paint0_linear_556_435)"/>
<defs>
<linearGradient id="paint0_linear_556_435" x1="8.83929" y1="1.63396e-07" x2="23.2665" y2="21.6362" gradientUnits="userSpaceOnUse">
<stop stop-color="#16968C"/>
<stop offset="1" stop-color="#0E3434"/>
</linearGradient>
</defs>
</svg>
