<svg width="22" height="26" viewBox="0 0 22 26" fill="none" xmlns="http://www.w3.org/2000/svg">
<path d="M7.02779 2.75V0.916667C7.02779 0.415556 6.61224 0 6.11112 0C5.61001 0 5.19446 0.415556 5.19446 0.916667V2.82333C5.50001 2.78667 5.78112 2.75 6.11112 2.75H7.02779Z" fill="url(#paint0_linear_837_3786)"/>
<path d="M16.8056 2.82333V0.916667C16.8056 0.415556 16.39 0 15.8889 0C15.3878 0 14.9722 0.415556 14.9722 0.916667V2.75H15.8889C16.2189 2.75 16.5 2.78667 16.8056 2.82333Z" fill="url(#paint1_linear_837_3786)"/>
<path d="M16.8056 2.82333V4.58333C16.8056 5.08444 16.39 5.5 15.8889 5.5C15.3878 5.5 14.9722 5.08444 14.9722 4.58333V2.75H7.02778V4.58333C7.02778 5.08444 6.61222 5.5 6.11111 5.5C5.61 5.5 5.19444 5.08444 5.19444 4.58333V2.82333C1.58889 3.15333 0 5.47556 0 8.86111V19.25C0 22.9167 1.83333 25.3611 6.11111 25.3611H15.8889C20.1667 25.3611 22 22.9167 22 19.25V8.86111C22 5.47556 20.4111 3.15333 16.8056 2.82333ZM11 18.9444H6.11111C5.61 18.9444 5.19444 18.5289 5.19444 18.0278C5.19444 17.5267 5.61 17.1111 6.11111 17.1111H11C11.5011 17.1111 11.9167 17.5267 11.9167 18.0278C11.9167 18.5289 11.5011 18.9444 11 18.9444ZM15.8889 12.8333H6.11111C5.61 12.8333 5.19444 12.4178 5.19444 11.9167C5.19444 11.4156 5.61 11 6.11111 11H15.8889C16.39 11 16.8056 11.4156 16.8056 11.9167C16.8056 12.4178 16.39 12.8333 15.8889 12.8333Z" fill="url(#paint2_linear_837_3786)"/>
<defs>
<linearGradient id="paint0_linear_837_3786" x1="5.93107" y1="1.77432e-08" x2="7.6115" y2="1.93398" gradientUnits="userSpaceOnUse">
<stop offset="0.0185047" stop-color="#0C588B" stop-opacity="0.81"/>
<stop offset="0.437019" stop-color="#155A8A" stop-opacity="0.93"/>
<stop offset="0.96875" stop-color="#265E87" stop-opacity="0.92"/>
</linearGradient>
<linearGradient id="paint1_linear_837_3786" x1="15.7088" y1="1.77432e-08" x2="17.3893" y2="1.93398" gradientUnits="userSpaceOnUse">
<stop offset="0.0185047" stop-color="#0C588B" stop-opacity="0.81"/>
<stop offset="0.437019" stop-color="#155A8A" stop-opacity="0.93"/>
<stop offset="0.96875" stop-color="#265E87" stop-opacity="0.92"/>
</linearGradient>
<linearGradient id="paint2_linear_837_3786" x1="8.83929" y1="2.75" x2="20.6354" y2="23.0918" gradientUnits="userSpaceOnUse">
<stop offset="0.0185047" stop-color="#0C588B" stop-opacity="0.81"/>
<stop offset="0.437019" stop-color="#155A8A" stop-opacity="0.93"/>
<stop offset="0.96875" stop-color="#265E87" stop-opacity="0.92"/>
</linearGradient>
</defs>
</svg>
