<svg width="17" height="22" viewBox="0 0 17 22" fill="none" xmlns="http://www.w3.org/2000/svg">
<path d="M15.5666 4.34878L12.0358 0.817984C11.6571 0.439234 11.1437 0.224609 10.6092 0.224609H2.02C0.904792 0.228818 0 1.13361 0 2.24882V19.7555C0 20.8707 0.904792 21.7755 2.02 21.7755H14.14C15.2552 21.7755 16.16 20.8707 16.16 19.7555V5.77961C16.16 5.24515 15.9454 4.72753 15.5666 4.34878ZM13.9759 5.61548H10.7733V2.41294L13.9759 5.61548ZM2.02 19.7555V2.24882H8.75333V6.62548C8.75333 7.18519 9.20362 7.63548 9.76333 7.63548H14.14V19.7555H2.02ZM12.5493 13.7081C12.0358 13.2031 10.5713 13.342 9.83908 13.4346C9.11525 12.9927 8.63129 12.3825 8.29042 11.4861C8.45454 10.8086 8.71546 9.77753 8.51767 9.12944C8.34092 8.02686 6.92692 8.13628 6.72492 8.88115C6.53975 9.55869 6.70808 10.5014 7.0195 11.7049C6.59867 12.7107 5.97162 14.0616 5.52975 14.8359C4.68808 15.2694 3.55183 15.9385 3.3835 16.7802C3.24463 17.4451 4.47767 19.1032 6.58604 15.4672C7.52871 15.1558 8.55554 14.7728 9.46454 14.6213C10.2599 15.0506 11.19 15.3367 11.8128 15.3367C12.8859 15.3367 12.9911 14.15 12.5493 13.7081ZM4.21254 16.9822C4.42717 16.4057 5.24358 15.7407 5.49188 15.5093C4.69229 16.7844 4.21254 17.0117 4.21254 16.9822ZM7.64654 8.96111C7.95796 8.96111 7.9285 10.312 7.72229 10.6781C7.53713 10.0932 7.54133 8.96111 7.64654 8.96111ZM6.61971 14.7097C7.02792 13.9985 7.37721 13.1526 7.65917 12.4077C8.00846 13.0432 8.45454 13.5524 8.92588 13.9017C8.05054 14.0827 7.28883 14.453 6.61971 14.7097ZM12.1579 14.4993C12.1579 14.4993 11.9475 14.7518 10.5882 14.171C12.0653 14.0616 12.3094 14.3983 12.1579 14.4993Z" fill="#F26363"/>
</svg>
