<svg width="18" height="18" viewBox="0 0 18 18" fill="none" xmlns="http://www.w3.org/2000/svg">
<path fill-rule="evenodd" clip-rule="evenodd" d="M5.71568 2.3824C5.41994 2.60804 5.0699 2.9564 4.55137 3.47493L3.47506 4.55125C2.95652 5.06978 2.60816 5.41981 2.38253 5.71555C2.16672 5.9984 2.1164 6.16506 2.1164 6.3092C2.1164 6.45335 2.16672 6.62001 2.38253 6.90285C2.60816 7.19859 2.95652 7.5486 3.47506 8.06715C3.69303 8.28512 3.69303 8.63853 3.47506 8.8565C3.25709 9.07447 2.9037 9.07447 2.68573 8.8565L2.65827 8.82904C2.17428 8.3451 1.77159 7.94242 1.49506 7.58C1.20349 7.19783 1.00012 6.79555 1.00012 6.3092C1.00012 5.82286 1.20349 5.42059 1.49506 5.03843C1.77159 4.676 2.17428 4.27334 2.65827 3.78938C2.66739 3.78026 2.67655 3.7711 2.68573 3.76192L3.76204 2.68561C3.77122 2.67643 3.78037 2.66728 3.7895 2.65815C4.27345 2.17416 4.67613 1.77147 5.03856 1.49494C5.42071 1.20337 5.82298 1 6.30933 1C6.79567 1 7.19795 1.20337 7.58011 1.49494C7.94253 1.77147 8.34521 2.17416 8.82915 2.65815L8.85661 2.68561C8.96132 2.79028 9.02011 2.93224 9.02011 3.08027C9.02011 3.2283 8.96132 3.37026 8.85661 3.47493L7.06276 5.26878C6.8448 5.48675 6.4914 5.48675 6.27344 5.26878C6.05547 5.05082 6.05547 4.69743 6.27344 4.47946L7.67172 3.08118C7.35847 2.77233 7.11657 2.54536 6.90298 2.3824C6.62013 2.16659 6.45347 2.11628 6.30933 2.11628C6.16519 2.11628 5.99853 2.1666 5.71568 2.3824ZM14.9199 8.97996C15.0679 8.97996 15.2098 9.03883 15.3145 9.14346L15.342 9.17092C15.8259 9.65486 16.2287 10.0575 16.5051 10.42C16.7967 10.8022 17.0001 11.2044 17.0001 11.6907C17.0001 12.1771 16.7967 12.5794 16.5051 12.9615C16.2287 13.324 15.8259 13.7266 15.342 14.2106L14.2107 15.3418C13.7268 15.8258 13.3241 16.2285 12.9617 16.505C12.5795 16.7966 12.1772 17 11.6909 17C11.2045 17 10.8023 16.7966 10.4201 16.505C10.0576 16.2285 9.65505 15.8258 9.17103 15.3418L9.14357 15.3144C8.9256 15.0964 8.9256 14.743 9.14357 14.525C9.36154 14.3071 9.71495 14.3071 9.93292 14.525C10.4515 15.0436 10.8015 15.3919 11.0972 15.6176C11.3801 15.8334 11.5468 15.8837 11.6909 15.8837C11.8351 15.8837 12.0017 15.8334 12.2845 15.6176C12.5803 15.3919 12.9303 15.0436 13.4488 14.525L14.5251 13.4487C15.0437 12.9302 15.392 12.5802 15.6177 12.2844C15.8335 12.0016 15.8838 11.8349 15.8838 11.6907C15.8838 11.5466 15.8335 11.38 15.6177 11.0971C15.4547 10.8835 15.2278 10.6417 14.9189 10.3283L13.5206 11.7267C13.3027 11.9446 12.9493 11.9446 12.7313 11.7267C12.5133 11.5087 12.5133 11.1553 12.7313 10.9373L14.5251 9.14346C14.6298 9.03883 14.7718 8.97996 14.9199 8.97996Z" fill="url(#paint0_linear_203_10539)" stroke="url(#paint1_linear_203_10539)" stroke-width="0.6"/>
<path fill-rule="evenodd" clip-rule="evenodd" d="M11.0514 2.02061C12.4122 0.659796 14.6186 0.659796 15.9794 2.02061C17.3402 3.38143 17.3402 5.58774 15.9794 6.94856L8.92058 14.0074C8.5173 14.4106 8.27983 14.6481 8.01572 14.8541C7.7045 15.0969 7.36765 15.3051 7.01127 15.4749C6.70891 15.619 6.39038 15.7252 5.84928 15.9055L3.37031 16.7318L2.77341 16.9308C2.28928 17.0922 1.75551 16.9662 1.39466 16.6053C1.0338 16.2445 0.907795 15.7107 1.06918 15.2266L2.09446 12.1507C2.27481 11.6096 2.38097 11.2911 2.52507 10.9887C2.69492 10.6323 2.90308 10.2955 3.14589 9.98424C3.35188 9.72013 3.58931 9.48273 3.99264 9.07939L11.0514 2.02061ZM15.19 2.80994C14.2652 1.88506 12.7656 1.88506 11.8408 2.80994L11.3482 3.30254C11.3736 3.43274 11.4166 3.60974 11.4884 3.81664C11.65 4.28247 11.9553 4.89423 12.5305 5.46946C13.1057 6.04468 13.7175 6.34996 14.1833 6.51158C14.3903 6.58336 14.5672 6.62638 14.6975 6.65183L15.19 6.15922C16.1149 5.23434 16.1149 3.73482 15.19 2.80994ZM13.792 7.55731C13.2051 7.35028 12.449 6.96659 11.7412 6.25879C11.0334 5.55097 10.6497 4.79489 10.4427 4.20799L4.80961 9.84106C4.37079 10.2799 4.1848 10.4672 4.02608 10.6707C3.83314 10.9181 3.66772 11.1857 3.53276 11.469C3.42173 11.7019 3.33733 11.9521 3.14109 12.5408L2.43622 14.6554L3.34456 15.5638L5.45917 14.8589C6.04791 14.6626 6.29805 14.5782 6.53102 14.4672C6.81422 14.3323 7.08186 14.1669 7.32923 13.9739C7.53275 13.8152 7.72006 13.6292 8.1589 13.1903L13.792 7.55731Z" fill="url(#paint2_linear_203_10539)" stroke="url(#paint3_linear_203_10539)" stroke-width="0.6"/>
<defs>
<linearGradient id="paint0_linear_203_10539" x1="9.0001" y1="1" x2="9.0001" y2="17" gradientUnits="userSpaceOnUse">
<stop stop-color="#3C7998"/>
<stop offset="1" stop-color="#34678D" stop-opacity="0.92"/>
</linearGradient>
<linearGradient id="paint1_linear_203_10539" x1="9.0001" y1="1" x2="9.0001" y2="17" gradientUnits="userSpaceOnUse">
<stop stop-color="#3C7998"/>
<stop offset="1" stop-color="#34678D" stop-opacity="0.92"/>
</linearGradient>
<linearGradient id="paint2_linear_203_10539" x1="9" y1="1" x2="9" y2="17" gradientUnits="userSpaceOnUse">
<stop stop-color="#3C7998"/>
<stop offset="1" stop-color="#34678D" stop-opacity="0.92"/>
</linearGradient>
<linearGradient id="paint3_linear_203_10539" x1="9" y1="1" x2="9" y2="17" gradientUnits="userSpaceOnUse">
<stop stop-color="#3C7998"/>
<stop offset="1" stop-color="#34678D" stop-opacity="0.92"/>
</linearGradient>
</defs>
</svg>
