<svg width="22" height="23" viewBox="0 0 22 23" fill="none" xmlns="http://www.w3.org/2000/svg">
<path fill-rule="evenodd" clip-rule="evenodd" d="M11 0.257629C8.08262 0.257629 5.28473 1.40357 3.22183 3.44337C1.15893 5.48316 0 8.24971 0 11.1344C0 14.0191 1.15893 16.7857 3.22183 18.8255C5.28473 20.8652 8.08262 22.0112 11 22.0112C13.9174 22.0112 16.7153 20.8652 18.7782 18.8255C20.8411 16.7857 22 14.0191 22 11.1344C22 8.24971 20.8411 5.48316 18.7782 3.44337C16.7153 1.40357 13.9174 0.257629 11 0.257629ZM5.84375 7.05562C5.57025 7.05562 5.30794 7.16305 5.11455 7.35428C4.92115 7.54551 4.8125 7.80488 4.8125 8.07532C4.8125 8.34576 4.92115 8.60512 5.11455 8.79635C5.30794 8.98758 5.57025 9.09501 5.84375 9.09501H16.1562C16.4298 9.09501 16.6921 8.98758 16.8855 8.79635C17.0788 8.60512 17.1875 8.34576 17.1875 8.07532C17.1875 7.80488 17.0788 7.54551 16.8855 7.35428C16.6921 7.16305 16.4298 7.05562 16.1562 7.05562H5.84375ZM7.90625 10.4546C7.63275 10.4546 7.37044 10.562 7.17705 10.7533C6.98365 10.9445 6.875 11.2039 6.875 11.4743C6.875 11.7448 6.98365 12.0041 7.17705 12.1953C7.37044 12.3866 7.63275 12.494 7.90625 12.494H14.0938C14.3673 12.494 14.6296 12.3866 14.823 12.1953C15.0163 12.0041 15.125 11.7448 15.125 11.4743C15.125 11.2039 15.0163 10.9445 14.823 10.7533C14.6296 10.562 14.3673 10.4546 14.0938 10.4546H7.90625ZM8.59375 14.8733C8.59375 14.6029 8.7024 14.3435 8.8958 14.1523C9.08919 13.961 9.3515 13.8536 9.625 13.8536H12.375C12.6485 13.8536 12.9108 13.961 13.1042 14.1523C13.2976 14.3435 13.4062 14.6029 13.4062 14.8733C13.4062 15.1437 13.2976 15.4031 13.1042 15.5943C12.9108 15.7856 12.6485 15.893 12.375 15.893H9.625C9.3515 15.893 9.08919 15.7856 8.8958 15.5943C8.7024 15.4031 8.59375 15.1437 8.59375 14.8733Z" fill="url(#paint0_linear_4601_2097)"/>
<defs>
<linearGradient id="paint0_linear_4601_2097" x1="8.83929" y1="0.25763" x2="19.966" y2="20.2015" gradientUnits="userSpaceOnUse">
<stop stop-color="#16968C"/>
<stop offset="1" stop-color="#0E3434"/>
</linearGradient>
</defs>
</svg>
