<svg width="26" height="26" viewBox="0 0 26 26" fill="none" xmlns="http://www.w3.org/2000/svg">
<path fill-rule="evenodd" clip-rule="evenodd" d="M15.4341 0.197912C14.9274 5.81145e-08 14.2849 0 13 0C11.715 0 11.0726 5.81145e-08 10.5658 0.197912C9.89011 0.461799 9.35327 0.967954 9.07339 1.60502C8.94562 1.89584 8.89561 2.23405 8.87605 2.72739C8.84729 3.45238 8.45294 4.12346 7.78654 4.48621C7.12013 4.84895 6.30655 4.8354 5.62624 4.49639C5.16329 4.26569 4.82763 4.13741 4.49661 4.09633C3.77149 4.00631 3.03814 4.19158 2.4579 4.61136C2.02271 4.92619 1.70148 5.45077 1.05902 6.49991C0.416558 7.54906 0.0953347 8.07362 0.023739 8.58638C-0.0717357 9.27004 0.124769 9.96146 0.570012 10.5085C0.773236 10.7583 1.05884 10.9681 1.50211 11.2307C2.15377 11.6168 2.57306 12.2745 2.57302 13C2.57298 13.7255 2.1537 14.3831 1.50211 14.769C1.05877 15.0318 0.773113 15.2417 0.569875 15.4914C0.124633 16.0385 -0.0718587 16.7298 0.0236023 17.4135C0.095198 17.9262 0.416434 18.4509 1.05888 19.5C1.70134 20.5491 2.02258 21.0738 2.45776 21.3885C3.038 21.8083 3.77135 21.9935 4.49647 21.9036C4.82748 21.8625 5.16311 21.7342 5.62602 21.5036C6.30639 21.1645 7.12002 21.151 7.78647 21.5137C8.45292 21.8765 8.84728 22.5476 8.87605 23.2727C8.89561 23.7659 8.94562 24.1042 9.07339 24.395C9.35327 25.032 9.89011 25.5382 10.5658 25.8021C11.0726 26 11.715 26 13 26C14.2849 26 14.9274 26 15.4341 25.8021C16.1099 25.5382 16.6467 25.032 16.9265 24.395C17.0543 24.1042 17.1044 23.7659 17.124 23.2726C17.1527 22.5476 17.547 21.8765 18.2134 21.5137C18.8798 21.1509 19.6935 21.1645 20.3738 21.5036C20.8368 21.7342 21.1723 21.8624 21.5033 21.9034C22.2285 21.9935 22.9618 21.8083 23.542 21.3885C23.9773 21.0736 24.2985 20.5491 24.941 19.4999C25.5834 18.4508 25.9046 17.9262 25.9763 17.4135C26.0717 16.7298 25.8752 16.0384 25.43 15.4913C25.2267 15.2416 24.9411 15.0316 24.4977 14.769C23.8462 14.3831 23.4269 13.7254 23.4269 12.9999C23.4269 12.2743 23.8462 11.6169 24.4977 11.231C24.9412 10.9682 25.2268 10.7584 25.4302 10.5085C25.8753 9.96155 26.0718 9.27013 25.9764 8.58646C25.9047 8.07371 25.5836 7.54914 24.9411 6.5C24.2986 5.45086 23.9774 4.92628 23.5422 4.61145C22.9619 4.19167 22.2286 4.0064 21.5035 4.09642C21.1725 4.1375 20.8368 4.26577 20.374 4.49644C19.6936 4.83547 18.8799 4.84903 18.2135 4.48625C17.5471 4.12348 17.1527 3.45236 17.1239 2.72732C17.1043 2.23402 17.0543 1.89583 16.9265 1.60502C16.6467 0.967954 16.1099 0.461799 15.4341 0.197912ZM13 16.9C15.2846 16.9 17.1364 15.154 17.1364 13C17.1364 10.846 15.2846 9.1 13 9.1C10.7154 9.1 8.86347 10.846 8.86347 13C8.86347 15.154 10.7154 16.9 13 16.9Z" fill="url(#paint0_linear_4086_24633)"/>
<defs>
<linearGradient id="paint0_linear_4086_24633" x1="10.4464" y1="1.63396e-07" x2="23.8234" y2="23.7088" gradientUnits="userSpaceOnUse">
<stop stop-color="#16968C"/>
<stop offset="1" stop-color="#0E3434"/>
</linearGradient>
</defs>
</svg>
