<svg width="14" height="14" viewBox="0 0 14 14" fill="none" xmlns="http://www.w3.org/2000/svg">
<path d="M13 1.54545V4.27273C13 4.57273 12.7545 4.81818 12.4545 4.81818C12.1545 4.81818 11.9091 4.57273 11.9091 4.27273V2.86818L8.74545 6.03182C8.63636 6.14091 8.5 6.19545 8.36364 6.19545C8.22727 6.19545 8.09091 6.14091 7.98182 6.03182C7.76364 5.81364 7.76364 5.47273 7.98182 5.25455L11.1318 2.09091H9.72727C9.42727 2.09091 9.18182 1.84545 9.18182 1.54545C9.18182 1.24545 9.42727 1 9.72727 1H12.4545C12.6045 1 12.7409 1.05455 12.8364 1.16364C12.9455 1.25909 13 1.39545 13 1.54545ZM12.4545 9.18182C12.1545 9.18182 11.9091 9.42727 11.9091 9.72727V11.1318L8.8 8.05C8.58182 7.83182 8.22727 7.83182 8.00909 8.05C7.79091 8.26818 7.79091 8.60909 7.99545 8.82727L11.0773 11.9091H9.67273C9.37273 11.9091 9.12727 12.1545 9.12727 12.4545C9.12727 12.7545 9.37273 13 9.67273 13H12.4C12.55 13 12.7136 12.9455 12.8091 12.8364C12.9182 12.7273 13 12.5909 13 12.4545V9.72727C13 9.42727 12.7545 9.18182 12.4545 9.18182ZM5.2 8.02273L2.09091 11.1318V9.72727C2.09091 9.42727 1.84545 9.18182 1.54545 9.18182C1.24545 9.18182 1 9.42727 1 9.72727V12.4545C1 12.6045 1.05455 12.7409 1.16364 12.8364C1.27273 12.9455 1.40909 13 1.55909 13H4.28636C4.58636 13 4.83182 12.7545 4.83182 12.4545C4.83182 12.1545 4.58636 11.9091 4.28636 11.9091H2.86818L5.97727 8.8C6.19545 8.58182 6.18182 8.24091 5.97727 8.02273C5.77273 7.80455 5.41818 7.80455 5.2 8.02273ZM2.86818 2.14545H4.27273C4.57273 2.14545 4.81818 1.9 4.81818 1.6C4.81818 1.3 4.57273 1.05455 4.27273 1.05455H1.54545C1.39545 1.05455 1.25909 1.10909 1.16364 1.21818C1.05455 1.31364 1 1.45 1 1.6V4.32727C1 4.62727 1.24545 4.87273 1.54545 4.87273C1.84545 4.87273 2.09091 4.62727 2.09091 4.32727V2.90909L5.24091 6.05909C5.35 6.16818 5.48636 6.22273 5.62273 6.22273C5.75909 6.22273 5.89545 6.16818 6.00455 6.05909C6.22273 5.84091 6.22273 5.5 6.00455 5.28182L2.86818 2.14545Z" fill="url(#paint0_linear_1704_3872)" stroke="url(#paint1_linear_1704_3872)" stroke-width="0.3"/>
<defs>
<linearGradient id="paint0_linear_1704_3872" x1="5.82143" y1="1" x2="11.9954" y2="11.9425" gradientUnits="userSpaceOnUse">
<stop offset="0.0185047" stop-color="#0C588B" stop-opacity="0.81"/>
<stop offset="0.437019" stop-color="#155A8A" stop-opacity="0.93"/>
<stop offset="0.96875" stop-color="#265E87" stop-opacity="0.92"/>
</linearGradient>
<linearGradient id="paint1_linear_1704_3872" x1="5.82143" y1="1" x2="11.9954" y2="11.9425" gradientUnits="userSpaceOnUse">
<stop offset="0.0185047" stop-color="#0C588B" stop-opacity="0.81"/>
<stop offset="0.437019" stop-color="#155A8A" stop-opacity="0.93"/>
<stop offset="0.96875" stop-color="#265E87" stop-opacity="0.92"/>
</linearGradient>
</defs>
</svg>
