<svg width="26" height="26" viewBox="0 0 26 26" fill="none" xmlns="http://www.w3.org/2000/svg">
<path d="M9.57955 10.9482C12.6028 10.9482 15.0536 8.49733 15.0536 5.47408C15.0536 2.45083 12.6028 0 9.57955 0C6.5563 0 4.10547 2.45083 4.10547 5.47408C4.10547 8.49733 6.5563 10.9482 9.57955 10.9482Z" fill="#EAF7FF"/>
<path d="M9.57965 26.0033C14.8703 26.0033 19.1593 23.5525 19.1593 20.5293C19.1593 17.506 14.8703 15.0552 9.57965 15.0552C4.28895 15.0552 0 17.506 0 20.5293C0 23.5525 4.28895 26.0033 9.57965 26.0033Z" fill="#EAF7FF"/>
<path d="M25.9999 20.5284C25.9999 22.7958 23.2143 24.6338 19.8131 24.6338C20.8152 23.5386 21.5042 22.1638 21.5042 20.5302C21.5042 18.8948 20.8135 17.5188 19.8096 16.4229C23.2108 16.4229 25.9999 18.2609 25.9999 20.5284Z" fill="#EAF7FF"/>
<path d="M21.8945 5.47519C21.8945 7.74264 20.0565 9.58075 17.789 9.58075C17.2945 9.58075 16.8206 9.49336 16.3816 9.33316C17.029 8.19443 17.3988 6.87723 17.3988 5.47367C17.3988 4.07114 17.0296 2.75486 16.383 1.6167C16.8216 1.45684 17.2951 1.36963 17.789 1.36963C20.0565 1.36963 21.8945 3.20776 21.8945 5.47519Z" fill="#EAF7FF"/>
</svg>
