<svg width="17" height="22" viewBox="0 0 17 22" fill="none" xmlns="http://www.w3.org/2000/svg">
<path d="M16.2311 7.29677L9.50889 0.574553C9.33778 0.403442 9.10556 0.305664 8.86111 0.305664H3.36111C1.50333 0.305664 0 1.809 0 3.66677V18.3334C0 20.1912 1.50333 21.6946 3.36111 21.6946H13.1389C14.9967 21.6946 16.5 20.1912 16.5 18.3334V7.94455C16.5 7.70011 16.4022 7.46789 16.2311 7.29677ZM9.77778 3.43455L13.3711 7.02789H9.77778V3.43455ZM13.1389 19.8612H3.36111C2.51778 19.8612 1.83333 19.1768 1.83333 18.3334V3.66677C1.83333 2.82344 2.51778 2.139 3.36111 2.139H7.94444V7.94455C7.94444 8.44566 8.36 8.86122 8.86111 8.86122H14.6667V18.3334C14.6667 19.1768 13.9822 19.8612 13.1389 19.8612ZM13.4078 11.8801L11.5744 17.9912C11.4644 18.3579 11.1222 18.6268 10.7311 18.639C10.7189 18.639 10.7067 18.639 10.6944 18.639C10.3156 18.639 9.98556 18.4068 9.83889 18.0646L8.25 14.0801L6.66111 18.0646C6.51444 18.4312 6.16 18.6634 5.76889 18.639C5.37778 18.6268 5.04778 18.3579 4.92556 17.9912L3.09222 11.8801C2.94556 11.3912 3.22667 10.8779 3.70333 10.7434C4.19222 10.5968 4.69333 10.8779 4.84 11.3546L5.91556 14.9479L7.38222 11.269C7.66333 10.5723 8.81222 10.5723 9.08111 11.269L10.5478 14.9479L11.6233 11.3546C11.77 10.8657 12.2833 10.5968 12.76 10.7434C13.2489 10.8901 13.5178 11.4034 13.3711 11.8801H13.4078Z" fill="#7999FF"/>
</svg>
