<svg width="20" height="20" viewBox="0 0 20 20" fill="none" xmlns="http://www.w3.org/2000/svg">
<path d="M0.43627 3.07296C0 3.57487 0 4.43542 0 6.15651V15.6504C0 16.8693 0 17.4788 0.3146 17.9377C0.62919 18.3964 1.17921 18.5892 2.27924 18.9746L3.57343 19.4281C4.27436 19.6738 4.81371 19.8627 5.26633 19.9844C5.5616 20.0638 5.83333 19.8295 5.83333 19.5207V4.20823C5.83333 3.95665 5.64964 3.74433 5.40837 3.68247C5.01914 3.58268 4.55127 3.41873 3.91002 3.19404C2.35676 2.64978 1.58014 2.37766 0.98922 2.65401C0.77941 2.75212 0.59116 2.89475 0.43627 3.07296Z" fill="url(#paint0_linear_213_11707)"/>
<path d="M10.6204 1.38917L9.0844 2.46558C8.5287 2.85498 8.1215 3.14037 7.77375 3.34384C7.60895 3.44027 7.5 3.61471 7.5 3.80718V19.0153C7.5 19.3899 7.88398 19.6237 8.1962 19.4218C8.5312 19.2053 8.9149 18.9364 9.3796 18.6106L10.9156 17.5342C11.4712 17.1449 11.8785 16.8595 12.2262 16.656C12.3911 16.5596 12.5 16.3852 12.5 16.1927V0.984549C12.5 0.609989 12.116 0.37613 11.8038 0.57797C11.4688 0.794616 11.0851 1.0635 10.6204 1.38917Z" fill="url(#paint1_linear_213_11707)"/>
<path d="M17.7208 1.02536L16.4266 0.571879C15.7256 0.326245 15.1863 0.137292 14.7337 0.0155921C14.4384 -0.0637893 14.1667 0.170464 14.1667 0.479277V15.7917C14.1667 16.0433 14.3504 16.2557 14.5916 16.3175C14.9809 16.4173 15.4488 16.5812 16.09 16.8059C17.6432 17.3502 18.4199 17.6223 19.0108 17.346C19.2206 17.2479 19.4088 17.1053 19.5637 16.927C20 16.4252 20 15.5645 20 13.8435V4.34954C20 3.13064 20 2.52119 19.6854 2.06237C19.3708 1.60353 18.8208 1.41081 17.7208 1.02536Z" fill="url(#paint2_linear_213_11707)"/>
<defs>
<linearGradient id="paint0_linear_213_11707" x1="2.34375" y1="2.54468" x2="11.5448" y2="7.99442" gradientUnits="userSpaceOnUse">
<stop offset="0.0185047" stop-color="#0C588B" stop-opacity="0.81"/>
<stop offset="0.437019" stop-color="#155A8A" stop-opacity="0.93"/>
<stop offset="0.96875" stop-color="#265E87" stop-opacity="0.92"/>
</linearGradient>
<linearGradient id="paint1_linear_213_11707" x1="9.50893" y1="0.503662" x2="18.2576" y2="4.58574" gradientUnits="userSpaceOnUse">
<stop offset="0.0185047" stop-color="#0C588B" stop-opacity="0.81"/>
<stop offset="0.437019" stop-color="#155A8A" stop-opacity="0.93"/>
<stop offset="0.96875" stop-color="#265E87" stop-opacity="0.92"/>
</linearGradient>
<linearGradient id="paint2_linear_213_11707" x1="16.5105" y1="1.09698e-07" x2="25.7115" y2="5.4497" gradientUnits="userSpaceOnUse">
<stop offset="0.0185047" stop-color="#0C588B" stop-opacity="0.81"/>
<stop offset="0.437019" stop-color="#155A8A" stop-opacity="0.93"/>
<stop offset="0.96875" stop-color="#265E87" stop-opacity="0.92"/>
</linearGradient>
</defs>
</svg>
