<svg width="22" height="22" viewBox="0 0 22 22" fill="none" xmlns="http://www.w3.org/2000/svg">
<path fill-rule="evenodd" clip-rule="evenodd" d="M17.7265 6.31129L22 2.0625L19.9375 0L15.6929 4.26247L14.168 2.72935C13.8387 2.39248 13.5039 2.04185 13.1051 2.04185C12.705 2.04185 12.3826 2.36502 12.3832 2.77065L12.3908 8.83436C12.3915 9.04748 12.4878 9.24 12.6342 9.37063C12.7669 9.515 12.9539 9.61812 13.1663 9.61812L19.1957 9.625C19.5944 9.625 19.9183 9.30184 19.9176 8.89621C19.9169 8.49746 19.4508 8.04377 19.2514 7.8444L17.7265 6.31129ZM9.36994 12.6225C9.23931 12.4781 9.05645 12.3819 8.84676 12.3819L2.91774 12.375C2.52587 12.375 2.20825 12.6913 2.20825 13.0831C2.20894 13.475 2.66682 13.9219 2.86344 14.1144L4.36288 15.6131L0 19.9375L2.0625 22L6.36212 17.6137L7.86156 19.1125C8.18537 19.4357 8.51537 19.7863 8.90725 19.7863C9.29981 19.7863 9.61744 19.47 9.61675 19.0781L9.60918 13.145C9.60918 12.9387 9.51431 12.7531 9.36994 12.6225Z" fill="#6A1732"/>
</svg>
