<svg width="15" height="15" viewBox="0 0 15 15" fill="none" xmlns="http://www.w3.org/2000/svg">
<path fill-rule="evenodd" clip-rule="evenodd" d="M14.2735 0.726489C13.3049 -0.242163 11.7344 -0.242163 10.7657 0.726489L9.49826 1.99386C8.57844 1.55177 7.44158 1.712 6.67901 2.47458L6.08851 3.06503C5.44276 3.7108 5.44276 4.7578 6.08851 5.40357L0.726499 10.7657C0.261329 11.2309 0 11.8618 0 12.5196V14.0078C0 14.5558 0.44421 15 0.992169 15H2.48042C3.13827 15 3.76918 14.7387 4.23434 14.2735L9.59649 8.91146C10.2422 9.55711 11.2892 9.55711 11.9349 8.91138L12.5254 8.32096C13.288 7.55832 13.4482 6.42156 13.0062 5.50167L14.2735 4.2343C15.2422 3.26564 15.2422 1.69515 14.2735 0.726489ZM1.89579 11.935L7.25786 6.57294L8.42713 7.7422L3.06507 13.1042C2.91001 13.2593 2.69971 13.3464 2.48042 13.3464H1.65361V12.5196C1.65361 12.3003 1.74073 12.09 1.89579 11.935Z" fill="url(#paint0_linear_1437_34121)"/>
<defs>
<linearGradient id="paint0_linear_1437_34121" x1="6.02679" y1="9.42672e-08" x2="13.7443" y2="13.6781" gradientUnits="userSpaceOnUse">
<stop offset="0.0185047" stop-color="#0C588B" stop-opacity="0.81"/>
<stop offset="0.437019" stop-color="#155A8A" stop-opacity="0.93"/>
<stop offset="0.96875" stop-color="#265E87" stop-opacity="0.92"/>
</linearGradient>
</defs>
</svg>
