<svg width="50" height="50" viewBox="0 0 50 50" fill="none" xmlns="http://www.w3.org/2000/svg">
<circle cx="25" cy="25" r="25" fill="url(#paint0_linear_1663_5432)"/>
<path d="M15.4544 17.1901L17.19 15.4545C18.8263 13.8182 19.6445 13.0001 20.6611 13.0001C21.6778 13.0001 22.4959 13.8182 24.1323 15.4545L21.2396 18.3471L15.4544 24.1324C13.8182 22.4961 13 21.6779 13 20.6612C13 19.6445 13.8181 18.8264 15.4544 17.1901Z" fill="white"/>
<path d="M34.5456 32.81L32.81 34.5455C31.1738 36.1819 30.3557 37 29.3389 37C28.3223 37 27.5041 36.1819 25.8679 34.5455L31.653 28.7603L34.5456 25.8677C36.1819 27.5041 37.0001 28.3222 37.0001 29.3389C37.0001 30.3556 36.1819 31.1738 34.5456 32.81Z" fill="white"/>
<path d="M24.2801 32.3935L33.1552 23.5184C31.9473 23.0157 30.5167 22.1899 29.1637 20.8368C27.8104 19.4836 26.9845 18.0527 26.4818 16.8447L17.6066 25.7199C16.914 26.4125 16.5677 26.7589 16.2699 27.1406C15.9186 27.5911 15.6174 28.0784 15.3716 28.594C15.1633 29.0312 15.0084 29.4958 14.6987 30.425L13.0653 35.3251C12.9129 35.7823 13.0319 36.2864 13.3728 36.6273C13.7136 36.9681 14.2177 37.0872 14.675 36.9348L19.575 35.3013C20.5042 34.9916 20.9688 34.8368 21.406 34.6285C21.9216 34.3827 22.409 34.0815 22.8594 33.7302C23.2412 33.4323 23.5876 33.086 24.2801 32.3935Z" fill="white"/>
<path d="M35.618 21.0557C37.4608 19.2128 37.4608 16.225 35.618 14.3821C33.7751 12.5393 30.7872 12.5393 28.9444 14.3821L27.88 15.4466C27.8946 15.4906 27.9096 15.5352 27.9254 15.5804C28.3155 16.705 29.0517 18.1792 30.4365 19.564C31.8213 20.9488 33.2955 21.685 34.4201 22.0752C34.4651 22.0908 34.5095 22.1058 34.5533 22.1203L35.618 21.0557Z" fill="white"/>
<defs>
<linearGradient id="paint0_linear_1663_5432" x1="20.0893" y1="3.14224e-07" x2="45.8142" y2="45.5938" gradientUnits="userSpaceOnUse">
<stop stop-color="#16968C"/>
<stop offset="1" stop-color="#0E3434"/>
</linearGradient>
</defs>
</svg>
