<svg width="22" height="32" viewBox="0 0 22 32" fill="none" xmlns="http://www.w3.org/2000/svg">
<path d="M1.11864 0C1.73645 0 2.23729 0.49978 2.23729 1.11628V3.86977L4.80371 3.35757C7.26552 2.86625 9.81737 3.10004 12.1483 4.03047L12.4521 4.15171C14.7806 5.08114 17.3435 5.25471 19.7764 4.64774C20.906 4.36598 22 5.21843 22 6.38019V17.345C22 18.304 21.346 19.1399 20.4136 19.3725L20.0938 19.4523C17.4544 20.1107 14.6744 19.9225 12.1483 18.9142C9.81737 17.9837 7.26552 17.75 4.80371 18.2413L2.23729 18.7535V30.8837C2.23729 31.5002 1.73645 32 1.11864 32C0.500839 32 0 31.5002 0 30.8837V1.11628C0 0.49978 0.500839 0 1.11864 0Z" fill="url(#paint0_linear_2531_13341)"/>
<defs>
<linearGradient id="paint0_linear_2531_13341" x1="8.83929" y1="2.01103e-07" x2="27.7044" y2="22.987" gradientUnits="userSpaceOnUse">
<stop offset="0.0185047" stop-color="#0C588B" stop-opacity="0.81"/>
<stop offset="0.437019" stop-color="#155A8A" stop-opacity="0.93"/>
<stop offset="0.96875" stop-color="#265E87" stop-opacity="0.92"/>
</linearGradient>
</defs>
</svg>
