<svg width="26" height="26" viewBox="0 0 26 26" fill="none" xmlns="http://www.w3.org/2000/svg">
<path fill-rule="evenodd" clip-rule="evenodd" d="M19.5 18.2C19.5 18.918 18.918 19.5 18.2 19.5H7.8C7.08201 19.5 6.5 18.918 6.5 18.2C6.5 17.482 7.08201 16.9 7.8 16.9H18.2C18.918 16.9 19.5 17.482 19.5 18.2ZM16.9 13C16.9 13.718 16.318 14.3 15.6 14.3H7.8C7.08201 14.3 6.5 13.718 6.5 13C6.5 12.282 7.08201 11.7 7.8 11.7H15.6C16.318 11.7 16.9 12.282 16.9 13ZM14.3 9.1C15.018 9.1 15.6 8.51798 15.6 7.8C15.6 7.08204 15.018 6.5 14.3 6.5H7.8C7.08201 6.5 6.5 7.08204 6.5 7.8C6.5 8.51796 7.08201 9.1 7.8 9.1H14.3ZM25.4958 6.82509C25.871 8.51341 26 10.5616 26 13C26 15.4384 25.871 17.4866 25.4958 19.1749C25.1173 20.878 24.4712 22.2934 23.3823 23.3823C22.2935 24.4712 20.878 25.1173 19.1749 25.4959C17.4866 25.871 15.4384 26 13 26C10.5616 26 8.51344 25.871 6.82513 25.4959C5.122 25.1173 3.70656 24.4712 2.61768 23.3823C1.5288 22.2934 0.882701 20.878 0.504141 19.1749C0.128961 17.4866 9.53674e-07 15.4384 9.53674e-07 13C9.53674e-07 10.5616 0.128961 8.51341 0.504141 6.82509C0.882701 5.12203 1.5288 3.70651 2.61768 2.61765C3.70656 1.5288 5.122 0.882661 6.82513 0.504166C8.51344 0.12896 10.5616 0 13 0C15.4384 0 17.4866 0.12896 19.1749 0.504166C20.878 0.882661 22.2935 1.5288 23.3823 2.61765C24.4712 3.70651 25.1173 5.12203 25.4958 6.82509Z" fill="url(#paint0_linear_2455_5968)"/>
<defs>
<linearGradient id="paint0_linear_2455_5968" x1="26" y1="10.4464" x2="2.29123" y2="23.8234" gradientUnits="userSpaceOnUse">
<stop stop-color="#16968C"/>
<stop offset="1" stop-color="#0E3434"/>
</linearGradient>
</defs>
</svg>
