<svg width="15" height="18" viewBox="0 0 15 18" fill="none" xmlns="http://www.w3.org/2000/svg">
<path fill-rule="evenodd" clip-rule="evenodd" d="M8.18177 0.695341C8.18177 0.31131 7.87655 0 7.5 0C7.12345 0 6.81823 0.31131 6.81823 0.695341V0.968781C6.41129 1.01728 6.00852 1.1062 5.61648 1.2352C3.57409 1.90718 1.97805 3.59279 1.41285 5.71012L0.871965 7.73631L0.443632 9.70521C0.405909 9.87871 0.359603 10.0703 0.310945 10.2718C0.209932 10.6899 0.0987484 11.1502 0.0330001 11.5766C0.0112355 11.7177 0 11.862 0 12.0085C0 13.3231 0.908052 14.4558 2.17141 14.717L2.50559 14.7861C3.06293 14.9014 3.62315 14.9971 4.18527 15.0734C4.1905 15.0968 4.19594 15.1202 4.20159 15.1436L4.2761 15.4512C4.57078 16.6676 5.50697 17.6143 6.70219 17.9045C7.22671 18.0318 7.77329 18.0318 8.29781 17.9045C9.49306 17.6143 10.4293 16.6676 10.7239 15.4512L10.7985 15.1436C10.8041 15.1202 10.8095 15.0968 10.8147 15.0734C11.3769 14.9971 11.9371 14.9014 12.4944 14.7861L12.8286 14.717C14.092 14.4558 15 13.3231 15 12.0085C15 11.862 14.9888 11.7177 14.967 11.5766C14.9013 11.1502 14.7901 10.69 14.6891 10.2719C14.6404 10.0704 14.5941 9.87861 14.5564 9.70521L14.1286 7.73911L13.595 5.6747C13.0549 3.58523 11.514 1.91682 9.50119 1.24206C9.07123 1.09794 8.62848 1.00318 8.18177 0.957381V0.695341ZM7.01806 16.5516C6.35535 16.3907 5.829 15.8846 5.62955 15.2262C6.87474 15.321 8.12526 15.321 9.37045 15.2262C9.171 15.8846 8.64464 16.3907 7.98194 16.5516C7.6651 16.6286 7.3349 16.6286 7.01806 16.5516Z" fill="url(#paint0_linear_1704_2400)"/>
<defs>
<linearGradient id="paint0_linear_1704_2400" x1="6.02679" y1="1.13121e-07" x2="16.0726" y2="14.8373" gradientUnits="userSpaceOnUse">
<stop offset="0.0185047" stop-color="#0C588B" stop-opacity="0.81"/>
<stop offset="0.437019" stop-color="#155A8A" stop-opacity="0.93"/>
<stop offset="0.96875" stop-color="#265E87" stop-opacity="0.92"/>
</linearGradient>
</defs>
</svg>
