<svg width="50" height="50" viewBox="0 0 50 50" fill="none" xmlns="http://www.w3.org/2000/svg">
<circle cx="25" cy="25" r="25" fill="url(#paint0_linear_1663_5434)"/>
<path fill-rule="evenodd" clip-rule="evenodd" d="M31 29.8C31 30.4628 30.4627 31 29.8 31H20.2C19.5372 31 19 30.4628 19 29.8C19 29.1372 19.5372 28.6 20.2 28.6H29.8C30.4627 28.6 31 29.1372 31 29.8ZM28.6 25C28.6 25.6628 28.0627 26.2 27.4 26.2H20.2C19.5372 26.2 19 25.6628 19 25C19 24.3372 19.5372 23.8 20.2 23.8H27.4C28.0627 23.8 28.6 24.3372 28.6 25ZM26.2 21.4C26.8628 21.4 27.4 20.8627 27.4 20.2C27.4 19.5373 26.8628 19 26.2 19H20.2C19.5372 19 19 19.5373 19 20.2C19 20.8627 19.5372 21.4 20.2 21.4H26.2ZM36.5346 19.3001C36.881 20.8585 37 22.7492 37 25C37 27.2508 36.881 29.1414 36.5346 30.6999C36.1852 32.272 35.5888 33.5786 34.5837 34.5837C33.5786 35.5888 32.272 36.1852 30.6999 36.5346C29.1415 36.881 27.2508 37 25 37C22.7492 37 20.8586 36.881 19.3001 36.5346C17.728 36.1852 16.4214 35.5888 15.4163 34.5837C14.4112 33.5786 13.8148 32.272 13.4654 30.6999C13.119 29.1414 13 27.2508 13 25C13 22.7492 13.119 20.8585 13.4654 19.3001C13.8148 17.728 14.4112 16.4214 15.4163 15.4163C16.4214 14.4112 17.728 13.8148 19.3001 13.4654C20.8586 13.119 22.7492 13 25 13C27.2508 13 29.1415 13.119 30.6999 13.4654C32.272 13.8148 33.5786 14.4112 34.5837 15.4163C35.5888 16.4214 36.1852 17.728 36.5346 19.3001Z" fill="white"/>
<defs>
<linearGradient id="paint0_linear_1663_5434" x1="20.0893" y1="3.14224e-07" x2="45.8142" y2="45.5938" gradientUnits="userSpaceOnUse">
<stop stop-color="#16968C"/>
<stop offset="1" stop-color="#0E3434"/>
</linearGradient>
</defs>
</svg>
