<svg width="24" height="23" viewBox="0 0 24 23" fill="none" xmlns="http://www.w3.org/2000/svg">
<path fill-rule="evenodd" clip-rule="evenodd" d="M23.8039 11.5C23.8039 17.8512 18.6026 23 12.1867 23C5.77065 23 0.569458 17.8512 0.569458 11.5C0.569458 5.14872 5.77065 0 12.1867 0C18.6026 0 23.8039 5.14872 23.8039 11.5ZM12.1867 18.1125C12.6678 18.1125 13.0579 17.7263 13.0579 17.25V10.35C13.0579 9.87367 12.6678 9.4875 12.1867 9.4875C11.7055 9.4875 11.3154 9.87367 11.3154 10.35V17.25C11.3154 17.7263 11.7055 18.1125 12.1867 18.1125ZM12.1867 5.75C12.8283 5.75 13.3484 6.26488 13.3484 6.9C13.3484 7.53512 12.8283 8.05 12.1867 8.05C11.545 8.05 11.0249 7.53512 11.0249 6.9C11.0249 6.26488 11.545 5.75 12.1867 5.75Z" fill="url(#paint0_linear_691_75267)"/>
<defs>
<linearGradient id="paint0_linear_691_75267" x1="9.90471" y1="1.44543e-07" x2="21.6759" y2="21.0753" gradientUnits="userSpaceOnUse">
<stop offset="0.0185047" stop-color="#0C588B" stop-opacity="0.81"/>
<stop offset="0.437019" stop-color="#155A8A" stop-opacity="0.93"/>
<stop offset="0.96875" stop-color="#265E87" stop-opacity="0.92"/>
</linearGradient>
</defs>
</svg>
