<svg width="14" height="14" viewBox="0 0 14 14" fill="none" xmlns="http://www.w3.org/2000/svg">
<path d="M13.4934 5.02336C13.2903 4.70128 13.0732 4.40021 12.8492 4.12014C12.5901 3.79105 12.1 3.76305 11.8059 4.05712L9.7054 6.15762C9.85944 6.61973 9.88745 7.15187 9.74741 7.70501C9.50235 8.69225 8.70415 9.49045 7.7169 9.73551C7.16376 9.87555 6.63163 9.84754 6.16952 9.6935C6.16952 9.6935 5.16827 10.6948 4.44709 11.4159C4.097 11.766 4.20903 12.3822 4.67815 12.5642C5.42734 12.8513 6.20452 12.9983 7.00272 12.9983C8.24904 12.9983 9.46034 12.6342 10.5666 11.9551C11.6939 11.2549 12.7092 10.2256 13.5284 8.91631C14.1935 7.85904 14.1585 6.0806 13.4934 5.02336Z" fill="url(#paint0_linear_405_150528)"/>
<path d="M8.41654 5.5851L5.58784 8.41379C5.23075 8.0497 4.99969 7.54557 4.99969 6.99944C4.99969 5.90016 5.89591 4.99695 7.00218 4.99695C7.54832 4.99695 8.05245 5.22801 8.41654 5.5851Z" fill="url(#paint1_linear_405_150528)"/>
<path d="M11.3778 2.6227L9.00425 4.99629C8.49313 4.47816 7.78595 4.17009 7.00175 4.17009C5.43336 4.17009 4.17305 5.4374 4.17305 6.9988C4.17305 7.783 4.48812 8.49018 4.99925 9.0013L2.63266 11.3749H2.62566C1.84846 10.7447 1.13428 9.93954 0.525132 8.9873C-0.175044 7.88802 -0.175044 6.10258 0.525132 5.00329C1.33733 3.72898 2.33158 2.72772 3.43786 2.04155C4.54414 1.36938 5.75544 0.998291 7.00175 0.998291C8.56314 0.998291 10.0755 1.57244 11.3778 2.6227Z" fill="url(#paint2_linear_405_150528)"/>
<path d="M9.00294 6.99769C9.00294 8.09697 8.10672 9.00019 7.00044 9.00019C6.95843 9.00019 6.92342 9.00019 6.88141 8.98619L8.98894 6.87866C9.00294 6.92067 9.00294 6.95568 9.00294 6.99769Z" fill="url(#paint3_linear_405_150528)"/>
<path d="M13.8419 0.157539C13.6318 -0.0525132 13.2888 -0.0525132 13.0787 0.157539L0.160469 13.0828C-0.0495835 13.2928 -0.0495835 13.6359 0.160469 13.846C0.265495 13.944 0.398529 14 0.538564 14C0.678599 14 0.811632 13.944 0.916659 13.839L13.8419 0.913729C14.0589 0.703676 14.0589 0.367592 13.8419 0.157539Z" fill="url(#paint4_linear_405_150528)"/>
<defs>
<linearGradient id="paint0_linear_405_150528" x1="8.16671" y1="3.8537" x2="12.7068" y2="12.4489" gradientUnits="userSpaceOnUse">
<stop offset="0.0185047" stop-color="#0C588B" stop-opacity="0.81"/>
<stop offset="0.437019" stop-color="#155A8A" stop-opacity="0.93"/>
<stop offset="0.96875" stop-color="#265E87" stop-opacity="0.92"/>
</linearGradient>
<linearGradient id="paint1_linear_405_150528" x1="6.37253" y1="4.99695" x2="8.1305" y2="8.11268" gradientUnits="userSpaceOnUse">
<stop offset="0.0185047" stop-color="#0C588B" stop-opacity="0.81"/>
<stop offset="0.437019" stop-color="#155A8A" stop-opacity="0.93"/>
<stop offset="0.96875" stop-color="#265E87" stop-opacity="0.92"/>
</linearGradient>
<linearGradient id="paint2_linear_405_150528" x1="4.57146" y1="0.998291" x2="9.64661" y2="10.8612" gradientUnits="userSpaceOnUse">
<stop offset="0.0185047" stop-color="#0C588B" stop-opacity="0.81"/>
<stop offset="0.437019" stop-color="#155A8A" stop-opacity="0.93"/>
<stop offset="0.96875" stop-color="#265E87" stop-opacity="0.92"/>
</linearGradient>
<linearGradient id="paint3_linear_405_150528" x1="7.73381" y1="6.87866" x2="8.82534" y2="8.81324" gradientUnits="userSpaceOnUse">
<stop offset="0.0185047" stop-color="#0C588B" stop-opacity="0.81"/>
<stop offset="0.437019" stop-color="#155A8A" stop-opacity="0.93"/>
<stop offset="0.96875" stop-color="#265E87" stop-opacity="0.92"/>
</linearGradient>
<linearGradient id="paint4_linear_405_150528" x1="5.62863" y1="8.79827e-08" x2="12.8312" y2="12.767" gradientUnits="userSpaceOnUse">
<stop offset="0.0185047" stop-color="#0C588B" stop-opacity="0.81"/>
<stop offset="0.437019" stop-color="#155A8A" stop-opacity="0.93"/>
<stop offset="0.96875" stop-color="#265E87" stop-opacity="0.92"/>
</linearGradient>
</defs>
</svg>
