<svg width="50" height="50" viewBox="0 0 50 50" fill="none" xmlns="http://www.w3.org/2000/svg">
<circle cx="25" cy="25" r="25" fill="url(#paint0_linear_1663_5435)"/>
<path d="M34.7183 20.8439C33.5352 15.4351 28.9944 13 25.0057 13C25.0057 13 25.0057 13 24.9944 13C21.0169 13 16.4648 15.4234 15.2817 20.8322C13.9634 26.8732 17.5239 31.9893 20.7465 35.2088C21.9408 36.4029 23.4733 37 25.0057 37C26.538 37 28.0704 36.4029 29.2535 35.2088C32.4761 31.9893 36.0366 26.8849 34.7183 20.8439ZM25.0057 26.7093C23.0451 26.7093 21.4563 25.0585 21.4563 23.0215C21.4563 20.9844 23.0451 19.3337 25.0057 19.3337C26.9662 19.3337 28.5549 20.9844 28.5549 23.0215C28.5549 25.0585 26.9662 26.7093 25.0057 26.7093Z" fill="white"/>
<defs>
<linearGradient id="paint0_linear_1663_5435" x1="20.0893" y1="3.14224e-07" x2="45.8142" y2="45.5938" gradientUnits="userSpaceOnUse">
<stop stop-color="#16968C"/>
<stop offset="1" stop-color="#0E3434"/>
</linearGradient>
</defs>
</svg>
