<svg width="82" height="104" viewBox="0 0 82 104" fill="none" xmlns="http://www.w3.org/2000/svg">
<ellipse cx="43.6452" cy="5.69647" rx="5.73118" ry="5.69647" fill="#1AAA55" fill-opacity="0.6"/>
<ellipse cx="79.7956" cy="28.4823" rx="2.2043" ry="2.19095" fill="#1AAA55" fill-opacity="0.6"/>
<path d="M79.2326 6.43804C81.0872 10.9821 78.8862 16.1609 74.3167 18.0052C73.8126 18.2086 73.3008 18.363 72.7866 18.4705C69.925 19.069 66.7292 19.8829 65.198 22.3603C63.4103 25.2527 64.3874 29.0088 67.0271 31.1618C72.2906 35.4547 76.5496 41.1128 79.1955 47.8702C87.4095 68.8475 76.9676 92.4747 55.8727 100.643C34.7779 108.811 11.0185 98.4274 2.80447 77.45C-5.40953 56.4727 5.03244 32.8455 26.1273 24.6773C35.341 21.1095 45.0632 21.0811 53.7763 23.9288C56.9322 24.9603 60.5303 23.9829 62.2698 21.1685L62.9166 20.122C64.1993 18.0467 63.606 15.3739 62.6848 13.1167C60.8302 8.57261 63.0311 3.39382 67.6006 1.54956C72.1702 -0.294699 77.378 1.89395 79.2326 6.43804Z" fill="white"/>
<path d="M79.2326 6.419C81.0872 10.9631 78.8862 16.1419 74.3167 17.9861C73.8126 18.1896 73.3008 18.3439 72.7866 18.4515C69.925 19.0499 66.7292 19.8638 65.198 22.3412C63.4103 25.2336 64.3874 28.9898 67.0271 31.1428C72.2906 35.4357 76.5496 41.0938 79.1955 47.8511C87.4095 68.8285 76.9676 92.4556 55.8727 100.624C34.7779 108.792 11.0185 98.4083 2.80447 77.431C-5.40953 56.4536 5.03244 32.8265 26.1273 24.6582C35.341 21.0905 45.0632 21.0621 53.7763 23.9098C56.9322 24.9412 60.5303 23.9639 62.2698 21.1495L62.9166 20.103C64.1993 18.0276 63.606 15.3548 62.6848 13.0977C60.8302 8.55357 63.0311 3.37478 67.6006 1.53052C72.1702 -0.313742 77.378 1.8749 79.2326 6.419Z" fill="#1AAA55" fill-opacity="0.6"/>
<ellipse cx="41.436" cy="63.5376" rx="34.4574" ry="34.617" fill="white"/>
<path d="M40.9532 28.045C41.0853 28.0453 41.2173 28.0455 41.3533 28.0458C43.3068 28.052 45.2076 28.1211 47.1297 28.498C47.3128 28.531 47.3128 28.531 47.4997 28.5647C50.6845 29.1437 53.7593 30.2016 56.658 31.6433C56.7512 31.6896 56.8444 31.7359 56.9405 31.7837C59.8886 33.2689 62.6291 35.2209 64.9782 37.5447C65.2474 37.8107 65.5193 38.0736 65.7913 38.3365C66.9364 39.4536 67.9655 40.6067 68.9088 41.8995C68.9666 41.9773 69.0244 42.0552 69.084 42.1354C69.971 43.3309 70.7633 44.5683 71.495 45.8652C71.549 45.9598 71.6031 46.0543 71.6587 46.1517C74.579 51.307 75.9163 57.1466 75.8934 63.0444C75.893 63.2433 75.893 63.2433 75.8926 63.4463C75.8865 65.4089 75.8177 67.3184 75.4425 69.2494C75.4206 69.3721 75.3987 69.4948 75.3761 69.6211C74.1769 76.2792 70.9858 82.4362 66.3225 87.3004C66.2364 87.3905 66.1504 87.4807 66.0617 87.5736C64.817 88.8711 63.5515 90.0663 62.1028 91.1294C61.9461 91.2467 61.7894 91.364 61.6328 91.4814C60.5178 92.3072 59.36 93.0416 58.1553 93.7276C58.0612 93.7819 57.9671 93.8361 57.8702 93.8921C52.7386 96.8258 46.9259 98.1693 41.0553 98.1463C40.8573 98.1459 40.8573 98.1459 40.6553 98.1456C38.7017 98.1394 36.801 98.0703 34.8789 97.6933C34.7568 97.6713 34.6347 97.6493 34.5089 97.6266C27.8816 96.4219 21.7529 93.216 16.9112 88.5311C16.8214 88.4447 16.7316 88.3582 16.6392 88.2692C15.3476 87.0187 14.158 85.7473 13.0998 84.2919C12.983 84.1345 12.8662 83.9771 12.7494 83.8197C11.9276 82.6997 11.1949 81.537 10.5135 80.3261C10.4588 80.2294 10.404 80.1327 10.3476 80.0331C8.33956 76.4499 7.04163 72.4923 6.42996 68.4289C6.3939 68.1987 6.3939 68.1987 6.35711 67.9638C6.13158 66.3757 6.10345 64.8007 6.10668 63.1982C6.10675 63.0598 6.10682 62.9215 6.1069 62.7789C6.11244 60.5186 6.23541 58.3396 6.7022 56.1214C6.73209 55.979 6.76199 55.8365 6.79279 55.6897C8.14202 49.4754 11.1125 43.5596 15.5711 39.0107C15.8358 38.7403 16.0975 38.4672 16.3592 38.1939C17.4711 37.0435 18.6189 36.0096 19.9058 35.062C19.9833 35.0039 20.0608 34.9458 20.1406 34.886C21.3304 33.995 22.5616 33.1973 23.8532 32.4638C23.9495 32.4088 24.0458 32.3538 24.145 32.2971C27.7041 30.284 31.6545 28.9576 35.6956 28.3613C35.8596 28.337 36.0236 28.3128 36.1925 28.2878C37.7793 28.0691 39.3534 28.0388 40.9532 28.045ZM34.6067 37.6602C34.511 37.6833 34.4152 37.7063 34.3166 37.73C28.6248 39.1353 23.5181 42.823 20.0419 47.5062C19.9568 47.6197 19.8717 47.7333 19.784 47.8502C17.6278 50.8332 16.2448 54.1841 15.4138 57.7624C15.3877 57.8723 15.3615 57.9821 15.3346 58.0952C14.5608 61.5194 14.74 65.5855 15.55 68.9759C15.5777 69.096 15.6054 69.216 15.634 69.3397C17.0403 75.2613 20.6509 80.5323 25.4867 84.1551C25.6562 84.2834 25.6562 84.2834 25.8291 84.4142C31.2762 88.3881 38.2259 90.0863 44.8771 89.0512C51.7255 87.8967 57.8053 84.2914 61.9667 78.6851C62.0518 78.5716 62.1369 78.4581 62.2246 78.3411C64.3808 75.3581 65.7638 72.0072 66.5947 68.4289C66.6339 68.2642 66.6339 68.2642 66.674 68.0961C67.4478 64.6719 67.2686 60.6059 66.4586 57.2154C66.4309 57.0954 66.4032 56.9754 66.3746 56.8517C64.9683 50.93 61.3577 45.6591 56.5219 42.0362C56.4089 41.9507 56.2959 41.8652 56.1795 41.7772C49.9529 37.2346 42.0443 35.8215 34.6067 37.6602Z" fill="#1AAA55"/>
<path d="M40.9532 28.045C41.0853 28.0453 41.2173 28.0455 41.3533 28.0458C43.3068 28.052 45.2076 28.1211 47.1297 28.498C47.3128 28.531 47.3128 28.531 47.4997 28.5647C50.6845 29.1437 53.7593 30.2016 56.658 31.6433C56.7512 31.6896 56.8444 31.7359 56.9405 31.7837C59.8886 33.2689 62.6291 35.2209 64.9782 37.5447C65.2474 37.8107 65.5193 38.0736 65.7913 38.3365C66.9364 39.4536 67.9655 40.6067 68.9088 41.8995C68.9666 41.9773 69.0244 42.0552 69.084 42.1354C69.971 43.3309 70.7633 44.5683 71.495 45.8652C71.549 45.9598 71.6031 46.0543 71.6587 46.1517C74.579 51.307 75.9163 57.1466 75.8934 63.0444C75.893 63.2433 75.893 63.2433 75.8926 63.4463C75.8865 65.4089 75.8177 67.3184 75.4425 69.2494C75.4206 69.3721 75.3987 69.4948 75.3761 69.6211C74.1769 76.2792 70.9858 82.4362 66.3225 87.3004C66.2364 87.3905 66.1504 87.4807 66.0617 87.5736C64.817 88.8711 63.5515 90.0663 62.1028 91.1294C61.9461 91.2467 61.7894 91.364 61.6328 91.4814C60.5178 92.3072 59.36 93.0416 58.1553 93.7276C58.0612 93.7819 57.9671 93.8361 57.8702 93.8921C52.7386 96.8258 46.9259 98.1693 41.0553 98.1463C40.8573 98.1459 40.8573 98.1459 40.6553 98.1456C38.7017 98.1394 36.801 98.0703 34.8789 97.6933C34.7568 97.6713 34.6347 97.6493 34.5089 97.6266C27.8816 96.4219 21.7529 93.216 16.9112 88.5311C16.8214 88.4447 16.7316 88.3582 16.6392 88.2692C15.3476 87.0187 14.158 85.7473 13.0998 84.2919C12.983 84.1345 12.8662 83.9771 12.7494 83.8197C11.9276 82.6997 11.1949 81.537 10.5135 80.3261C10.4588 80.2294 10.404 80.1327 10.3476 80.0331C8.33956 76.4499 7.04163 72.4923 6.42996 68.4289C6.3939 68.1987 6.3939 68.1987 6.35711 67.9638C6.13158 66.3757 6.10345 64.8007 6.10668 63.1982C6.10675 63.0598 6.10682 62.9215 6.1069 62.7789C6.11244 60.5186 6.23541 58.3396 6.7022 56.1214C6.73209 55.979 6.76199 55.8365 6.79279 55.6897C8.14202 49.4754 11.1125 43.5596 15.5711 39.0107C15.8358 38.7403 16.0975 38.4672 16.3592 38.1939C17.4711 37.0435 18.6189 36.0096 19.9058 35.062C19.9833 35.0039 20.0608 34.9458 20.1406 34.886C21.3304 33.995 22.5616 33.1973 23.8532 32.4638C23.9495 32.4088 24.0458 32.3538 24.145 32.2971C27.7041 30.284 31.6545 28.9576 35.6956 28.3613C35.8596 28.337 36.0236 28.3128 36.1925 28.2878C37.7793 28.0691 39.3534 28.0388 40.9532 28.045ZM34.7428 30.8228C34.6459 30.8409 34.5489 30.859 34.4491 30.8777C28.8131 31.9471 23.6368 34.6793 19.3613 38.4807C19.2413 38.5862 19.1213 38.6916 18.9976 38.8002C16.3277 41.1742 14.1647 43.9771 12.4192 47.096C12.3695 47.183 12.3197 47.2701 12.2685 47.3598C10.6292 50.2432 9.58163 53.366 8.92265 56.6086C8.89505 56.7443 8.86746 56.88 8.83903 57.0199C8.45638 58.9892 8.27987 60.914 8.28459 62.9162C8.28457 63.0249 8.28455 63.1336 8.28454 63.2456C8.28908 65.3751 8.49514 67.4262 8.88011 69.5229C8.89974 69.6339 8.91937 69.745 8.93959 69.8594C10.0909 76.1531 13.5423 81.7635 17.864 86.3431C18.0093 86.4978 18.0093 86.4978 18.1575 86.6556C18.869 87.3924 19.6497 88.0315 20.4503 88.6679C20.6474 88.8284 20.6474 88.8284 20.8485 88.9921C25.375 92.6035 30.5969 94.6187 36.2401 95.6421C36.3373 95.6606 36.4345 95.6792 36.5347 95.6983C44.189 97.1261 52.9472 94.7289 59.2783 90.3858C61.9626 88.4996 64.4188 86.3267 66.4586 83.7449C66.5653 83.6127 66.672 83.4805 66.7819 83.3442C69.0461 80.479 70.6576 77.3223 71.9034 73.8989C71.9399 73.799 71.9764 73.6992 72.014 73.5963C72.4959 72.2623 72.8324 70.9079 73.1285 69.5229C73.1564 69.3958 73.1843 69.2687 73.213 69.1378C73.2878 68.7657 73.3469 68.3944 73.4007 68.0187C73.426 67.8433 73.4512 67.6679 73.4773 67.4872C73.9325 63.9329 73.8033 60.3171 73.1285 56.8052C73.1081 56.6922 73.0878 56.5791 73.0668 56.4627C71.9097 50.0827 68.5319 44.4974 64.1446 39.8482C64.0477 39.7451 63.9509 39.642 63.8511 39.5357C63.1396 38.799 62.3593 38.1592 61.5583 37.5235C61.419 37.4117 61.2797 37.3 61.1361 37.1848C60.0956 36.3585 59.0191 35.6129 57.8831 34.9253C57.7493 34.8438 57.7493 34.8438 57.6128 34.7608C50.7831 30.6551 42.5345 29.3108 34.7428 30.8228Z" fill="#1AAA55"/>
<path d="M46.1767 35.0619C46.3318 35.0894 46.3318 35.0894 46.49 35.1174C52.2021 36.1507 57.2297 39.1787 61.2859 43.2669C61.3789 43.3556 61.4719 43.4443 61.5677 43.5356C66.347 48.1453 69.2139 55.255 69.3505 61.8552C69.379 63.6907 69.3817 65.5253 69.0447 67.3348C69.0235 67.4589 69.0023 67.5829 68.9804 67.7107C68.0312 73.2301 65.6379 78.0428 61.9665 82.2406C61.8785 82.3458 61.7904 82.451 61.6996 82.5595C61.157 83.2044 60.5675 83.7492 59.9247 84.2918C59.7926 84.4076 59.6605 84.5234 59.5244 84.6428C54.9525 88.6351 48.7561 91.4472 42.6376 91.5395C42.5113 91.5429 42.385 91.5462 42.2548 91.5496C34.5536 91.7406 27.2872 89.2309 21.6522 83.8744C16.4494 78.8698 12.914 72.0157 12.6763 64.6845C12.5534 57.0303 14.7179 49.9471 19.8474 44.1721C20.0573 43.9329 20.2619 43.6896 20.4666 43.4459C20.7492 43.1139 21.0346 42.8128 21.3689 42.5319C21.6652 42.28 21.9562 42.0279 22.2383 41.76C28.4981 35.8342 37.8195 33.4994 46.1767 35.0619ZM34.6065 37.6602C34.5108 37.6832 34.4151 37.7062 34.3165 37.73C28.6246 39.1353 23.518 42.8229 20.0418 47.5062C19.9567 47.6197 19.8716 47.7332 19.7839 47.8502C17.6276 50.8332 16.2446 54.184 15.4137 57.7624C15.3876 57.8722 15.3614 57.982 15.3345 58.0952C14.5606 61.5193 14.7399 65.5854 15.5498 68.9758C15.5775 69.0959 15.6053 69.2159 15.6338 69.3396C17.0401 75.2613 20.6508 80.5322 25.4865 84.1551C25.656 84.2833 25.656 84.2833 25.829 84.4141C31.276 88.3881 38.2258 90.0863 44.877 89.0511C51.7254 87.8967 57.8051 84.2913 61.9665 78.6851C62.0516 78.5715 62.1367 78.458 62.2244 78.3411C64.3807 75.358 65.7637 72.0072 66.5946 68.4288C66.6338 68.2641 66.6338 68.2641 66.6738 68.0961C67.4477 64.6719 67.2684 60.6058 66.4585 57.2154C66.4308 57.0953 66.403 56.9753 66.3745 56.8516C64.9682 50.9299 61.3575 45.659 56.5218 42.0362C56.4088 41.9507 56.2958 41.8652 56.1793 41.7771C49.9528 37.2345 42.0441 35.8214 34.6065 37.6602Z" fill="#1AAA55"/>
<path d="M56.3594 49.3352C57.0459 49.8457 57.4813 50.5253 57.7471 51.3351C57.8447 52.2694 57.8264 53.1116 57.3388 53.9334C56.7481 54.6639 56.0968 55.3388 55.4364 56.0051C55.3457 56.0971 55.2551 56.1891 55.1617 56.2838C54.8609 56.5888 54.5596 56.8933 54.2583 57.1977C54.0413 57.4175 53.8244 57.6372 53.6074 57.857C51.6364 59.853 49.6614 61.845 47.6855 63.8361C47.4218 64.1018 47.1581 64.3675 46.8944 64.6333C46.8288 64.6993 46.7633 64.7654 46.6958 64.8334C45.632 65.9056 44.5704 66.98 43.5096 68.0551C42.4189 69.1606 41.3261 70.2638 40.2313 71.3653C39.6174 71.9831 39.0043 72.6019 38.3935 73.2229C37.8197 73.8063 37.2434 74.387 36.665 74.9659C36.4531 75.1788 36.2422 75.3927 36.0322 75.6076C35.7457 75.9005 35.4561 76.1899 35.1653 76.4787C35.0416 76.6077 35.0416 76.6077 34.9153 76.7393C34.4983 77.1462 34.2153 77.3692 33.6212 77.3893C32.9744 77.2986 32.6684 77.0265 32.2323 76.5713C32.1521 76.492 32.0718 76.4126 31.9891 76.3308C31.7253 76.0685 31.4656 75.8025 31.206 75.5361C31.0229 75.3518 30.8396 75.1677 30.6561 74.9838C30.2722 74.598 29.8903 74.2103 29.5097 73.8212C29.0236 73.3243 28.5337 72.8314 28.0424 72.3398C27.6634 71.9599 27.2862 71.5784 26.9094 71.1962C26.7295 71.014 26.5491 70.8322 26.3683 70.6508C24.4327 68.7048 24.4327 68.7048 24.1895 67.3391C24.2023 66.2919 24.3719 65.4903 25.0865 64.7003C25.9975 63.8421 26.6973 63.6202 27.9269 63.5796C29.0307 63.7458 29.7994 64.3196 30.5536 65.1105C30.6395 65.1978 30.7253 65.285 30.8138 65.3749C31.0844 65.6506 31.3526 65.9285 31.6207 66.2067C31.8052 66.3954 31.9897 66.5839 32.1745 66.7723C32.6241 67.2316 33.0716 67.6928 33.5179 68.1553C34.0571 67.937 34.4173 67.5609 34.8172 67.1518C34.8919 67.0765 34.9665 67.0013 35.0434 66.9238C35.2935 66.6714 35.5425 66.4181 35.7916 66.1648C35.9707 65.9837 36.1498 65.8027 36.329 65.6217C36.7149 65.2317 37.1004 64.8414 37.4857 64.4507C38.0952 63.8327 38.706 63.2159 39.3171 62.5994C41.0546 60.8459 42.7907 59.0912 44.5248 57.3344C45.4825 56.3642 46.4414 55.3953 47.4016 54.4276C48.0089 53.8155 48.6147 53.2019 49.2194 52.5871C49.5967 52.2042 49.9755 51.8228 50.3546 51.4418C50.5297 51.2653 50.7041 51.0883 50.8779 50.9106C52.4484 49.3062 54.1177 48.0607 56.3594 49.3352Z" fill="#1AAA55"/>
<path d="M54.8887 51.1984C55.2205 51.4121 55.2205 51.4121 55.4331 51.7454C55.5267 52.1898 55.5267 52.1898 55.4331 52.7026C54.6508 53.8625 53.4574 54.8424 52.4729 55.8289C52.2688 56.0338 52.0649 56.2388 51.8609 56.4437C51.3095 56.9977 50.7577 57.5513 50.2058 58.1048C49.6282 58.6842 49.051 59.264 48.4737 59.8438C47.3817 60.9405 46.2892 62.0369 45.1967 63.1331C43.9524 64.3816 42.7085 65.6305 41.4647 66.8794C38.9069 69.4476 36.3487 72.0152 33.7902 74.5826C33.2892 74.3465 32.9666 74.0626 32.5738 73.6673C32.5088 73.6023 32.4439 73.5373 32.377 73.4704C32.1635 73.2563 31.9508 73.0413 31.7383 72.8262C31.5899 72.677 31.4414 72.5278 31.293 72.3786C30.9824 72.0664 30.6722 71.7537 30.3624 71.4406C29.9649 71.0389 29.5665 70.6381 29.1677 70.2376C28.8614 69.9298 28.5554 69.6217 28.2496 69.3134C28.1027 69.1655 27.9558 69.0176 27.8088 68.8698C27.6038 68.6636 27.3993 68.457 27.1949 68.2502C27.0784 68.1325 26.9618 68.0149 26.8418 67.8938C26.5252 67.5539 26.4499 67.4119 26.3887 66.9502C26.4397 66.5143 26.4397 66.5143 26.729 66.1212C27.1952 65.775 27.3703 65.765 27.937 65.8306C28.247 66.0298 28.247 66.0298 28.5485 66.3215C28.6657 66.4339 28.7828 66.5464 28.9036 66.6622C29.3496 67.1096 29.7884 67.5641 30.2266 68.0191C30.3075 68.103 30.3884 68.1869 30.4717 68.2733C30.5535 68.3582 30.6352 68.4431 30.7195 68.5306C30.802 68.6162 30.8845 68.7019 30.9695 68.7901C31.1384 68.9666 31.3065 69.1439 31.4738 69.322C31.7191 69.5826 31.9678 69.8395 32.2173 70.096C32.2908 70.1759 32.3643 70.2558 32.44 70.3381C32.5118 70.4108 32.5837 70.4835 32.6577 70.5584C32.7189 70.6227 32.78 70.687 32.8431 70.7533C33.2815 70.9788 33.7236 70.9731 34.1985 70.8903C34.5424 70.6504 34.7828 70.4468 35.0666 70.1489C35.1468 70.0691 35.2271 69.9893 35.3097 69.9072C35.5774 69.6398 35.8409 69.3687 36.1047 69.0974C36.2959 68.9047 36.4874 68.7123 36.6791 68.5201C37.1987 67.9978 37.7149 67.4723 38.2305 66.9461C38.7703 66.3964 39.3133 65.8499 39.8559 65.3031C40.8831 64.2671 41.9075 63.2283 42.931 62.1885C44.3227 60.7748 45.7182 59.3648 47.1137 57.9548C47.4481 57.6169 47.7826 57.2789 48.1171 56.9409C48.2255 56.8314 48.3338 56.7218 48.4455 56.609C49.0913 55.9562 49.7365 55.3028 50.381 54.6487C50.781 54.2427 51.1813 53.837 51.5816 53.4313C51.7678 53.2425 51.9538 53.0536 52.1397 52.8645C52.3926 52.6074 52.6458 52.3506 52.8992 52.094C52.9734 52.0183 53.0476 51.9426 53.1241 51.8646C53.7262 51.2561 54.0193 51.1231 54.8887 51.1984Z" fill="#1AAA55"/>
</svg>
