<svg width="83" height="103" viewBox="0 0 83 103" fill="none" xmlns="http://www.w3.org/2000/svg">
<ellipse cx="43.6722" cy="5.67373" rx="5.73474" ry="5.67373" fill="#FE4035" fill-opacity="0.6"/>
<ellipse cx="79.8452" cy="28.3687" rx="2.20567" ry="2.1822" fill="#FE4035" fill-opacity="0.6"/>
<path d="M79.2817 6.39358C81.1374 10.9195 78.9352 16.0776 74.3628 17.9145C73.8584 18.1172 73.3463 18.2709 72.8317 18.378C69.9683 18.9741 66.7706 19.7847 65.2385 22.2522C63.4497 25.1331 64.4273 28.8743 67.0687 31.0187C72.3354 35.2944 76.5971 40.93 79.2447 47.6603C87.4637 68.5539 77.0153 92.0868 55.9074 100.222C34.7995 108.358 11.0253 98.0157 2.8062 77.1221C-5.41288 56.2285 5.03556 32.6956 26.1435 24.56C35.363 21.0065 45.0911 20.9782 53.8096 23.8145C56.9675 24.8419 60.5679 23.8685 62.3084 21.0653L62.9556 20.0229C64.2391 17.9559 63.6455 15.2938 62.7237 13.0456C60.8679 8.51963 63.0702 3.36151 67.6426 1.52461C72.2149 -0.312288 77.426 1.86762 79.2817 6.39358Z" fill="#FE4035" fill-opacity="0.6"/>
<circle cx="40.5889" cy="61.5379" r="34.4788" fill="white"/>
<path d="M40.8684 27.0007C41.0005 27.001 41.1326 27.0012 41.2687 27.0015C43.2234 27.0077 45.1254 27.0765 47.0487 27.452C47.2319 27.4848 47.2319 27.4848 47.4189 27.5184C50.6057 28.0951 53.6824 29.1489 56.5829 30.585C56.6762 30.6312 56.7695 30.6773 56.8656 30.7249C59.8155 32.2043 62.5577 34.1487 64.9083 36.4636C65.1776 36.7285 65.4497 36.9904 65.7219 37.2523C66.8677 38.365 67.8975 39.5137 68.8413 40.8015C68.8991 40.879 68.957 40.9566 69.0166 41.0365C69.9042 42.2274 70.697 43.4599 71.4291 44.7518C71.4832 44.846 71.5372 44.9401 71.5929 45.0372C74.515 50.1725 75.8532 55.9895 75.8302 61.8644C75.8298 62.0626 75.8298 62.0626 75.8295 62.2647C75.8233 64.2197 75.7544 66.1219 75.379 68.0453C75.3571 68.1675 75.3352 68.2897 75.3126 68.4156C74.1126 75.0478 70.9196 81.181 66.2534 86.0263C66.1673 86.1161 66.0812 86.2059 65.9925 86.2985C64.747 87.591 63.4806 88.7815 62.0311 89.8405C61.8743 89.9573 61.7175 90.0742 61.5607 90.1911C60.4451 91.0137 59.2866 91.7453 58.0812 92.4286C57.987 92.4827 57.8929 92.5368 57.7958 92.5925C52.6611 95.5148 46.8448 96.8532 40.9706 96.8302C40.7724 96.8298 40.7724 96.8298 40.5702 96.8295C38.6155 96.8233 36.7136 96.7544 34.7903 96.379C34.6681 96.3571 34.546 96.3351 34.4201 96.3125C27.7886 95.1124 21.6562 91.919 16.8114 87.2523C16.7216 87.1662 16.6318 87.0801 16.5393 86.9914C15.2469 85.7457 14.0565 84.4792 12.9977 83.0295C12.8808 82.8727 12.764 82.7159 12.6471 82.5591C11.8247 81.4435 11.0916 80.2853 10.4098 79.0791C10.355 78.9828 10.3003 78.8865 10.2438 78.7872C8.2345 75.2179 6.93577 71.2756 6.32371 67.228C6.28763 66.9987 6.28763 66.9987 6.25082 66.7647C6.02515 65.1828 5.997 63.6139 6.00023 62.0176C6.0003 61.8798 6.00038 61.7419 6.00046 61.5999C6.006 59.3484 6.12905 57.1779 6.59612 54.9683C6.62604 54.8264 6.65595 54.6844 6.68677 54.5382C8.03684 48.348 11.0092 42.4552 15.4705 37.9239C15.7354 37.6546 15.9972 37.3825 16.2591 37.1102C17.3717 35.9643 18.5203 34.9344 19.8079 33.9905C19.8854 33.9326 19.963 33.8748 20.0429 33.8152C21.2334 32.9276 22.4653 32.133 23.7578 31.4023C23.8541 31.3475 23.9505 31.2927 24.0497 31.2363C27.6111 29.231 31.5639 27.9098 35.6075 27.3157C35.7716 27.2916 35.9357 27.2674 36.1047 27.2425C37.6925 27.0247 39.2676 26.9945 40.8684 27.0007ZM34.5179 36.5787C34.4221 36.6016 34.3263 36.6245 34.2277 36.6482C28.5323 38.048 23.4225 41.7214 19.9441 46.3865C19.8589 46.4995 19.7738 46.6126 19.6861 46.7291C17.5285 49.7006 16.1446 53.0385 15.3132 56.6029C15.287 56.7123 15.2608 56.8217 15.2339 56.9344C14.4596 60.3453 14.6389 64.3956 15.4494 67.7729C15.4771 67.8925 15.5049 68.0121 15.5334 68.1353C16.9406 74.034 20.5535 79.2845 25.3922 82.8933C25.5619 83.021 25.5619 83.021 25.7349 83.1513C31.1853 87.1099 38.1394 88.8015 44.7947 87.7703C51.6474 86.6204 57.7309 83.029 61.8949 77.4445C61.98 77.3314 62.0652 77.2183 62.1529 77.1018C64.3105 74.1304 65.6943 70.7925 66.5258 67.228C66.565 67.0639 66.565 67.0639 66.6051 66.8965C67.3794 63.4856 67.2 59.4353 66.3896 56.058C66.3619 55.9385 66.3341 55.8189 66.3055 55.6957C64.8983 49.797 61.2855 44.5465 56.4467 40.9377C56.3336 40.8525 56.2206 40.7674 56.1041 40.6796C49.8737 36.1546 41.9601 34.747 34.5179 36.5787Z" fill="#FE4035"/>
<path d="M40.9785 27.0598C41.1106 27.0601 41.2427 27.0603 41.3788 27.0606C43.3336 27.0667 45.2355 27.1356 47.1588 27.511C47.342 27.5439 47.342 27.5439 47.529 27.5775C50.7158 28.1542 53.7925 29.208 56.693 30.6441C56.7863 30.6902 56.8796 30.7364 56.9757 30.784C59.9256 32.2634 62.6678 34.2078 65.0184 36.5227C65.2877 36.7876 65.5598 37.0495 65.832 37.3114C66.9778 38.4241 68.0076 39.5728 68.9514 40.8605C69.0092 40.9381 69.0671 41.0156 69.1267 41.0955C70.0143 42.2864 70.8071 43.519 71.5392 44.8109C71.5933 44.9051 71.6473 44.9992 71.703 45.0962C74.6251 50.2316 75.9633 56.0486 75.9403 61.9235C75.9399 62.1217 75.9399 62.1217 75.9396 62.3238C75.9334 64.2788 75.8646 66.1809 75.4892 68.1044C75.4672 68.2266 75.4453 68.3488 75.4227 68.4747C74.2228 75.1069 71.0297 81.2401 66.3635 86.0854C66.2774 86.1752 66.1913 86.265 66.1026 86.3576C64.8571 87.6501 63.5907 88.8406 62.1412 89.8995C61.9844 90.0164 61.8276 90.1333 61.6708 90.2502C60.5552 91.0728 59.3967 91.8044 58.1913 92.4877C58.0971 92.5418 58.003 92.5958 57.906 92.6515C52.7712 95.5739 46.9549 96.9122 41.0807 96.8893C40.8825 96.8889 40.8825 96.8889 40.6804 96.8885C38.7256 96.8824 36.8237 96.8135 34.9004 96.4381C34.7782 96.4161 34.6561 96.3942 34.5302 96.3716C27.8987 95.1715 21.7663 91.9781 16.9215 87.3114C16.8317 87.2253 16.7419 87.1392 16.6494 87.0504C15.357 85.8048 14.1666 84.5383 13.1078 83.0886C12.9909 82.9318 12.8741 82.775 12.7572 82.6182C11.9349 81.5026 11.2017 80.3444 10.5199 79.1382C10.4652 79.0419 10.4104 78.9455 10.3539 78.8463C8.34461 75.277 7.04587 71.3347 6.43382 67.2871C6.39774 67.0578 6.39774 67.0578 6.36093 66.8238C6.13526 65.2418 6.10711 63.673 6.11034 62.0767C6.11041 61.9389 6.11049 61.801 6.11056 61.659C6.11611 59.4075 6.23915 57.237 6.70623 55.0274C6.73614 54.8854 6.76606 54.7435 6.79688 54.5973C8.14694 48.4071 11.1193 42.5142 15.5806 37.983C15.8455 37.7136 16.1074 37.4415 16.3693 37.1693C17.4818 36.0234 18.6304 34.9935 19.918 34.0496C19.9955 33.9917 20.0731 33.9339 20.153 33.8742C21.3435 32.9867 22.5755 32.1921 23.8679 31.4614C23.9642 31.4066 24.0606 31.3518 24.1598 31.2954C27.7212 29.2901 31.674 27.9688 35.7176 27.3748C35.8817 27.3507 36.0458 27.3265 36.2148 27.3016C37.8026 27.0838 39.3777 27.0536 40.9785 27.0598ZM34.7642 29.8268C34.6672 29.8448 34.5702 29.8629 34.4703 29.8814C28.8309 30.9468 23.6513 33.6683 19.3732 37.4551C19.2531 37.5601 19.133 37.6651 19.0093 37.7733C16.3377 40.1381 14.1734 42.9301 12.4268 46.0369C12.377 46.1236 12.3272 46.2103 12.276 46.2997C10.6357 49.1719 9.58745 52.2826 8.92805 55.5126C8.90044 55.6478 8.87284 55.783 8.84439 55.9223C8.4615 57.884 8.28488 59.8013 8.2896 61.7958C8.28958 61.9041 8.28957 62.0124 8.28955 62.1239C8.29409 64.2451 8.50028 66.2883 8.88549 68.3769C8.90513 68.4875 8.92478 68.5981 8.94501 68.712C10.0971 74.9814 13.5506 80.57 17.8749 85.1319C18.0203 85.2859 18.0203 85.2859 18.1686 85.4431C18.8806 86.1771 19.6618 86.8137 20.4628 87.4476C20.6601 87.6075 20.6601 87.6075 20.8613 87.7706C25.3906 91.368 30.6158 93.3754 36.2625 94.3948C36.3597 94.4133 36.457 94.4317 36.5572 94.4508C44.2163 95.873 52.98 93.4851 59.3149 89.1588C62.0009 87.28 64.4586 85.1155 66.4997 82.5437C66.6064 82.412 66.7132 82.2803 66.8232 82.1446C69.0888 79.2905 70.7013 76.146 71.9479 72.7359C71.9844 72.6364 72.0209 72.5369 72.0586 72.4345C72.5407 71.1056 72.8774 69.7565 73.1737 68.3769C73.2016 68.2503 73.2295 68.1237 73.2583 67.9932C73.3331 67.6226 73.3923 67.2528 73.4461 66.8785C73.4714 66.7037 73.4967 66.529 73.5227 66.349C73.9782 62.8086 73.8489 59.2068 73.1737 55.7085C73.1533 55.5959 73.1329 55.4833 73.112 55.3672C71.9542 49.012 68.5742 43.4484 64.1842 38.8173C64.0873 38.7145 63.9904 38.6118 63.8905 38.506C63.1786 37.7721 62.3978 37.1348 61.5964 36.5015C61.457 36.3902 61.3175 36.2789 61.1739 36.1642C60.1327 35.341 59.0555 34.5983 57.9189 33.9134C57.785 33.8323 57.785 33.8323 57.6484 33.7495C50.8145 29.6597 42.5608 28.3207 34.7642 29.8268Z" fill="#FE4035"/>
<path d="M46.5261 34.4705C46.6813 34.4979 46.6813 34.4979 46.8396 34.5258C52.5553 35.555 57.5859 38.5713 61.6447 42.6437C61.7378 42.732 61.8308 42.8203 61.9267 42.9113C66.7089 47.5031 69.5775 54.5853 69.7142 61.1599C69.7427 62.9883 69.7455 64.8157 69.4083 66.6183C69.3871 66.7418 69.3658 66.8654 69.3439 66.9927C68.3941 72.4907 65.9994 77.2847 62.3257 81.4662C62.2376 81.571 62.1494 81.6759 62.0586 81.7839C61.5157 82.4264 60.9258 82.969 60.2827 83.5095C60.1504 83.6249 60.0182 83.7402 59.882 83.8591C55.3073 87.836 49.1071 90.6372 42.9848 90.7291C42.8584 90.7325 42.732 90.7358 42.6018 90.7392C34.8958 90.9295 27.6249 88.4295 21.9864 83.0937C16.7803 78.1085 13.2427 71.281 13.0049 63.9782C12.882 56.3537 15.0478 49.2979 20.1804 43.5453C20.3905 43.3071 20.5952 43.0647 20.8 42.8219C21.0828 42.4912 21.3684 42.1913 21.7029 41.9115C21.9994 41.6606 22.2906 41.4094 22.5728 41.1426C28.8365 35.2398 38.1638 32.914 46.5261 34.4705ZM34.9487 37.0587C34.853 37.0816 34.7572 37.1045 34.6585 37.1282C28.9631 38.528 23.8533 42.2014 20.3749 46.8665C20.2898 46.9796 20.2046 47.0926 20.1169 47.2092C17.9593 50.1806 16.5755 53.5185 15.744 57.0829C15.7179 57.1923 15.6917 57.3017 15.6647 57.4144C14.8904 60.8253 15.0698 64.8757 15.8802 68.2529C15.908 68.3725 15.9357 68.4921 15.9643 68.6153C17.3715 74.514 20.9843 79.7645 25.8231 83.3733C25.9927 83.501 25.9927 83.501 26.1657 83.6314C31.6162 87.5899 38.5702 89.2815 45.2256 88.2503C52.0782 87.1004 58.1617 83.509 62.3257 77.9245C62.4109 77.8114 62.496 77.6983 62.5838 77.5818C64.7413 74.6104 66.1252 71.2725 66.9566 67.708C66.9959 67.544 66.9959 67.544 67.0359 67.3765C67.8102 63.9656 67.6309 59.9153 66.8204 56.5381C66.7927 56.4185 66.765 56.2989 66.7364 56.1757C65.3292 50.277 61.7163 45.0265 56.8776 41.4177C56.7645 41.3325 56.6514 41.2474 56.5349 41.1596C50.3045 36.6346 42.391 35.227 34.9487 37.0587Z" fill="#FE4035"/>
<path fill-rule="evenodd" clip-rule="evenodd" d="M35.4576 49.1525H45.9661C46.8362 49.1525 47.5424 48.4464 47.5424 47.5763C47.5424 46.7062 46.8362 46 45.9661 46H35.4576C34.5875 46 33.8813 46.7062 33.8813 47.5763C33.8813 48.4464 34.5875 49.1525 35.4576 49.1525Z" fill="#FE4035"/>
<path fill-rule="evenodd" clip-rule="evenodd" d="M29.1525 54.4069V71.7459C29.1525 74.6473 31.5054 77.0002 34.4068 77.0002H47.017C49.9183 77.0002 52.2712 74.6473 52.2712 71.7459V54.4069H53.9998C54.7859 54.4069 55.4237 53.7008 55.4237 52.8307C55.4237 51.9606 54.7859 51.2544 53.9998 51.2544H27.4239C26.6379 51.2544 26 51.9606 26 52.8307C26 53.7008 26.6379 54.4069 27.4239 54.4069H29.1525ZM36.5085 58.0849V70.6951C36.5085 71.2751 36.9793 71.7459 37.5593 71.7459C38.1394 71.7459 38.6102 71.2751 38.6102 70.6951V58.0849C38.6102 57.5048 38.1394 57.0341 37.5593 57.0341C36.9793 57.0341 36.5085 57.5048 36.5085 58.0849ZM42.8136 58.0849V70.6951C42.8136 71.2751 43.2843 71.7459 43.8644 71.7459C44.4445 71.7459 44.9153 71.2751 44.9153 70.6951V58.0849C44.9153 57.5048 44.4445 57.0341 43.8644 57.0341C43.2843 57.0341 42.8136 57.5048 42.8136 58.0849Z" fill="#FE4035"/>
</svg>
