<svg width="26" height="26" viewBox="0 0 26 26" fill="none" xmlns="http://www.w3.org/2000/svg">
<path fill-rule="evenodd" clip-rule="evenodd" d="M18.2 6.5C18.918 6.5 19.5 7.08204 19.5 7.8V18.2C19.5 18.918 18.918 19.5 18.2 19.5C17.482 19.5 16.9 18.918 16.9 18.2V7.8C16.9 7.08204 17.482 6.5 18.2 6.5ZM13 9.1C13.718 9.1 14.3 9.68204 14.3 10.4V18.2C14.3 18.918 13.718 19.5 13 19.5C12.282 19.5 11.7 18.918 11.7 18.2V10.4C11.7 9.68204 12.282 9.1 13 9.1ZM9.1 11.7C9.1 10.982 8.51798 10.4 7.8 10.4C7.08204 10.4 6.5 10.982 6.5 11.7V18.2C6.5 18.918 7.08204 19.5 7.8 19.5C8.51796 19.5 9.1 18.918 9.1 18.2V11.7ZM6.82509 0.504166C8.51341 0.12896 10.5616 0 13 0C15.4384 0 17.4866 0.12896 19.1749 0.504166C20.878 0.882661 22.2934 1.5288 23.3823 2.61765C24.4712 3.70651 25.1173 5.12203 25.4959 6.82509C25.871 8.51341 26 10.5616 26 13C26 15.4384 25.871 17.4866 25.4959 19.1749C25.1173 20.878 24.4712 22.2934 23.3823 23.3823C22.2934 24.4712 20.878 25.1173 19.1749 25.4959C17.4866 25.871 15.4384 26 13 26C10.5616 26 8.51341 25.871 6.82509 25.4959C5.12203 25.1173 3.70651 24.4712 2.61765 23.3823C1.5288 22.2934 0.882661 20.878 0.504166 19.1749C0.12896 17.4866 0 15.4384 0 13C0 10.5616 0.12896 8.51341 0.504166 6.82509C0.882661 5.12203 1.5288 3.70651 2.61765 2.61765C3.70651 1.5288 5.12203 0.882661 6.82509 0.504166Z" fill="url(#paint0_linear_248_28074)"/>
<defs>
<linearGradient id="paint0_linear_248_28074" x1="10.4464" y1="1.63396e-07" x2="23.8234" y2="23.7088" gradientUnits="userSpaceOnUse">
<stop stop-color="#613843"/>
<stop offset="1" stop-color="#0E3434"/>
</linearGradient>
</defs>
</svg>
