<svg width="20" height="20" viewBox="0 0 20 20" fill="none" xmlns="http://www.w3.org/2000/svg">
<path fill-rule="evenodd" clip-rule="evenodd" d="M15 14C15 14.5523 14.5523 15 14 15H6C5.4477 15 5 14.5523 5 14C5 13.4477 5.4477 13 6 13H14C14.5523 13 15 13.4477 15 14ZM13 10C13 10.5523 12.5523 11 12 11H6C5.4477 11 5 10.5523 5 10C5 9.4477 5.4477 9 6 9H12C12.5523 9 13 9.4477 13 10ZM11 7C11.5523 7 12 6.55229 12 6C12 5.44772 11.5523 5 11 5H6C5.4477 5 5 5.44772 5 6C5 6.55228 5.4477 7 6 7H11ZM19.6122 5.25007C19.9008 6.54878 20 8.1243 20 10C20 11.8757 19.9008 13.4512 19.6122 14.7499C19.321 16.06 18.824 17.1488 17.9864 17.9864C17.1488 18.824 16.06 19.321 14.7499 19.6122C13.4512 19.9008 11.8757 20 10 20C8.1243 20 6.5488 19.9008 5.2501 19.6122C3.94 19.321 2.8512 18.824 2.0136 17.9864C1.176 17.1488 0.679001 16.06 0.3878 14.7499C0.0991993 13.4512 0 11.8757 0 10C0 8.1243 0.0991993 6.54878 0.3878 5.25007C0.679001 3.94002 1.176 2.85116 2.0136 2.01358C2.8512 1.176 3.94 0.67897 5.2501 0.38782C6.5488 0.0992 8.1243 0 10 0C11.8757 0 13.4512 0.0992 14.7499 0.38782C16.06 0.67897 17.1488 1.176 17.9864 2.01358C18.824 2.85116 19.321 3.94002 19.6122 5.25007Z" fill="#797F8F"/>
</svg>
