<svg width="22" height="22" viewBox="0 0 22 22" fill="none" xmlns="http://www.w3.org/2000/svg">
<path d="M12.2754 1.09856C12.4682 1.3005 12.6248 1.52642 12.7458 1.77784C12.8912 1.93853 13.0525 1.95864 13.2579 2.01467C13.7777 2.18206 14.1032 2.53802 14.3464 3.0105C14.4487 3.21435 14.4953 3.38394 14.5237 3.60938C14.5571 3.60926 14.5904 3.60914 14.6248 3.60902C15.4375 3.60617 16.2501 3.60404 17.0628 3.6027C17.4558 3.60204 17.8488 3.60113 18.2418 3.59966C18.5844 3.59837 18.9269 3.59754 19.2695 3.59725C19.4509 3.59708 19.6322 3.59669 19.8136 3.59575C19.9844 3.59487 20.1552 3.59461 20.326 3.5948C20.3886 3.59476 20.4511 3.59451 20.5137 3.59401C20.9864 3.59046 21.271 3.63229 21.6251 3.95766C21.8488 4.20254 21.8766 4.52597 21.8769 4.84573C21.877 4.8945 21.8771 4.94327 21.8773 4.99352C21.8772 5.04667 21.8771 5.09983 21.8771 5.15459C21.8772 5.21196 21.8773 5.26933 21.8774 5.32671C21.8776 5.48411 21.8776 5.64151 21.8776 5.79891C21.8776 5.96877 21.8778 6.13863 21.878 6.30849C21.8784 6.64118 21.8785 6.97387 21.8785 7.30656C21.8785 7.57701 21.8786 7.84746 21.8788 8.11791C21.8791 8.88483 21.8793 9.65175 21.8793 10.4187C21.8793 10.4807 21.8793 10.4807 21.8793 10.5439C21.8793 10.5853 21.8793 10.6267 21.8793 10.6694C21.8793 11.3401 21.8797 12.0109 21.8803 12.6816C21.8809 13.3705 21.8812 14.0593 21.8812 14.7482C21.8812 15.1349 21.8813 15.5216 21.8817 15.9083C21.8821 16.2375 21.8822 16.5667 21.8819 16.8959C21.8818 17.0639 21.8818 17.2318 21.8822 17.3997C21.8825 17.5536 21.8824 17.7074 21.8821 17.8613C21.882 17.943 21.8823 18.0247 21.8826 18.1064C21.8808 18.5477 21.8533 18.9262 21.5276 19.25C21.2152 19.4659 20.929 19.4945 20.5578 19.4858C20.5078 19.4855 20.4579 19.4852 20.4064 19.4849C20.2484 19.4837 20.0904 19.481 19.9324 19.4783C19.8246 19.4772 19.7169 19.4762 19.6091 19.4753C19.3462 19.473 19.0834 19.4694 18.8206 19.4648C18.821 19.5037 18.821 19.5037 18.8214 19.5433C18.8243 19.8131 18.8262 20.0828 18.8276 20.3526C18.8283 20.4533 18.8292 20.5539 18.8303 20.6546C18.8318 20.7993 18.8326 20.944 18.8331 21.0888C18.8338 21.1337 18.8345 21.1787 18.8352 21.225C18.8352 21.6311 18.8352 21.6311 18.6916 21.7852C18.5154 21.8751 18.366 21.8819 18.1698 21.8819C18.1392 21.882 18.1086 21.8822 18.0771 21.8823C17.9744 21.8826 17.8717 21.8823 17.7689 21.882C17.6946 21.8821 17.6203 21.8822 17.546 21.8824C17.3417 21.8828 17.1373 21.8826 16.9329 21.8823C16.7126 21.8821 16.4923 21.8824 16.2719 21.8827C15.8402 21.8831 15.4085 21.883 14.9768 21.8827C14.6261 21.8825 14.2753 21.8825 13.9245 21.8826C13.8746 21.8826 13.8248 21.8826 13.7734 21.8826C13.6721 21.8827 13.5708 21.8827 13.4694 21.8827C12.5188 21.883 11.5683 21.8827 10.6177 21.8822C9.80158 21.8818 8.98549 21.8819 8.1694 21.8823C7.22227 21.8828 6.27514 21.8829 5.32801 21.8827C5.22707 21.8827 5.12612 21.8826 5.02517 21.8826C4.9755 21.8826 4.92583 21.8826 4.87465 21.8826C4.5242 21.8825 4.17375 21.8826 3.82329 21.8828C3.39635 21.8831 2.96941 21.883 2.54248 21.8825C2.32454 21.8823 2.10661 21.8822 1.88867 21.8825C1.68931 21.8828 1.48995 21.8826 1.29059 21.8822C1.21833 21.8821 1.14607 21.8821 1.07382 21.8823C0.975841 21.8826 0.877879 21.8823 0.779904 21.8819C0.72541 21.8819 0.670917 21.8819 0.614772 21.8819C0.426939 21.8676 0.305949 21.8331 0.172113 21.6992C0.111438 21.5375 0.122796 21.3657 0.122902 21.1953C0.122758 21.162 0.122614 21.1287 0.122466 21.0944C0.122057 20.9843 0.121973 20.8741 0.121927 20.764C0.121788 20.6869 0.121643 20.6098 0.121493 20.5327C0.121235 20.3707 0.121156 20.2087 0.121182 20.0468C0.121186 19.8411 0.120603 19.6354 0.11986 19.4297C0.119377 19.2701 0.119295 19.1106 0.119317 18.951C0.119267 18.8753 0.11908 18.7996 0.118744 18.7239C0.114422 17.6481 0.260461 16.6906 1.04273 15.8805C1.54479 15.4071 2.14018 15.1945 2.77583 14.95C2.93218 14.8897 3.08828 14.8288 3.24441 14.7679C3.78305 14.558 4.32227 14.3495 4.8616 14.1413C5.0466 14.0698 5.23155 13.9982 5.41648 13.9266C5.44848 13.9142 5.48047 13.9018 5.51343 13.889C5.57421 13.8655 5.63499 13.8419 5.69576 13.8184C5.9027 13.7383 6.10967 13.6582 6.31664 13.5781C6.40016 12.3404 6.40016 12.3404 5.94186 11.2247C5.81867 11.0098 5.76223 10.7596 5.70156 10.5208C5.64607 10.3169 5.64607 10.3169 5.5059 10.1671C5.41651 10.1215 5.41651 10.1215 5.32721 10.0894C4.9564 9.93766 4.7874 9.50036 4.63621 9.1582C4.47684 8.77637 4.37746 8.37548 4.28369 7.97339C4.27261 7.92692 4.27261 7.92692 4.26132 7.8795C4.18201 7.51949 4.16977 7.16764 4.34008 6.83204C4.41958 6.729 4.49653 6.65834 4.59789 6.57422C4.62625 6.57422 4.65461 6.57422 4.68383 6.57422C4.67552 6.54287 4.66721 6.51152 4.65865 6.47922C4.30695 5.0689 4.32809 3.45097 5.06635 2.16573C5.19497 1.95712 5.33582 1.77131 5.50024 1.58985C5.53192 1.55418 5.5636 1.51851 5.59625 1.48176C6.34315 0.686034 7.4417 0.286273 8.50805 0.17188C8.57875 0.163987 8.57875 0.163987 8.65089 0.155935C9.92928 0.0420184 11.3007 0.191255 12.2754 1.09856ZM5.9598 2.21139C5.29899 2.98067 5.14304 4.082 5.21221 5.06461C5.21837 5.13637 5.22487 5.20809 5.23168 5.27979C5.23528 5.31824 5.23887 5.35668 5.24257 5.3963C5.27496 5.71245 5.33085 6.02102 5.4005 6.33099C5.4444 6.5299 5.47405 6.71278 5.45727 6.91797C5.33297 7.07779 5.21811 7.15525 5.02758 7.21876C4.96082 7.28551 4.97388 7.34756 4.97085 7.44065C4.97421 7.74588 5.06878 8.02089 5.16186 8.30909C5.17814 8.36226 5.19443 8.41543 5.21121 8.47022C5.36908 9.02155 5.36908 9.02155 5.67211 9.4961C5.74438 9.50611 5.81697 9.51383 5.88964 9.52027C5.92913 9.52387 5.96863 9.52747 6.00932 9.53118C6.03984 9.53378 6.07036 9.53639 6.1018 9.53907C6.10762 9.56632 6.11343 9.59357 6.11942 9.62165C6.39719 10.8259 6.93614 12.0467 8.01391 12.7376C8.67238 13.1186 9.35208 13.2493 10.0924 13.0585C11.0351 12.7921 11.6867 12.1341 12.1604 11.3008C12.3922 10.8811 12.5351 10.4435 12.6648 9.98319C12.7682 9.6188 12.7682 9.6188 12.8479 9.53907C12.925 9.53774 12.925 9.53774 13.0037 9.53638C13.2056 9.51042 13.2979 9.42791 13.4213 9.26984C13.7558 8.71755 13.9599 7.94584 14.008 7.30469C13.8937 7.12371 13.737 7.0934 13.5354 7.04688C13.4637 6.72194 13.5411 6.46962 13.6348 6.15528C13.7987 5.59272 13.8942 5.07493 13.8926 4.48755C13.8933 4.43851 13.894 4.38946 13.8947 4.33893C13.895 3.7437 13.7434 3.24428 13.3222 2.81479C13.1028 2.65254 12.8561 2.59588 12.5928 2.54859C12.5634 2.54302 12.534 2.53746 12.5037 2.53172C12.4323 2.51824 12.3608 2.50517 12.2893 2.49219C12.2778 2.45392 12.2664 2.41564 12.2546 2.37621C12.0462 1.799 11.531 1.37231 10.9945 1.10968C9.35342 0.383856 7.15522 0.932892 5.9598 2.21139ZM14.6955 4.29688C14.6932 4.32518 14.6909 4.35348 14.6885 4.38263C14.6778 4.51225 14.6669 4.64185 14.6559 4.77146C14.6505 4.83823 14.6505 4.83823 14.6449 4.90635C14.6177 5.22663 14.5731 5.53327 14.4995 5.84644C14.4806 5.93108 14.4618 6.01573 14.4429 6.10039C14.4344 6.13801 14.4259 6.17563 14.4171 6.21438C14.391 6.33372 14.3699 6.45343 14.3518 6.57422C14.3784 6.58486 14.405 6.59549 14.4324 6.60645C14.5832 6.69519 14.6225 6.85472 14.6794 7.01465C14.6962 7.06018 14.6962 7.06018 14.7133 7.10663C14.7838 7.42024 14.7173 7.70993 14.6445 8.01636C14.6348 8.05796 14.625 8.09955 14.615 8.1424C14.4602 8.78669 14.2721 9.55991 13.7502 10.0117C13.6866 10.0432 13.6224 10.0735 13.5577 10.1027C13.364 10.2081 13.3066 10.3015 13.2444 10.5093C13.2349 10.5454 13.2255 10.5815 13.2158 10.6187C13.0841 11.0684 13.0841 11.0684 12.9486 11.265C12.4775 11.9562 12.5943 12.7767 12.633 13.5781C13.0815 13.7705 13.5367 13.9454 13.9918 14.1213C14.1311 14.1752 14.2704 14.2292 14.4097 14.2832C14.8543 14.4556 15.2994 14.627 15.7454 14.7957C15.8578 14.8383 15.9701 14.881 16.0825 14.9237C16.1855 14.9626 16.2886 15.0012 16.3918 15.0397C17.3249 15.3918 18.0746 15.8641 18.5171 16.7874C18.7299 17.2994 18.7785 17.802 18.8018 18.3503C18.8036 18.3916 18.8055 18.4329 18.8074 18.4755C18.8119 18.5761 18.8163 18.6767 18.8206 18.7773C19.1111 18.7795 19.4017 18.781 19.6923 18.7821C19.7912 18.7825 19.89 18.7831 19.9889 18.7838C20.131 18.7849 20.273 18.7854 20.4151 18.7857C20.4593 18.7862 20.5035 18.7866 20.5491 18.7871C20.5904 18.7871 20.6317 18.7871 20.6742 18.7871C20.7105 18.7873 20.7467 18.7875 20.7841 18.7877C20.8995 18.7756 20.9605 18.7597 21.0549 18.6914C21.231 18.4405 21.2019 18.1674 21.2005 17.8736C21.2007 17.8159 21.2009 17.7582 21.2012 17.7005C21.2018 17.5422 21.2016 17.3839 21.2013 17.2256C21.2011 17.0547 21.2016 16.8839 21.2021 16.7131C21.2028 16.3786 21.2029 16.0441 21.2026 15.7096C21.2025 15.4378 21.2025 15.166 21.2028 14.8941C21.2028 14.8555 21.2028 14.8168 21.2029 14.777C21.2029 14.6984 21.203 14.6198 21.2031 14.5413C21.2036 13.8046 21.2034 13.0679 21.2029 12.3312C21.2025 11.6568 21.203 10.9825 21.2041 10.3081C21.2051 9.61587 21.2055 8.92366 21.2052 8.23144C21.2051 7.84272 21.2052 7.454 21.2059 7.06528C21.2066 6.73447 21.2066 6.40366 21.2059 6.07285C21.2055 5.904 21.2054 5.73516 21.2061 5.56631C21.2066 5.41184 21.2064 5.25739 21.2056 5.10293C21.2054 5.02037 21.206 4.9378 21.2066 4.85524C21.2062 4.80641 21.2058 4.75759 21.2053 4.70728C21.2053 4.64395 21.2053 4.64395 21.2053 4.57935C21.1776 4.43679 21.1248 4.38555 21.012 4.29688C20.8893 4.27159 20.8893 4.27159 20.7515 4.27621C20.6981 4.27598 20.6447 4.27574 20.5897 4.2755C20.5307 4.2761 20.4717 4.27673 20.4126 4.27737C20.3504 4.27742 20.2881 4.27739 20.2259 4.27729C20.0569 4.27724 19.888 4.27825 19.7191 4.27945C19.5425 4.28053 19.3659 4.28063 19.1893 4.28083C18.855 4.28137 18.5207 4.28278 18.1864 4.2845C17.8057 4.28642 17.4251 4.28737 17.0445 4.28823C16.2615 4.29003 15.4785 4.29305 14.6955 4.29688ZM11.7414 12.9981C10.9774 13.68 10.0934 13.8833 9.09898 13.844C8.38029 13.7953 7.73182 13.4094 7.17602 12.9766C7.13348 12.9482 7.09094 12.9198 7.04711 12.8906C6.97046 13.3998 6.97046 13.3998 7.09854 13.8801C7.23452 14.0328 7.39912 14.1457 7.56989 14.2565C7.6817 14.3304 7.78259 14.4156 7.885 14.502C7.92267 14.5325 7.96033 14.5631 7.99914 14.5946C8.14182 14.7122 8.28205 14.8324 8.42211 14.9531C8.77018 15.2527 9.11775 15.5517 9.49633 15.8125C9.52497 15.786 9.5536 15.7594 9.58311 15.7321C9.78633 15.5454 9.9904 15.3628 10.2053 15.1895C10.3679 15.0583 10.5242 14.9228 10.678 14.7813C10.8686 14.6058 11.0656 14.4415 11.2673 14.2791C11.4386 14.1368 11.6014 13.9862 11.7644 13.8346C11.8596 13.75 11.8596 13.75 11.9455 13.707C11.9455 13.4234 11.9455 13.1398 11.9455 12.8477C11.8629 12.8477 11.7975 12.9449 11.7414 12.9981ZM11.5089 14.977C11.3295 15.1442 11.1424 15.299 10.9511 15.4525C10.7154 15.6488 10.4932 15.8603 10.2698 16.0703C10.3946 16.1951 10.548 16.2207 10.7137 16.268C10.7493 16.2784 10.7849 16.2888 10.8216 16.2995C10.897 16.3213 10.9725 16.3431 11.048 16.3647C11.1633 16.3977 11.2783 16.4314 11.3934 16.4651C11.4667 16.4863 11.54 16.5074 11.6134 16.5285C11.6477 16.5386 11.6821 16.5487 11.7174 16.5591C11.7498 16.5682 11.7822 16.5774 11.8156 16.5869C11.8439 16.595 11.8721 16.6032 11.9013 16.6115C12.0035 16.6319 12.0994 16.6317 12.2034 16.6289C12.319 16.3568 12.4345 16.0845 12.5498 15.8122C12.5891 15.7196 12.6284 15.627 12.6677 15.5344C12.7243 15.4013 12.7806 15.2682 12.837 15.1351C12.8634 15.073 12.8634 15.073 12.8904 15.0096C12.9068 14.9709 12.9231 14.9322 12.9399 14.8923C12.9544 14.8584 12.9688 14.8244 12.9836 14.7894C13.0175 14.7013 13.0421 14.6154 13.0627 14.5234C12.9653 14.4802 12.8677 14.4373 12.77 14.3945C12.7424 14.3822 12.7148 14.3699 12.6863 14.3573C12.2004 14.1458 11.8489 14.6587 11.5089 14.977ZM6.38362 14.3133C6.32445 14.3364 6.26543 14.36 6.20654 14.3838C6.17654 14.3952 6.14655 14.4066 6.11565 14.4184C6.03775 14.4495 5.96212 14.4862 5.88696 14.5234C5.82578 14.707 5.90341 14.8288 5.97474 14.9991C5.9887 15.0333 6.00266 15.0675 6.01704 15.1027C6.06192 15.2124 6.10737 15.3218 6.15283 15.4312C6.18265 15.5039 6.21245 15.5766 6.2422 15.6494C6.37708 15.978 6.51476 16.3049 6.66039 16.6289C6.90886 16.6029 7.14162 16.5563 7.38247 16.4908C7.41707 16.4815 7.45167 16.4722 7.48731 16.4627C7.55978 16.4432 7.63221 16.4236 7.70461 16.4038C7.81567 16.3737 7.92686 16.344 8.03808 16.3145C8.1087 16.2954 8.1793 16.2763 8.2499 16.2571C8.28316 16.2483 8.31641 16.2395 8.35067 16.2304C8.53257 16.1824 8.53257 16.1824 8.67992 16.0703C8.41454 15.8244 8.14578 15.5878 7.86419 15.3605C7.71112 15.2346 7.56168 15.1049 7.41235 14.9746C6.93971 14.4795 6.93971 14.4795 6.38362 14.3133ZM13.7073 14.7813C13.6018 15.0326 13.4963 15.2839 13.391 15.5353C13.3553 15.6205 13.3195 15.7057 13.2837 15.7909C13.2318 15.9145 13.18 16.0381 13.1282 16.1618C13.1113 16.202 13.0945 16.2422 13.0771 16.2836C12.956 16.5734 12.8395 16.8648 12.7266 17.158C12.676 17.2734 12.676 17.2734 12.5901 17.3594C12.1866 17.427 11.7739 17.2891 11.387 17.1875C11.3599 17.2228 11.3329 17.2582 11.305 17.2946C11.2874 17.3176 11.2697 17.3406 11.2516 17.3643C11.2127 17.4151 11.1739 17.4659 11.1352 17.5169C11.0435 17.6371 10.9509 17.7533 10.8507 17.8668C10.8194 17.9023 10.7881 17.9378 10.7559 17.9744C10.7273 18.0052 10.6988 18.0361 10.6694 18.0679C10.5753 18.2497 10.6324 18.4371 10.6877 18.6264C10.7281 18.747 10.7708 18.8666 10.8144 18.9862C10.8302 19.0302 10.8459 19.0743 10.8621 19.1197C10.9123 19.2599 10.963 19.4 11.0137 19.54C11.0638 19.6795 11.1138 19.819 11.1638 19.9586C11.1948 20.0451 11.226 20.1315 11.2572 20.218C11.3504 20.4766 11.4387 20.7363 11.5232 20.9979C11.5498 21.0947 11.5498 21.0947 11.6018 21.1406C11.685 21.1448 11.7684 21.1459 11.8517 21.1458C11.9059 21.1459 11.9602 21.1459 12.0162 21.146C12.0769 21.1458 12.1376 21.1457 12.1983 21.1455C12.2618 21.1455 12.3254 21.1455 12.3889 21.1455C12.5618 21.1455 12.7347 21.1453 12.9077 21.145C13.0882 21.1447 13.2687 21.1447 13.4492 21.1446C13.7913 21.1445 14.1334 21.1442 14.4755 21.1437C14.8649 21.1432 15.2542 21.143 15.6436 21.1428C16.4448 21.1423 17.2459 21.1416 18.0471 21.1406C18.0511 20.7021 18.0542 20.2635 18.056 19.825C18.0569 19.6213 18.0581 19.4176 18.0601 19.2139C18.062 19.017 18.063 18.82 18.0634 18.623C18.0637 18.5483 18.0644 18.4735 18.0653 18.3988C18.0744 17.6406 17.9278 16.9725 17.3865 16.406C17.2097 16.2346 17.029 16.1021 16.8064 15.9948C16.7774 15.9806 16.7483 15.9663 16.7184 15.9516C16.2756 15.7402 15.8142 15.571 15.3562 15.3962C15.263 15.3603 15.1698 15.3244 15.0766 15.2884C14.6222 15.1134 14.1672 14.9411 13.7073 14.7813ZM4.70515 15.0025C4.66809 15.0166 4.63103 15.0307 4.59284 15.0452C4.47182 15.0913 4.35089 15.1377 4.22997 15.1841C4.16859 15.2076 4.16859 15.2076 4.10596 15.2316C3.862 15.325 3.61819 15.4188 3.37447 15.5128C3.27709 15.5504 3.17968 15.5878 3.08226 15.6253C2.93558 15.6818 2.78914 15.7389 2.64282 15.7964C2.60224 15.812 2.56166 15.8277 2.51986 15.8438C1.83996 16.114 1.35432 16.5221 1.03149 17.1875C0.891639 17.5198 0.852851 17.8493 0.854735 18.2089C0.85473 18.2413 0.854724 18.2737 0.854719 18.3071C0.854751 18.411 0.855077 18.5149 0.855417 18.6187C0.85548 18.6833 0.855524 18.7478 0.855548 18.8124C0.855772 19.0504 0.856372 19.2885 0.856927 19.5266C0.857813 20.0592 0.8587 20.5919 0.859613 21.1406C3.00075 21.1406 5.14188 21.1406 7.34789 21.1406C7.49282 20.7928 7.62961 20.4486 7.75291 20.0934C7.76977 20.0451 7.78663 19.9967 7.80401 19.9469C7.83922 19.8457 7.87435 19.7445 7.90939 19.6433C7.96315 19.4883 8.01743 19.3334 8.07173 19.1786C8.10603 19.0798 8.1403 18.981 8.17454 18.8823C8.1989 18.813 8.1989 18.813 8.22376 18.7424C8.23855 18.6994 8.25335 18.6563 8.26859 18.6119C8.28168 18.5743 8.29477 18.5366 8.30826 18.4978C8.34673 18.3501 8.36643 18.2281 8.28831 18.0931C8.26627 18.0673 8.24424 18.0415 8.22154 18.015C8.1973 17.986 8.17307 17.9571 8.1481 17.9272C8.12243 17.8976 8.09676 17.8679 8.07031 17.8374C8.02037 17.7785 7.97052 17.7195 7.92075 17.6605C7.89664 17.632 7.87252 17.6035 7.84768 17.5741C7.74598 17.4496 7.65431 17.3196 7.56274 17.1875C7.44366 17.2152 7.32461 17.2429 7.20556 17.2708C7.1718 17.2786 7.13804 17.2864 7.10326 17.2945C7.05445 17.3059 7.05445 17.3059 7.00465 17.3176C6.97472 17.3246 6.94479 17.3315 6.91396 17.3387C6.84286 17.3567 6.77293 17.3792 6.70336 17.4023C6.61071 17.4111 6.61071 17.4111 6.51 17.4131C6.47677 17.4142 6.44354 17.4153 6.4093 17.4164C6.2908 17.3984 6.26467 17.364 6.18774 17.2734C6.13858 17.1813 6.13858 17.1813 6.09139 17.0727C6.07333 17.0314 6.05526 16.9902 6.03664 16.9476C6.01738 16.9027 5.99811 16.8578 5.97827 16.8115C5.948 16.7419 5.948 16.7419 5.91712 16.6708C5.65804 16.072 5.4071 15.4696 5.15649 14.8672C4.99876 14.8672 4.85118 14.9464 4.70515 15.0025ZM8.37914 16.9297C8.37914 17.1132 8.38484 17.1297 8.49529 17.2597C8.51972 17.289 8.54415 17.3183 8.56931 17.3485C8.59518 17.3787 8.62105 17.4088 8.6477 17.4399C8.74531 17.5556 8.84196 17.6719 8.93774 17.7891C8.97297 17.8317 9.00819 17.8744 9.04449 17.9183C9.17048 18.167 9.06089 18.4212 8.97893 18.6728C8.9413 18.7833 8.90334 18.8937 8.86506 19.0039C8.84486 19.063 8.82469 19.122 8.80455 19.181C8.75179 19.3355 8.69865 19.4899 8.6454 19.6442C8.55995 19.892 8.47502 20.14 8.39018 20.3881C8.36051 20.4746 8.33066 20.5611 8.30077 20.6476C8.28285 20.6998 8.26492 20.752 8.24645 20.8058C8.23055 20.8519 8.21465 20.898 8.19827 20.9455C8.16004 21.0493 8.16004 21.0493 8.1643 21.1406C9.04344 21.1406 9.92258 21.1406 10.8284 21.1406C10.7503 20.8544 10.6731 20.5776 10.5737 20.2997C10.5621 20.2668 10.5505 20.2339 10.5386 20.2001C10.5019 20.0964 10.4651 19.9928 10.4282 19.8892C10.4041 19.8209 10.3799 19.7527 10.3558 19.6844C10.3439 19.6507 10.332 19.617 10.3197 19.5823C10.2957 19.5147 10.2719 19.447 10.248 19.3793C10.1887 19.2112 10.1282 19.0436 10.0654 18.8768C10.0534 18.8443 10.0414 18.8118 10.029 18.7783C10.0065 18.7175 9.98357 18.6568 9.9601 18.5963C9.88349 18.3875 9.86726 18.2229 9.88305 18.0039C9.95405 17.8945 9.95405 17.8945 10.0522 17.7998C10.2093 17.6388 10.3538 17.4763 10.49 17.2976C10.5393 17.2339 10.5393 17.2339 10.5897 17.1689C10.6228 17.1143 10.6228 17.1143 10.6565 17.0586C10.6282 16.9242 10.6282 16.9242 10.5238 16.8827C9.72671 16.6032 9.1663 16.6292 8.37914 16.9297Z" fill="#156468"/>
</svg>
