<svg width="26" height="26" viewBox="0 0 26 26" fill="none" xmlns="http://www.w3.org/2000/svg">
<path d="M0 13.2651C0 10.2901 7.7486e-08 8.80266 0.67496 7.56956C1.34992 6.33647 2.58303 5.57116 5.04924 4.04057L7.64924 2.42693C10.2562 0.808977 11.5597 0 13 0C14.4403 0 15.7438 0.808977 18.3508 2.42693L20.9508 4.04056C23.417 5.57116 24.6501 6.33647 25.325 7.56956C26 8.80266 26 10.2901 26 13.2651V15.2425C26 20.3135 26 22.8492 24.4769 24.4245C22.954 26 20.5026 26 15.6 26H10.4C5.49739 26 3.04609 26 1.52304 24.4245C1.54972e-07 22.8492 0 20.3135 0 15.2425V13.2651Z" fill="url(#paint0_linear_248_28007)"/>
<path d="M16.9 20.8H9.09995H16.9Z" fill="white"/>
<path d="M16.9 20.8H9.09995" stroke="white" stroke-width="1.5" stroke-linecap="round"/>
<defs>
<linearGradient id="paint0_linear_248_28007" x1="10.4464" y1="1.63396e-07" x2="23.8234" y2="23.7088" gradientUnits="userSpaceOnUse">
<stop stop-color="#613843"/>
<stop offset="1" stop-color="#0E3434"/>
</linearGradient>
</defs>
</svg>
