<svg width="17" height="17" viewBox="0 0 17 17" fill="none" xmlns="http://www.w3.org/2000/svg">
<path d="M1 11.5C1 9.3787 1 8.31805 1.65901 7.65903C2.31802 7 3.37868 7 5.5 7H11.5C13.6213 7 14.6819 7 15.341 7.65903C16 8.31805 16 9.3787 16 11.5C16 13.6213 16 14.682 15.341 15.341C14.6819 16 13.6213 16 11.5 16H5.5C3.37868 16 2.31802 16 1.65901 15.341C1 14.682 1 13.6213 1 11.5Z" stroke="url(#paint0_linear_405_150529)" stroke-width="1.3"/>
<path d="M4 7V5.5C4 3.01472 6.01472 1 8.5 1C10.9853 1 13 3.01472 13 5.5V7" stroke="url(#paint1_linear_405_150529)" stroke-width="1.3" stroke-linecap="round"/>
<path d="M5.5 11.5H5.50675M8.49325 11.5H8.5M11.4933 11.5H11.5" stroke="url(#paint2_linear_405_150529)" stroke-width="1.3" stroke-linecap="round" stroke-linejoin="round"/>
<defs>
<linearGradient id="paint0_linear_405_150529" x1="7.02679" y1="7" x2="10.3129" y2="16.707" gradientUnits="userSpaceOnUse">
<stop offset="0.0185047" stop-color="#0C588B" stop-opacity="0.81"/>
<stop offset="0.437019" stop-color="#155A8A" stop-opacity="0.93"/>
<stop offset="0.96875" stop-color="#265E87" stop-opacity="0.92"/>
</linearGradient>
<linearGradient id="paint1_linear_405_150529" x1="7.61607" y1="1" x2="9.99293" y2="7.31895" gradientUnits="userSpaceOnUse">
<stop offset="0.0185047" stop-color="#0C588B" stop-opacity="0.81"/>
<stop offset="0.437019" stop-color="#155A8A" stop-opacity="0.93"/>
<stop offset="0.96875" stop-color="#265E87" stop-opacity="0.92"/>
</linearGradient>
<linearGradient id="paint2_linear_405_150529" x1="7.91071" y1="11.5" x2="8.02277" y2="12.6916" gradientUnits="userSpaceOnUse">
<stop offset="0.0185047" stop-color="#0C588B" stop-opacity="0.81"/>
<stop offset="0.437019" stop-color="#155A8A" stop-opacity="0.93"/>
<stop offset="0.96875" stop-color="#265E87" stop-opacity="0.92"/>
</linearGradient>
</defs>
</svg>
