<svg width="16" height="16" viewBox="0 0 16 16" fill="none" xmlns="http://www.w3.org/2000/svg">
<path d="M8.06564 1.51652C8.67004 1.27474 9.35431 1.38905 9.84587 1.80353L9.95576 1.90448L14.0955 6.04426C14.5558 6.50461 14.7203 7.17851 14.533 7.79358L14.4835 7.93435L12.4111 13.1154C12.1749 13.7059 11.6372 14.1227 11.0052 14.2028L6.55451 14.7581C6.44006 14.772 6.31971 14.7886 6.19459 14.8075L5.80599 14.8709C5.7392 14.8825 5.67151 14.8946 5.60303 14.9071L4.96965 15.0307L4.53536 15.1226L3.88268 15.2691L3.04543 15.4689L1.68566 15.8158L1.11957 15.9683C0.843029 16.0447 0.505209 15.9882 0.258495 15.7415C0.0392007 15.5222 -0.029802 15.2309 0.0112249 14.9747L0.0409049 14.847L0.299765 13.8725L0.531147 12.9546L0.730892 12.1173L0.877419 11.4647L0.96932 11.0304L1.09287 10.397L1.16241 9.99655L1.21907 9.62144L1.79715 4.99486C1.87114 4.41141 2.23196 3.9084 2.75149 3.64869L2.8846 3.58892L8.06564 1.51652ZM8.71654 3.14371L3.53568 5.21604L3.0239 9.30952C3.00937 9.4284 2.99525 9.5443 2.98167 9.65639C2.91403 10.2144 2.78989 10.89 2.64493 11.578L2.49436 12.2664L5.37567 9.3851C5.21952 8.80037 5.37079 8.1507 5.82949 7.69197C6.51394 7.00752 7.62356 7.00752 8.30793 7.69197C8.99239 8.37634 8.99239 9.48605 8.30793 10.1704C7.84929 10.6291 7.19962 10.7804 6.61497 10.6242L3.73354 13.5057L4.0773 13.4291L4.76441 13.2845C5.21841 13.1931 5.65909 13.1137 6.05532 13.0567L10.784 12.4643L12.8563 7.28345L8.71654 3.14371ZM10.7865 0.256651C11.1023 -0.0592272 11.5993 -0.0835254 11.9431 0.183756L12.0257 0.256651L15.7434 3.97435C16.0855 4.31656 16.0855 4.87138 15.7434 5.21358C15.4275 5.52947 14.9304 5.55376 14.5867 5.28648L14.5041 5.21358L10.7865 1.49588C10.4442 1.15368 10.4442 0.598852 10.7865 0.256651Z" fill="url(#paint0_linear_608_41374)"/>
<defs>
<linearGradient id="paint0_linear_608_41374" x1="6.42857" y1="1.00552e-07" x2="14.6606" y2="14.59" gradientUnits="userSpaceOnUse">
<stop offset="0.0185047" stop-color="#0C588B" stop-opacity="0.81"/>
<stop offset="0.437019" stop-color="#155A8A" stop-opacity="0.93"/>
<stop offset="0.96875" stop-color="#265E87" stop-opacity="0.92"/>
</linearGradient>
</defs>
</svg>
