<svg width="14" height="14" viewBox="0 0 14 14" fill="none" xmlns="http://www.w3.org/2000/svg">
<path d="M2.88891 5.82416C2.31766 5.82439 1.75919 5.65518 1.28412 5.33796C0.809054 5.02073 0.438746 4.56973 0.220037 4.04201C0.00132746 3.51429 -0.0559554 2.93357 0.055434 2.37329C0.166823 1.81301 0.44188 1.29835 0.845811 0.894421C1.24974 0.49049 1.7644 0.215433 2.32468 0.104043C2.88496 -0.00734602 3.46568 0.0499369 3.9934 0.268646C4.52112 0.487355 4.97212 0.857664 5.28935 1.33273C5.60657 1.8078 5.77578 2.36627 5.77555 2.93752C5.77495 3.70302 5.47067 4.43702 4.92948 4.97842C4.38829 5.51982 3.65441 5.82326 2.88891 5.82416ZM2.88891 4.03471C3.10591 4.03471 3.31804 3.97036 3.49848 3.8498C3.67891 3.72924 3.81954 3.55788 3.90258 3.3574C3.98563 3.15691 4.00736 2.9363 3.96502 2.72346C3.92269 2.51063 3.81819 2.31513 3.66474 2.16168C3.5113 2.00824 3.3158 1.90374 3.10296 1.8614C2.89012 1.81907 2.66952 1.8408 2.46903 1.92384C2.26854 2.00688 2.09718 2.14752 1.97662 2.32795C1.85606 2.50838 1.79171 2.72051 1.79171 2.93752C1.79171 3.22851 1.90731 3.50759 2.11307 3.71335C2.31884 3.91912 2.59791 4.03471 2.88891 4.03471ZM11.8723 1.78263L4.07546 13.4548C3.89871 13.6988 3.63432 13.8648 3.33778 13.918C3.04124 13.9712 2.73561 13.9075 2.48504 13.7402C2.23448 13.5729 2.05846 13.3151 1.99393 13.0208C1.9294 12.7265 1.98138 12.4187 2.13897 12.1619L9.93585 0.48862C10.1117 0.242035 10.3767 0.0736164 10.6746 0.0190616C10.9725 -0.0354932 11.2799 0.028104 11.5317 0.196374C11.7835 0.364643 11.9599 0.624358 12.0235 0.920471C12.0871 1.21658 12.0329 1.52582 11.8723 1.78263ZM13.9989 11.0749C13.9991 11.6461 13.8299 12.2046 13.5127 12.6797C13.1954 13.1547 12.7444 13.525 12.2167 13.7437C11.689 13.9624 11.1083 14.0197 10.548 13.9083C9.98771 13.797 9.47306 13.5219 9.06913 13.118C8.6652 12.714 8.39014 12.1994 8.27875 11.6391C8.16736 11.0788 8.22464 10.4981 8.44335 9.97037C8.66206 9.44265 9.03237 8.99166 9.50744 8.67443C9.9825 8.3572 10.541 8.188 11.1122 8.18822C11.8777 8.18882 12.6117 8.49311 13.1531 9.0343C13.6945 9.57548 13.998 10.3094 13.9989 11.0749ZM12.2094 11.0749C12.2094 10.8579 12.1451 10.6457 12.0245 10.4653C11.9039 10.2849 11.7326 10.1442 11.5321 10.0612C11.3316 9.97815 11.111 9.95642 10.8982 9.99875C10.6853 10.0411 10.4898 10.1456 10.3364 10.299C10.1829 10.4525 10.0784 10.648 10.0361 10.8608C9.99378 11.0737 10.0155 11.2943 10.0985 11.4947C10.1816 11.6952 10.3222 11.8666 10.5027 11.9872C10.6831 12.1077 10.8952 12.1721 11.1122 12.1721C11.2563 12.1721 11.399 12.1437 11.5321 12.0885C11.6652 12.0334 11.7862 11.9526 11.8881 11.8507C11.9899 11.7488 12.0708 11.6279 12.1259 11.4947C12.181 11.3616 12.2094 11.219 12.2094 11.0749Z" fill="url(#paint0_linear_1459_75624)"/>
<defs>
<linearGradient id="paint0_linear_1459_75624" x1="5.625" y1="8.77551e-08" x2="12.7997" y2="12.7491" gradientUnits="userSpaceOnUse">
<stop offset="0.0185047" stop-color="#0C588B" stop-opacity="0.81"/>
<stop offset="0.437019" stop-color="#155A8A" stop-opacity="0.93"/>
<stop offset="0.96875" stop-color="#265E87" stop-opacity="0.92"/>
</linearGradient>
</defs>
</svg>
