<svg width="15" height="20" viewBox="0 0 15 20" fill="none" xmlns="http://www.w3.org/2000/svg">
<path d="M7.49993 8.42857C9.55127 8.42857 11.2142 6.76563 11.2142 4.71429C11.2142 2.66294 9.55127 1 7.49993 1C5.44859 1 3.78564 2.66294 3.78564 4.71429C3.78564 6.76563 5.44859 8.42857 7.49993 8.42857Z" stroke="url(#paint0_linear_4136_15384)" stroke-width="1.5"/>
<path d="M7.5 18.6428C11.0899 18.6428 14 16.9799 14 14.9286C14 12.8772 11.0899 11.2143 7.5 11.2143C3.91015 11.2143 1 12.8772 1 14.9286C1 16.9799 3.91015 18.6428 7.5 18.6428Z" stroke="url(#paint1_linear_4136_15384)" stroke-width="1.5"/>
<defs>
<linearGradient id="paint0_linear_4136_15384" x1="6.77034" y1="1" x2="10.5923" y2="7.77393" gradientUnits="userSpaceOnUse">
<stop stop-color="#613843"/>
<stop offset="1" stop-color="#0E3434"/>
</linearGradient>
<linearGradient id="paint1_linear_4136_15384" x1="6.22321" y1="11.2143" x2="8.83136" y2="19.3038" gradientUnits="userSpaceOnUse">
<stop stop-color="#613843"/>
<stop offset="1" stop-color="#0E3434"/>
</linearGradient>
</defs>
</svg>
