<svg width="17" height="16" viewBox="0 0 17 16" fill="none" xmlns="http://www.w3.org/2000/svg">
<path d="M11.2818 10.768C11.2711 10.7756 11.2598 10.7834 11.2479 10.7913C11.1773 10.8378 11.0856 10.8873 10.9719 10.929L10.9719 10.929C10.7391 11.0143 10.439 11.0575 10.0742 11.0025L10.0741 11.0025C9.38414 10.8983 8.50644 10.4515 7.37329 9.36724L7.37272 9.36781L7.26723 9.26461L7.15824 9.158L7.15885 9.15739C6.0536 8.05121 5.59532 7.19183 5.48819 6.51244C5.43141 6.15235 5.47596 5.85536 5.56415 5.6251C5.56415 5.6251 5.56415 5.6251 5.56415 5.6251L5.70423 5.67874C5.74273 5.57822 5.78809 5.49828 5.82973 5.43783C5.83141 5.43538 5.83309 5.43296 5.83477 5.43058L11.2818 10.768ZM11.2818 10.768L11.2906 10.7767L11.3953 10.6744L11.3954 10.6742L11.3955 10.6741L11.3956 10.674L11.3961 10.6735L11.3965 10.6731M11.2818 10.768L11.3965 10.6731M11.3965 10.6731L11.641 10.434L11.7465 10.3308C11.9929 10.0897 12.3967 10.0248 12.7474 10.2123L12.8778 10.282L14.0828 10.9265L14.2169 10.9982C14.7622 11.2899 14.8328 11.9616 14.4656 12.3208C14.4656 12.3208 14.4656 12.3208 14.4656 12.3208L14.3567 12.4274L13.4784 13.2865L13.4784 13.2865L13.3741 13.3885L13.3729 13.3897L13.3729 13.3897C13.3727 13.39 13.3724 13.3902 13.3722 13.3904C13.1787 13.5795 12.983 13.6748 12.7983 13.6917C11.7183 13.7907 8.87927 13.7086 5.79252 10.689C5.79249 10.689 5.79246 10.689 5.79243 10.689C5.79157 10.6881 5.79072 10.6873 5.78987 10.6865C2.84128 7.80087 2.36409 5.38714 2.30484 4.36154C2.30484 4.36148 2.30484 4.36142 2.30483 4.36136C2.29297 4.15489 2.38815 3.92119 2.6207 3.69369C2.62071 3.69368 2.62071 3.69368 2.62072 3.69367L2.72971 3.58705L3.72253 2.61583L3.82802 2.51263C3.82811 2.51254 3.8282 2.51245 3.8283 2.51236C4.17009 2.17833 4.79139 2.2057 5.12872 2.64901L5.21814 2.76652L6.00633 3.80242L6.0986 3.92367L6.0986 3.92367C6.0986 3.92368 6.09861 3.92368 6.09862 3.92369C6.36494 4.2737 6.32109 4.72381 6.04762 4.99133L5.93863 5.09795L5.82701 5.20714L5.82688 5.20728L5.82596 5.20816L5.82566 5.20846L5.82556 5.20856L5.82488 5.20923L5.82457 5.20954L5.71803 5.31375L5.72738 5.32301L11.3965 10.6731ZM6.92364 6.13362L6.92432 6.13218L6.92839 6.12238C6.9297 6.11849 6.93068 6.1011 6.92855 6.07745L6.86049 6.01011L6.85876 6.00839L6.7886 6.07703L6.78857 6.07706L6.78587 6.0797L6.78586 6.07971L6.78241 6.08309C6.78123 6.08644 6.7798 6.09084 6.77829 6.09636L6.87391 6.17719L6.92364 6.13362ZM6.92364 6.13362L6.92188 6.13729L6.92156 6.1379M6.92364 6.13362L6.92156 6.1379M6.92156 6.1379C6.92119 6.13862 6.92078 6.13942 6.92033 6.14028L6.92046 6.14004L6.92156 6.1379ZM11.3702 10.6977C11.3703 10.6976 11.3703 10.6976 11.3704 10.6975C11.3705 10.6974 11.3706 10.6973 11.3707 10.6973L11.2711 10.5866L11.3702 10.6977ZM10.2939 9.5838C10.0207 9.54265 9.37883 9.30981 8.29049 8.24521C8.29028 8.245 8.29007 8.2448 8.28986 8.24459C7.20137 7.17961 6.96593 6.55363 6.92464 6.29169L6.92464 6.29168C6.91452 6.22756 6.91575 6.18462 6.9187 6.15959L6.96539 6.11391L7.07089 6.01071C7.07122 6.01038 7.07155 6.01006 7.07187 6.00974L7.17987 5.90409L7.1762 5.90046C7.85468 5.13997 7.90803 4.02888 7.34925 3.18592L7.35323 3.18298L7.26102 3.0618C7.261 3.06177 7.26098 3.06175 7.26097 3.06173L7.17154 2.94421L6.38334 1.90833L6.29108 1.78708L6.20165 1.66955L6.19794 1.67229C5.36983 0.71447 3.88717 0.556512 2.91358 1.39338L2.91021 1.39005L2.80472 1.49324L2.69573 1.59986L1.70292 2.57109L1.59742 2.67428L1.48844 2.7809L1.49131 2.78374C1.13672 3.16962 0.859402 3.68635 0.850223 4.29292L0.844775 4.29322L0.853438 4.44319C0.853439 4.44321 0.85344 4.44323 0.853441 4.44325C0.853442 4.44328 0.853444 4.4433 0.853445 4.44333L0.862076 4.59272L0.863877 4.59262C0.978511 5.99436 1.65555 8.61567 4.66056 11.6013L4.66014 11.6017L4.76903 11.7083C4.76906 11.7083 4.76909 11.7083 4.76913 11.7084L4.87462 11.8116L4.87511 11.8111C8.1677 14.9727 11.3022 15.2353 12.7837 15.1326L12.7839 15.1343L12.9328 15.1207C12.9333 15.1206 12.9338 15.1206 12.9343 15.1205L13.0826 15.1069L13.0821 15.1017C13.5655 15.0235 13.9706 14.7903 14.2881 14.5097L14.2907 14.5123L14.3959 14.4093C14.396 14.4093 14.3961 14.4092 14.3962 14.4091L14.5052 14.3025L15.3834 13.4434L15.4889 13.3402L15.5979 13.2336L15.5943 13.2301C16.5405 12.1743 16.2286 10.5471 15.0412 9.81235L15.0435 9.80817L14.9095 9.73652C14.9095 9.73649 14.9094 9.73647 14.9094 9.73645L14.7789 9.66667L13.574 9.02222L13.4399 8.9505C13.4399 8.95049 13.4399 8.95048 13.4398 8.95047L13.3094 8.88072L13.3072 8.88473C12.4883 8.50996 11.5162 8.62547 10.8321 9.21162L10.8286 9.20818L10.7231 9.31138L10.7231 9.31139L10.7215 9.31296L10.6141 9.41799L10.6142 9.41801L10.4393 9.58911C10.4364 9.58949 10.4332 9.58986 10.4298 9.59019C10.4029 9.59282 10.3585 9.59357 10.2939 9.58381L10.2939 9.5838ZM6.89918 5.971L6.96599 5.90348C6.98237 5.88747 6.99841 5.87125 7.01413 5.85484L7.0715 5.79686L6.89918 5.971ZM6.77828 6.09642L6.87297 6.17751C6.86549 6.18001 6.85698 6.18248 6.84765 6.18469C6.84725 6.18478 6.84685 6.18488 6.84645 6.18497C6.84255 6.18588 6.8385 6.18674 6.83434 6.18754L6.77828 6.09642Z" fill="url(#paint0_linear_584_22222)" stroke="url(#paint1_linear_584_22222)" stroke-width="0.3"/>
<defs>
<linearGradient id="paint0_linear_584_22222" x1="7.02679" y1="1" x2="13.9655" y2="14.1764" gradientUnits="userSpaceOnUse">
<stop offset="0.0185047" stop-color="#0C588B" stop-opacity="0.81"/>
<stop offset="0.437019" stop-color="#155A8A" stop-opacity="0.93"/>
<stop offset="0.96875" stop-color="#265E87" stop-opacity="0.92"/>
</linearGradient>
<linearGradient id="paint1_linear_584_22222" x1="7.02679" y1="1" x2="13.9655" y2="14.1764" gradientUnits="userSpaceOnUse">
<stop offset="0.0185047" stop-color="#0C588B" stop-opacity="0.81"/>
<stop offset="0.437019" stop-color="#155A8A" stop-opacity="0.93"/>
<stop offset="0.96875" stop-color="#265E87" stop-opacity="0.92"/>
</linearGradient>
</defs>
</svg>
