<svg width="23" height="23" viewBox="0 0 23 23" fill="none" xmlns="http://www.w3.org/2000/svg">
<path d="M2.35218 4.01548L4.01542 2.35224C5.58354 0.78412 6.3676 6.10352e-05 7.3419 6.10352e-05C8.3162 6.10352e-05 9.10026 0.78412 10.6684 2.35224L7.89631 5.1243L2.35218 10.6685C0.78407 9.10044 0 8.31626 0 7.34196C0 6.36766 0.784059 5.5836 2.35218 4.01548Z" fill="url(#paint0_linear_2454_39587)"/>
<path d="M20.6478 18.9845L18.9846 20.6478C17.4165 22.2159 16.6325 23 15.6581 23C14.6838 23 13.8997 22.2159 12.3317 20.6478L17.8757 15.1036L20.6478 12.3315C22.2159 13.8997 23 14.6838 23 15.658C23 16.6324 22.2159 17.4165 20.6478 18.9845Z" fill="url(#paint1_linear_2454_39587)"/>
<path d="M10.8101 18.5854L19.3154 10.0801C18.1578 9.59839 16.7868 8.80695 15.4902 7.51031C14.1933 6.21345 13.4018 4.84219 12.92 3.68451L4.41464 12.1899C3.75094 12.8537 3.41903 13.1856 3.13363 13.5514C2.79695 13.9831 2.50831 14.4501 2.27279 14.9443C2.07314 15.3632 1.92473 15.8085 1.62789 16.6989L0.0626167 21.3949C-0.0834563 21.833 0.0305893 22.3161 0.357224 22.6428C0.683858 22.9694 1.167 23.0835 1.60522 22.9375L6.30106 21.3721C7.19154 21.0753 7.63681 20.9269 8.05573 20.7273C8.54989 20.4918 9.01694 20.2031 9.44863 19.8664C9.81444 19.581 10.1464 19.2491 10.8101 18.5854Z" fill="url(#paint2_linear_2454_39587)"/>
<path d="M21.6754 7.72002C23.4415 5.95396 23.4415 3.09061 21.6754 1.32455C19.9094 -0.441517 17.046 -0.441517 15.2799 1.32455L14.2599 2.34465C14.2739 2.38683 14.2883 2.42959 14.3034 2.47291C14.6772 3.55063 15.3827 4.96341 16.7098 6.29053C18.0369 7.61764 19.4497 8.32312 20.5275 8.69702C20.5706 8.71198 20.6132 8.7264 20.6552 8.7403L21.6754 7.72002Z" fill="url(#paint3_linear_2454_39587)"/>
<defs>
<linearGradient id="paint0_linear_2454_39587" x1="4.28643" y1="6.11022e-05" x2="9.77533" y2="9.72835" gradientUnits="userSpaceOnUse">
<stop stop-color="#613843"/>
<stop offset="1" stop-color="#0E3434"/>
</linearGradient>
<linearGradient id="paint1_linear_2454_39587" x1="16.618" y1="12.3315" x2="22.1069" y2="22.0598" gradientUnits="userSpaceOnUse">
<stop stop-color="#613843"/>
<stop offset="1" stop-color="#0E3434"/>
</linearGradient>
<linearGradient id="paint2_linear_2454_39587" x1="7.76065" y1="3.68451" x2="17.6985" y2="21.2978" gradientUnits="userSpaceOnUse">
<stop stop-color="#613843"/>
<stop offset="1" stop-color="#0E3434"/>
</linearGradient>
<linearGradient id="paint3_linear_2454_39587" x1="17.7715" y1="5.49282e-08" x2="22.2685" y2="7.96997" gradientUnits="userSpaceOnUse">
<stop stop-color="#613843"/>
<stop offset="1" stop-color="#0E3434"/>
</linearGradient>
</defs>
</svg>
