<svg width="22" height="22" viewBox="0 0 22 22" fill="none" xmlns="http://www.w3.org/2000/svg">
<path fill-rule="evenodd" clip-rule="evenodd" d="M11 0C8.08262 0 5.28473 1.15893 3.22183 3.22183C1.15893 5.28473 0 8.08262 0 11C0 13.9174 1.15893 16.7153 3.22183 18.7782C5.28473 20.8411 8.08262 22 11 22C13.9174 22 16.7153 20.8411 18.7782 18.7782C20.8411 16.7153 22 13.9174 22 11C22 8.08262 20.8411 5.28473 18.7782 3.22183C16.7153 1.15893 13.9174 0 11 0ZM5.84375 6.875C5.57025 6.875 5.30794 6.98365 5.11455 7.17705C4.92115 7.37044 4.8125 7.63275 4.8125 7.90625C4.8125 8.17975 4.92115 8.44206 5.11455 8.63545C5.30794 8.82885 5.57025 8.9375 5.84375 8.9375H16.1562C16.4298 8.9375 16.6921 8.82885 16.8855 8.63545C17.0788 8.44206 17.1875 8.17975 17.1875 7.90625C17.1875 7.63275 17.0788 7.37044 16.8855 7.17705C16.6921 6.98365 16.4298 6.875 16.1562 6.875H5.84375ZM7.90625 10.3125C7.63275 10.3125 7.37044 10.4211 7.17705 10.6145C6.98365 10.8079 6.875 11.0702 6.875 11.3438C6.875 11.6173 6.98365 11.8796 7.17705 12.073C7.37044 12.2663 7.63275 12.375 7.90625 12.375H14.0938C14.3673 12.375 14.6296 12.2663 14.823 12.073C15.0163 11.8796 15.125 11.6173 15.125 11.3438C15.125 11.0702 15.0163 10.8079 14.823 10.6145C14.6296 10.4211 14.3673 10.3125 14.0938 10.3125H7.90625ZM8.59375 14.7812C8.59375 14.5077 8.7024 14.2454 8.8958 14.052C9.08919 13.8587 9.3515 13.75 9.625 13.75H12.375C12.6485 13.75 12.9108 13.8587 13.1042 14.052C13.2976 14.2454 13.4062 14.5077 13.4062 14.7812C13.4062 15.0548 13.2976 15.3171 13.1042 15.5105C12.9108 15.7038 12.6485 15.8125 12.375 15.8125H9.625C9.3515 15.8125 9.08919 15.7038 8.8958 15.5105C8.7024 15.3171 8.59375 15.0548 8.59375 14.7812Z" fill="url(#paint0_linear_3806_11782)"/>
<defs>
<linearGradient id="paint0_linear_3806_11782" x1="8.83929" y1="1.38259e-07" x2="20.1583" y2="20.0613" gradientUnits="userSpaceOnUse">
<stop stop-color="#613843"/>
<stop offset="0.96875" stop-color="#0F3A39"/>
</linearGradient>
</defs>
</svg>
