<svg width="19" height="17" viewBox="0 0 19 17" fill="none" xmlns="http://www.w3.org/2000/svg">
<path d="M18.2875 5.434C16.093 1.9855 12.882 0 9.5 0C7.809 0 6.1655 0.494 4.6645 1.4155C3.1635 2.3465 1.8145 3.705 0.7125 5.434C-0.2375 6.92551 -0.2375 9.34801 0.7125 10.8395C2.907 14.2975 6.118 16.2735 9.5 16.2735C11.191 16.2735 12.8345 15.7795 14.3355 14.858C15.8365 13.927 17.1855 12.5685 18.2875 10.8395C19.2375 9.35751 19.2375 6.92551 18.2875 5.434ZM9.5 11.9795C7.372 11.9795 5.662 10.26 5.662 8.14151C5.662 6.023 7.372 4.3035 9.5 4.3035C11.628 4.3035 13.338 6.023 13.338 8.14151C13.338 10.26 11.628 11.9795 9.5 11.9795Z" fill="url(#paint0_linear_887_31897)"/>
<path d="M9.49823 5.42542C8.00673 5.42542 6.79077 6.6414 6.79077 8.1424C6.79077 9.6339 8.00673 10.8499 9.49823 10.8499C10.9897 10.8499 12.2152 9.6339 12.2152 8.1424C12.2152 6.6509 10.9897 5.42542 9.49823 5.42542Z" fill="url(#paint1_linear_887_31897)"/>
<defs>
<linearGradient id="paint0_linear_887_31897" x1="7.63393" y1="1.02271e-07" x2="15.2982" y2="15.8597" gradientUnits="userSpaceOnUse">
<stop offset="0.0185047" stop-color="#0C588B" stop-opacity="0.81"/>
<stop offset="0.437019" stop-color="#155A8A" stop-opacity="0.93"/>
<stop offset="0.96875" stop-color="#265E87" stop-opacity="0.92"/>
</linearGradient>
<linearGradient id="paint1_linear_887_31897" x1="8.97024" y1="5.42542" x2="11.7611" y2="10.3719" gradientUnits="userSpaceOnUse">
<stop offset="0.0185047" stop-color="#0C588B" stop-opacity="0.81"/>
<stop offset="0.437019" stop-color="#155A8A" stop-opacity="0.93"/>
<stop offset="0.96875" stop-color="#265E87" stop-opacity="0.92"/>
</linearGradient>
</defs>
</svg>
