<svg width="28" height="28" viewBox="0 0 28 28" fill="none" xmlns="http://www.w3.org/2000/svg">
<path d="M9.66255 2.4636C9.75149 2.46366 9.84042 2.46362 9.92936 2.4635C10.1689 2.46344 10.4084 2.46468 10.648 2.46615C10.899 2.46748 11.1501 2.4676 11.4011 2.46785C11.8757 2.4685 12.3502 2.47023 12.8248 2.47235C13.3654 2.47471 13.906 2.47587 14.4466 2.47693C15.5579 2.47913 16.6692 2.48283 17.7805 2.48754C17.7806 2.55527 17.7807 2.623 17.7807 2.69278C17.7816 3.33358 17.7839 3.97435 17.7875 4.61514C17.7893 4.94451 17.7906 5.27387 17.7908 5.60325C17.791 5.92159 17.7926 6.23991 17.7949 6.55825C17.7956 6.67921 17.7958 6.80018 17.7956 6.92114C17.7941 7.88001 17.8667 8.62198 18.5649 9.3391C19.1931 9.93058 19.9554 10.0339 20.7825 10.0394C20.8324 10.0399 20.8824 10.0404 20.9339 10.041C21.0973 10.0426 21.2608 10.0439 21.4243 10.0452C21.5383 10.0463 21.6523 10.0474 21.7663 10.0486C22.0652 10.0515 22.364 10.0541 22.6628 10.0566C22.9683 10.0593 23.2737 10.0622 23.5791 10.0651C24.1775 10.0708 24.7759 10.0761 25.3743 10.0813C25.3767 11.8181 25.3785 13.5549 25.3796 15.2917C25.3798 15.497 25.3799 15.7022 25.38 15.9074C25.3801 15.9686 25.3801 15.9686 25.3801 16.0312C25.3806 16.692 25.3814 17.3528 25.3824 18.0136C25.3834 18.6921 25.384 19.3705 25.3842 20.049C25.3843 20.4673 25.3848 20.8857 25.3856 21.3041C25.3863 21.6253 25.3863 21.9465 25.3862 22.2678C25.3862 22.3992 25.3864 22.5307 25.3868 22.6622C25.3874 22.8421 25.3872 23.022 25.3869 23.202C25.3874 23.2794 25.3874 23.2794 25.3879 23.3585C25.3845 24.1397 25.1958 24.8247 24.6459 25.4006C24.069 25.9321 23.4828 26.1375 22.7055 26.133C22.6461 26.1333 22.5866 26.1336 22.5253 26.1338C22.3272 26.1346 22.129 26.1342 21.9309 26.1338C21.7883 26.1341 21.6458 26.1345 21.5033 26.1349C21.157 26.1359 20.8107 26.1359 20.4645 26.1356C20.1829 26.1354 19.9013 26.1355 19.6197 26.1358C19.5595 26.1358 19.5595 26.1358 19.4981 26.1359C19.4165 26.136 19.3349 26.136 19.2533 26.1361C18.4891 26.1369 17.7249 26.1366 16.9607 26.136C16.2624 26.1354 15.5641 26.1361 14.8658 26.1374C14.1478 26.1387 13.4298 26.1392 12.7117 26.1388C12.309 26.1386 11.9063 26.1388 11.5036 26.1397C11.1608 26.1405 10.818 26.1405 10.4752 26.1396C10.3005 26.1391 10.1259 26.1391 9.95115 26.1398C9.76131 26.1405 9.57152 26.1399 9.38168 26.139C9.3271 26.1395 9.27252 26.14 9.21628 26.1405C8.54543 26.1338 7.93768 25.8495 7.43797 25.4072C7.05633 25.0077 6.75212 24.3869 6.75268 23.833C6.7526 23.7773 6.75253 23.7215 6.75246 23.6641C6.75265 23.6032 6.75284 23.5423 6.75303 23.4796C6.75302 23.4153 6.75302 23.3509 6.75301 23.2847C6.75304 23.1085 6.7533 22.9323 6.75367 22.7562C6.754 22.572 6.75403 22.3878 6.75409 22.2036C6.75426 21.8549 6.75469 21.5063 6.75522 21.1576C6.75581 20.7606 6.7561 20.3636 6.75636 19.9666C6.75692 19.15 6.75784 18.3334 6.75902 17.5168C6.79583 17.5202 6.83264 17.5235 6.87057 17.527C7.04065 17.5422 7.21078 17.5568 7.38091 17.5714C7.43879 17.5767 7.49667 17.582 7.55631 17.5874C9.30843 17.7352 11.1378 17.1741 12.4898 16.0415C12.5303 16.0063 12.5708 15.9711 12.6125 15.9348C12.6782 15.8787 12.6782 15.8787 12.7452 15.8215C14.1356 14.606 14.9587 12.8818 15.1306 11.0503C15.136 10.9559 15.1405 10.8614 15.1438 10.7668C15.1459 10.7266 15.148 10.6864 15.1502 10.6449C15.204 8.77163 14.4483 6.93699 13.1747 5.58239C11.7797 4.14121 9.95894 3.44812 7.97191 3.38403C7.76086 3.38073 7.55013 3.38037 7.3391 3.38403C7.94736 2.6042 8.71788 2.45464 9.66255 2.4636ZM20.4103 15.5347C20.252 15.7811 20.2824 16.0622 20.2845 16.3454C20.2841 16.4076 20.2837 16.4699 20.2833 16.5341C20.2826 16.7043 20.2827 16.8745 20.2834 17.0447C20.284 17.2231 20.2835 17.4016 20.2831 17.5801C20.2827 17.8798 20.2832 18.1794 20.2843 18.4791C20.2854 18.8251 20.285 19.171 20.2839 19.517C20.2829 19.8146 20.2828 20.1122 20.2833 20.4097C20.2837 20.5872 20.2837 20.7647 20.283 20.9422C20.2825 21.1401 20.2833 21.338 20.2845 21.536C20.284 21.5945 20.2836 21.653 20.2832 21.7133C20.2867 22.0367 20.3057 22.2284 20.5227 22.4739C20.7522 22.6815 20.9402 22.7183 21.24 22.7052C21.494 22.6642 21.6356 22.5249 21.8048 22.342C21.938 22.1447 21.9531 21.979 21.9539 21.7441C21.9542 21.6929 21.9545 21.6417 21.9548 21.5889C21.9549 21.533 21.955 21.4772 21.955 21.4196C21.9553 21.3605 21.9555 21.3014 21.9558 21.2405C21.9566 21.0449 21.9569 20.8492 21.9572 20.6535C21.9575 20.5175 21.9578 20.3816 21.9581 20.2456C21.9586 19.9969 21.959 19.7481 21.9591 19.4994C21.9594 19.1339 21.9603 18.7684 21.9618 18.4028C21.9631 18.0857 21.9635 17.7686 21.9636 17.4515C21.9637 17.3169 21.9642 17.1822 21.9649 17.0475C21.9658 16.8591 21.9657 16.6706 21.9653 16.4822C21.9658 16.4266 21.9663 16.3711 21.9668 16.3139C21.9649 15.973 21.9423 15.6877 21.7074 15.4211C21.25 15.0819 20.8029 15.0904 20.4103 15.5347ZM13.7727 17.9387C13.5815 18.1798 13.5352 18.3382 13.5345 18.6442C13.5341 18.6818 13.5337 18.7194 13.5333 18.7582C13.5324 18.8817 13.533 19.0051 13.5337 19.1285C13.5336 19.2148 13.5334 19.3011 13.5331 19.3874C13.5328 19.5679 13.5333 19.7484 13.5343 19.9289C13.5355 20.1598 13.5348 20.3906 13.5335 20.6215C13.5327 20.7995 13.533 20.9776 13.5335 21.1557C13.5337 21.2408 13.5335 21.3259 13.533 21.411C13.5325 21.5301 13.5333 21.6492 13.5345 21.7683C13.5346 21.836 13.5348 21.9037 13.535 21.9734C13.5756 22.2525 13.7056 22.4131 13.9111 22.5991C14.1523 22.7152 14.3533 22.7272 14.6164 22.6848C14.8609 22.5626 15.0838 22.386 15.1752 22.1182C15.2033 21.9616 15.2041 21.8112 15.205 21.652C15.2053 21.6176 15.2055 21.5832 15.2058 21.5477C15.2066 21.4342 15.2069 21.3207 15.2072 21.2072C15.2075 21.128 15.2078 21.0488 15.2081 20.9696C15.2087 20.8036 15.209 20.6376 15.2092 20.4715C15.2095 20.2595 15.2107 20.0474 15.2122 19.8354C15.2132 19.6717 15.2135 19.5081 15.2136 19.3444C15.2137 19.2663 15.2142 19.1882 15.2149 19.11C15.2158 19.0003 15.2157 18.8907 15.2153 18.7811C15.2155 18.7188 15.2157 18.6566 15.2159 18.5924C15.1898 18.3508 15.1213 18.1384 14.9574 17.9523C14.5735 17.6676 14.1559 17.592 13.7727 17.9387ZM17.0353 18.9054C16.8668 19.1676 16.9067 19.4876 16.9087 19.7877C16.9085 19.8544 16.9083 19.9211 16.9081 19.9898C16.908 20.1306 16.9083 20.2713 16.9093 20.4121C16.9105 20.5919 16.9098 20.7717 16.9085 20.9515C16.9075 21.1239 16.9082 21.2962 16.9087 21.4686C16.9083 21.5329 16.9079 21.5972 16.9074 21.6634C16.9112 22.0009 16.9156 22.2199 17.1477 22.4739C17.3772 22.6815 17.5652 22.7183 17.865 22.7052C18.119 22.6642 18.2606 22.5249 18.4298 22.342C18.566 22.1403 18.5782 21.9696 18.58 21.7294C18.5805 21.6758 18.581 21.6221 18.5816 21.5667C18.5818 21.509 18.582 21.4513 18.5822 21.3918C18.5825 21.3321 18.5828 21.2724 18.5831 21.2109C18.5836 21.0846 18.584 20.9583 18.5842 20.832C18.5847 20.6393 18.5863 20.4467 18.588 20.254C18.5883 20.1312 18.5886 20.0084 18.5888 19.8856C18.5895 19.8281 18.5901 19.7707 18.5908 19.7116C18.5898 19.3619 18.5737 19.0699 18.3324 18.7961C17.8735 18.4557 17.4341 18.469 17.0353 18.9054ZM10.2852 20.5931C10.1165 20.8541 10.1564 21.173 10.1604 21.4719C10.1596 21.5332 10.1588 21.5945 10.1579 21.6577C10.1595 21.9968 10.165 22.219 10.3977 22.4739C10.6271 22.6814 10.8152 22.7185 11.115 22.705C11.3831 22.6622 11.5192 22.524 11.6798 22.3157C11.8344 22.0409 11.8327 21.7936 11.8347 21.4851C11.8358 21.4443 11.8369 21.4035 11.838 21.3615C11.8401 21.0514 11.8079 20.7313 11.5867 20.4929C11.334 20.2775 11.1712 20.2402 10.848 20.2444C10.59 20.2726 10.4539 20.4084 10.2852 20.5931Z" fill="#14827A"/>
<path d="M7.23363 5.07153C7.23392 5.16292 7.23392 5.16292 7.23421 5.25616C7.23617 5.83184 7.23922 6.40749 7.24333 6.98315C7.24541 7.27907 7.24711 7.57498 7.24792 7.8709C7.24872 8.15676 7.25054 8.4426 7.25305 8.72845C7.25383 8.83722 7.25425 8.946 7.2543 9.05478C7.25442 9.20776 7.25586 9.36068 7.25758 9.51365C7.25731 9.55811 7.25705 9.60256 7.25677 9.64836C7.26376 10.0525 7.38879 10.3899 7.60936 10.7273C8.27115 11.3603 9.06954 11.3107 9.92865 11.316C10.0307 11.317 10.1327 11.318 10.2347 11.3191C10.5015 11.3218 10.7682 11.3239 11.035 11.3259C11.3079 11.328 11.5808 11.3307 11.8538 11.3333C12.3879 11.3384 12.9221 11.3429 13.4563 11.3469C13.4486 11.4308 13.4408 11.5147 13.4328 11.5985C13.4284 11.6452 13.4241 11.6919 13.4196 11.7401C13.3136 12.6272 12.7725 13.4906 12.1907 14.1418C12.1662 14.1738 12.1417 14.2057 12.1165 14.2387C11.3564 15.2259 10.0099 15.7938 8.81566 15.9875C8.56464 16.0088 8.31603 16.0128 8.0642 16.0106C7.99757 16.0102 7.93094 16.0098 7.8623 16.0094C7.33092 16.0001 6.8422 15.9422 6.33715 15.7766C6.2861 15.7601 6.2861 15.7601 6.23402 15.7432C5.40741 15.4653 4.73801 15.0139 4.1223 14.4055C4.06571 14.3546 4.06571 14.3546 4.00798 14.3027C3.15852 13.5211 2.5993 12.2305 2.53094 11.085C2.51558 10.3052 2.50827 9.5629 2.75121 8.81567C2.76774 8.7645 2.76774 8.7645 2.78461 8.71231C3.06253 7.88582 3.51398 7.21644 4.1223 6.60082C4.15622 6.56309 4.19015 6.52537 4.22509 6.4865C4.92562 5.72518 6.18784 5.05688 7.23363 5.07153Z" fill="#14827A"/>
<path d="M19.4153 2.48755C19.4905 2.49459 19.5656 2.50201 19.6407 2.50959C19.6826 2.51368 19.7244 2.51777 19.7676 2.52199C20.5707 2.64213 21.1545 3.36804 21.6618 3.93473C21.7841 4.07082 21.9083 4.20521 22.0322 4.33984C22.2458 4.57251 22.4574 4.80683 22.6683 5.04187C22.8048 5.19314 22.9425 5.34337 23.0803 5.49341C23.2962 5.72836 23.5103 5.96483 23.7232 6.20244C23.8338 6.32485 23.9456 6.4461 24.0578 6.56707C25.1454 7.74335 25.1454 7.74335 25.2688 8.3938C24.5798 8.39869 23.8908 8.40244 23.2018 8.40473C22.8819 8.40583 22.562 8.40732 22.2421 8.40971C21.9333 8.412 21.6246 8.41327 21.3158 8.41381C21.198 8.4142 21.0802 8.41496 20.9625 8.4161C20.7974 8.41763 20.6325 8.41784 20.4675 8.41775C20.4188 8.4185 20.3701 8.41926 20.32 8.42004C20.0267 8.41816 19.8588 8.379 19.6262 8.18286C19.4625 7.99655 19.4086 7.83853 19.4089 7.59249C19.4089 7.54746 19.4088 7.50243 19.4087 7.45603C19.4089 7.4068 19.4091 7.35756 19.4093 7.30684C19.4093 7.25486 19.4093 7.20289 19.4093 7.14934C19.4093 6.97728 19.4097 6.80523 19.4101 6.63317C19.4102 6.51398 19.4103 6.3948 19.4103 6.27561C19.4105 5.96169 19.4111 5.64777 19.4116 5.33385C19.4122 5.0136 19.4124 4.69336 19.4127 4.37311C19.4133 3.74459 19.4142 3.11607 19.4153 2.48755Z" fill="#14827A"/>
<path d="M8.86839 5.07153C9.20881 5.10936 9.48757 5.15411 9.80443 5.2627C9.86613 5.28372 9.86613 5.28372 9.92908 5.30517C10.5614 5.52824 11.0899 5.86526 11.6106 6.28442C11.6511 6.31556 11.6916 6.34669 11.7334 6.37877C12.5521 7.04734 13.1545 8.11143 13.4035 9.13208C13.4297 9.39312 13.4297 9.39312 13.4563 9.65942C11.9423 9.65942 10.4283 9.65942 8.86839 9.65942C8.86839 8.14542 8.86839 6.63142 8.86839 5.07153Z" fill="#14827A"/>
</svg>
