<svg width="26" height="26" viewBox="0 0 26 26" fill="none" xmlns="http://www.w3.org/2000/svg">
<g clip-path="url(#clip0_3114_43412)">
<path d="M0 2.6C0 1.17 1.17 0 2.6 0H23.4C24.0896 0 24.7509 0.273928 25.2385 0.761522C25.7261 1.24912 26 1.91044 26 2.6V5.2H0V2.6ZM1.3 6.5H24.7V23.4C24.7 24.0896 24.4261 24.7509 23.9385 25.2385C23.4509 25.7261 22.7896 26 22.1 26H3.9C3.21044 26 2.54912 25.7261 2.06152 25.2385C1.57393 24.7509 1.3 24.0896 1.3 23.4V6.5ZM9.1 9.1V11.7H16.9V9.1H9.1Z" fill="white"/>
</g>
<defs>
<clipPath id="clip0_3114_43412">
<rect width="26" height="26" fill="white"/>
</clipPath>
</defs>
</svg>
