<svg width="26" height="26" viewBox="0 0 26 26" fill="none" xmlns="http://www.w3.org/2000/svg">
<path d="M24.5185 8.1953L15.5108 0.856133C14.12 -0.28316 11.8714 -0.28316 10.4936 0.842885L1.48593 8.1953C0.472082 9.01665 -0.17782 10.752 0.0431466 12.0503L1.77188 22.5954C2.08384 24.4765 3.85157 26 5.72329 26H20.2811C22.1398 26 23.9205 24.4633 24.2325 22.5954L25.9612 12.0503C26.1692 10.752 25.5193 9.01665 24.5185 8.1953ZM13.0022 17.6408C11.2085 17.6408 9.75268 16.157 9.75268 14.3289C9.75268 12.5007 11.2085 11.017 13.0022 11.017C14.7959 11.017 16.2517 12.5007 16.2517 14.3289C16.2517 16.157 14.7959 17.6408 13.0022 17.6408Z" fill="url(#paint0_linear_248_28151)"/>
<defs>
<linearGradient id="paint0_linear_248_28151" x1="10.4464" y1="1.63396e-07" x2="23.8234" y2="23.7088" gradientUnits="userSpaceOnUse">
<stop stop-color="#613843"/>
<stop offset="1" stop-color="#0E3434"/>
</linearGradient>
</defs>
</svg>
