<svg width="15" height="15" viewBox="0 0 15 15" fill="none" xmlns="http://www.w3.org/2000/svg">
<path d="M10.7498 6.19992H12.0498C13.3498 6.19992 13.9998 5.54993 13.9998 4.24995V2.94997C13.9998 1.64999 13.3498 1 12.0498 1H10.7498C9.44986 1 8.79987 1.64999 8.79987 2.94997V4.24995C8.79987 5.54993 9.44986 6.19992 10.7498 6.19992Z" stroke="url(#paint0_linear_991_9635)" stroke-width="1.5" stroke-miterlimit="10" stroke-linecap="round" stroke-linejoin="round"/>
<path d="M2.94997 13.9999H4.24995C5.54993 13.9999 6.19992 13.3499 6.19992 12.05V10.75C6.19992 9.45001 5.54993 8.80002 4.24995 8.80002H2.94997C1.64999 8.80002 1 9.45001 1 10.75V12.05C1 13.3499 1.64999 13.9999 2.94997 13.9999Z" stroke="url(#paint1_linear_991_9635)" stroke-width="1.5" stroke-miterlimit="10" stroke-linecap="round" stroke-linejoin="round"/>
<path d="M3.59996 6.19992C5.03588 6.19992 6.19992 5.03588 6.19992 3.59996C6.19992 2.16404 5.03588 1 3.59996 1C2.16404 1 1 2.16404 1 3.59996C1 5.03588 2.16404 6.19992 3.59996 6.19992Z" stroke="url(#paint2_linear_991_9635)" stroke-width="1.5" stroke-miterlimit="10" stroke-linecap="round" stroke-linejoin="round"/>
<path d="M11.3998 13.9999C12.8357 13.9999 13.9998 12.8359 13.9998 11.4C13.9998 9.96408 12.8357 8.80002 11.3998 8.80002C9.96393 8.80002 8.79987 9.96408 8.79987 11.4C8.79987 12.8359 9.96393 13.9999 11.3998 13.9999Z" stroke="url(#paint3_linear_991_9635)" stroke-width="1.5" stroke-miterlimit="10" stroke-linecap="round" stroke-linejoin="round"/>
<defs>
<linearGradient id="paint0_linear_991_9635" x1="11.3998" y1="1" x2="11.3998" y2="6.19992" gradientUnits="userSpaceOnUse">
<stop stop-color="#3C7998"/>
<stop offset="1" stop-color="#34678D" stop-opacity="0.92"/>
</linearGradient>
<linearGradient id="paint1_linear_991_9635" x1="3.59996" y1="8.80002" x2="3.59996" y2="13.9999" gradientUnits="userSpaceOnUse">
<stop stop-color="#3C7998"/>
<stop offset="1" stop-color="#34678D" stop-opacity="0.92"/>
</linearGradient>
<linearGradient id="paint2_linear_991_9635" x1="3.59996" y1="1" x2="3.59996" y2="6.19992" gradientUnits="userSpaceOnUse">
<stop stop-color="#3C7998"/>
<stop offset="1" stop-color="#34678D" stop-opacity="0.92"/>
</linearGradient>
<linearGradient id="paint3_linear_991_9635" x1="11.3998" y1="8.80002" x2="11.3998" y2="13.9999" gradientUnits="userSpaceOnUse">
<stop stop-color="#3C7998"/>
<stop offset="1" stop-color="#34678D" stop-opacity="0.92"/>
</linearGradient>
</defs>
</svg>
