<svg width="26" height="26" viewBox="0 0 26 26" fill="none" xmlns="http://www.w3.org/2000/svg">
<path d="M9.57961 10.9482C12.6029 10.9482 15.0537 8.49733 15.0537 5.47408C15.0537 2.45083 12.6029 0 9.57961 0C6.55636 0 4.10553 2.45083 4.10553 5.47408C4.10553 8.49733 6.55636 10.9482 9.57961 10.9482Z" fill="url(#paint0_linear_564_469)"/>
<path d="M9.57965 26.0032C14.8703 26.0032 19.1593 23.5524 19.1593 20.5291C19.1593 17.5059 14.8703 15.0551 9.57965 15.0551C4.28895 15.0551 0 17.5059 0 20.5291C0 23.5524 4.28895 26.0032 9.57965 26.0032Z" fill="url(#paint1_linear_564_469)"/>
<path d="M26 20.5285C26 22.7959 23.2144 24.634 19.8132 24.634C20.8152 23.5387 21.5043 22.1639 21.5043 20.5303C21.5043 18.8949 20.8136 17.5189 19.8096 16.423C23.2108 16.423 26 18.261 26 20.5285Z" fill="url(#paint2_linear_564_469)"/>
<path d="M21.8945 5.47519C21.8945 7.74264 20.0564 9.58075 17.7889 9.58075C17.2945 9.58075 16.8206 9.49336 16.3815 9.33316C17.029 8.19443 17.3988 6.87723 17.3988 5.47367C17.3988 4.07114 17.0295 2.75486 16.3829 1.6167C16.8215 1.45684 17.295 1.36963 17.7889 1.36963C20.0564 1.36963 21.8945 3.20776 21.8945 5.47519Z" fill="url(#paint3_linear_564_469)"/>
<defs>
<linearGradient id="paint0_linear_564_469" x1="8.50435" y1="6.88035e-08" x2="14.1372" y2="9.98337" gradientUnits="userSpaceOnUse">
<stop stop-color="#613843"/>
<stop offset="1" stop-color="#0E3434"/>
</linearGradient>
<linearGradient id="paint1_linear_564_469" x1="7.69793" y1="15.0551" x2="11.5418" y2="26.9773" gradientUnits="userSpaceOnUse">
<stop stop-color="#613843"/>
<stop offset="1" stop-color="#0E3434"/>
</linearGradient>
<linearGradient id="paint2_linear_564_469" x1="22.2968" y1="16.423" x2="27.032" y2="22.7502" gradientUnits="userSpaceOnUse">
<stop stop-color="#613843"/>
<stop offset="1" stop-color="#0E3434"/>
</linearGradient>
<linearGradient id="paint3_linear_564_469" x1="18.5966" y1="1.36963" x2="23.4584" y2="7.15504" gradientUnits="userSpaceOnUse">
<stop stop-color="#613843"/>
<stop offset="1" stop-color="#0E3434"/>
</linearGradient>
</defs>
</svg>
