<svg width="15" height="20" viewBox="0 0 15 20" fill="none" xmlns="http://www.w3.org/2000/svg">
<path d="M7.49993 8.42857C9.55127 8.42857 11.2142 6.76563 11.2142 4.71429C11.2142 2.66294 9.55127 1 7.49993 1C5.44859 1 3.78564 2.66294 3.78564 4.71429C3.78564 6.76563 5.44859 8.42857 7.49993 8.42857Z" stroke="url(#paint0_linear_3806_11831)" stroke-width="1.5"/>
<path d="M7.5 18.6434C11.0899 18.6434 14 16.9805 14 14.9291C14 12.8778 11.0899 11.2148 7.5 11.2148C3.91015 11.2148 1 12.8778 1 14.9291C1 16.9805 3.91015 18.6434 7.5 18.6434Z" stroke="url(#paint1_linear_3806_11831)" stroke-width="1.5"/>
<defs>
<linearGradient id="paint0_linear_3806_11831" x1="6.77034" y1="1" x2="10.5923" y2="7.77393" gradientUnits="userSpaceOnUse">
<stop stop-color="#613843"/>
<stop offset="0.96875" stop-color="#0F3A39"/>
</linearGradient>
<linearGradient id="paint1_linear_3806_11831" x1="6.22321" y1="11.2148" x2="8.83136" y2="19.3043" gradientUnits="userSpaceOnUse">
<stop stop-color="#613843"/>
<stop offset="0.96875" stop-color="#0F3A39"/>
</linearGradient>
</defs>
</svg>
