<svg width="189" height="44" viewBox="0 0 189 44" fill="none" xmlns="http://www.w3.org/2000/svg">
<path d="M161.397 14.7828L166.356 6.50699C166.361 6.49687 166.37 6.48844 166.38 6.48258C166.391 6.47672 166.403 6.47363 166.415 6.47363C166.427 6.47363 166.438 6.47672 166.449 6.48258C166.459 6.48844 166.468 6.49687 166.474 6.50699L171.432 14.7828C171.438 14.7928 171.441 14.8042 171.442 14.8159C171.442 14.8276 171.439 14.8391 171.432 14.8493C171.426 14.8594 171.418 14.8678 171.407 14.8736C171.397 14.8794 171.385 14.8824 171.373 14.8822H161.456C161.444 14.8824 161.432 14.8794 161.422 14.8736C161.411 14.8678 161.403 14.8594 161.397 14.8493C161.391 14.8391 161.388 14.8276 161.388 14.8159C161.388 14.8042 161.391 14.7928 161.397 14.7828Z" fill="#105655"/>
<path d="M116.459 13.3573C116.423 13.3795 116.396 13.412 116.381 13.4501C116.366 13.4882 116.363 13.53 116.374 13.5696C116.384 13.6092 116.408 13.6445 116.44 13.6706C116.473 13.6966 116.513 13.7121 116.555 13.7148L117.288 13.755C117.351 13.7585 117.41 13.7842 117.455 13.8272C117.499 13.8701 117.525 13.9273 117.528 13.9877L117.533 14.0829C117.542 14.2634 117.453 14.3537 117.266 14.3537L115.672 14.3621C115.396 14.3635 115.303 14.238 115.394 13.9856L115.72 13.0822C115.762 12.9641 115.841 12.8613 115.945 12.7876C116.049 12.7139 116.174 12.6728 116.304 12.6697L116.962 12.6549C117.17 12.6507 117.3 12.7459 117.349 12.9405C117.374 13.0435 117.34 13.1373 117.246 13.2219C117.216 13.2496 117.179 13.2694 117.139 13.2794C117.099 13.2894 117.057 13.2893 117.017 13.279C116.811 13.2282 116.625 13.2543 116.459 13.3573Z" fill="#0F3331"/>
<path d="M13.6903 15.5679C13.6861 15.5844 13.6857 15.6016 13.6891 15.6183C13.6926 15.635 13.6998 15.6508 13.7102 15.6645C13.7206 15.6782 13.734 15.6896 13.7495 15.6977C13.765 15.7059 13.7821 15.7107 13.7996 15.7117L14.8844 15.7709C14.9304 15.7735 14.9753 15.7855 15.0161 15.8061C15.057 15.8267 15.0928 15.8555 15.1214 15.8904C15.1499 15.9254 15.1704 15.9659 15.1816 16.0091C15.1928 16.0523 15.1944 16.0973 15.1863 16.1412C15.1527 16.316 15.0426 16.4133 14.856 16.4331C14.1766 16.5064 13.5467 16.5304 12.9664 16.505C12.9296 16.5033 12.8937 16.494 12.8611 16.4775C12.8284 16.4611 12.7999 16.438 12.7774 16.4098C12.755 16.3816 12.7391 16.349 12.7309 16.3144C12.7228 16.2797 12.7225 16.2437 12.7302 16.2089C12.9357 15.2992 12.9073 14.4382 14.084 14.2563C14.3785 14.2097 14.6373 14.2478 14.8604 14.3705C14.8995 14.392 14.9312 14.4241 14.9518 14.4628C14.9724 14.5015 14.9808 14.5452 14.9762 14.5884C14.9716 14.6317 14.954 14.6728 14.9257 14.7066C14.8973 14.7404 14.8595 14.7655 14.8166 14.7788C14.3552 14.9205 13.8281 15.0475 13.6903 15.5679Z" fill="#0F3331"/>
<path d="M33.7838 15.2335L32.7603 15.2249C32.6769 15.2242 32.6088 15.289 32.6081 15.3696L32.5993 16.3385C32.5986 16.4191 32.6656 16.485 32.7489 16.4857L33.7724 16.4943C33.8558 16.495 33.9239 16.4303 33.9246 16.3496L33.9334 15.3808C33.9341 15.3002 33.8671 15.2342 33.7838 15.2335Z" fill="#0F3331"/>
<path d="M35.7873 15.2301L34.7332 15.2158C34.6535 15.2147 34.588 15.2764 34.5869 15.3535L34.5726 16.3434C34.5714 16.4205 34.6352 16.4839 34.7149 16.485L35.769 16.4992C35.8487 16.5003 35.9142 16.4387 35.9153 16.3616L35.9296 15.3716C35.9307 15.2945 35.867 15.2311 35.7873 15.2301Z" fill="#103634"/>
<path d="M45.6063 15.2262L44.5959 15.2364C44.509 15.2373 44.4392 15.3062 44.4401 15.3903L44.4505 16.3465C44.4514 16.4306 44.5226 16.4981 44.6096 16.4972L45.62 16.487C45.7069 16.4861 45.7767 16.4172 45.7758 16.3331L45.7654 15.3769C45.7645 15.2928 45.6933 15.2253 45.6063 15.2262Z" fill="#103735"/>
<path d="M47.656 15.2205L46.5013 15.2302C46.4542 15.2306 46.4163 15.2679 46.4168 15.3135L46.4268 16.4219C46.4272 16.4675 46.4657 16.5041 46.5128 16.5037L47.6675 16.494C47.7146 16.4936 47.7525 16.4563 47.7521 16.4107L47.7421 15.3023C47.7417 15.2567 47.7032 15.2201 47.656 15.2205Z" fill="#103634"/>
<path d="M87.3274 15.2285L86.2733 15.2214C86.1984 15.2209 86.1373 15.2792 86.1367 15.3516L86.1295 16.3586C86.129 16.431 86.1892 16.4901 86.2641 16.4906L87.3183 16.4978C87.3932 16.4983 87.4543 16.4399 87.4548 16.3675L87.4621 15.3606C87.4626 15.2881 87.4023 15.229 87.3274 15.2285Z" fill="#0F3331"/>
<path d="M89.3495 15.2201L88.2078 15.222C88.1583 15.2221 88.1182 15.261 88.1183 15.3089L88.1203 16.409C88.1204 16.4569 88.1606 16.4956 88.2101 16.4955L89.3518 16.4936C89.4013 16.4935 89.4414 16.4546 89.4413 16.4067L89.4393 15.3067C89.4392 15.2588 89.399 15.22 89.3495 15.2201Z" fill="#103634"/>
<path d="M98.5663 16.5095L97.4705 16.4756C97.438 16.4745 97.4072 16.4614 97.3844 16.439C97.3616 16.4165 97.3486 16.3865 97.3481 16.355L97.3262 15.3565C97.3259 15.3404 97.3289 15.3244 97.335 15.3094C97.3411 15.2944 97.3502 15.2807 97.3618 15.2691C97.3734 15.2575 97.3872 15.2483 97.4025 15.2418C97.4178 15.2354 97.4342 15.232 97.4509 15.2317L98.5663 15.219C98.5831 15.2187 98.5998 15.2217 98.6155 15.2277C98.6311 15.2338 98.6454 15.2428 98.6574 15.2542C98.6694 15.2656 98.6789 15.2792 98.6854 15.2943C98.692 15.3093 98.6953 15.3254 98.6953 15.3417L98.6975 16.3868C98.6975 16.4032 98.6941 16.4195 98.6874 16.4347C98.6808 16.4499 98.6711 16.4636 98.6588 16.4751C98.6466 16.4865 98.6321 16.4955 98.6162 16.5014C98.6003 16.5073 98.5833 16.51 98.5663 16.5095Z" fill="#103634"/>
<path d="M5.9548 20.7022C5.9548 20.8305 6.02114 20.8954 6.15382 20.8968L13.4302 20.9455C13.4944 20.9455 13.5228 20.9144 13.5155 20.8524C13.3799 19.6762 13.3202 18.5486 13.3362 17.4697C13.3377 17.3104 13.4208 17.2293 13.5855 17.2264L14.4669 17.2116C14.5107 17.2109 14.5541 17.219 14.5944 17.2355C14.6347 17.252 14.6709 17.2765 14.7008 17.3074C14.7307 17.3383 14.7535 17.375 14.7679 17.4149C14.7822 17.4549 14.7877 17.4974 14.7841 17.5395C14.6455 19.1868 14.5974 20.6028 14.6397 21.7874C14.6417 21.8299 14.6272 21.8715 14.5989 21.9044C14.5706 21.9372 14.5306 21.9589 14.4866 21.9651C14.3131 21.9905 14.1396 22.0039 13.9661 22.0053C11.3328 22.0265 8.69521 22.0455 6.05322 22.0624C5.98323 22.0624 5.94896 22.0963 5.95042 22.164C5.96355 23.2958 4.96405 24.1547 3.8552 24.3514C1.98305 24.6856 -0.184348 23.8162 0.0124899 21.7007C0.0883088 20.8841 0.192559 20.0986 0.325243 19.344C0.339823 19.2622 0.389397 19.2277 0.473964 19.2404L1.51939 19.3842C1.61125 19.3969 1.65062 19.4484 1.63749 19.5387C1.53397 20.186 1.43409 20.9046 1.33786 21.6944C1.14103 23.3021 3.09847 23.5983 4.14608 23.0186C4.48872 22.8283 4.65713 22.4982 4.6513 22.0286C4.62213 19.7241 4.63161 17.505 4.67973 15.3712C4.6803 15.3525 4.68815 15.3347 4.70162 15.3217C4.7151 15.3087 4.73313 15.3014 4.7519 15.3014L5.87169 15.2971C5.92418 15.2971 5.95042 15.3225 5.95042 15.3733L5.9548 20.7022Z" fill="#103634"/>
<path d="M17.6674 20.9665C19.3121 20.9814 20.9459 20.8756 22.6124 20.8925C24.3052 20.9108 26.0228 20.9172 27.7652 20.9115C27.7888 20.911 27.8113 20.9017 27.828 20.8855C27.8447 20.8694 27.8543 20.8476 27.8549 20.8248C27.8636 20.2706 27.8592 19.7565 27.8417 19.2826C27.7958 18.0218 25.869 18.3983 25.1013 18.4893C25.0824 18.4917 25.0631 18.4904 25.0446 18.4855C25.0262 18.4805 25.0089 18.4721 24.9939 18.4607C24.9788 18.4493 24.9662 18.4351 24.9569 18.4189C24.9476 18.4028 24.9417 18.385 24.9395 18.3666L24.852 17.6325C24.8389 17.5211 24.8885 17.4513 25.0007 17.4231C26.8576 16.9365 29.1496 17.2031 29.2087 19.5449C29.2305 20.3545 29.2378 21.1421 29.2305 21.9079C29.2291 21.994 29.1846 22.037 29.0971 22.037C25.6532 22.0694 22.2691 22.061 18.9447 22.0116C18.1158 22.001 17.2694 22.0814 16.4514 21.9629C16.4076 21.9564 16.3676 21.9349 16.3387 21.9023C16.3098 21.8697 16.2939 21.8282 16.2939 21.7852L16.3246 15.5192C16.3246 15.3429 16.4157 15.259 16.5979 15.2674L17.2431 15.297C17.4283 15.3055 17.526 15.4 17.5362 15.5805C17.5522 15.8851 17.5544 16.187 17.5428 16.4859C17.4859 17.9795 17.4808 19.4286 17.5275 20.8333C17.5304 20.9207 17.577 20.9651 17.6674 20.9665Z" fill="#103634"/>
<path d="M57.0074 18.5191C57.8625 17.6898 58.6958 17.1334 59.9031 17.2308C60.5038 17.2787 60.9718 17.4684 61.3072 17.7998C62.1208 18.6037 62.018 19.7334 61.959 20.7678C61.9581 20.7867 61.9611 20.8055 61.968 20.8232C61.9749 20.8409 61.9853 20.8571 61.9988 20.8707C62.0123 20.8843 62.0285 20.8952 62.0465 20.9026C62.0645 20.91 62.0838 20.9138 62.1033 20.9138L69.3491 20.9202C69.3625 20.9202 69.3752 20.915 69.3847 20.9059C69.3941 20.8968 69.3994 20.8844 69.3994 20.8715L69.4169 17.3175C69.4184 17.2498 69.4541 17.2159 69.5241 17.2159L70.6439 17.2138C70.6964 17.2138 70.7226 17.2392 70.7226 17.29L70.6657 20.8228C70.6654 20.8344 70.6675 20.8459 70.6719 20.8567C70.6763 20.8675 70.6829 20.8773 70.6912 20.8856C70.6996 20.8938 70.7096 20.9004 70.7206 20.9049C70.7316 20.9094 70.7434 20.9117 70.7554 20.9117L78.0471 20.9138C78.0618 20.9137 78.0762 20.9105 78.0895 20.9046C78.1027 20.8986 78.1144 20.89 78.1238 20.8793C78.1332 20.8686 78.14 20.8561 78.1437 20.8427C78.1475 20.8293 78.1481 20.8153 78.1456 20.8017C78.0012 19.9499 78.0282 19.0621 78.2265 18.1383C78.2527 18.0156 78.268 17.8901 78.2724 17.7617C78.2812 17.5431 78.4022 17.4162 78.6355 17.381C80.3808 17.1144 82.7691 16.9367 82.8937 19.1664C82.936 19.9068 82.9448 20.8299 82.92 21.9356C82.917 22.016 82.8748 22.0562 82.7931 22.0562C66.1479 22.0449 49.9898 22.0449 34.3186 22.0562C33.8943 22.0562 33.4868 22.0125 33.096 21.925C31.7378 21.6204 31.7466 20.0528 31.845 18.9633C31.9471 17.8379 32.5784 17.2604 33.739 17.2308C34.5963 17.2082 35.4449 17.1934 36.2848 17.1863C36.3219 17.1863 36.3575 17.2006 36.3837 17.226C36.41 17.2514 36.4247 17.2858 36.4247 17.3217L36.4444 20.808C36.445 20.8357 36.4568 20.8621 36.4772 20.8815C36.4977 20.9009 36.5252 20.9117 36.5538 20.9117L43.5546 20.9138C43.6465 20.9138 43.6837 20.8701 43.6662 20.7827C43.4518 19.6932 43.3162 17.4592 44.9872 17.2942C45.8547 17.2082 46.8848 17.1765 48.0775 17.199C48.1592 17.2004 48.2 17.2413 48.2 17.3217L48.2131 20.7636C48.2131 20.8057 48.2304 20.846 48.2612 20.8758C48.2919 20.9056 48.3337 20.9223 48.3772 20.9223H55.4108C55.5216 20.9223 55.577 20.8687 55.577 20.7615L55.5727 15.4072C55.5727 15.3268 55.6142 15.2866 55.6973 15.2866L56.7778 15.2909C56.8565 15.2909 56.8959 15.3296 56.8959 15.4072L56.8871 18.4704C56.8871 18.5804 56.9272 18.5967 57.0074 18.5191ZM35.1278 20.7805L35.1322 18.4704C35.1322 18.4334 35.117 18.3979 35.0899 18.3717C35.0628 18.3455 35.0261 18.3308 34.9878 18.3308L33.868 18.3287C33.6708 18.3281 33.4815 18.4072 33.3416 18.5484C33.2017 18.6896 33.1228 18.8815 33.1222 19.0818V20.1607C33.122 20.2599 33.1409 20.3581 33.178 20.4499C33.2151 20.5416 33.2696 20.625 33.3385 20.6954C33.4073 20.7657 33.4892 20.8215 33.5793 20.8598C33.6694 20.898 33.766 20.9178 33.8637 20.918L34.9835 20.9202C35.0217 20.9202 35.0585 20.9055 35.0855 20.8793C35.1126 20.8531 35.1278 20.8176 35.1278 20.7805ZM46.8637 20.7234L46.8681 18.5233C46.8681 18.4728 46.8473 18.4244 46.8104 18.3887C46.7735 18.353 46.7234 18.3329 46.6712 18.3329L45.5886 18.3308C45.404 18.3307 45.2268 18.3861 45.0961 18.4848C44.9653 18.5835 44.8915 18.7176 44.8909 18.8576L44.8866 20.3807C44.8863 20.4503 44.9041 20.5193 44.9391 20.5836C44.974 20.648 45.0253 20.7066 45.0901 20.7559C45.155 20.8052 45.232 20.8444 45.3168 20.8711C45.4015 20.8978 45.4924 20.9116 45.5843 20.9117L46.6669 20.9138C46.6927 20.9138 46.7183 20.9089 46.7422 20.8993C46.7661 20.8898 46.7878 20.8757 46.806 20.858C46.8243 20.8404 46.8388 20.8194 46.8487 20.7963C46.8586 20.7732 46.8637 20.7484 46.8637 20.7234ZM57.0577 20.9075L60.5439 20.9159C60.5776 20.9159 60.6098 20.903 60.6336 20.88C60.6574 20.857 60.6708 20.8258 60.6708 20.7932C60.6708 20.0867 60.9113 18.5762 59.9425 18.3985C58.8511 18.1996 57.6876 19.2447 57.0643 20.038C56.8937 20.2566 56.8361 20.502 56.8915 20.7742C56.8991 20.8118 56.9199 20.8457 56.9502 20.8701C56.9805 20.8944 57.0185 20.9076 57.0577 20.9075ZM79.4578 18.8004C79.3893 19.5465 79.3834 20.2023 79.4403 20.7678C79.4491 20.8609 79.5016 20.9082 79.5978 20.9096L81.4502 20.918C81.5494 20.918 81.6012 20.8701 81.6055 20.7742C81.6347 20.2072 81.6238 19.6459 81.5727 19.0903C81.5348 18.6714 81.2986 18.4436 80.8641 18.407L80.0308 18.335C79.6809 18.3054 79.4899 18.4606 79.4578 18.8004Z" fill="#103634"/>
<path d="M70.5444 15.2686L69.6435 15.2504C69.5529 15.2486 69.478 15.3181 69.4761 15.4057L69.4563 16.3194C69.4544 16.407 69.5263 16.4795 69.6168 16.4813L70.5177 16.4996C70.6083 16.5014 70.6832 16.4319 70.6851 16.3443L70.7049 15.4306C70.7068 15.343 70.6349 15.2705 70.5444 15.2686Z" fill="#103634"/>
<path d="M109.318 20.753C109.251 19.7545 109.299 18.7659 109.463 17.7871C109.496 17.5826 109.617 17.4543 109.826 17.4021C111.293 17.0361 113.942 16.9621 114.075 19.0289C114.134 19.9315 114.169 20.8983 114.182 21.9292C114.183 21.9453 114.18 21.9612 114.174 21.976C114.167 21.9909 114.158 22.0045 114.147 22.0159C114.135 22.0273 114.121 22.0364 114.106 22.0426C114.091 22.0488 114.074 22.0519 114.058 22.0519L100.544 22.0562C100.513 22.0562 100.483 22.0503 100.454 22.0389C100.426 22.0276 100.4 22.0109 100.378 21.9899C100.357 21.9689 100.339 21.9439 100.328 21.9164C100.316 21.889 100.31 21.8595 100.31 21.8298L100.308 15.367C100.308 15.3406 100.318 15.3153 100.338 15.2967C100.357 15.2781 100.383 15.2676 100.41 15.2676L101.526 15.2845C101.587 15.2859 101.618 15.3162 101.618 15.3755L101.622 20.7044C101.622 20.8454 101.695 20.9159 101.841 20.9159L109.167 20.9096C109.275 20.9096 109.326 20.8574 109.318 20.753ZM110.779 20.8313C111.411 20.9455 112.053 20.9702 112.706 20.9053C112.791 20.8969 112.833 20.8518 112.833 20.77C112.833 20.3031 112.825 19.8222 112.809 19.3272C112.776 18.2885 111.608 18.2166 110.836 18.4323C110.76 18.4535 110.716 18.5015 110.703 18.5762C110.58 19.28 110.573 19.9985 110.681 20.7319C110.69 20.7883 110.723 20.8214 110.779 20.8313Z" fill="#103634"/>
<path d="M115.894 21.9441L115.729 15.3861C115.729 15.3685 115.737 15.3516 115.749 15.3389C115.762 15.3263 115.779 15.3189 115.797 15.3184L117.081 15.3057C117.09 15.3057 117.1 15.3075 117.108 15.311C117.117 15.3145 117.125 15.3197 117.131 15.3262C117.138 15.3327 117.143 15.3405 117.146 15.3489C117.15 15.3574 117.151 15.3664 117.151 15.3755L117.013 21.9673C117.013 21.9762 117.011 21.985 117.007 21.9931C117.003 22.0012 116.998 22.0085 116.991 22.0146C116.985 22.0207 116.977 22.0254 116.968 22.0286C116.959 22.0317 116.95 22.0332 116.941 22.0329L115.961 22.0096C115.944 22.0091 115.927 22.002 115.914 21.9898C115.901 21.9777 115.894 21.9613 115.894 21.9441Z" fill="#103634"/>
<path d="M90.1334 20.907L97.2414 20.9302C97.2594 20.9302 97.2766 20.9233 97.2894 20.911C97.3021 20.8987 97.3092 20.882 97.3092 20.8647L97.3267 17.3318C97.3267 17.2528 97.3675 17.214 97.4492 17.2154L98.5515 17.2239C98.6463 17.2253 98.6936 17.2719 98.6936 17.3635L98.6958 21.8716C98.6958 21.9915 98.6339 22.0514 98.5099 22.0514C94.6344 22.0458 91.0053 22.0465 87.6226 22.0536C87.261 22.0536 86.8834 21.9979 86.4897 21.8864C85.1534 21.5056 85.23 19.5277 85.4618 18.5144C85.6564 17.6512 86.3082 17.2704 87.1612 17.2366C88.0549 17.2028 88.9473 17.1894 89.8381 17.1964C89.8741 17.1964 89.9086 17.21 89.934 17.2342C89.9595 17.2584 89.9737 17.2912 89.9737 17.3254L89.9716 20.7483C89.9716 20.7904 89.9886 20.8307 90.019 20.8605C90.0493 20.8902 90.0905 20.907 90.1334 20.907ZM88.6637 20.7208L88.6593 18.5249C88.6593 18.4722 88.6376 18.4216 88.5991 18.3843C88.5605 18.347 88.5082 18.3261 88.4537 18.3261L87.358 18.3282C87.2646 18.3285 87.1723 18.3483 87.0861 18.3866C87 18.4249 86.9218 18.481 86.856 18.5515C86.7902 18.622 86.7381 18.7057 86.7026 18.7977C86.6672 18.8896 86.6491 18.9882 86.6494 19.0876V20.1665C86.65 20.3674 86.7254 20.5598 86.8591 20.7014C86.9928 20.8431 87.1739 20.9223 87.3624 20.9218L88.4581 20.9197C88.5126 20.9197 88.5649 20.8987 88.6035 20.8614C88.642 20.8241 88.6637 20.7735 88.6637 20.7208Z" fill="#103634"/>
<path d="M141.032 29.6147L145.979 21.3558C145.985 21.3448 145.994 21.3356 146.005 21.3291C146.016 21.3227 146.029 21.3193 146.042 21.3193C146.055 21.3193 146.068 21.3227 146.079 21.3291C146.09 21.3356 146.099 21.3448 146.106 21.3558L151.053 29.6147C151.059 29.6253 151.062 29.6373 151.062 29.6495C151.062 29.6617 151.058 29.6736 151.052 29.6841C151.045 29.6946 151.036 29.7032 151.025 29.7093C151.014 29.7153 151.002 29.7184 150.989 29.7183H141.095C141.082 29.7184 141.07 29.7153 141.059 29.7093C141.048 29.7032 141.039 29.6946 141.033 29.6841C141.026 29.6736 141.023 29.6617 141.022 29.6495C141.022 29.6373 141.025 29.6253 141.032 29.6147Z" fill="#105655"/>
<path d="M42.3522 31.013C42.653 31.013 42.8968 30.7771 42.8968 30.4862C42.8968 30.1953 42.653 29.9595 42.3522 29.9595C42.0514 29.9595 41.8076 30.1953 41.8076 30.4862C41.8076 30.7771 42.0514 31.013 42.3522 31.013Z" fill="#0F3331"/>
<path d="M82.9381 31.0113C83.2389 31.0113 83.4827 30.7754 83.4827 30.4845C83.4827 30.1936 83.2389 29.9578 82.9381 29.9578C82.6374 29.9578 82.3936 30.1936 82.3936 30.4845C82.3936 30.7754 82.6374 31.0113 82.9381 31.0113Z" fill="#103735"/>
<path d="M91.8039 30.9893C92.0974 30.9893 92.3354 30.7592 92.3354 30.4752C92.3354 30.1913 92.0974 29.9612 91.8039 29.9612C91.5104 29.9612 91.2725 30.1913 91.2725 30.4752C91.2725 30.7592 91.5104 30.9893 91.8039 30.9893Z" fill="#0F3331"/>
<path d="M14.8666 30.4719C14.859 30.7358 15.0506 30.9551 15.2945 30.9617C15.5384 30.9683 15.7422 30.7597 15.7499 30.4957C15.7575 30.2318 15.566 30.0125 15.3221 30.0059C15.0782 29.9993 14.8743 30.2079 14.8666 30.4719Z" fill="#0F3331"/>
<path d="M17.634 30.0904L17.4416 30.0908C17.3449 30.0909 17.2667 30.1668 17.2669 30.2603L17.279 36.9875C17.2792 37.081 17.3577 37.1566 17.4543 37.1565L17.6468 37.1562C17.7434 37.156 17.8216 37.0801 17.8214 36.9866L17.8093 30.2594C17.8091 30.1659 17.7307 30.0903 17.634 30.0904Z" fill="#103735"/>
<path d="M109.813 30.531C109.84 30.7797 110.048 30.9624 110.277 30.939C110.507 30.9157 110.671 30.6952 110.644 30.4466C110.617 30.1979 110.409 30.0152 110.179 30.0386C109.95 30.0619 109.786 30.2824 109.813 30.531Z" fill="#0F3331"/>
<path d="M108.306 30.3026C108.171 31.2609 108.359 32.1917 108.35 33.1585C108.34 34.4475 108.339 35.726 108.348 36.9938C108.348 37.1335 108.276 37.2033 108.133 37.2033H107.948C107.811 37.2033 107.743 37.137 107.744 37.0044L107.799 30.3258C107.799 30.2699 107.823 30.2164 107.864 30.1768C107.905 30.1373 107.961 30.1148 108.02 30.1143H108.133C108.266 30.1129 108.324 30.1756 108.306 30.3026Z" fill="#103735"/>
<path d="M113.47 32.7202L113.439 37.0443C113.439 37.0659 113.434 37.0874 113.426 37.1073C113.417 37.1272 113.404 37.1452 113.388 37.1603C113.372 37.1755 113.353 37.1874 113.332 37.1954C113.311 37.2035 113.289 37.2075 113.267 37.2072L113.05 37.2051C112.907 37.2022 112.836 37.1317 112.836 36.9935L112.825 32.6927C112.825 32.6152 112.785 32.5764 112.704 32.5764L112.243 32.5743C112.09 32.5728 111.999 32.4995 111.97 32.3542L111.957 32.2908C111.95 32.2615 111.956 32.2309 111.972 32.2051C111.988 32.1793 112.014 32.1601 112.044 32.1512C112.277 32.0863 112.508 32.063 112.735 32.0813C112.831 32.0898 112.879 32.0468 112.879 31.9523L112.877 30.2176C112.877 30.2019 112.881 30.1863 112.887 30.1718C112.893 30.1573 112.902 30.1441 112.914 30.1331C112.926 30.1221 112.939 30.1134 112.954 30.1075C112.97 30.1017 112.986 30.0989 113.002 30.0991C113.104 30.0991 113.201 30.1175 113.293 30.1541C113.36 30.1823 113.395 30.2317 113.398 30.3022L113.437 31.8698C113.44 31.9728 113.495 32.0278 113.601 32.0348L114.434 32.0856C114.507 32.0898 114.545 32.1272 114.546 32.1977L114.555 32.3987C114.559 32.5157 114.501 32.5764 114.38 32.5806L113.582 32.6102C113.507 32.613 113.47 32.6497 113.47 32.7202Z" fill="#103735"/>
<path d="M1.84135 33.9576L1.7473 37.0779C1.74655 37.0974 1.74115 37.1165 1.73153 37.1337C1.7219 37.1509 1.7083 37.1657 1.69179 37.1769C1.67528 37.1882 1.65631 37.1956 1.63634 37.1986C1.61638 37.2016 1.59598 37.2001 1.57671 37.1942L1.24865 37.0885C1.22285 37.0801 1.20037 37.0643 1.18431 37.0431C1.16824 37.0218 1.15939 36.9963 1.15898 36.97L1.11523 30.3781C1.11521 30.3609 1.11881 30.3439 1.12581 30.3281C1.13281 30.3122 1.14307 30.2979 1.15596 30.2861C1.16885 30.2742 1.1841 30.265 1.20079 30.259C1.21747 30.253 1.23524 30.2504 1.25302 30.2512L1.70356 30.2681C1.73684 30.2698 1.76824 30.2835 1.79139 30.3067C1.81454 30.3299 1.82771 30.3607 1.82822 30.393L1.83916 32.9971C1.83916 33.0308 1.85298 33.0631 1.87759 33.0869C1.9022 33.1107 1.93558 33.124 1.97038 33.124L5.36693 33.1367C5.40173 33.1367 5.43511 33.1234 5.45972 33.0996C5.48433 33.0758 5.49815 33.0435 5.49815 33.0098V30.376C5.49815 30.3424 5.51198 30.3101 5.53659 30.2863C5.56119 30.2625 5.59457 30.2491 5.62938 30.2491L6.07335 30.2449C6.10816 30.2449 6.14153 30.2582 6.16614 30.282C6.19075 30.3059 6.20458 30.3381 6.20458 30.3718L6.21114 37.0673C6.21093 37.0849 6.20693 37.1023 6.19939 37.1183C6.19186 37.1344 6.18096 37.1487 6.16738 37.1605C6.1538 37.1722 6.13785 37.1811 6.12053 37.1865C6.10321 37.192 6.08491 37.1939 6.06679 37.1921L5.62281 37.1498C5.59071 37.1467 5.56091 37.1322 5.53913 37.1092C5.51734 37.0862 5.50509 37.0562 5.50471 37.025L5.49159 33.947C5.49159 33.9303 5.4882 33.9138 5.4816 33.8984C5.47501 33.883 5.46534 33.869 5.45316 33.8572C5.44097 33.8454 5.4265 33.8361 5.41058 33.8297C5.39466 33.8233 5.3776 33.82 5.36036 33.82L1.97257 33.8349C1.93851 33.8348 1.90578 33.8476 1.88129 33.8705C1.85681 33.8934 1.84248 33.9246 1.84135 33.9576Z" fill="#103734"/>
<path d="M24.5318 33.9579C24.5186 33.9579 24.5057 33.9615 24.4945 33.9683C24.4834 33.9751 24.4744 33.9848 24.4687 33.9963C24.463 34.0078 24.4607 34.0206 24.4622 34.0333C24.4637 34.0459 24.4689 34.0579 24.4771 34.0679L26.8151 36.9979C26.9216 37.1304 26.888 37.1946 26.7145 37.1904L26.3777 37.1819C26.1838 37.1777 26.0278 37.1015 25.9097 36.9534L23.7007 34.1927C23.3537 33.7583 23.1649 33.8155 23.1343 34.3641C23.0905 35.1736 23.0862 36.0268 23.1212 36.9238C23.127 37.0677 23.0555 37.1488 22.9068 37.1671L22.6575 37.1967C22.6258 37.2006 22.5936 37.1979 22.5631 37.1889C22.5325 37.1798 22.5043 37.1646 22.4803 37.1442C22.4563 37.1238 22.4371 37.0987 22.4239 37.0705C22.4107 37.0424 22.4038 37.0118 22.4038 36.9809L22.3994 30.3764C22.3994 30.3601 22.4028 30.344 22.4093 30.3289C22.4158 30.3139 22.4253 30.3003 22.4373 30.2889C22.4494 30.2774 22.4636 30.2684 22.4792 30.2624C22.4949 30.2564 22.5116 30.2534 22.5285 30.2537C23.3114 30.2593 24.0981 30.2692 24.8883 30.2833C26.299 30.3108 27.176 31.3897 26.7605 32.695C26.4608 33.6363 25.5029 33.9494 24.5318 33.9579ZM23.1146 30.9729L23.0971 33.1519C23.0968 33.1676 23.0998 33.1833 23.1058 33.1979C23.1118 33.2125 23.1208 33.2258 23.1322 33.237C23.1436 33.2483 23.1572 33.2572 23.1722 33.2633C23.1872 33.2693 23.2033 33.2725 23.2196 33.2725L24.5887 33.2809C24.7875 33.2824 24.9845 33.2551 25.1686 33.2007C25.3527 33.1463 25.5202 33.0658 25.6615 32.9638C25.8029 32.8619 25.9153 32.7404 25.9924 32.6065C26.0695 32.4725 26.1098 32.3286 26.1109 32.183V31.9841C26.1132 31.6902 25.9559 31.4071 25.6737 31.1973C25.3915 30.9874 25.0075 30.8679 24.6062 30.8651L23.2371 30.8566C23.205 30.8566 23.1741 30.8688 23.1512 30.8905C23.1283 30.9123 23.1152 30.9419 23.1146 30.9729Z" fill="#103734"/>
<path d="M67.2537 32.4175C67.2348 32.2906 67.1961 32.2849 67.1378 32.4006L64.6861 37.1393C64.6764 37.1585 64.6613 37.1747 64.6425 37.186C64.6238 37.1973 64.6021 37.2033 64.58 37.2033C64.5579 37.2033 64.5363 37.1973 64.5175 37.186C64.4988 37.1747 64.4837 37.1585 64.4739 37.1393L62.0441 32.4006C61.9551 32.2271 61.8976 32.2363 61.8713 32.4281L61.2436 36.9891C61.2247 37.1301 61.1423 37.1971 60.9965 37.19L60.7384 37.1795C60.6072 37.1738 60.551 37.1082 60.57 36.9827L61.5411 30.4374C61.5761 30.2075 61.6468 30.1962 61.7532 30.4036L64.4936 35.7409C64.5029 35.7587 64.5172 35.7737 64.5347 35.7841C64.5523 35.7946 64.5725 35.8001 64.5931 35.8001C64.6138 35.8001 64.634 35.7946 64.6515 35.7841C64.6691 35.7737 64.6833 35.7587 64.6926 35.7409L67.444 30.3528C67.4761 30.2879 67.5191 30.2802 67.573 30.3295C67.5993 30.3521 67.6146 30.3796 67.619 30.412C67.9397 32.622 68.2671 34.8038 68.601 36.9573C68.6057 36.9871 68.6037 37.0175 68.5951 37.0464C68.5865 37.0754 68.5715 37.1022 68.5511 37.1249C68.5307 37.1477 68.5054 37.1658 68.477 37.1782C68.4486 37.1905 68.4178 37.1967 68.3866 37.1964L68.1767 37.1943C68.0134 37.1929 67.9201 37.1139 67.8967 36.9573L67.2537 32.4175Z" fill="#0F3331"/>
<path d="M12.737 32.754L12.702 32.278C12.6985 32.2247 12.7153 32.1721 12.7492 32.1303C12.7831 32.0884 12.8318 32.0604 12.8857 32.0517L13.0891 32.0178C13.2597 31.9896 13.345 32.0587 13.345 32.2251L13.3428 37.004C13.3428 37.1352 13.275 37.2008 13.1394 37.2008L12.9338 37.1987C12.7895 37.1987 12.7166 37.1295 12.7151 36.9913L12.7129 36.5154C12.7125 36.4942 12.7056 36.4737 12.6932 36.4563C12.6807 36.439 12.6633 36.4255 12.6431 36.4176C12.6228 36.4097 12.6006 36.4078 12.5792 36.412C12.5578 36.4162 12.5381 36.4264 12.5227 36.4413C10.329 38.6605 7.00028 36.3101 8.04571 33.5791C8.44594 32.5277 9.6729 31.8105 10.8474 31.9396C11.4918 32.0101 12.0539 32.3091 12.5336 32.8365C12.5496 32.8545 12.571 32.8671 12.5949 32.8725C12.6187 32.878 12.6437 32.876 12.6663 32.8668C12.6889 32.8577 12.7079 32.8418 12.7206 32.8215C12.7333 32.8013 12.7391 32.7776 12.737 32.754ZM10.6003 36.6971C10.876 36.7004 11.1497 36.6501 11.4057 36.549C11.6618 36.4479 11.8951 36.2981 12.0925 36.1081C12.2899 35.9181 12.4474 35.6917 12.5561 35.4417C12.6648 35.1916 12.7225 34.923 12.7259 34.651C12.7293 34.3791 12.6784 34.1091 12.5761 33.8566C12.4738 33.6041 12.322 33.374 12.1295 33.1794C11.937 32.9848 11.7075 32.8295 11.4541 32.7224C11.2007 32.6154 10.9283 32.5586 10.6526 32.5553C10.3769 32.5521 10.1032 32.6024 9.84721 32.7035C9.59118 32.8045 9.35781 32.9543 9.16043 33.1443C8.96305 33.3343 8.80552 33.5608 8.69684 33.8108C8.58816 34.0608 8.53045 34.3295 8.52702 34.6014C8.52358 34.8734 8.57448 35.1433 8.67682 35.3958C8.77915 35.6483 8.93091 35.8784 9.12343 36.073C9.31595 36.2676 9.54547 36.4229 9.79887 36.53C10.0523 36.6371 10.3246 36.6939 10.6003 36.6971Z" fill="#103734"/>
<path d="M28.9474 34.8487C29.0523 35.5933 29.3789 36.1194 29.9272 36.4268C30.8829 36.962 32.1602 36.6997 32.7791 35.752C32.9045 35.5588 33.0751 35.5094 33.2909 35.6039C33.3186 35.6166 33.3434 35.6335 33.3653 35.6547C33.4805 35.7689 33.4907 35.8909 33.3959 36.0206C32.5867 37.1447 31.5143 37.5381 30.1787 37.2011C29.0545 36.9155 28.2716 35.8281 28.2497 34.6985C28.2307 33.7211 28.6208 32.9511 29.4198 32.3883C30.4149 31.6881 31.913 31.7812 32.8054 32.6041C33.3172 33.078 33.6241 33.6999 33.7261 34.47C33.7436 34.5997 33.6853 34.6646 33.5512 34.6646H29.1114C28.9845 34.666 28.9299 34.7274 28.9474 34.8487ZM29.0633 34.1104H32.9082C32.9151 34.1104 32.9218 34.1077 32.9267 34.1029C32.9317 34.0982 32.9344 34.0917 32.9344 34.085C32.9344 33.681 32.7328 33.2936 32.3739 33.0079C32.015 32.7223 31.5283 32.5618 31.0207 32.5618H30.9507C30.4432 32.5618 29.9564 32.7223 29.5975 33.0079C29.2387 33.2936 29.037 33.681 29.037 34.085C29.037 34.0917 29.0398 34.0982 29.0447 34.1029C29.0496 34.1077 29.0563 34.1104 29.0633 34.1104Z" fill="#103734"/>
<path d="M39.4234 36.4926C38.1636 37.5863 36.0443 37.307 35.2461 35.7987C33.8529 33.167 37.385 30.5459 39.5393 32.7376C39.7347 32.9378 39.8302 32.9005 39.8258 32.6255C39.8243 32.5028 39.8163 32.3808 39.8017 32.2595C39.7843 32.11 39.8535 32.0324 40.0095 32.0268L40.2151 32.0204C40.2453 32.0193 40.2755 32.024 40.3038 32.0343C40.3322 32.0446 40.3581 32.0602 40.3801 32.0803C40.4021 32.1004 40.4197 32.1246 40.4319 32.1513C40.4442 32.1781 40.4508 32.207 40.4513 32.2362C40.4688 33.5379 40.471 34.8354 40.4579 36.1287C40.4513 36.776 40.4076 37.6011 40.0205 38.1469C38.9685 39.6298 35.9897 39.5262 35.1695 37.8486C35.0689 37.6427 35.1352 37.5545 35.3685 37.5842C35.5282 37.6032 35.701 37.6624 35.8125 37.7746C36.6698 38.6405 37.6847 38.8295 38.8569 38.3415C39.2696 38.1709 39.5225 37.8733 39.6158 37.4488C39.661 37.2471 39.7172 36.9953 39.7843 36.6935C39.8776 36.269 39.7573 36.202 39.4234 36.4926ZM39.8083 34.5802C39.8083 34.0427 39.5876 33.5272 39.1946 33.1471C38.8017 32.7671 38.2688 32.5535 37.7131 32.5535C37.1574 32.5535 36.6245 32.7671 36.2315 33.1471C35.8386 33.5272 35.6179 34.0427 35.6179 34.5802C35.6179 34.8463 35.6721 35.1098 35.7773 35.3557C35.8826 35.6016 36.037 35.825 36.2315 36.0132C36.4261 36.2014 36.6571 36.3507 36.9113 36.4525C37.1655 36.5544 37.4379 36.6068 37.7131 36.6068C37.9882 36.6068 38.2607 36.5544 38.5149 36.4525C38.7691 36.3507 39.0001 36.2014 39.1946 36.0132C39.3892 35.825 39.5435 35.6016 39.6488 35.3557C39.7541 35.1098 39.8083 34.8463 39.8083 34.5802Z" fill="#103734"/>
<path d="M46.5856 37.316C46.2251 37.2861 45.8742 37.1868 45.5531 37.0238C45.232 36.8608 44.9469 36.6373 44.7141 36.366C44.4813 36.0947 44.3054 35.781 44.1964 35.4428C44.0873 35.1045 44.0474 34.7483 44.0787 34.3946C44.142 33.6802 44.492 33.019 45.0517 32.5565C45.6114 32.0941 46.3349 31.8682 47.0631 31.9286C47.4237 31.9585 47.7746 32.0577 48.0957 32.2207C48.4168 32.3837 48.7019 32.6072 48.9347 32.8785C49.1675 33.1498 49.3434 33.4635 49.4524 33.8018C49.5614 34.14 49.6014 34.4962 49.5701 34.85C49.5067 35.5644 49.1567 36.2255 48.597 36.688C48.0374 37.1505 47.3138 37.3764 46.5856 37.316ZM46.6782 36.6848C47.2269 36.7191 47.7677 36.5354 48.1815 36.1741C48.5953 35.8127 48.8482 35.3034 48.8847 34.758C48.9027 34.488 48.8671 34.2173 48.7798 33.9613C48.6925 33.7053 48.5552 33.4691 48.3759 33.2662C48.1965 33.0632 47.9785 32.8975 47.7344 32.7785C47.4903 32.6594 47.2248 32.5894 46.9531 32.5724C46.4044 32.5381 45.8636 32.7218 45.4498 33.0832C45.036 33.4445 44.7831 33.9539 44.7466 34.4992C44.7286 34.7692 44.7642 35.0399 44.8515 35.2959C44.9388 35.5519 45.076 35.7881 45.2554 35.991C45.4348 36.194 45.6527 36.3597 45.8969 36.4788C46.141 36.5978 46.4065 36.6678 46.6782 36.6848Z" fill="#103734"/>
<path d="M51.6971 32.5973C51.6869 32.8794 51.7817 32.9181 51.9815 32.7136C52.4976 32.189 53.2456 31.8273 53.9783 31.9478C55.0733 32.1269 55.6346 32.8455 55.6623 34.1035C55.6842 35.0795 55.682 36.054 55.6558 37.0271C55.6528 37.1287 55.5989 37.1801 55.4939 37.1815L55.2052 37.1837C55.1557 37.1837 55.1082 37.1648 55.073 37.1311C55.0378 37.0975 55.0177 37.0517 55.0171 37.0038C55.0113 36.0801 55.0047 35.1577 54.9974 34.2368C54.9909 33.3969 54.6716 32.4915 53.6327 32.5465C52.5465 32.6029 51.9333 33.1685 51.7934 34.2431C51.6971 34.9878 51.6709 35.8967 51.7146 36.97C51.7205 37.1124 51.6498 37.183 51.5025 37.1815L51.2357 37.1794C51.1074 37.178 51.0432 37.1153 51.0432 36.9912L51.041 32.1932C51.041 32.0578 51.1103 31.9972 51.2488 32.0113L51.4981 32.0367C51.6439 32.0508 51.7146 32.1298 51.7103 32.2736L51.6971 32.5973Z" fill="#103734"/>
<path d="M77.1001 32.7284C77.1292 32.8864 77.1963 32.9026 77.3013 32.7771C78.362 31.5015 80.6781 31.6453 80.9362 33.5069C81.0747 34.5026 81.1068 35.7099 81.0324 37.1286C81.0295 37.1879 80.9967 37.2147 80.934 37.209L80.5163 37.1646C80.4026 37.1533 80.3457 37.0927 80.3457 36.9827C80.3515 36.1717 80.3537 35.3707 80.3523 34.5795C80.3501 33.581 80.2342 32.555 78.9722 32.538C77.8437 32.5211 77.1482 33.4477 77.1154 34.4779C77.0862 35.3552 77.0724 36.2 77.0738 37.0123C77.0753 37.1618 76.9995 37.226 76.8464 37.2048L76.6561 37.1794C76.5117 37.1583 76.4396 37.0772 76.4396 36.9361L76.4111 32.1742C76.4111 32.1528 76.4156 32.1316 76.4242 32.112C76.4329 32.0923 76.4455 32.0745 76.4615 32.0597C76.4774 32.0449 76.4963 32.0333 76.5169 32.0257C76.5376 32.0181 76.5596 32.0147 76.5817 32.0155L76.8835 32.0261C77.0293 32.0303 77.095 32.103 77.0804 32.244C77.0629 32.4076 77.0695 32.5691 77.1001 32.7284Z" fill="#0F3331"/>
<path d="M85.9899 36.0941C86.9412 36.9932 88.4394 36.8557 89.3602 35.9715C89.4178 35.9165 89.4944 35.8843 89.5749 35.8812C89.6555 35.8781 89.7341 35.9042 89.7954 35.9545L89.8698 36.0138C89.9747 36.0998 89.9828 36.1936 89.8938 36.2951C87.9517 38.5143 83.84 36.8832 84.8154 33.8115C85.4847 31.6961 88.2972 31.3872 89.7954 32.7792C89.9354 32.9075 89.9587 33.0535 89.8654 33.2171C89.8464 33.2523 89.8195 33.282 89.7845 33.3059C89.643 33.4033 89.5096 33.3934 89.3842 33.2763C88.6946 32.6276 87.8897 32.4104 86.9697 32.6248C85.3206 33.0098 84.7782 34.9539 85.9899 36.0941Z" fill="#0F3331"/>
<path d="M94.4118 36.4751L94.4031 38.8466C94.403 38.9074 94.38 38.966 94.3384 39.0112C94.2969 39.0565 94.2397 39.0852 94.1778 39.092L94.0225 39.111C93.9916 39.1146 93.9602 39.1118 93.9305 39.1027C93.9007 39.0936 93.8733 39.0784 93.85 39.0583C93.8266 39.0381 93.8079 39.0133 93.7951 38.9856C93.7822 38.9578 93.7755 38.9278 93.7754 38.8974L93.7666 32.2907C93.7652 32.0932 93.8658 32.0016 94.0684 32.0157C94.083 32.0157 94.1049 32.0171 94.134 32.0199C94.328 32.0312 94.4206 32.1306 94.4118 32.3182L94.3943 32.7582C94.387 32.9317 94.4483 32.9592 94.578 32.8407C94.8602 32.5847 95.1401 32.3055 95.5032 32.1553C98.447 30.9452 100.689 34.7954 98.2523 36.7205C97.0757 37.6471 95.571 37.4461 94.5474 36.4201C94.5366 36.4094 94.5227 36.4021 94.5075 36.3991C94.4923 36.3962 94.4765 36.3978 94.462 36.4037C94.4475 36.4095 94.4351 36.4194 94.4261 36.4321C94.4172 36.4449 94.4122 36.4598 94.4118 36.4751ZM96.4112 36.6937C96.6867 36.7035 96.9616 36.6597 97.2201 36.5648C97.4786 36.47 97.7156 36.3259 97.9178 36.1408C98.1199 35.9557 98.2831 35.7333 98.398 35.4862C98.513 35.2391 98.5774 34.9721 98.5877 34.7006C98.598 34.4291 98.5539 34.1583 98.458 33.9037C98.3621 33.6491 98.2162 33.4157 98.0286 33.2168C97.8411 33.0179 97.6155 32.8574 97.3649 32.7445C97.1143 32.6316 96.8435 32.5684 96.5679 32.5586C96.2924 32.5489 96.0175 32.5927 95.759 32.6875C95.5005 32.7824 95.2634 32.9265 95.0613 33.1116C94.8592 33.2967 94.696 33.5191 94.5811 33.7662C94.4661 34.0133 94.4016 34.2803 94.3913 34.5518C94.381 34.8233 94.4251 35.0941 94.5211 35.3487C94.617 35.6032 94.7629 35.8366 94.9505 36.0355C95.138 36.2345 95.3635 36.3949 95.6142 36.5079C95.8648 36.6208 96.1356 36.684 96.4112 36.6937Z" fill="#0F3331"/>
<path d="M105.217 36.4501C103.233 38.3879 100.174 36.7695 100.589 34.123C100.919 32.0118 103.701 31.1614 105.171 32.7924C105.331 32.9701 105.412 32.9405 105.412 32.7036L105.409 32.2593C105.409 32.1126 105.485 32.0358 105.637 32.0287L105.825 32.0203C105.854 32.0185 105.883 32.0226 105.911 32.0322C105.939 32.0419 105.964 32.0569 105.985 32.0763C106.006 32.0957 106.023 32.1192 106.035 32.1452C106.047 32.1712 106.052 32.1992 106.052 32.2276L106.057 36.9853C106.057 37.1277 105.983 37.1997 105.836 37.2011L105.637 37.2032C105.507 37.2046 105.439 37.1425 105.431 37.017L105.401 36.5178C105.392 36.3626 105.331 36.3401 105.217 36.4501ZM103.368 36.6995C103.925 36.692 104.456 36.4664 104.844 36.0723C105.232 35.6782 105.446 35.148 105.438 34.5982C105.43 34.0484 105.201 33.5241 104.802 33.1407C104.402 32.7572 103.865 32.546 103.308 32.5536C102.752 32.5611 102.221 32.7867 101.833 33.1808C101.444 33.5748 101.231 34.1051 101.239 34.6549C101.247 35.2047 101.476 35.7289 101.875 36.1124C102.274 36.4958 102.811 36.707 103.368 36.6995Z" fill="#0F3331"/>
<path d="M110.385 31.9711L110.078 31.9706C110.031 31.9705 109.993 32.0074 109.993 32.053L109.984 37.0751C109.984 37.1207 110.022 37.1577 110.069 37.1578L110.375 37.1583C110.422 37.1584 110.461 37.1215 110.461 37.0759L110.47 32.0538C110.47 32.0082 110.432 31.9712 110.385 31.9711Z" fill="#103734"/>
<path d="M15.4744 32.0178H15.1857C15.0891 32.0178 15.0107 32.0936 15.0107 32.1871V37.0061C15.0107 37.0996 15.0891 37.1754 15.1857 37.1754H15.4744C15.571 37.1754 15.6494 37.0996 15.6494 37.0061V32.1871C15.6494 32.0936 15.571 32.0178 15.4744 32.0178Z" fill="#103734"/>
<path d="M42.5219 32.024L42.1763 32.0246C42.0676 32.0248 41.9796 32.1101 41.9798 32.2153L41.9885 37.0048C41.9887 37.1099 42.0769 37.195 42.1857 37.1948L42.5312 37.1942C42.6399 37.194 42.7279 37.1087 42.7277 37.0035L42.7191 32.214C42.7189 32.1089 42.6306 32.0238 42.5219 32.024Z" fill="#103735"/>
<path d="M72.2754 36.6488C73.2749 36.7144 73.9595 36.0755 73.9726 35.1341C73.9857 34.1935 73.985 33.2295 73.9704 32.2423C73.969 32.1041 74.039 32.0328 74.1804 32.0286L74.4866 32.018C74.6338 32.0138 74.7075 32.0836 74.7075 32.2275C74.7031 33.3381 74.8037 34.5608 74.5872 35.6461C74.1016 38.0789 70.1715 37.8166 70.0927 35.2441C70.065 34.3176 70.0592 33.3198 70.0752 32.2507C70.0781 32.0674 70.1736 31.987 70.3617 32.0096L70.5783 32.0371C70.6226 32.0423 70.6633 32.0633 70.6928 32.096C70.7222 32.1288 70.7383 32.1711 70.7379 32.2148C70.7219 33.1865 70.7241 34.1236 70.7445 35.0263C70.7678 36.0417 71.2781 36.5825 72.2754 36.6488Z" fill="#0F3331"/>
<path d="M83.141 32.0264H82.7517C82.6623 32.0264 82.5898 32.0965 82.5898 32.1829V37.0274C82.5898 37.1138 82.6623 37.1839 82.7517 37.1839H83.141C83.2304 37.1839 83.3028 37.1138 83.3028 37.0274V32.1829C83.3028 32.0965 83.2304 32.0264 83.141 32.0264Z" fill="#103734"/>
<path d="M91.9984 32.02H91.6135C91.5217 32.02 91.4473 32.092 91.4473 32.1808V37.0337C91.4473 37.1225 91.5217 37.1945 91.6135 37.1945H91.9984C92.0902 37.1945 92.1646 37.1225 92.1646 37.0337V32.1808C92.1646 32.092 92.0902 32.02 91.9984 32.02Z" fill="#103734"/>
<path d="M117.831 35.8404L119.528 32.0642C119.536 32.048 119.548 32.0343 119.564 32.0252C119.579 32.0161 119.598 32.012 119.616 32.0135L120.121 32.0558C120.135 32.0567 120.149 32.0608 120.161 32.0679C120.173 32.0749 120.183 32.0847 120.19 32.0963C120.197 32.1079 120.202 32.1211 120.203 32.1346C120.203 32.1482 120.201 32.1618 120.195 32.1742L117.112 38.9967C117.105 39.0109 117.095 39.0232 117.082 39.0322C117.069 39.0411 117.053 39.0464 117.037 39.0475L116.523 39.0898C116.508 39.0908 116.493 39.0882 116.48 39.0822C116.466 39.0761 116.455 39.0668 116.446 39.0552C116.437 39.0435 116.432 39.0299 116.43 39.0156C116.428 39.0013 116.43 38.9868 116.436 38.9734L117.372 36.8072C117.377 36.7965 117.379 36.785 117.379 36.7733C117.379 36.7617 117.377 36.7501 117.372 36.7395L115.27 32.1573C115.264 32.1442 115.262 32.1299 115.263 32.1157C115.264 32.1014 115.269 32.0877 115.278 32.0759C115.286 32.0641 115.297 32.0545 115.311 32.048C115.324 32.0415 115.338 32.0384 115.353 32.0389L115.878 32.0537C115.894 32.0543 115.91 32.0594 115.924 32.0684C115.937 32.0774 115.948 32.0899 115.955 32.1044L117.671 35.8425C117.679 35.8573 117.69 35.8698 117.704 35.8785C117.719 35.8872 117.735 35.8917 117.752 35.8915C117.769 35.8912 117.785 35.8863 117.799 35.8772C117.813 35.8682 117.824 35.8554 117.831 35.8404Z" fill="#103734"/>
<path d="M156.481 0.729843C156.246 0.518294 155.969 0.452714 155.65 0.533102C155.374 0.600798 155.351 0.553552 155.58 0.391365C156.053 0.052887 156.513 0.0959021 156.957 0.52041C157.013 0.572592 157.054 0.564129 157.082 0.495024L157.27 0.0444252C157.294 -0.0148084 157.317 -0.0148084 157.34 0.0444252L157.524 0.533102C157.527 0.542791 157.534 0.551351 157.542 0.557876C157.55 0.564401 157.56 0.568647 157.571 0.570165C157.581 0.571683 157.592 0.570416 157.602 0.566498C157.612 0.56258 157.62 0.556158 157.627 0.547911C157.937 0.137506 158.757 -0.012693 159.096 0.473869C159.133 0.527461 159.119 0.547911 159.055 0.535218C158.792 0.484446 158.226 0.503486 158.071 0.765806C158.017 0.857477 158.043 0.892735 158.149 0.87158C158.718 0.757344 159.827 0.833501 159.823 1.62258C159.823 1.71707 159.796 1.72412 159.744 1.64373C159.525 1.30525 159.167 1.1614 158.67 1.21217C158.517 1.22769 158.509 1.26859 158.646 1.33487C159.379 1.69662 159.995 2.18741 159.866 3.07803C159.852 3.18663 159.812 3.19579 159.746 3.10553C159.59 2.89257 159.444 2.6641 159.309 2.42012C159.128 2.09151 158.889 1.85528 158.593 1.71143C158.343 1.58732 158.321 1.61694 158.53 1.80028C159.256 2.44339 159.449 3.11329 159.107 3.80999C159.102 3.8195 159.094 3.82718 159.084 3.83172C159.074 3.83626 159.062 3.83738 159.052 3.83487C159.041 3.83237 159.032 3.8264 159.026 3.818C159.019 3.8096 159.017 3.79928 159.018 3.78884C159.026 3.60831 158.961 3.46446 158.821 3.35728C158.746 3.30086 158.73 3.23105 158.771 3.14784C158.821 3.04842 158.819 2.9638 158.777 2.86014C158.647 2.53999 158.477 2.24876 158.267 1.98644C158.23 1.93849 158.184 1.93073 158.13 1.96317C158.106 1.97727 158.095 2.00196 158.097 2.03721C158.097 2.05696 158.101 2.076 158.11 2.09433C158.435 2.83193 158.424 3.55261 158.077 4.25636C158.039 4.33252 158.009 4.32969 157.988 4.2479C157.928 4.03494 157.915 3.82127 157.95 3.6069C157.953 3.58893 157.953 3.57052 157.948 3.55291C157.943 3.5353 157.934 3.51892 157.921 3.50487C157.909 3.49081 157.894 3.47943 157.877 3.47148C157.859 3.46354 157.84 3.45922 157.821 3.45882L157.618 3.4567C157.551 3.45529 157.516 3.48703 157.513 3.5519C157.453 4.80568 157.498 6.34575 157.646 8.17212C157.67 8.44996 157.764 8.69183 157.928 8.89774C157.988 8.97248 157.969 9.00986 157.872 9.00986L156.747 9.01197C156.618 9.01338 156.589 8.96261 156.662 8.85966L156.815 8.64599C156.859 8.58535 156.885 8.51836 156.894 8.44502C157.081 6.8161 157.137 5.20269 157.065 3.60479C157.059 3.47786 156.99 3.41651 156.859 3.42074L156.772 3.42286C156.753 3.42346 156.735 3.42798 156.718 3.43612C156.701 3.44425 156.686 3.45582 156.674 3.47004C156.663 3.48427 156.654 3.50082 156.649 3.51858C156.645 3.53635 156.644 3.55492 156.647 3.57306C156.686 3.78037 156.662 4.00532 156.575 4.2479C156.544 4.33675 156.511 4.33745 156.476 4.25001C156.25 3.6887 156.205 3.13445 156.341 2.58724C156.393 2.37992 156.557 2.2128 156.503 1.98644C156.499 1.97376 156.493 1.96208 156.483 1.95264C156.474 1.94321 156.462 1.93639 156.45 1.93291C156.437 1.92943 156.423 1.92942 156.411 1.93289C156.398 1.93636 156.387 1.94317 156.378 1.95259C156.137 2.19799 155.599 2.9638 155.888 3.27477C155.917 3.30439 155.911 3.32131 155.868 3.32554C155.634 3.34952 155.553 3.4835 155.628 3.72749C155.635 3.74864 155.628 3.76486 155.608 3.77614L155.553 3.80787C155.544 3.81336 155.533 3.81661 155.522 3.8174C155.511 3.81818 155.499 3.81648 155.489 3.81242C155.478 3.80836 155.469 3.80204 155.461 3.79393C155.453 3.78582 155.447 3.77612 155.444 3.76557C155.184 2.93206 155.481 2.31011 156.126 1.78547C156.154 1.76291 156.164 1.7354 156.155 1.70297C156.147 1.67617 156.134 1.65925 156.113 1.65219C156.096 1.64373 156.078 1.64514 156.061 1.65643C155.622 1.92721 155.292 2.31293 155.07 2.8136C155.019 2.92924 154.932 3.01104 154.81 3.05899C154.795 3.06453 154.78 3.0666 154.765 3.065C154.749 3.06341 154.735 3.05821 154.722 3.04985C154.709 3.0415 154.699 3.03025 154.692 3.01709C154.684 3.00393 154.681 2.98926 154.681 2.97437C154.688 2.24806 155.094 1.71707 155.899 1.38141C156.096 1.2982 156.088 1.2432 155.875 1.2164C155.439 1.16281 155.093 1.29961 154.836 1.62681C154.781 1.69733 154.756 1.68816 154.762 1.59931C154.805 0.839848 155.833 0.750997 156.413 0.858887C156.591 0.892735 156.613 0.84972 156.481 0.729843Z" fill="#105655"/>
<path d="M140.945 10.2098L145.886 1.96364C145.893 1.95269 145.902 1.94362 145.914 1.93733C145.925 1.93104 145.938 1.92773 145.951 1.92773C145.965 1.92773 145.978 1.93104 145.989 1.93733C146.001 1.94362 146.01 1.95269 146.017 1.96364L150.958 10.2098C150.964 10.221 150.967 10.2336 150.967 10.2464C150.967 10.2592 150.964 10.2717 150.957 10.2828C150.95 10.2939 150.941 10.3031 150.93 10.3096C150.918 10.3161 150.905 10.3196 150.892 10.3198H141.011C140.998 10.3196 140.985 10.3161 140.973 10.3096C140.962 10.3031 140.952 10.2939 140.946 10.2828C140.939 10.2717 140.936 10.2592 140.936 10.2464C140.935 10.2336 140.939 10.221 140.945 10.2098Z" fill="#15958B"/>
<path d="M157.234 11.0049L155.823 12.2276C155.795 12.2517 155.775 12.2828 155.765 12.3173C155.755 12.3517 155.755 12.3881 155.766 12.4222C155.803 12.5393 155.868 12.6035 155.963 12.6148C156.031 12.6232 156.077 12.5964 156.101 12.5344C156.37 11.8193 157.378 12.2636 157.035 12.9786C157.011 13.0277 156.977 13.0713 156.935 13.1064C156.893 13.1415 156.843 13.1672 156.79 13.1817C156.262 13.3298 155.811 13.1577 155.436 12.6655C155.386 12.6007 155.331 12.5957 155.27 12.6507C154.88 12.9955 153.848 13.5731 153.356 13.1246C153.269 13.0447 153.215 12.9372 153.203 12.8219C153.192 12.7065 153.223 12.5909 153.292 12.4963C153.521 12.186 153.801 12.1599 154.132 12.418C154.186 12.4617 154.247 12.4716 154.314 12.4476C154.566 12.3616 154.762 12.217 154.902 12.014C154.962 11.9265 154.958 11.8412 154.891 11.758C154.871 11.7324 154.842 11.7146 154.809 11.7076C154.776 11.7006 154.742 11.705 154.712 11.7199C153.625 12.2636 153.601 10.4993 154.548 10.8166C154.93 10.9449 155.154 11.2178 155.219 11.6353C155.222 11.6533 155.231 11.6702 155.243 11.6841C155.255 11.698 155.271 11.7084 155.289 11.7143C155.307 11.7201 155.326 11.7212 155.345 11.7173C155.363 11.7135 155.38 11.7049 155.394 11.6924L156.704 10.512C156.774 10.4485 156.774 10.3864 156.702 10.3258C154.88 8.75188 152.455 8.05588 150.047 7.99453C150.038 7.99453 150.032 7.99101 150.029 7.98396C150.026 7.9769 150.024 7.96985 150.023 7.9628C150.021 7.95434 150.025 7.9494 150.034 7.94799C152.643 7.54182 155.138 8.21031 157.245 9.79904C157.317 9.85404 157.39 9.85263 157.461 9.79481C159.32 8.30128 162.135 7.43816 164.615 7.96492C164.688 7.98043 164.686 7.9896 164.611 7.99242C162.209 8.06646 159.847 8.73918 157.999 10.2877C157.901 10.3695 157.9 10.4534 157.995 10.5395L159.25 11.6712C159.343 11.7545 159.406 11.7368 159.438 11.6184C159.491 11.4237 159.572 11.2496 159.681 11.0958C159.937 10.7383 160.543 10.6664 160.777 11.1043C161.057 11.6289 160.411 11.9568 159.937 11.7326C159.867 11.7002 159.807 11.7129 159.757 11.7707C159.704 11.8327 159.696 11.899 159.736 11.9695C159.851 12.1726 160.05 12.3313 160.333 12.4455C160.41 12.4765 160.48 12.466 160.543 12.4138C160.821 12.1867 161.089 12.1973 161.345 12.4455C161.396 12.4941 161.434 12.5532 161.456 12.6184C161.479 12.6835 161.486 12.7528 161.476 12.8209C161.466 12.889 161.44 12.9539 161.4 13.0107C161.36 13.0674 161.307 13.1144 161.245 13.1479C160.663 13.4631 159.823 13.0336 159.388 12.6465C159.328 12.5915 159.274 12.5964 159.226 12.6613C158.902 13.1055 158.071 13.5519 157.64 12.9765C157.568 12.881 157.534 12.7634 157.544 12.6452C157.555 12.527 157.609 12.4163 157.697 12.3334C157.929 12.1155 158.5 12.0859 158.557 12.4878C158.56 12.5078 158.567 12.527 158.578 12.544C158.59 12.561 158.605 12.5753 158.622 12.5861C158.64 12.5968 158.659 12.6036 158.68 12.606C158.7 12.6084 158.721 12.6063 158.74 12.5999C158.832 12.5703 158.877 12.509 158.874 12.4159C158.871 12.3412 158.843 12.2749 158.789 12.217C158.372 11.7657 157.912 11.3589 157.409 10.9964C157.347 10.9527 157.289 10.9555 157.234 11.0049Z" fill="#105655"/>
<path d="M150.962 11.2055L146.017 19.4728C146.011 19.4834 146.002 19.4922 145.991 19.4983C145.981 19.5045 145.968 19.5077 145.956 19.5077C145.943 19.5077 145.931 19.5045 145.92 19.4983C145.909 19.4922 145.901 19.4834 145.894 19.4728L140.934 11.2034C140.928 11.193 140.925 11.1813 140.925 11.1694C140.925 11.1574 140.928 11.1457 140.934 11.1354C140.941 11.1251 140.949 11.1165 140.96 11.1107C140.971 11.1048 140.983 11.1017 140.995 11.1018L150.903 11.1039C150.915 11.1042 150.927 11.1075 150.937 11.1136C150.948 11.1196 150.956 11.1282 150.962 11.1384C150.968 11.1487 150.971 11.1602 150.971 11.172C150.971 11.1838 150.968 11.1953 150.962 11.2055Z" fill="#15958B"/>
<path d="M135.235 19.966L140.177 11.7135C140.184 11.7025 140.193 11.6932 140.204 11.6868C140.215 11.6804 140.228 11.677 140.241 11.677C140.254 11.677 140.267 11.6804 140.278 11.6868C140.289 11.6932 140.298 11.7025 140.304 11.7135L145.247 19.966C145.253 19.9765 145.256 19.9883 145.256 20.0003C145.256 20.0123 145.253 20.0241 145.247 20.0345C145.241 20.0449 145.232 20.0536 145.221 20.0598C145.21 20.066 145.198 20.0694 145.186 20.0697H135.296C135.283 20.0694 135.271 20.066 135.261 20.0598C135.25 20.0536 135.241 20.0449 135.235 20.0345C135.229 20.0241 135.226 20.0123 135.226 20.0003C135.226 19.9883 135.229 19.9765 135.235 19.966Z" fill="#15958B"/>
<path d="M146.84 19.9721L151.793 11.7069C151.799 11.6968 151.808 11.6884 151.818 11.6825C151.829 11.6767 151.84 11.6736 151.852 11.6736C151.864 11.6736 151.876 11.6767 151.887 11.6825C151.897 11.6884 151.905 11.6968 151.911 11.7069L156.865 19.9721C156.871 19.9821 156.874 19.9933 156.874 20.0047C156.873 20.0161 156.87 20.0273 156.864 20.0371C156.858 20.0469 156.85 20.055 156.84 20.0607C156.829 20.0664 156.818 20.0694 156.806 20.0695H146.899C146.887 20.0694 146.875 20.0664 146.865 20.0607C146.855 20.055 146.846 20.0469 146.84 20.0371C146.834 20.0273 146.831 20.0161 146.831 20.0047C146.831 19.9933 146.834 19.9821 146.84 19.9721Z" fill="#105655"/>
<path d="M171.428 15.7686L166.474 24.0317C166.468 24.0418 166.46 24.0503 166.449 24.0561C166.439 24.062 166.427 24.0651 166.415 24.0651C166.403 24.0651 166.391 24.062 166.381 24.0561C166.371 24.0503 166.362 24.0418 166.356 24.0317L161.402 15.7686C161.396 15.7586 161.393 15.7472 161.393 15.7355C161.392 15.7238 161.396 15.7122 161.402 15.7021C161.408 15.692 161.416 15.6836 161.427 15.6778C161.437 15.672 161.449 15.669 161.461 15.6692H171.369C171.381 15.669 171.393 15.672 171.403 15.6778C171.414 15.6836 171.423 15.692 171.429 15.7021C171.435 15.7122 171.438 15.7238 171.438 15.7355C171.438 15.7472 171.434 15.7586 171.428 15.7686Z" fill="#105655"/>
<path d="M155.688 24.529L160.644 16.2596C160.65 16.2499 160.658 16.2419 160.668 16.2363C160.678 16.2307 160.69 16.2278 160.701 16.2278C160.713 16.2278 160.724 16.2307 160.734 16.2363C160.744 16.2419 160.752 16.2499 160.758 16.2596L165.714 24.529C165.72 24.5387 165.723 24.5496 165.723 24.5608C165.723 24.5719 165.72 24.5829 165.714 24.5925C165.708 24.6022 165.7 24.6102 165.69 24.6157C165.68 24.6213 165.669 24.6242 165.657 24.6242H155.745C155.734 24.6242 155.723 24.6213 155.713 24.6157C155.703 24.6102 155.694 24.6022 155.688 24.5925C155.683 24.5829 155.68 24.5719 155.68 24.5608C155.68 24.5496 155.683 24.5387 155.688 24.529Z" fill="#105655"/>
<path d="M167.311 24.5121L172.247 16.2744C172.254 16.2635 172.263 16.2544 172.275 16.2481C172.286 16.2418 172.299 16.2385 172.313 16.2385C172.326 16.2385 172.339 16.2418 172.35 16.2481C172.362 16.2544 172.371 16.2635 172.378 16.2744L177.314 24.5121C177.321 24.5234 177.325 24.5362 177.325 24.5493C177.325 24.5624 177.322 24.5753 177.315 24.5867C177.309 24.5981 177.299 24.6076 177.287 24.6142C177.276 24.6208 177.262 24.6242 177.249 24.6243H167.376C167.363 24.6242 167.349 24.6208 167.338 24.6142C167.326 24.6076 167.316 24.5981 167.31 24.5867C167.303 24.5753 167.3 24.5624 167.3 24.5493C167.3 24.5362 167.304 24.5234 167.311 24.5121Z" fill="#0F3331"/>
<path d="M145.252 20.9621L140.303 29.2273C140.297 29.2379 140.288 29.2467 140.277 29.2529C140.266 29.259 140.254 29.2623 140.242 29.2623C140.229 29.2623 140.217 29.259 140.206 29.2529C140.195 29.2467 140.186 29.2379 140.18 29.2273L135.231 20.9621C135.225 20.9518 135.222 20.9401 135.222 20.9281C135.222 20.9162 135.225 20.9045 135.231 20.8942C135.237 20.8839 135.246 20.8753 135.257 20.8694C135.268 20.8635 135.28 20.8605 135.292 20.8606H145.191C145.203 20.8605 145.216 20.8635 145.226 20.8694C145.237 20.8753 145.246 20.8839 145.252 20.8942C145.258 20.9045 145.262 20.9162 145.262 20.9281C145.262 20.9401 145.258 20.9518 145.252 20.9621Z" fill="#15958B"/>
<path d="M156.863 20.9621L151.912 29.2252C151.905 29.2358 151.897 29.2446 151.886 29.2508C151.875 29.2569 151.863 29.2602 151.85 29.2602C151.838 29.2602 151.826 29.2569 151.815 29.2508C151.804 29.2446 151.795 29.2358 151.789 29.2252L146.838 20.9621C146.831 20.9518 146.828 20.9401 146.828 20.9281C146.828 20.9162 146.831 20.9045 146.838 20.8942C146.844 20.8839 146.853 20.8753 146.864 20.8694C146.874 20.8635 146.886 20.8605 146.899 20.8606H156.802C156.814 20.8605 156.826 20.8635 156.837 20.8694C156.848 20.8753 156.857 20.8839 156.863 20.8942C156.869 20.9045 156.872 20.9162 156.872 20.9281C156.873 20.9401 156.869 20.9518 156.863 20.9621Z" fill="#105655"/>
<path d="M129.426 29.7269L134.373 21.4702C134.38 21.4597 134.389 21.451 134.4 21.445C134.411 21.439 134.424 21.4358 134.437 21.4358C134.449 21.4358 134.462 21.439 134.473 21.445C134.484 21.451 134.493 21.4597 134.5 21.4702L139.447 29.7269C139.454 29.7378 139.457 29.7501 139.457 29.7626C139.457 29.7752 139.454 29.7875 139.447 29.7984C139.441 29.8093 139.432 29.8184 139.421 29.8248C139.409 29.8312 139.397 29.8346 139.384 29.8348H129.489C129.476 29.8346 129.464 29.8312 129.453 29.8248C129.441 29.8184 129.432 29.8093 129.426 29.7984C129.419 29.7875 129.416 29.7752 129.416 29.7626C129.416 29.7501 129.42 29.7378 129.426 29.7269Z" fill="#15958B"/>
<path d="M165.714 25.464L160.765 33.7229C160.759 33.7339 160.75 33.7431 160.738 33.7495C160.727 33.756 160.715 33.7594 160.702 33.7594C160.689 33.7594 160.676 33.756 160.665 33.7495C160.653 33.7431 160.644 33.7339 160.638 33.7229L155.689 25.464C155.683 25.4535 155.68 25.4417 155.68 25.4297C155.68 25.4177 155.683 25.4059 155.689 25.3955C155.695 25.3851 155.704 25.3764 155.715 25.3702C155.725 25.3641 155.738 25.3607 155.75 25.3604H165.653C165.666 25.3607 165.678 25.3641 165.688 25.3702C165.699 25.3764 165.708 25.3851 165.714 25.3955C165.72 25.4059 165.723 25.4177 165.723 25.4297C165.723 25.4417 165.72 25.4535 165.714 25.464Z" fill="#105655"/>
<path d="M177.339 25.4531L172.376 33.7352C172.37 33.7449 172.362 33.7529 172.352 33.7585C172.342 33.7641 172.331 33.767 172.319 33.767C172.308 33.767 172.296 33.7641 172.286 33.7585C172.276 33.7529 172.268 33.7449 172.262 33.7352L167.3 25.4531C167.294 25.4435 167.291 25.4325 167.291 25.4214C167.291 25.4102 167.294 25.3993 167.3 25.3896C167.306 25.38 167.314 25.372 167.324 25.3664C167.334 25.3608 167.345 25.3579 167.357 25.3579H177.282C177.293 25.3579 177.304 25.3608 177.314 25.3664C177.324 25.372 177.333 25.38 177.339 25.3896C177.344 25.3993 177.347 25.4102 177.347 25.4214C177.347 25.4325 177.344 25.4435 177.339 25.4531Z" fill="#0F3331"/>
<path d="M161.485 34.1247L166.443 25.851C166.449 25.8409 166.458 25.8324 166.468 25.8266C166.479 25.8207 166.49 25.8176 166.502 25.8176C166.514 25.8176 166.526 25.8207 166.537 25.8266C166.547 25.8324 166.556 25.8409 166.562 25.851L171.52 34.1247C171.526 34.1347 171.529 34.1461 171.529 34.1578C171.53 34.1695 171.526 34.181 171.52 34.1912C171.514 34.2013 171.506 34.2097 171.495 34.2155C171.485 34.2213 171.473 34.2242 171.461 34.2241H161.544C161.532 34.2242 161.52 34.2213 161.51 34.2155C161.499 34.2097 161.491 34.2013 161.485 34.1912C161.479 34.181 161.475 34.1695 161.476 34.1578C161.476 34.1461 161.479 34.1347 161.485 34.1247Z" fill="#0F3331"/>
<path d="M173.108 34.1186L178.057 25.8597C178.063 25.8487 178.072 25.8395 178.084 25.8331C178.095 25.8266 178.108 25.8232 178.121 25.8232C178.133 25.8232 178.146 25.8266 178.157 25.8331C178.169 25.8395 178.178 25.8487 178.184 25.8597L183.133 34.1186C183.139 34.1291 183.142 34.1409 183.142 34.1529C183.142 34.1649 183.139 34.1767 183.133 34.1871C183.127 34.1975 183.118 34.2062 183.107 34.2124C183.097 34.2185 183.084 34.2219 183.072 34.2223H173.169C173.157 34.2219 173.144 34.2185 173.134 34.2124C173.123 34.2062 173.114 34.1975 173.108 34.1871C173.102 34.1767 173.099 34.1649 173.099 34.1529C173.099 34.1409 173.102 34.1291 173.108 34.1186Z" fill="#0F3331"/>
<path d="M159.855 34.3384L149.937 34.3363C149.925 34.3365 149.913 34.3335 149.902 34.3277C149.892 34.3219 149.883 34.3135 149.877 34.3034C149.871 34.2933 149.868 34.2817 149.868 34.27C149.868 34.2583 149.872 34.2469 149.878 34.2369L154.845 25.9611C154.851 25.951 154.859 25.9425 154.87 25.9367C154.88 25.9308 154.892 25.9277 154.904 25.9277C154.916 25.9277 154.928 25.9308 154.938 25.9367C154.948 25.9425 154.957 25.951 154.963 25.9611L159.914 34.239C159.921 34.249 159.924 34.2605 159.924 34.2722C159.924 34.2839 159.921 34.2954 159.915 34.3055C159.909 34.3157 159.9 34.3241 159.89 34.3298C159.879 34.3356 159.867 34.3386 159.855 34.3384Z" fill="#105655"/>
<path d="M139.443 30.723L134.505 38.9797C134.499 38.9907 134.49 39 134.478 39.0064C134.467 39.0128 134.455 39.0162 134.442 39.0162C134.429 39.0162 134.416 39.0128 134.405 39.0064C134.393 39 134.384 38.9907 134.378 38.9797L129.424 30.723C129.418 30.7124 129.414 30.7004 129.414 30.6881C129.414 30.6758 129.417 30.6636 129.423 30.6529C129.429 30.6421 129.439 30.6332 129.449 30.6269C129.46 30.6207 129.473 30.6173 129.486 30.6172H139.382C139.395 30.6173 139.407 30.6207 139.418 30.6269C139.429 30.6332 139.438 30.6421 139.445 30.6529C139.451 30.6636 139.454 30.6758 139.454 30.6881C139.454 30.7004 139.45 30.7124 139.443 30.723Z" fill="#15958B"/>
<path d="M123.609 39.382L128.57 31.0999C128.575 31.0903 128.584 31.0822 128.594 31.0766C128.604 31.0711 128.615 31.0681 128.627 31.0681C128.638 31.0681 128.649 31.0711 128.659 31.0766C128.669 31.0822 128.678 31.0903 128.683 31.0999L133.644 39.382C133.649 39.3917 133.653 39.4026 133.653 39.4138C133.653 39.4249 133.649 39.4359 133.644 39.4455C133.638 39.4552 133.63 39.4632 133.62 39.4688C133.61 39.4743 133.598 39.4773 133.587 39.4772H123.666C123.655 39.4773 123.643 39.4743 123.633 39.4688C123.623 39.4632 123.615 39.4552 123.609 39.4455C123.604 39.4359 123.601 39.4249 123.601 39.4138C123.601 39.4026 123.604 39.3917 123.609 39.382Z" fill="#15958B"/>
<path d="M178.966 43.9047L183.922 35.629C183.928 35.6193 183.936 35.6113 183.946 35.6057C183.956 35.6001 183.967 35.5972 183.979 35.5972C183.99 35.5972 184.001 35.6001 184.011 35.6057C184.021 35.6113 184.03 35.6193 184.035 35.629L188.991 43.9047C188.997 43.9144 189 43.9253 189 43.9365C189 43.9476 188.997 43.9586 188.991 43.9682C188.986 43.9779 188.977 43.9859 188.967 43.9915C188.957 43.997 188.946 44 188.935 43.9999H179.023C179.011 44 179 43.997 178.99 43.9915C178.98 43.9859 178.972 43.9779 178.966 43.9682C178.96 43.9586 178.957 43.9476 178.957 43.9365C178.957 43.9253 178.96 43.9144 178.966 43.9047Z" fill="#0F3331"/>
<path d="M179.641 36.1709C179.745 36.1892 179.845 36.1892 179.941 36.1709C179.989 36.161 180.016 36.1801 180.022 36.228L180.031 36.3126C180.032 36.3211 180.031 36.3297 180.029 36.3378C180.026 36.346 180.022 36.3536 180.016 36.36C180.01 36.3664 180.002 36.3716 179.994 36.3751C179.985 36.3786 179.976 36.3804 179.967 36.3803L179.416 36.3782C179.304 36.3782 179.266 36.326 179.302 36.2217C179.337 36.1244 179.368 36.0228 179.394 35.917C179.421 35.8014 179.496 35.7302 179.62 35.7034C179.754 35.6738 179.864 35.6914 179.95 35.7563C180.078 35.855 180.061 35.8945 179.9 35.8747C179.761 35.8592 179.652 35.8902 179.574 35.9678C179.558 35.9835 179.547 36.0031 179.541 36.0245C179.536 36.0459 179.537 36.0682 179.544 36.0892C179.551 36.1101 179.564 36.1287 179.581 36.1431C179.598 36.1575 179.619 36.1671 179.641 36.1709Z" fill="#15958B"/>
<path d="M153.24 36.6484H153.032C152.949 36.6484 152.907 36.6082 152.907 36.5278V36.4284C152.907 36.401 152.913 36.3739 152.924 36.3487C152.935 36.3236 152.952 36.301 152.973 36.2823C152.993 36.2636 153.018 36.2493 153.045 36.2402C153.071 36.2311 153.1 36.2275 153.128 36.2296C153.344 36.2451 153.433 36.3431 153.395 36.5236C153.388 36.5587 153.369 36.5904 153.341 36.6133C153.312 36.6361 153.277 36.6485 153.24 36.6484Z" fill="#2B5A54"/>
<path d="M153.714 36.4604C153.698 36.3842 153.743 36.3193 153.85 36.2657C153.882 36.2478 153.92 36.2397 153.957 36.2425C154.157 36.2495 154.241 36.3398 154.211 36.5133C154.197 36.5781 154.159 36.619 154.095 36.636C153.998 36.6599 153.899 36.662 153.795 36.6423C153.744 36.6324 153.719 36.6021 153.721 36.5513C153.722 36.5217 153.72 36.4914 153.714 36.4604Z" fill="#2B5A54"/>
<path d="M170.089 36.6486L169.866 36.6422C169.795 36.6408 169.75 36.6063 169.733 36.5386C169.722 36.4949 169.719 36.4518 169.722 36.4095C169.727 36.3606 169.75 36.3153 169.788 36.2827C169.826 36.2501 169.875 36.2327 169.925 36.234C170.199 36.2396 170.286 36.3574 170.185 36.5872C170.178 36.6054 170.164 36.6209 170.147 36.6318C170.13 36.6427 170.11 36.6486 170.089 36.6486Z" fill="#2B5A54"/>
<path d="M171.029 36.3783L171.01 36.5327C171.001 36.6103 170.956 36.649 170.876 36.649H170.66C170.555 36.649 170.51 36.599 170.524 36.4988L170.539 36.3952C170.553 36.3092 170.604 36.2654 170.693 36.264L170.916 36.2598C170.931 36.2594 170.947 36.2623 170.962 36.2682C170.976 36.2742 170.989 36.283 171 36.2942C171.011 36.3054 171.019 36.3187 171.024 36.3332C171.029 36.3477 171.031 36.3631 171.029 36.3783Z" fill="#2B5A54"/>
<path d="M150.198 38.5609C149.997 37.8543 149.402 37.6385 148.777 38.1229C148.727 38.1624 148.679 38.1603 148.633 38.1166L148.405 37.9051C148.354 37.8571 148.354 37.8099 148.405 37.7633C148.905 37.2965 149.457 37.2168 150.061 37.5243C150.584 37.7908 150.834 38.2915 150.811 39.0263C150.808 39.1151 150.761 39.1595 150.669 39.1595H147.495C147.321 39.1595 147.154 39.0927 147.031 38.9737C146.908 38.8546 146.839 38.6932 146.839 38.5249L146.837 36.5638C146.837 36.5564 146.838 36.5491 146.841 36.5423C146.844 36.5355 146.849 36.5293 146.854 36.5242C146.86 36.519 146.866 36.515 146.874 36.5124C146.881 36.5098 146.888 36.5085 146.896 36.5088L147.384 36.5131C147.398 36.5131 147.412 36.5186 147.422 36.5285C147.433 36.5385 147.438 36.5519 147.438 36.5659V38.3366C147.438 38.4275 147.476 38.5147 147.542 38.5789C147.609 38.6432 147.699 38.6793 147.793 38.6793L150.102 38.6814C150.118 38.6816 150.133 38.6784 150.146 38.672C150.16 38.6656 150.172 38.6561 150.182 38.6444C150.191 38.6327 150.197 38.6191 150.2 38.6046C150.203 38.5901 150.203 38.5751 150.198 38.5609Z" fill="#2B5A54"/>
<path d="M156.685 36.7457C156.708 36.5468 156.827 36.4679 157.041 36.5088C157.1 36.52 157.144 36.5475 157.175 36.5913C157.208 36.6392 157.223 36.6914 157.218 36.7478C157.21 36.8451 157.155 36.898 157.054 36.9065C156.954 36.9163 156.86 36.9065 156.772 36.8769C156.707 36.8557 156.677 36.812 156.685 36.7457Z" fill="#2B5A54"/>
<path d="M157.741 36.9279C157.707 36.9292 157.674 36.9232 157.644 36.9104C157.614 36.8976 157.587 36.8782 157.566 36.8539C157.515 36.7947 157.494 36.727 157.505 36.6508C157.518 36.5591 157.572 36.514 157.669 36.5154L157.857 36.5175C157.938 36.5189 157.989 36.5577 158.01 36.6339C158.056 36.8172 157.967 36.9152 157.741 36.9279Z" fill="#2B5A54"/>
<path d="M159.851 37.7741C159.851 37.8235 159.869 37.8305 159.904 37.7952C160.778 36.9258 162.445 37.0569 162.511 38.5187C162.516 38.6288 162.576 38.6838 162.69 38.6838L163.162 38.6795C163.361 38.6781 163.459 38.5815 163.458 38.3897L163.453 37.5774C163.453 37.5631 163.456 37.5489 163.461 37.5357C163.467 37.5225 163.475 37.5105 163.485 37.5004C163.496 37.4903 163.508 37.4824 163.522 37.4771C163.535 37.4718 163.55 37.4692 163.565 37.4695L164.009 37.4716C164.082 37.4716 164.117 37.5068 164.116 37.5774L164.09 38.5378C164.088 38.6337 164.137 38.6816 164.236 38.6816H165.601C165.715 38.6816 165.786 38.6288 165.815 38.523C165.989 37.8841 166.428 37.6542 167.134 37.8333C167.453 37.9151 167.651 38.1041 167.727 38.4003C167.98 39.3903 166.708 39.8177 166.056 39.2338C166.002 39.1858 165.938 39.1619 165.863 39.1619C162.66 39.1604 158.935 39.1597 154.687 39.1597C154.326 39.1597 154.06 39.0272 153.889 38.762C153.831 38.6732 153.759 38.6612 153.675 38.7261C153.621 38.767 153.562 38.7952 153.498 38.8107C151.967 39.1767 151.752 37.3404 152.914 36.985C153.275 36.875 153.726 36.8454 154.267 36.8962C154.364 36.9046 154.409 36.9554 154.403 37.0485C154.364 37.5858 154.386 38.1119 154.469 38.6266C154.47 38.6351 154.475 38.6393 154.484 38.6393C155.149 38.6929 155.797 38.7028 156.428 38.6689C156.459 38.6675 156.47 38.6527 156.461 38.6245C155.829 36.8412 158.932 36.8073 158.427 38.6139C158.414 38.6591 158.432 38.6816 158.48 38.6816H159.206C159.255 38.6816 159.28 38.6577 159.28 38.6097L159.276 36.5788C159.276 36.5323 159.3 36.509 159.348 36.509L159.794 36.5154C159.801 36.5154 159.808 36.5167 159.814 36.5192C159.821 36.5218 159.826 36.5255 159.831 36.5303C159.836 36.535 159.84 36.5406 159.843 36.5467C159.845 36.5529 159.847 36.5595 159.847 36.5662L159.851 37.7741ZM153.29 38.451C153.349 38.4619 153.409 38.4601 153.468 38.4458C153.526 38.4315 153.58 38.4051 153.626 38.3684C153.673 38.3317 153.71 38.2857 153.737 38.2334C153.763 38.1812 153.777 38.124 153.778 38.066L153.788 37.3637C153.79 37.2904 153.753 37.2502 153.679 37.2431C152.695 37.1394 152.509 38.3135 153.29 38.451ZM157.319 38.7446C157.38 38.7543 157.443 38.7506 157.504 38.7337C157.566 38.7168 157.624 38.687 157.675 38.646C157.727 38.605 157.771 38.5536 157.805 38.4948C157.839 38.436 157.863 38.3708 157.874 38.3031C157.897 38.1664 157.87 38.0274 157.799 37.9168C157.727 37.8061 157.617 37.733 157.493 37.7133C157.432 37.7035 157.369 37.7072 157.307 37.7241C157.246 37.741 157.188 37.7708 157.136 37.8118C157.085 37.8528 157.041 37.9042 157.007 37.963C156.972 38.0219 156.949 38.087 156.938 38.1547C156.914 38.2915 156.942 38.4305 157.013 38.5411C157.084 38.6517 157.194 38.7249 157.319 38.7446ZM160 38.377C159.818 38.5801 159.865 38.6809 160.142 38.6795L161.754 38.6753C161.776 38.6753 161.797 38.6707 161.817 38.6617C161.837 38.6527 161.854 38.6397 161.869 38.6234C161.883 38.6071 161.893 38.588 161.899 38.5673C161.905 38.5467 161.906 38.5251 161.903 38.5039C161.811 37.9454 161.499 37.6881 160.966 37.7318C160.7 37.7536 160.452 37.8749 160.275 38.0703L160 38.377ZM166.761 39.1C166.819 39.1026 166.877 39.0928 166.931 39.071C166.986 39.0492 167.036 39.016 167.08 38.9731C167.123 38.9302 167.158 38.8786 167.183 38.8212C167.208 38.7637 167.222 38.7016 167.225 38.6383C167.229 38.575 167.22 38.5119 167.201 38.4524C167.181 38.3929 167.152 38.3383 167.113 38.2917C167.074 38.2451 167.027 38.2074 166.975 38.1807C166.922 38.1541 166.866 38.139 166.808 38.1364C166.75 38.1337 166.692 38.1436 166.637 38.1653C166.582 38.1871 166.532 38.2204 166.489 38.2632C166.446 38.3061 166.41 38.3577 166.385 38.4152C166.36 38.4726 166.346 38.5348 166.343 38.598C166.34 38.6613 166.348 38.7245 166.367 38.7839C166.387 38.8434 166.417 38.898 166.455 38.9446C166.494 38.9912 166.541 39.0289 166.594 39.0556C166.646 39.0823 166.703 39.0973 166.761 39.1Z" fill="#2B5A54"/>
<path d="M177.074 38.5209C177.129 37.4779 178.97 37.5372 179.001 38.6139C179.025 39.4665 177.87 39.75 177.293 39.2422C177.232 39.1872 177.159 39.1597 177.076 39.1597L175.924 39.1576C175.764 39.1576 175.611 39.0963 175.498 38.9872C175.386 38.8781 175.322 38.7302 175.322 38.5759V36.5662C175.322 36.5281 175.342 36.509 175.381 36.509L175.869 36.5133C175.883 36.5133 175.896 36.5188 175.906 36.5288C175.916 36.5387 175.922 36.5521 175.922 36.5662L175.917 38.3326C175.917 38.5625 176.036 38.6781 176.274 38.6795L176.897 38.6838C177.009 38.6838 177.068 38.6295 177.074 38.5209ZM178.004 39.0961C178.062 39.0976 178.121 39.0867 178.175 39.064C178.23 39.0414 178.28 39.0074 178.323 38.9641C178.366 38.9208 178.4 38.8689 178.424 38.8115C178.448 38.7541 178.461 38.6922 178.463 38.6295C178.466 38.5027 178.422 38.38 178.341 38.2882C178.26 38.1965 178.148 38.1432 178.03 38.1402C177.971 38.1388 177.913 38.1496 177.858 38.1723C177.803 38.1949 177.753 38.2289 177.711 38.2722C177.668 38.3156 177.634 38.3674 177.61 38.4248C177.586 38.4823 177.572 38.5441 177.571 38.6069C177.567 38.7336 177.611 38.8564 177.692 38.9481C177.773 39.0399 177.886 39.0931 178.004 39.0961Z" fill="#2C615A"/>
<path d="M179.826 36.5215H179.419C179.363 36.5215 179.318 36.5651 179.318 36.6188V39.0643C179.318 39.118 179.363 39.1616 179.419 39.1616H179.826C179.881 39.1616 179.926 39.118 179.926 39.0643V36.6188C179.926 36.5651 179.881 36.5215 179.826 36.5215Z" fill="#2C615A"/>
<path d="M142.927 38.6817L145.639 38.6796C145.682 38.6796 145.724 38.6629 145.755 38.6331C145.785 38.6034 145.803 38.563 145.803 38.521L145.814 37.6155C145.814 37.5955 145.818 37.5758 145.826 37.5574C145.835 37.539 145.846 37.5224 145.861 37.5084C145.876 37.4945 145.894 37.4835 145.913 37.4761C145.932 37.4687 145.953 37.465 145.973 37.4653L146.275 37.4717C146.355 37.4731 146.394 37.5126 146.391 37.5901C146.369 38.1592 146.632 39.145 145.717 39.1535C144.748 39.1634 143.78 39.1648 142.813 39.1577C142.731 39.1563 142.671 39.1902 142.631 39.2593C142.235 39.932 141.642 40.2077 140.853 40.0864C139.853 39.9327 139.379 39.2586 139.432 38.064C139.433 38.033 139.45 38.0175 139.482 38.0175L139.943 38.028C139.98 38.028 139.997 38.0464 139.996 38.083C139.936 38.9701 140.274 39.4638 141.011 39.5639C141.434 39.6231 141.763 39.4913 141.999 39.1683C142.38 38.65 142.233 37.2517 142.24 36.6297C142.24 36.5888 142.261 36.5684 142.303 36.5684H142.734C142.769 36.5684 142.787 36.5853 142.787 36.6191L142.789 38.5506C142.789 38.638 142.835 38.6817 142.927 38.6817Z" fill="#2B5A54"/>
<path d="M146.052 37.0252L146.444 37.078C146.477 37.0823 146.494 37.0999 146.494 37.1309L146.496 37.1944C146.498 37.2184 146.487 37.2304 146.463 37.2304H145.895C145.795 37.2304 145.754 37.1831 145.77 37.0886C145.849 36.65 146.086 36.509 146.481 36.6655C146.49 36.6698 146.492 36.6761 146.489 36.6846L146.472 36.7375C146.46 36.7755 146.435 36.791 146.395 36.784C146.237 36.7558 146.107 36.7939 146.006 36.8982C145.938 36.9702 145.953 37.0125 146.052 37.0252Z" fill="#2B5A54"/>
<path d="M163.741 37.2573C163.891 37.2444 164.003 37.1425 163.993 37.0296C163.982 36.9167 163.853 36.8356 163.704 36.8485C163.555 36.8614 163.442 36.9633 163.452 37.0762C163.463 37.1891 163.592 37.2702 163.741 37.2573Z" fill="#2B5A54"/>
<path d="M174.34 37.1628C174.251 36.9526 174.345 36.8469 174.622 36.8455C174.655 36.8454 174.687 36.853 174.715 36.8676C174.744 36.8821 174.768 36.9033 174.787 36.9291C174.805 36.955 174.817 36.9848 174.82 37.0159C174.824 37.047 174.82 37.0786 174.808 37.1078C174.764 37.2192 174.657 37.2714 174.487 37.2643C174.417 37.2601 174.368 37.2262 174.34 37.1628Z" fill="#15958B"/>
<path d="M170.533 38.7198C169.984 38.9969 169.08 38.8805 169.017 38.138C168.912 36.8835 170.15 36.7968 171.099 36.9004C171.182 36.9089 171.224 36.954 171.224 37.0358V38.339C171.224 38.4299 171.261 38.517 171.328 38.5813C171.394 38.6456 171.484 38.6817 171.578 38.6817H174.071C174.1 38.6817 174.129 38.6762 174.156 38.6654C174.183 38.6547 174.207 38.6389 174.228 38.6191C174.248 38.5993 174.264 38.5757 174.275 38.5498C174.287 38.5239 174.292 38.4961 174.292 38.468L174.297 37.6218C174.297 37.5203 174.349 37.4695 174.454 37.4695L174.738 37.4674C174.771 37.4674 174.803 37.4801 174.827 37.5027C174.85 37.5253 174.863 37.556 174.863 37.588L174.861 38.6394C174.86 38.7757 174.804 38.9064 174.705 39.003C174.605 39.0996 174.47 39.1544 174.329 39.1556C173.463 39.1612 172.533 39.1626 171.539 39.1598C171.17 39.1584 170.885 39.0237 170.686 38.7557C170.645 38.7007 170.594 38.6887 170.533 38.7198ZM170.137 38.4469C170.686 38.4532 170.662 37.7297 170.609 37.3489C170.602 37.2841 170.564 37.2481 170.495 37.241C169.866 37.1776 169.404 37.6409 169.737 38.2184C169.776 38.2872 169.834 38.3445 169.905 38.3846C169.975 38.4248 170.055 38.4462 170.137 38.4469Z" fill="#2B5A54"/>
<path d="M142.881 43.6805C140.749 44.916 139.925 41.1144 142.302 41.1504C142.777 41.1575 143.115 41.3986 143.317 41.8739C143.347 41.9444 143.33 42.0008 143.264 42.0431C143.2 42.0854 143.129 42.0946 143.05 42.0706C142.984 42.0495 142.934 42.0107 142.899 41.9543C142.642 41.5439 142.285 41.4311 141.827 41.6158C141.051 41.9289 141.138 43.4161 142.05 43.5303C142.466 43.5839 142.771 43.4168 142.965 43.0289C142.978 43.0005 142.985 42.969 142.982 42.9376C142.98 42.9062 142.97 42.8758 142.952 42.8495C142.935 42.8232 142.911 42.8017 142.882 42.7872C142.854 42.7727 142.822 42.7656 142.79 42.7666L142.247 42.7814C142.237 42.7817 142.226 42.7799 142.216 42.7762C142.206 42.7724 142.197 42.7668 142.19 42.7596C142.183 42.7525 142.177 42.7439 142.173 42.7346C142.169 42.7252 142.168 42.7152 142.168 42.7053L142.177 42.4958C142.18 42.4225 142.219 42.3858 142.295 42.3858H143.251C143.339 42.3858 143.382 42.4282 143.382 42.5128L143.378 43.7461C143.378 43.8335 143.333 43.8773 143.242 43.8773C143.142 43.8773 143.079 43.8342 143.054 43.7482C143.027 43.6523 142.969 43.6297 142.881 43.6805Z" fill="#2B5A54"/>
<path d="M146.279 43.9384C146.103 43.9413 145.928 43.9079 145.764 43.84C145.6 43.772 145.45 43.6709 145.323 43.5424C145.196 43.4139 145.094 43.2605 145.023 43.091C144.953 42.9215 144.915 42.7392 144.911 42.5544C144.908 42.3697 144.939 42.1862 145.004 42.0144C145.068 41.8426 145.164 41.6859 145.287 41.5532C145.409 41.4205 145.555 41.3144 145.717 41.2409C145.878 41.1675 146.052 41.1282 146.229 41.1252C146.405 41.1222 146.58 41.1556 146.744 41.2236C146.909 41.2915 147.058 41.3926 147.186 41.5211C147.313 41.6496 147.414 41.803 147.485 41.9725C147.555 42.1421 147.593 42.3244 147.597 42.5091C147.6 42.6938 147.569 42.8773 147.504 43.0491C147.44 43.2209 147.344 43.3776 147.221 43.5103C147.099 43.6431 146.953 43.7492 146.791 43.8226C146.63 43.896 146.456 43.9354 146.279 43.9384ZM146.256 43.543C146.374 43.5428 146.49 43.5164 146.599 43.4654C146.708 43.4144 146.806 43.3398 146.889 43.2457C146.972 43.1517 147.038 43.0401 147.083 42.9173C147.128 42.7946 147.151 42.663 147.151 42.5302C147.15 42.2621 147.055 42.005 146.887 41.8157C146.718 41.6263 146.49 41.5202 146.252 41.5206C146.134 41.5208 146.018 41.5471 145.909 41.5981C145.801 41.6491 145.702 41.7238 145.619 41.8178C145.536 41.9119 145.47 42.0234 145.425 42.1462C145.38 42.269 145.357 42.4005 145.357 42.5333C145.358 42.8015 145.453 43.0585 145.621 43.2479C145.79 43.4372 146.018 43.5434 146.256 43.543Z" fill="#2B5A54"/>
<path d="M162.987 43.5241C163.3 43.5241 163.532 43.2639 163.606 42.9889C163.637 42.869 163.716 42.809 163.845 42.809H163.95C164.085 42.8076 164.131 42.869 164.087 42.9931C163.554 44.548 161.66 44.0233 161.743 42.4769C161.79 41.6124 162.2 41.1724 162.974 41.1568C163.471 41.1456 163.826 41.4086 164.039 41.9459C164.046 41.9628 164.048 41.9811 164.046 41.9991C164.043 42.017 164.035 42.0341 164.024 42.0485C164.012 42.063 163.997 42.0743 163.979 42.0816C163.962 42.0888 163.942 42.0916 163.923 42.0898L163.729 42.0686C163.651 42.0616 163.6 42.0228 163.573 41.9523C163.357 41.3874 162.609 41.4149 162.331 41.9163C162.029 42.4579 162.143 43.522 162.987 43.5241Z" fill="#2B5A54"/>
<path d="M126.362 42.7497L126.364 43.7482C126.364 43.772 126.355 43.7948 126.338 43.8118C126.32 43.8288 126.297 43.8386 126.272 43.8392L126.012 43.8413C126 43.8416 125.987 43.8394 125.976 43.835C125.964 43.8306 125.953 43.8239 125.944 43.8154C125.935 43.807 125.928 43.7968 125.923 43.7857C125.919 43.7745 125.916 43.7625 125.916 43.7503L125.92 41.271C125.92 41.2587 125.923 41.2465 125.928 41.2352C125.933 41.2239 125.94 41.2136 125.949 41.2051C125.959 41.1966 125.97 41.19 125.981 41.1857C125.993 41.1814 126.006 41.1795 126.019 41.18L126.275 41.1885C126.287 41.1888 126.299 41.1914 126.311 41.1962C126.322 41.201 126.332 41.208 126.341 41.2166C126.349 41.2253 126.356 41.2355 126.36 41.2466C126.365 41.2577 126.367 41.2696 126.367 41.2816L126.358 42.1997C126.357 42.212 126.36 42.2242 126.365 42.2357C126.369 42.2471 126.376 42.2575 126.385 42.2662C126.394 42.2749 126.405 42.2817 126.417 42.2863C126.429 42.2909 126.441 42.2931 126.454 42.2928L127.526 42.2843C127.551 42.2843 127.575 42.2747 127.592 42.2577C127.61 42.2406 127.62 42.2175 127.62 42.1933L127.613 41.2773C127.613 41.265 127.615 41.2528 127.62 41.2414C127.625 41.23 127.632 41.2196 127.641 41.2109C127.65 41.2022 127.66 41.1953 127.672 41.1908C127.684 41.1862 127.697 41.184 127.709 41.1843L127.963 41.1885C127.988 41.1885 128.012 41.1981 128.03 41.2151C128.047 41.2322 128.057 41.2553 128.057 41.2795V43.7461C128.057 43.7699 128.048 43.7927 128.03 43.8097C128.013 43.8267 127.99 43.8365 127.965 43.8371L127.712 43.8434C127.699 43.8437 127.687 43.8416 127.675 43.8371C127.663 43.8327 127.653 43.826 127.644 43.8175C127.635 43.8091 127.628 43.7989 127.623 43.7878C127.618 43.7766 127.615 43.7646 127.615 43.7525L127.618 42.7497C127.618 42.7256 127.608 42.7025 127.59 42.6854C127.572 42.6683 127.548 42.6588 127.524 42.6588H126.456C126.431 42.6588 126.407 42.6683 126.39 42.6854C126.372 42.7025 126.362 42.7256 126.362 42.7497Z" fill="#2B5A54"/>
<path d="M130.047 43.0736L129.33 43.0715C129.246 43.0715 129.189 43.1103 129.162 43.1879L128.952 43.7739C128.949 43.7847 128.942 43.7946 128.934 43.8024C128.926 43.8102 128.915 43.8157 128.904 43.8183C128.788 43.8479 128.667 43.8528 128.538 43.8331C128.492 43.826 128.476 43.8014 128.492 43.7591L129.429 41.2797C129.439 41.2508 129.459 41.2258 129.486 41.2084C129.512 41.1909 129.543 41.1819 129.575 41.1824L129.844 41.1909C129.914 41.1923 129.96 41.2247 129.982 41.2882L130.879 43.7591C130.882 43.7679 130.883 43.7773 130.881 43.7865C130.88 43.7958 130.876 43.8045 130.871 43.8122C130.865 43.8198 130.858 43.826 130.849 43.8304C130.841 43.8348 130.831 43.8372 130.822 43.8373L130.516 43.8416C130.454 43.843 130.413 43.8155 130.393 43.7591L130.201 43.1815C130.176 43.1096 130.125 43.0736 130.047 43.0736ZM129.372 42.6082C129.368 42.619 129.367 42.6306 129.368 42.6419C129.37 42.6531 129.375 42.6639 129.381 42.6732C129.388 42.6825 129.397 42.6901 129.408 42.6953C129.418 42.7006 129.43 42.7034 129.442 42.7034L129.912 42.7119C129.924 42.7121 129.935 42.7095 129.946 42.7045C129.956 42.6995 129.965 42.6922 129.972 42.6831C129.98 42.6741 129.984 42.6635 129.986 42.6523C129.988 42.6411 129.988 42.6297 129.984 42.6188L129.761 41.9567C129.757 41.9419 129.747 41.9289 129.735 41.9195C129.722 41.9102 129.707 41.905 129.691 41.9048C129.675 41.9046 129.659 41.9093 129.646 41.9182C129.633 41.9272 129.624 41.9399 129.619 41.9546L129.372 42.6082Z" fill="#2B5A54"/>
<path d="M131.686 41.1863H131.41C131.36 41.1863 131.32 41.2251 131.32 41.273V43.7524C131.32 43.8003 131.36 43.8391 131.41 43.8391H131.686C131.735 43.8391 131.775 43.8003 131.775 43.7524V41.273C131.775 41.2251 131.735 41.1863 131.686 41.1863Z" fill="#2B5A54"/>
<path d="M132.847 43.4499L133.96 43.4456C133.984 43.4456 134.007 43.4548 134.024 43.471C134.04 43.4873 134.05 43.5094 134.05 43.5324V43.7524C134.05 43.7754 134.04 43.7975 134.024 43.8137C134.007 43.83 133.984 43.8391 133.96 43.8391L132.405 43.8412C132.381 43.8412 132.359 43.8321 132.342 43.8158C132.325 43.7996 132.315 43.7775 132.315 43.7545L132.32 41.273C132.32 41.2615 132.322 41.25 132.327 41.2394C132.331 41.2287 132.338 41.219 132.347 41.2109C132.355 41.2029 132.366 41.1965 132.377 41.1923C132.388 41.1881 132.4 41.186 132.412 41.1863L132.672 41.1884C132.695 41.189 132.718 41.1984 132.734 41.2146C132.75 41.2308 132.759 41.2525 132.759 41.2752L132.757 43.3631C132.757 43.3861 132.767 43.4082 132.783 43.4245C132.8 43.4407 132.823 43.4499 132.847 43.4499Z" fill="#2B5A54"/>
<path d="M136.111 42.8642L136.119 43.7485C136.12 43.7603 136.118 43.7721 136.113 43.7831C136.109 43.7942 136.102 43.8042 136.093 43.8127C136.085 43.8212 136.075 43.8279 136.063 43.8325C136.052 43.8371 136.04 43.8395 136.028 43.8395L135.739 43.8373C135.686 43.8373 135.66 43.812 135.66 43.7612L135.669 41.3199C135.669 41.2367 135.712 41.1937 135.798 41.1909C136.367 41.1697 136.862 41.1831 137.283 41.2311C137.876 41.3009 137.915 42.109 137.58 42.439C137.535 42.4827 137.53 42.53 137.565 42.5807C137.72 42.812 137.784 43.0793 137.758 43.3825C137.752 43.4587 137.766 43.5313 137.799 43.6004C137.815 43.6328 137.836 43.6618 137.863 43.6871C137.928 43.752 137.916 43.7971 137.825 43.8225C137.712 43.8536 137.596 43.8557 137.48 43.8289C137.386 43.8077 137.336 43.7506 137.329 43.6575L137.276 42.9615C137.266 42.8219 137.189 42.7521 137.045 42.7521L136.229 42.7479C136.149 42.7479 136.109 42.7866 136.111 42.8642ZM136.095 41.688L136.1 42.255C136.1 42.2841 136.112 42.3121 136.133 42.3327C136.154 42.3534 136.183 42.365 136.213 42.365L136.957 42.3607C137.061 42.3602 137.161 42.3213 137.234 42.2528C137.307 42.1842 137.349 42.0914 137.349 41.9947V41.9397C137.349 41.8915 137.338 41.8437 137.318 41.7992C137.299 41.7546 137.269 41.7142 137.233 41.6802C137.196 41.6462 137.152 41.6193 137.104 41.601C137.056 41.5827 137.005 41.5735 136.953 41.5738L136.209 41.578C136.179 41.578 136.15 41.5896 136.129 41.6102C136.107 41.6308 136.095 41.6588 136.095 41.688Z" fill="#2B5A54"/>
<path d="M138.873 41.6623L138.884 42.2059C138.884 42.228 138.894 42.249 138.91 42.2644C138.926 42.2798 138.948 42.2885 138.971 42.2884L140.229 42.2821C140.252 42.2821 140.274 42.291 140.291 42.3069C140.307 42.3228 140.316 42.3443 140.316 42.3667L140.318 42.5888C140.318 42.6001 140.316 42.6113 140.312 42.6217C140.307 42.6321 140.3 42.6416 140.292 42.6494C140.284 42.6573 140.274 42.6635 140.263 42.6676C140.252 42.6718 140.24 42.6737 140.229 42.6735L138.971 42.6565C138.959 42.6563 138.948 42.6582 138.937 42.6624C138.926 42.6665 138.916 42.6727 138.908 42.6806C138.9 42.6884 138.893 42.6979 138.888 42.7083C138.884 42.7187 138.881 42.7299 138.881 42.7412L138.879 43.3652C138.879 43.3877 138.889 43.4092 138.905 43.4251C138.921 43.4409 138.944 43.4498 138.967 43.4498L140.349 43.4456C140.372 43.4456 140.394 43.4542 140.41 43.4696C140.426 43.4851 140.436 43.506 140.436 43.5281L140.441 43.7524C140.441 43.7637 140.439 43.7749 140.435 43.7854C140.431 43.7959 140.424 43.8055 140.416 43.8136C140.408 43.8217 140.398 43.8281 140.387 43.8325C140.377 43.8368 140.365 43.8391 140.353 43.8391L138.525 43.8412C138.513 43.8412 138.502 43.839 138.491 43.8348C138.481 43.8305 138.471 43.8243 138.463 43.8164C138.455 43.8086 138.449 43.7992 138.444 43.789C138.44 43.7787 138.438 43.7677 138.438 43.7566L138.44 41.2709C138.44 41.2485 138.449 41.2269 138.465 41.2111C138.482 41.1952 138.504 41.1863 138.527 41.1863L140.286 41.1884C140.308 41.1884 140.33 41.197 140.347 41.2124C140.363 41.2278 140.372 41.2488 140.373 41.2709L140.377 41.4909C140.378 41.5022 140.376 41.5134 140.371 41.5239C140.367 41.5345 140.361 41.544 140.353 41.5521C140.344 41.5602 140.335 41.5666 140.324 41.571C140.313 41.5754 140.302 41.5776 140.29 41.5776L138.96 41.5755C138.949 41.5755 138.937 41.5778 138.926 41.5822C138.915 41.5865 138.906 41.593 138.898 41.6011C138.889 41.6091 138.883 41.6187 138.879 41.6292C138.874 41.6397 138.872 41.651 138.873 41.6623Z" fill="#2B5A54"/>
<path d="M144.299 41.1843H144.024C143.978 41.1843 143.94 41.2203 143.94 41.2647V43.761C143.94 43.8054 143.978 43.8414 144.024 43.8414H144.299C144.345 43.8414 144.382 43.8054 144.382 43.761V41.2647C144.382 41.2203 144.345 41.1843 144.299 41.1843Z" fill="#2B5A54"/>
<path d="M149.843 42.9108V41.2586C149.843 41.2093 149.868 41.1853 149.917 41.1867L150.186 41.1909C150.25 41.1923 150.282 41.2241 150.282 41.2861V43.7126C150.282 43.7972 150.239 43.843 150.151 43.8501C150.056 43.8557 149.967 43.848 149.882 43.8268C149.816 43.8099 149.765 43.7739 149.729 43.7189L148.646 42.0519C148.573 41.9405 148.537 41.9504 148.537 42.0815L148.544 43.7168C148.544 43.8 148.501 43.8416 148.415 43.8416H148.235C148.145 43.8416 148.1 43.7979 148.1 43.7105L148.104 41.3157C148.104 41.2325 148.146 41.1874 148.231 41.1803C148.33 41.1705 148.427 41.1775 148.522 41.2015C148.584 41.2156 148.633 41.2495 148.666 41.303L149.711 42.9447C149.799 43.0815 149.843 43.0702 149.843 42.9108Z" fill="#2B5A54"/>
<path d="M154.045 42.2907C153.871 42.7364 153.71 43.2018 153.561 43.6869C153.542 43.749 153.502 43.7941 153.441 43.8223C153.338 43.8689 153.234 43.8668 153.13 43.816C153.072 43.7864 153.033 43.7384 153.012 43.6721C152.865 43.1997 152.709 42.7477 152.544 42.3161C152.477 42.137 152.444 42.1426 152.444 42.333V43.7631C152.444 43.7736 152.442 43.7839 152.437 43.7936C152.433 43.8032 152.427 43.8119 152.419 43.8192C152.411 43.8265 152.401 43.8322 152.391 43.836C152.381 43.8398 152.37 43.8417 152.358 43.8414L152.083 43.8371C152.029 43.8357 152.002 43.8089 152.002 43.7568L152.004 41.3239C152.004 41.2323 152.052 41.1864 152.146 41.1864L152.468 41.1886C152.529 41.1886 152.569 41.2168 152.588 41.2732L153.24 43.1263C153.276 43.2307 153.313 43.2307 153.349 43.1263L153.979 41.2859C154.004 41.2182 154.053 41.1843 154.128 41.1843L154.438 41.1886C154.533 41.19 154.581 41.2365 154.581 41.3282V43.7546C154.581 43.8068 154.554 43.8336 154.5 43.835L154.222 43.8435C154.165 43.8449 154.137 43.8181 154.137 43.7631L154.139 42.3076C154.139 42.1384 154.107 42.1328 154.045 42.2907Z" fill="#2B5A54"/>
<path d="M156.29 43.5473C156.693 43.5544 156.894 43.3633 156.894 42.974V41.2859C156.894 41.2595 156.905 41.2342 156.924 41.2156C156.943 41.1969 156.97 41.1864 156.997 41.1864H157.235C157.302 41.1864 157.336 41.2189 157.336 41.2837V42.9254C157.336 43.5191 157.031 43.8491 156.422 43.9154C156.317 43.9267 156.21 43.926 156.102 43.9133C155.502 43.84 155.201 43.5107 155.201 42.9254V41.2753C155.201 41.2613 155.204 41.2474 155.21 41.2346C155.216 41.2218 155.224 41.2103 155.234 41.201C155.245 41.1916 155.257 41.1845 155.271 41.1802C155.284 41.1758 155.299 41.1744 155.313 41.1759L155.549 41.1949C155.61 41.1991 155.641 41.2316 155.641 41.2922V42.9867C155.641 43.352 155.83 43.5382 156.207 43.5452L156.29 43.5473Z" fill="#2B5A54"/>
<path d="M159.683 42.9104L159.685 41.2561C159.685 41.2081 159.711 41.1841 159.762 41.1841L160.026 41.1905C160.092 41.1919 160.125 41.2236 160.125 41.2857V43.71C160.125 43.7904 160.084 43.8362 160.002 43.8475C159.808 43.8729 159.646 43.8433 159.534 43.6719C159.173 43.1078 158.824 42.5669 158.487 42.0494C158.414 41.9365 158.378 41.9464 158.38 42.079L158.388 43.7269C158.388 43.8031 158.35 43.8412 158.272 43.8412H158.078C157.989 43.8412 157.944 43.7975 157.944 43.71L157.947 41.3132C157.947 41.2314 157.989 41.1862 158.073 41.1778C158.173 41.1693 158.267 41.1764 158.358 41.1989C158.423 41.2144 158.474 41.2504 158.511 41.3068L159.554 42.9463C159.64 43.0817 159.683 43.0697 159.683 42.9104Z" fill="#2B5A54"/>
<path d="M161.148 41.1885H160.833C160.798 41.1885 160.77 41.2159 160.77 41.2498V43.7757C160.77 43.8096 160.798 43.8371 160.833 43.8371H161.148C161.183 43.8371 161.211 43.8096 161.211 43.7757V41.2498C161.211 41.2159 161.183 41.1885 161.148 41.1885Z" fill="#2B5A54"/>
<path d="M164.944 41.1864L164.664 41.1859C164.618 41.1859 164.581 41.2218 164.581 41.2662L164.576 43.7582C164.576 43.8026 164.613 43.8387 164.659 43.8387L164.939 43.8392C164.985 43.8393 165.022 43.8034 165.023 43.759L165.027 41.2669C165.027 41.2225 164.99 41.1865 164.944 41.1864Z" fill="#2B5A54"/>
<path d="M166.13 42.8681L166.128 43.7502C166.128 43.8067 166.098 43.8356 166.04 43.837L165.795 43.8433C165.782 43.8436 165.768 43.8413 165.756 43.8365C165.744 43.8318 165.732 43.8246 165.723 43.8156C165.713 43.8065 165.705 43.7957 165.7 43.7838C165.695 43.7718 165.692 43.759 165.692 43.746V41.3132C165.692 41.2286 165.737 41.1863 165.826 41.1863L167.024 41.1905C167.143 41.1905 167.258 41.2237 167.357 41.2861C167.456 41.3485 167.534 41.4373 167.582 41.5417C167.77 41.9535 167.716 42.299 167.42 42.5783C167.136 42.8469 166.62 42.7539 166.252 42.7517C166.171 42.7503 166.13 42.7891 166.13 42.8681ZM166.117 41.6876V42.2715C166.117 42.3013 166.129 42.3298 166.151 42.3508C166.172 42.3718 166.202 42.3836 166.233 42.3836H166.838C166.946 42.3836 167.05 42.3444 167.126 42.2746C167.202 42.2047 167.245 42.1101 167.245 42.0113V41.9479C167.245 41.899 167.235 41.8505 167.214 41.8054C167.194 41.7602 167.164 41.7191 167.126 41.6846C167.088 41.65 167.043 41.6226 166.994 41.6039C166.945 41.5851 166.892 41.5755 166.838 41.5755H166.233C166.202 41.5755 166.172 41.5873 166.151 41.6084C166.129 41.6294 166.117 41.6579 166.117 41.6876Z" fill="#2B5A54"/>
<path d="M168.5 43.2048L168.316 43.7358C168.291 43.8078 168.239 43.843 168.161 43.8416H167.933C167.852 43.8402 167.825 43.8021 167.852 43.7274L168.76 41.3072C168.771 41.2792 168.788 41.2543 168.811 41.2348C168.834 41.2152 168.862 41.2016 168.891 41.1951C168.989 41.174 169.088 41.1733 169.189 41.193C169.263 41.2071 169.313 41.2494 169.34 41.3199L170.214 43.7295C170.242 43.8042 170.214 43.8416 170.131 43.8416H169.899C169.812 43.8416 169.754 43.8007 169.727 43.7189L169.552 43.1921C169.524 43.1132 169.467 43.0737 169.381 43.0737H168.69C168.594 43.0723 168.53 43.116 168.5 43.2048ZM168.718 42.6083C168.715 42.6189 168.714 42.6302 168.715 42.6414C168.717 42.6525 168.721 42.6631 168.728 42.6724C168.734 42.6816 168.743 42.6893 168.753 42.6947C168.763 42.7001 168.775 42.7031 168.786 42.7035L169.259 42.714C169.271 42.7143 169.282 42.7118 169.293 42.7067C169.304 42.7016 169.313 42.694 169.32 42.6847C169.327 42.6753 169.332 42.6645 169.334 42.653C169.336 42.6415 169.335 42.6298 169.331 42.6188L169.108 41.9609C169.103 41.9469 169.093 41.9347 169.081 41.926C169.069 41.9173 169.054 41.9125 169.038 41.9122C169.023 41.912 169.008 41.9164 168.995 41.9247C168.983 41.933 168.973 41.9449 168.968 41.9588L168.718 42.6083Z" fill="#2B5A54"/>
<path d="M171.083 43.4481H172.223C172.243 43.4481 172.263 43.4558 172.278 43.4696C172.293 43.4835 172.301 43.5023 172.302 43.5221L172.306 43.7612C172.306 43.7714 172.305 43.7815 172.301 43.791C172.297 43.8005 172.291 43.8091 172.284 43.8164C172.276 43.8237 172.268 43.8295 172.258 43.8335C172.248 43.8374 172.238 43.8395 172.227 43.8395L170.637 43.8416C170.616 43.8416 170.596 43.8335 170.582 43.8193C170.567 43.805 170.559 43.7856 170.559 43.7654L170.567 41.2586C170.567 41.2484 170.569 41.2383 170.574 41.2289C170.578 41.2195 170.584 41.211 170.591 41.2039C170.599 41.1968 170.608 41.1913 170.617 41.1876C170.627 41.1839 170.638 41.1821 170.648 41.1824L170.928 41.1887C170.949 41.1893 170.968 41.1976 170.982 41.2118C170.997 41.226 171.005 41.2451 171.005 41.2649V43.3719C171.005 43.3921 171.013 43.4115 171.028 43.4258C171.043 43.4401 171.063 43.4481 171.083 43.4481Z" fill="#2B5A54"/>
<path d="M173.208 41.1885H172.897C172.858 41.1885 172.827 41.2188 172.827 41.2562V43.7694C172.827 43.8068 172.858 43.8371 172.897 43.8371H173.208C173.246 43.8371 173.278 43.8068 173.278 43.7694V41.2562C173.278 41.2188 173.246 41.1885 173.208 41.1885Z" fill="#2B5A54"/>
<path d="M174.997 41.658L174.999 43.7608C174.999 43.7723 174.997 43.7837 174.992 43.7942C174.987 43.8048 174.98 43.8143 174.972 43.8222C174.963 43.8301 174.953 43.8363 174.942 43.8403C174.931 43.8443 174.919 43.846 174.907 43.8454L174.64 43.8349C174.618 43.8338 174.597 43.8244 174.581 43.8086C174.566 43.7929 174.557 43.772 174.557 43.7502L174.559 41.6623C174.559 41.6398 174.55 41.6183 174.534 41.6024C174.517 41.5866 174.495 41.5776 174.472 41.5776L173.774 41.5755C173.751 41.5755 173.729 41.5666 173.712 41.5507C173.696 41.5349 173.687 41.5134 173.687 41.4909L173.685 41.2709C173.685 41.2485 173.694 41.2269 173.71 41.2111C173.727 41.1952 173.749 41.1863 173.772 41.1863L175.775 41.1926C175.787 41.1926 175.799 41.1949 175.81 41.1994C175.821 41.204 175.831 41.2106 175.839 41.2189C175.847 41.2272 175.853 41.237 175.858 41.2478C175.862 41.2586 175.864 41.27 175.863 41.2815L175.848 41.5078C175.846 41.5292 175.836 41.5491 175.82 41.5636C175.804 41.5781 175.782 41.5862 175.76 41.5861L175.086 41.5734C175.075 41.5731 175.063 41.5751 175.052 41.5792C175.041 41.5834 175.032 41.5896 175.023 41.5974C175.015 41.6053 175.008 41.6147 175.004 41.6252C174.999 41.6356 174.997 41.6467 174.997 41.658Z" fill="#2B5A54"/>
<path d="M177.369 42.2292L177.956 41.2476C177.967 41.2277 177.985 41.2113 178.006 41.2001C178.027 41.1889 178.051 41.1834 178.076 41.1842L178.4 41.1947C178.481 41.1976 178.501 41.2328 178.459 41.3005C178.215 41.694 177.95 42.0995 177.665 42.5169C177.42 42.8723 177.494 43.3356 177.503 43.7376C177.504 43.8024 177.472 43.8356 177.404 43.837L177.173 43.8412C177.082 43.844 177.04 43.8017 177.046 43.7143C177.072 43.306 177.142 42.8935 176.89 42.5275C176.605 42.1143 176.338 41.7053 176.09 41.3005C176.04 41.2215 176.063 41.182 176.158 41.182L176.381 41.1799C176.486 41.1799 176.565 41.2237 176.619 41.3111L177.179 42.2313C177.243 42.3357 177.307 42.335 177.369 42.2292Z" fill="#2B5A54"/>
</svg>
