<svg width="397" height="94" viewBox="0 0 397 94" fill="none" xmlns="http://www.w3.org/2000/svg">
<path d="M338.645 31.5817L349.048 13.9016C349.061 13.8799 349.079 13.8619 349.1 13.8494C349.122 13.8369 349.147 13.8303 349.172 13.8303C349.197 13.8303 349.222 13.8369 349.244 13.8494C349.266 13.8619 349.284 13.8799 349.296 13.9016L359.699 31.5817C359.712 31.6031 359.719 31.6275 359.72 31.6525C359.72 31.6775 359.713 31.7021 359.701 31.7238C359.688 31.7454 359.67 31.7634 359.648 31.7757C359.626 31.7881 359.601 31.7944 359.575 31.7941H338.769C338.744 31.7944 338.719 31.7881 338.697 31.7757C338.675 31.7634 338.656 31.7454 338.644 31.7238C338.631 31.7021 338.624 31.6775 338.625 31.6525C338.625 31.6275 338.632 31.6031 338.645 31.5817Z" fill="#105655"/>
<path d="M244.356 28.5358C244.281 28.5833 244.224 28.6527 244.192 28.7342C244.16 28.8156 244.155 28.9049 244.177 28.9895C244.199 29.074 244.248 29.1495 244.316 29.2052C244.385 29.2608 244.469 29.2939 244.558 29.2996L246.095 29.3855C246.227 29.3931 246.352 29.448 246.445 29.5397C246.538 29.6315 246.593 29.7536 246.6 29.8826L246.609 30.086C246.627 30.4717 246.441 30.6645 246.049 30.6645L242.704 30.6826C242.126 30.6856 241.931 30.4174 242.121 29.8781L242.805 27.9483C242.894 27.696 243.058 27.4763 243.277 27.3188C243.496 27.1613 243.759 27.0735 244.03 27.067L245.411 27.0354C245.849 27.0263 246.12 27.2297 246.224 27.6455C246.276 27.8654 246.204 28.0658 246.008 28.2466C245.945 28.3058 245.868 28.3481 245.783 28.3695C245.699 28.3908 245.61 28.3905 245.526 28.3686C245.095 28.2601 244.705 28.3159 244.356 28.5358Z" fill="#1A3F3D"/>
<path d="M28.7257 33.2587C28.7169 33.294 28.716 33.3308 28.7233 33.3665C28.7305 33.4022 28.7456 33.4359 28.7674 33.4652C28.7893 33.4945 28.8175 33.5187 28.8499 33.5361C28.8823 33.5536 28.9182 33.5638 28.9551 33.566L31.2312 33.6926C31.3277 33.6981 31.4219 33.7237 31.5076 33.7677C31.5933 33.8117 31.6685 33.8731 31.7283 33.9478C31.7882 34.0226 31.8313 34.109 31.8547 34.2013C31.8782 34.2936 31.8815 34.3898 31.8645 34.4835C31.7941 34.8571 31.5632 35.065 31.1716 35.1072C29.7459 35.2638 28.4243 35.315 27.2067 35.2608C27.1296 35.2572 27.0542 35.2372 26.9858 35.202C26.9173 35.1669 26.8574 35.1175 26.8103 35.0574C26.7632 34.9972 26.7299 34.9276 26.7127 34.8535C26.6956 34.7793 26.6951 34.7024 26.7111 34.6281C27.1425 32.6847 27.0828 30.8453 29.5517 30.4566C30.1696 30.3572 30.7127 30.4386 31.1807 30.7007C31.2628 30.7467 31.3294 30.8152 31.3726 30.8979C31.4157 30.9806 31.4335 31.0738 31.4238 31.1663C31.414 31.2588 31.3772 31.3464 31.3178 31.4186C31.2583 31.4908 31.1788 31.5445 31.089 31.5729C30.1207 31.8757 29.0148 32.1469 28.7257 33.2587Z" fill="#1A3F3D"/>
<path d="M70.8868 32.5447L68.7392 32.5262C68.5644 32.5247 68.4214 32.6631 68.4198 32.8353L68.4015 34.9052C68.4 35.0774 68.5405 35.2182 68.7154 35.2197L70.8629 35.2382C71.0378 35.2397 71.1808 35.1013 71.1823 34.9291L71.2006 32.8592C71.2022 32.687 71.0616 32.5462 70.8868 32.5447Z" fill="#1A3F3D"/>
<path d="M75.0885 32.5371L72.8768 32.5067C72.7096 32.5044 72.5721 32.636 72.5697 32.8008L72.5398 34.9157C72.5374 35.0804 72.6711 35.2158 72.8384 35.2181L75.05 35.2485C75.2173 35.2508 75.3548 35.1191 75.3571 34.9544L75.3871 32.8395C75.3894 32.6748 75.2557 32.5394 75.0885 32.5371Z" fill="#1A3F3D"/>
<path d="M95.6916 32.5294L93.5716 32.5512C93.3891 32.5531 93.2428 32.7003 93.2447 32.88L93.2664 34.9227C93.2683 35.1024 93.4178 35.2466 93.6002 35.2447L95.7202 35.2228C95.9027 35.2209 96.0491 35.0737 96.0471 34.894L96.0254 32.8514C96.0235 32.6717 95.874 32.5275 95.6916 32.5294Z" fill="#1A3F3D"/>
<path d="M99.9934 32.5164L97.5706 32.5372C97.4717 32.5381 97.3923 32.6177 97.3932 32.715L97.4141 35.0831C97.415 35.1805 97.4958 35.2587 97.5947 35.2578L100.018 35.237C100.116 35.2362 100.196 35.1566 100.195 35.0592L100.174 32.6911C100.173 32.5938 100.092 32.5155 99.9934 32.5164Z" fill="#1A3F3D"/>
<path d="M183.231 32.5336L181.02 32.5184C180.862 32.5174 180.734 32.6419 180.733 32.7967L180.718 34.9479C180.717 35.1026 180.843 35.229 181 35.23L183.212 35.2452C183.369 35.2463 183.498 35.1218 183.499 34.967L183.514 32.8158C183.515 32.661 183.389 32.5347 183.231 32.5336Z" fill="#1A3F3D"/>
<path d="M187.473 32.5152L185.078 32.5194C184.974 32.5195 184.89 32.6026 184.89 32.705L184.894 35.0551C184.895 35.1574 184.979 35.2402 185.083 35.2401L187.478 35.2359C187.582 35.2358 187.666 35.1527 187.666 35.0503L187.662 32.7002C187.662 32.5979 187.577 32.5151 187.473 32.5152Z" fill="#1A3F3D"/>
<path d="M206.814 35.2702L204.515 35.1979C204.446 35.1956 204.382 35.1676 204.334 35.1196C204.286 35.0717 204.259 35.0075 204.258 34.9403L204.212 32.8071C204.211 32.7727 204.217 32.7385 204.23 32.7064C204.243 32.6744 204.262 32.6452 204.286 32.6204C204.311 32.5957 204.34 32.5759 204.372 32.5621C204.404 32.5484 204.438 32.541 204.473 32.5405L206.814 32.5133C206.849 32.5127 206.884 32.5191 206.917 32.532C206.95 32.5449 206.98 32.5641 207.005 32.5885C207.03 32.6129 207.05 32.642 207.064 32.6741C207.077 32.7062 207.084 32.7407 207.084 32.7755L207.089 35.0081C207.089 35.0433 207.082 35.0781 207.068 35.1105C207.054 35.1429 207.034 35.1722 207.008 35.1967C206.982 35.2212 206.952 35.2403 206.918 35.2529C206.885 35.2655 206.849 35.2714 206.814 35.2702Z" fill="#1A3F3D"/>
<path d="M12.4944 44.2277C12.4944 44.5019 12.6336 44.6405 12.912 44.6435L28.1794 44.7474C28.3141 44.7474 28.3737 44.6811 28.3584 44.5486C28.0739 42.0358 27.9485 39.6269 27.9821 37.322C27.9852 36.9815 28.1596 36.8082 28.5053 36.8022L30.3546 36.7706C30.4464 36.769 30.5375 36.7864 30.622 36.8217C30.7065 36.8569 30.7826 36.9092 30.8453 36.9753C30.908 37.0413 30.956 37.1195 30.9861 37.2049C31.0162 37.2903 31.0277 37.381 31.02 37.4711C30.7294 40.9903 30.6284 44.0153 30.7171 46.5462C30.7214 46.6368 30.6909 46.7259 30.6315 46.796C30.5722 46.8662 30.4882 46.9124 30.3959 46.9258C30.0319 46.98 29.6678 47.0087 29.3037 47.0117C23.7786 47.0569 18.2444 47.0975 12.7009 47.1337C12.5541 47.1337 12.4822 47.206 12.4852 47.3506C12.5128 49.7685 10.4156 51.6034 8.089 52.0237C4.16086 52.7378 -0.3868 50.8803 0.0262064 46.3609C0.18529 44.6164 0.40403 42.9381 0.682426 41.3262C0.713019 41.1514 0.817036 41.0776 0.994475 41.1047L3.188 41.4121C3.38073 41.4392 3.46333 41.5492 3.4358 41.742C3.21859 43.1249 3.00903 44.66 2.80711 46.3473C2.39411 49.7821 6.50122 50.4148 8.69933 49.1765C9.41827 48.7697 9.77162 48.0647 9.75938 47.0614C9.69819 42.1382 9.71808 37.3973 9.81904 32.8387C9.82023 32.7987 9.83671 32.7608 9.86498 32.733C9.89325 32.7051 9.93109 32.6895 9.97047 32.6895L12.32 32.6805C12.4302 32.6805 12.4852 32.7347 12.4852 32.8432L12.4944 44.2277Z" fill="#1A3F3D"/>
<path d="M37.0681 44.7923C40.519 44.8239 43.947 44.598 47.4438 44.6341C50.9956 44.6733 54.5995 44.6869 58.2553 44.6748C58.3049 44.6737 58.3521 44.6538 58.3871 44.6193C58.4221 44.5848 58.4423 44.5383 58.4435 44.4895C58.4619 43.3054 58.4527 42.2072 58.416 41.1948C58.3196 38.5012 54.2767 39.3057 52.666 39.5C52.6262 39.5051 52.5857 39.5023 52.547 39.4918C52.5083 39.4813 52.4721 39.4633 52.4405 39.439C52.4089 39.4146 52.3826 39.3842 52.363 39.3497C52.3434 39.3152 52.331 39.2772 52.3264 39.2379L52.1429 37.6697C52.1153 37.4316 52.2193 37.2825 52.4549 37.2222C56.3509 36.1828 61.1602 36.7522 61.2841 41.7552C61.3299 43.4847 61.3452 45.1674 61.3299 46.8035C61.3269 46.9873 61.2336 47.0792 61.05 47.0792C53.8239 47.1485 46.7233 47.1304 39.7481 47.0249C38.0089 47.0023 36.233 47.1741 34.5167 46.921C34.4247 46.9069 34.3408 46.861 34.2802 46.7913C34.2196 46.7217 34.1863 46.633 34.1863 46.5413L34.2505 33.1547C34.2505 32.7781 34.4417 32.5988 34.8241 32.6169L36.1779 32.6802C36.5664 32.6983 36.7714 32.9001 36.7928 33.2858C36.8265 33.9366 36.831 34.5814 36.8066 35.2201C36.6873 38.4108 36.6766 41.5067 36.7744 44.5076C36.7806 44.6944 36.8785 44.7893 37.0681 44.7923Z" fill="#1A3F3D"/>
<path d="M119.614 39.5633C121.408 37.7917 123.157 36.6031 125.69 36.811C126.95 36.9134 127.932 37.3187 128.636 38.0267C130.343 39.7441 130.127 42.1575 130.004 44.3675C130.002 44.4078 130.008 44.448 130.023 44.4858C130.037 44.5236 130.059 44.5581 130.087 44.5872C130.116 44.6164 130.15 44.6396 130.187 44.6554C130.225 44.6712 130.265 44.6794 130.306 44.6793L145.51 44.6929C145.538 44.6929 145.564 44.6819 145.584 44.6624C145.604 44.643 145.615 44.6165 145.615 44.589L145.652 36.9963C145.655 36.8516 145.73 36.7793 145.877 36.7793L148.226 36.7748C148.336 36.7748 148.392 36.829 148.392 36.9375L148.272 44.485C148.272 44.5097 148.276 44.5343 148.285 44.5573C148.294 44.5803 148.308 44.6013 148.326 44.619C148.343 44.6366 148.364 44.6507 148.387 44.6603C148.41 44.6699 148.435 44.6748 148.46 44.6748L163.76 44.6793C163.791 44.679 163.821 44.6723 163.849 44.6596C163.876 44.6468 163.901 44.6284 163.921 44.6056C163.94 44.5828 163.955 44.5561 163.963 44.5275C163.97 44.4989 163.972 44.4689 163.966 44.4398C163.664 42.62 163.72 40.7233 164.136 38.7498C164.191 38.4877 164.223 38.2195 164.233 37.9454C164.251 37.4783 164.505 37.2072 164.994 37.1319C168.656 36.5624 173.667 36.1828 173.929 40.9463C174.018 42.5281 174.036 44.5001 173.984 46.8622C173.978 47.034 173.889 47.1198 173.718 47.1198C138.793 47.0957 104.89 47.0957 72.0084 47.1198C71.1181 47.1198 70.263 47.0264 69.4431 46.8396C66.5934 46.1888 66.6118 42.8399 66.8183 40.5124C67.0324 38.1081 68.3571 36.8742 70.7923 36.811C72.5912 36.7628 74.3717 36.7311 76.1338 36.7161C76.2117 36.7161 76.2864 36.7465 76.3415 36.8008C76.3966 36.855 76.4275 36.9286 76.4275 37.0053L76.4688 44.4534C76.47 44.5125 76.4947 44.5688 76.5376 44.6102C76.5805 44.6516 76.6382 44.6748 76.6983 44.6748L91.3875 44.6793C91.5803 44.6793 91.6583 44.5859 91.6216 44.3991C91.1718 42.0716 90.8873 37.2991 94.3933 36.9466C96.2136 36.7628 98.375 36.695 100.877 36.7432C101.049 36.7462 101.134 36.8336 101.134 37.0053L101.162 44.3585C101.162 44.4484 101.198 44.5346 101.263 44.5981C101.327 44.6617 101.415 44.6974 101.506 44.6974H116.264C116.497 44.6974 116.613 44.5829 116.613 44.3539L116.604 32.9152C116.604 32.7435 116.691 32.6576 116.865 32.6576L119.132 32.6666C119.298 32.6666 119.38 32.7495 119.38 32.9152L119.362 39.4594C119.362 39.6944 119.446 39.729 119.614 39.5633ZM73.7063 44.3946L73.7155 39.4594C73.7155 39.3803 73.6836 39.3044 73.6268 39.2484C73.57 39.1925 73.4929 39.1611 73.4126 39.1611L71.063 39.1566C70.6493 39.1554 70.2519 39.3242 69.9585 39.626C69.665 39.9277 69.4994 40.3376 69.4982 40.7655V43.0704C69.4976 43.2823 69.5374 43.4922 69.6152 43.6882C69.6931 43.8842 69.8075 44.0624 69.9519 44.2126C70.0964 44.3629 70.2681 44.4822 70.4571 44.5638C70.6462 44.6455 70.849 44.6878 71.0539 44.6884L73.4034 44.6929C73.4837 44.6929 73.5608 44.6615 73.6176 44.6055C73.6744 44.5496 73.7063 44.4737 73.7063 44.3946ZM98.3306 44.2726L98.3398 39.5724C98.3398 39.4645 98.2963 39.361 98.2188 39.2847C98.1414 39.2085 98.0363 39.1656 97.9268 39.1656L95.6553 39.1611C95.2678 39.1608 94.8962 39.2791 94.6218 39.4901C94.3474 39.701 94.1926 39.9874 94.1914 40.2864L94.1822 43.5404C94.1816 43.6891 94.219 43.8364 94.2923 43.974C94.3656 44.1115 94.4733 44.2366 94.6093 44.3419C94.7453 44.4473 94.9069 44.531 95.0848 44.5881C95.2627 44.6452 95.4534 44.6747 95.6461 44.6748L97.9176 44.6793C97.9719 44.6793 98.0256 44.6688 98.0757 44.6484C98.1258 44.6279 98.1713 44.598 98.2096 44.5602C98.248 44.5224 98.2784 44.4776 98.2992 44.4282C98.3199 44.3789 98.3306 44.326 98.3306 44.2726ZM119.72 44.6658L127.035 44.6839C127.105 44.6839 127.173 44.6562 127.223 44.6071C127.273 44.5579 127.301 44.4913 127.301 44.4217C127.301 42.9122 127.805 39.6853 125.773 39.3057C123.483 38.8809 121.041 41.1135 119.734 42.8083C119.376 43.2753 119.255 43.7996 119.371 44.3811C119.387 44.4615 119.431 44.5339 119.494 44.5858C119.558 44.6378 119.638 44.6661 119.72 44.6658ZM166.72 40.1644C166.576 41.7583 166.564 43.1593 166.683 44.3675C166.701 44.5664 166.812 44.6673 167.013 44.6703L170.9 44.6884C171.108 44.6884 171.217 44.5859 171.226 44.3811C171.287 43.1698 171.264 41.9707 171.157 40.7836C171.078 39.8887 170.582 39.4021 169.671 39.3238L167.922 39.1701C167.188 39.1069 166.787 39.4383 166.72 40.1644Z" fill="#1A3F3D"/>
<path d="M148.016 32.6192L146.125 32.5802C145.935 32.5762 145.778 32.7248 145.774 32.9119L145.733 34.8639C145.729 35.0511 145.879 35.206 146.069 35.2099L147.96 35.2489C148.15 35.2528 148.307 35.1043 148.311 34.9171L148.352 32.9651C148.356 32.778 148.206 32.6231 148.016 32.6192Z" fill="#1A3F3D"/>
<path d="M229.373 44.3359C229.232 42.2027 229.333 40.0906 229.676 37.9996C229.746 37.5627 230 37.2886 230.437 37.1771C233.517 36.3952 239.074 36.237 239.354 40.6525C239.476 42.5808 239.551 44.6462 239.579 46.8487C239.579 46.8829 239.573 46.9169 239.56 46.9487C239.547 46.9805 239.528 47.0094 239.504 47.0338C239.479 47.0582 239.45 47.0776 239.418 47.0908C239.386 47.104 239.352 47.1108 239.317 47.1108L210.962 47.1199C210.897 47.1199 210.834 47.1074 210.774 47.0831C210.714 47.0588 210.66 47.0231 210.615 46.9782C210.569 46.9333 210.533 46.88 210.508 46.8213C210.484 46.7627 210.471 46.6998 210.471 46.6363L210.466 32.8294C210.466 32.773 210.489 32.719 210.529 32.6792C210.57 32.6393 210.625 32.6169 210.682 32.6169L213.022 32.6531C213.151 32.6561 213.215 32.7209 213.215 32.8474L213.224 44.2319C213.224 44.5332 213.377 44.6839 213.683 44.6839L229.056 44.6703C229.283 44.6703 229.388 44.5588 229.373 44.3359ZM232.438 44.5031C233.763 44.7472 235.111 44.7999 236.481 44.6613C236.659 44.6432 236.747 44.5468 236.747 44.372C236.747 43.3748 236.73 42.3473 236.697 41.2898C236.628 39.0707 234.177 38.9171 232.558 39.378C232.398 39.4232 232.305 39.5257 232.278 39.6854C232.021 41.1888 232.005 42.7239 232.232 44.2907C232.25 44.4112 232.319 44.482 232.438 44.5031Z" fill="#1A3F3D"/>
<path d="M243.167 46.8804L242.823 32.87C242.823 32.8325 242.838 32.7963 242.865 32.7693C242.891 32.7423 242.927 32.7266 242.965 32.7254L245.659 32.6983C245.679 32.6983 245.698 32.7022 245.716 32.7097C245.735 32.7173 245.751 32.7283 245.765 32.7422C245.778 32.7562 245.789 32.7726 245.796 32.7907C245.803 32.8088 245.807 32.8281 245.806 32.8474L245.517 46.9301C245.516 46.9491 245.512 46.9678 245.504 46.9851C245.496 47.0024 245.485 47.018 245.471 47.031C245.457 47.044 245.44 47.0542 245.422 47.0609C245.404 47.0676 245.385 47.0708 245.366 47.0702L243.31 47.0205C243.272 47.0193 243.237 47.0042 243.21 46.9782C243.184 46.9521 243.169 46.9171 243.167 46.8804Z" fill="#1A3F3D"/>
<path d="M189.118 44.6652L204.032 44.7149C204.07 44.7149 204.106 44.7001 204.133 44.6739C204.16 44.6476 204.175 44.6119 204.175 44.5748L204.211 37.0273C204.211 36.8586 204.297 36.7757 204.468 36.7787L206.781 36.7968C206.98 36.7998 207.08 36.8993 207.08 37.0951L207.084 46.726C207.084 46.9822 206.954 47.1102 206.694 47.1102C198.562 47.0982 190.948 47.0997 183.85 47.1147C183.092 47.1147 182.299 46.9957 181.473 46.7577C178.669 45.9442 178.83 41.7185 179.316 39.5537C179.725 37.7097 181.092 36.8962 182.882 36.8239C184.757 36.7516 186.63 36.723 188.499 36.7381C188.574 36.7381 188.647 36.7671 188.7 36.8188C188.753 36.8705 188.783 36.9406 188.783 37.0137L188.779 44.3262C188.779 44.4161 188.815 44.5023 188.878 44.5659C188.942 44.6295 189.028 44.6652 189.118 44.6652ZM186.035 44.2675L186.025 39.5763C186.025 39.4636 185.98 39.3555 185.899 39.2759C185.818 39.1962 185.708 39.1514 185.594 39.1514L183.295 39.156C183.099 39.1565 182.905 39.199 182.725 39.2808C182.544 39.3627 182.38 39.4824 182.242 39.633C182.104 39.7837 181.994 39.9624 181.92 40.1589C181.846 40.3554 181.808 40.566 181.808 40.7784V43.0834C181.809 43.5125 181.968 43.9235 182.248 44.2261C182.529 44.5287 182.909 44.698 183.304 44.6968L185.603 44.6923C185.718 44.6923 185.827 44.6475 185.908 44.5679C185.989 44.4882 186.035 44.3801 186.035 44.2675Z" fill="#1A3F3D"/>
<path d="M295.913 63.2678L306.293 45.6238C306.306 45.6002 306.325 45.5805 306.348 45.5668C306.372 45.5531 306.399 45.5458 306.426 45.5458C306.453 45.5458 306.48 45.5531 306.503 45.5668C306.527 45.5805 306.546 45.6002 306.559 45.6238L316.939 63.2678C316.952 63.2905 316.958 63.3162 316.958 63.3422C316.958 63.3682 316.95 63.3936 316.937 63.416C316.924 63.4384 316.904 63.4569 316.881 63.4698C316.858 63.4826 316.832 63.4893 316.806 63.4892H296.046C296.019 63.4893 295.993 63.4826 295.97 63.4698C295.947 63.4569 295.928 63.4384 295.915 63.416C295.901 63.3936 295.894 63.3682 295.894 63.3422C295.893 63.3162 295.9 63.2905 295.913 63.2678Z" fill="#105655"/>
<path d="M88.8638 66.2551C89.4949 66.2551 90.0065 65.7513 90.0065 65.1298C90.0065 64.5083 89.4949 64.0045 88.8638 64.0045C88.2328 64.0045 87.7212 64.5083 87.7212 65.1298C87.7212 65.7513 88.2328 66.2551 88.8638 66.2551Z" fill="#1A3F3D"/>
<path d="M174.021 66.2514C174.652 66.2514 175.164 65.7475 175.164 65.126C175.164 64.5045 174.652 64.0007 174.021 64.0007C173.39 64.0007 172.878 64.5045 172.878 65.126C172.878 65.7475 173.39 66.2514 174.021 66.2514Z" fill="#1A3F3D"/>
<path d="M192.624 66.2047C193.24 66.2047 193.74 65.713 193.74 65.1065C193.74 64.5 193.24 64.0083 192.624 64.0083C192.009 64.0083 191.509 64.5 191.509 65.1065C191.509 65.713 192.009 66.2047 192.624 66.2047Z" fill="#1A3F3D"/>
<path d="M31.1947 65.0991C31.1787 65.663 31.5806 66.1315 32.0924 66.1456C32.6041 66.1597 33.032 65.714 33.0479 65.1501C33.0639 64.5862 32.662 64.1177 32.1503 64.1036C31.6385 64.0895 31.2107 64.5352 31.1947 65.0991Z" fill="#1A3F3D"/>
<path d="M36.9997 64.2841L36.5959 64.2848C36.3931 64.2851 36.229 64.4473 36.2294 64.647L36.2549 79.0188C36.2552 79.2185 36.4199 79.3801 36.6226 79.3798L37.0265 79.3791C37.2292 79.3787 37.3933 79.2166 37.3929 79.0169L37.3675 64.645C37.3671 64.4453 37.2025 64.2838 36.9997 64.2841Z" fill="#1A3F3D"/>
<path d="M230.411 65.225C230.467 65.7562 230.903 66.1465 231.385 66.0966C231.866 66.0468 232.211 65.5758 232.154 65.0445C232.097 64.5133 231.661 64.1231 231.18 64.1729C230.698 64.2227 230.354 64.6938 230.411 65.225Z" fill="#1A3F3D"/>
<path d="M227.248 64.7367C226.964 66.784 227.358 68.7726 227.34 70.838C227.319 73.5918 227.317 76.3231 227.335 79.0317C227.335 79.33 227.186 79.4792 226.886 79.4792H226.496C226.208 79.4792 226.066 79.3375 226.069 79.0543L226.184 64.7864C226.185 64.6669 226.234 64.5526 226.321 64.4681C226.407 64.3836 226.525 64.3356 226.647 64.3345H226.886C227.164 64.3314 227.285 64.4655 227.248 64.7367Z" fill="#1A3F3D"/>
<path d="M238.083 69.9023L238.019 79.14C238.018 79.1863 238.008 79.232 237.99 79.2746C237.971 79.3171 237.944 79.3557 237.911 79.388C237.877 79.4203 237.837 79.4458 237.794 79.4629C237.75 79.4801 237.703 79.4886 237.656 79.488L237.202 79.4835C236.902 79.4775 236.752 79.3268 236.752 79.0315L236.729 69.8435C236.729 69.6778 236.645 69.5949 236.477 69.5949L235.509 69.5904C235.187 69.5874 234.996 69.4307 234.935 69.1204L234.907 68.9848C234.895 68.9222 234.906 68.8569 234.94 68.8018C234.974 68.7467 235.028 68.7056 235.091 68.6865C235.58 68.5479 236.064 68.4982 236.541 68.5374C236.743 68.5555 236.844 68.4636 236.844 68.2617L236.839 64.5557C236.839 64.5221 236.846 64.4888 236.859 64.4578C236.873 64.4268 236.892 64.3987 236.916 64.3752C236.941 64.3516 236.969 64.3331 237.001 64.3206C237.033 64.3082 237.067 64.3021 237.101 64.3027C237.315 64.3027 237.519 64.3418 237.711 64.4202C237.852 64.4804 237.925 64.5859 237.932 64.7365L238.014 68.0854C238.02 68.3054 238.135 68.4229 238.358 68.438L240.107 68.5464C240.26 68.5555 240.338 68.6353 240.341 68.7859L240.359 69.2153C240.368 69.4654 240.246 69.5949 239.992 69.604L238.317 69.6672C238.161 69.6733 238.083 69.7516 238.083 69.9023Z" fill="#1A3F3D"/>
<path d="M3.86264 72.5464L3.66532 79.2126C3.66375 79.2543 3.65242 79.2951 3.63222 79.3318C3.61201 79.3685 3.58348 79.4001 3.54884 79.4241C3.5142 79.4482 3.47439 79.464 3.43251 79.4704C3.39063 79.4769 3.34781 79.4737 3.30738 79.4611L2.61904 79.2352C2.56492 79.2174 2.51774 79.1835 2.48404 79.1381C2.45033 79.0928 2.43176 79.0382 2.43089 78.9821L2.33911 64.8994C2.33906 64.8627 2.34662 64.8263 2.36131 64.7924C2.376 64.7586 2.39752 64.7281 2.42456 64.7027C2.4516 64.6774 2.48361 64.6577 2.51862 64.6449C2.55363 64.6321 2.59092 64.6264 2.62822 64.6283L3.57354 64.6644C3.64337 64.6679 3.70925 64.6973 3.75783 64.7468C3.8064 64.7964 3.83403 64.8622 3.83511 64.9311L3.85806 70.4945C3.85806 70.5664 3.88706 70.6354 3.9387 70.6863C3.99034 70.7371 4.06037 70.7657 4.13339 70.7657L11.26 70.7928C11.3331 70.7928 11.4031 70.7642 11.4547 70.7134C11.5064 70.6625 11.5354 70.5936 11.5354 70.5216V64.8949C11.5354 64.823 11.5644 64.754 11.616 64.7032C11.6677 64.6523 11.7377 64.6238 11.8107 64.6238L12.7423 64.6147C12.8153 64.6147 12.8853 64.6433 12.937 64.6941C12.9886 64.745 13.0176 64.814 13.0176 64.8859L13.0314 79.19C13.0309 79.2276 13.0225 79.2647 13.0067 79.299C12.9909 79.3332 12.9681 79.3639 12.9396 79.389C12.9111 79.414 12.8776 79.433 12.8413 79.4447C12.8049 79.4563 12.7665 79.4604 12.7285 79.4566L11.7969 79.3662C11.7296 79.3595 11.6671 79.3287 11.6214 79.2795C11.5756 79.2303 11.5499 79.1662 11.5491 79.0996L11.5216 72.5238C11.5216 72.4881 11.5145 72.4529 11.5007 72.42C11.4868 72.3871 11.4665 72.3572 11.441 72.332C11.4154 72.3068 11.385 72.2869 11.3516 72.2732C11.3182 72.2596 11.2824 72.2526 11.2463 72.2526L4.13798 72.2842C4.06652 72.2842 3.99784 72.3115 3.94646 72.3604C3.89508 72.4093 3.86503 72.476 3.86264 72.5464Z" fill="#1A3F3D"/>
<path d="M51.473 72.5461C51.4453 72.5461 51.4182 72.5538 51.3948 72.5683C51.3714 72.5828 51.3526 72.6035 51.3406 72.6281C51.3286 72.6526 51.3239 72.68 51.327 72.7071C51.3301 72.7342 51.341 72.7598 51.3583 72.7811L56.2639 79.0406C56.4872 79.3238 56.4168 79.4609 56.0528 79.4518L55.3461 79.4338C54.9392 79.4247 54.6119 79.262 54.3641 78.9457L49.7292 73.0478C49.0011 72.1198 48.6049 72.2418 48.5407 73.4138C48.4489 75.1433 48.4397 76.9661 48.5131 78.8824C48.5254 79.1897 48.3755 79.363 48.0634 79.4021L47.5403 79.4654C47.4738 79.4737 47.4062 79.468 47.3421 79.4487C47.278 79.4293 47.2189 79.3968 47.1685 79.3532C47.1182 79.3096 47.0778 79.2559 47.0501 79.1958C47.0224 79.1357 47.0081 79.0704 47.008 79.0044L46.9988 64.8947C46.9988 64.8599 47.0058 64.8254 47.0195 64.7933C47.0331 64.7612 47.0531 64.7321 47.0784 64.7077C47.1036 64.6833 47.1334 64.6641 47.1663 64.6512C47.1991 64.6383 47.2342 64.6319 47.2695 64.6325C48.9124 64.6446 50.5629 64.6657 52.221 64.6958C55.1809 64.7546 57.0211 67.0595 56.1492 69.848C55.5205 71.8592 53.5105 72.528 51.473 72.5461ZM48.4994 66.1692L48.4627 70.8242C48.462 70.8578 48.4682 70.8912 48.4809 70.9224C48.4935 70.9537 48.5124 70.9821 48.5363 71.0061C48.5602 71.0301 48.5887 71.0491 48.6202 71.0621C48.6517 71.0751 48.6855 71.0818 48.7196 71.0818L51.5923 71.0999C52.0094 71.1029 52.4229 71.0446 52.8091 70.9284C53.1953 70.8122 53.5468 70.6402 53.8434 70.4224C54.14 70.2046 54.3759 69.9452 54.5377 69.6589C54.6994 69.3727 54.7839 69.0653 54.7862 68.7543V68.3295C54.791 67.7014 54.461 67.0968 53.8689 66.6484C53.2769 66.2001 52.4712 65.9448 51.629 65.9387L48.7563 65.9206C48.689 65.9206 48.6243 65.9466 48.5762 65.9931C48.5282 66.0396 48.5006 66.1028 48.4994 66.1692Z" fill="#1A3F3D"/>
<path d="M141.114 69.2558C141.074 68.9846 140.993 68.9726 140.87 69.2196L135.726 79.3432C135.706 79.3842 135.674 79.4188 135.635 79.443C135.595 79.4671 135.55 79.48 135.504 79.48C135.457 79.48 135.412 79.4671 135.372 79.443C135.333 79.4188 135.301 79.3842 135.281 79.3432L130.183 69.2196C129.996 68.849 129.875 68.8686 129.82 69.2784L128.503 79.0223C128.463 79.3236 128.291 79.4668 127.985 79.4517L127.443 79.4291C127.168 79.417 127.05 79.2769 127.09 79.0088L129.127 65.0256C129.201 64.5345 129.349 64.5104 129.572 64.9533L135.322 76.3559C135.342 76.3939 135.372 76.4258 135.409 76.4481C135.446 76.4704 135.488 76.4822 135.531 76.4822C135.574 76.4822 135.617 76.4704 135.654 76.4481C135.691 76.4258 135.72 76.3939 135.74 76.3559L141.513 64.8448C141.58 64.7062 141.67 64.6896 141.784 64.7951C141.839 64.8433 141.871 64.9021 141.88 64.9714C142.553 69.6927 143.24 74.3537 143.94 78.9545C143.95 79.0181 143.946 79.0831 143.928 79.1449C143.91 79.2067 143.879 79.264 143.836 79.3126C143.793 79.3612 143.74 79.4 143.68 79.4264C143.621 79.4527 143.556 79.466 143.491 79.4652L143.05 79.4607C142.708 79.4577 142.512 79.289 142.463 78.9545L141.114 69.2558Z" fill="#1A3F3D"/>
<path d="M26.7247 69.9745L26.6513 68.9576C26.6438 68.8437 26.6791 68.7312 26.7503 68.6419C26.8215 68.5526 26.9236 68.4927 27.0367 68.474L27.4635 68.4017C27.8214 68.3415 28.0004 68.4891 28.0004 68.8446L27.9958 79.0541C27.9958 79.3343 27.8536 79.4744 27.569 79.4744L27.1377 79.4699C26.8348 79.4699 26.6818 79.3222 26.6788 79.0269L26.6742 78.0101C26.6732 77.9649 26.6588 77.9211 26.6327 77.884C26.6066 77.8469 26.5701 77.8181 26.5276 77.8013C26.4851 77.7844 26.4385 77.7802 26.3935 77.7892C26.3486 77.7982 26.3074 77.82 26.275 77.8519C21.6722 82.5928 14.6878 77.5717 16.8814 71.7371C17.7211 69.4909 20.2956 67.9588 22.7598 68.2345C24.112 68.3851 25.2914 69.0239 26.2979 70.1507C26.3314 70.1891 26.3764 70.2161 26.4265 70.2277C26.4765 70.2393 26.529 70.235 26.5764 70.2155C26.6238 70.1959 26.6637 70.162 26.6903 70.1187C26.717 70.0754 26.729 70.0249 26.7247 69.9745ZM22.2415 78.3984C22.8199 78.4054 23.3942 78.2978 23.9314 78.0819C24.4686 77.866 24.9582 77.546 25.3724 77.1401C25.7865 76.7342 26.1171 76.2504 26.3451 75.7163C26.5731 75.1821 26.6942 74.6082 26.7014 74.0272C26.7086 73.4462 26.6018 72.8695 26.3871 72.3301C26.1724 71.7907 25.854 71.299 25.45 70.8833C25.0461 70.4675 24.5645 70.1358 24.0328 69.907C23.5011 69.6783 22.9297 69.5569 22.3512 69.55C21.7727 69.543 21.1985 69.6505 20.6613 69.8665C20.1241 70.0824 19.6344 70.4024 19.2203 70.8083C18.8061 71.2142 18.4756 71.698 18.2476 72.2321C18.0195 72.7662 17.8985 73.3402 17.8913 73.9212C17.8841 74.5022 17.9909 75.0789 18.2056 75.6183C18.4203 76.1577 18.7387 76.6494 19.1427 77.0651C19.5466 77.4809 20.0282 77.8126 20.5599 78.0414C21.0916 78.2701 21.663 78.3915 22.2415 78.3984Z" fill="#1A3F3D"/>
<path d="M60.738 74.4494C60.9582 76.0403 61.6435 77.1641 62.7938 77.8209C64.7992 78.9644 67.4791 78.4039 68.7778 76.3792C69.0409 75.9664 69.3989 75.861 69.8516 76.0629C69.9098 76.09 69.9618 76.1261 70.0077 76.1713C70.2493 76.4154 70.2708 76.676 70.0719 76.9532C68.374 79.3545 66.1239 80.1952 63.3215 79.4751C60.9628 78.8649 59.32 76.5419 59.2741 74.1285C59.2343 72.0406 60.0527 70.3955 61.7292 69.1933C63.8172 67.6974 66.9606 67.8962 68.8329 69.6543C69.9067 70.6666 70.5507 71.9954 70.7648 73.6404C70.8015 73.9176 70.6792 74.0562 70.3977 74.0562H61.0821C60.816 74.0592 60.7013 74.1903 60.738 74.4494ZM60.9812 72.8721H69.0486C69.0632 72.8721 69.0772 72.8664 69.0875 72.8562C69.0978 72.8461 69.1036 72.8323 69.1036 72.8179C69.1036 71.9549 68.6806 71.1272 67.9276 70.517C67.1745 69.9067 66.1532 69.5639 65.0883 69.5639H64.9415C63.8765 69.5639 62.8552 69.9067 62.1022 70.517C61.3492 71.1272 60.9261 71.9549 60.9261 72.8179C60.9261 72.8323 60.9319 72.8461 60.9422 72.8562C60.9526 72.8664 60.9666 72.8721 60.9812 72.8721Z" fill="#1A3F3D"/>
<path d="M82.7192 77.961C80.076 80.2976 75.6293 79.701 73.9543 76.4786C71.0312 70.8564 78.4423 65.2568 82.9624 69.939C83.3724 70.3668 83.5728 70.287 83.5636 69.6995C83.5605 69.4373 83.5437 69.1767 83.5131 68.9176C83.4764 68.5982 83.6217 68.4325 83.9491 68.4205L84.3804 68.4069C84.4439 68.4045 84.5072 68.4146 84.5666 68.4365C84.626 68.4585 84.6804 68.4919 84.7266 68.5349C84.7727 68.5778 84.8097 68.6293 84.8354 68.6865C84.861 68.7437 84.8749 68.8054 84.876 68.8679C84.9128 71.6489 84.9173 74.4208 84.8898 77.1837C84.876 78.5666 84.7843 80.3292 83.972 81.4952C81.7647 84.6634 75.5146 84.4419 73.7937 80.858C73.5826 80.4181 73.7218 80.2298 74.2113 80.2931C74.5463 80.3337 74.9088 80.4603 75.1429 80.6998C76.9417 82.5498 79.071 82.9535 81.5307 81.911C82.3965 81.5465 82.9273 80.9107 83.1231 80.0038C83.2179 79.573 83.3357 79.0351 83.4764 78.3904C83.6722 77.4835 83.4198 77.3403 82.7192 77.961ZM83.5269 73.8754C83.5269 72.7271 83.0637 71.6259 82.2393 70.8139C81.4148 70.002 80.2966 69.5458 79.1307 69.5458C77.9647 69.5458 76.8465 70.002 76.0221 70.8139C75.1976 71.6259 74.7344 72.7271 74.7344 73.8754C74.7344 74.444 74.8482 75.007 75.0691 75.5323C75.29 76.0576 75.6138 76.5349 76.0221 76.9369C76.4303 77.339 76.9149 77.6579 77.4483 77.8755C77.9817 78.0931 78.5533 78.2051 79.1307 78.2051C79.708 78.2051 80.2797 78.0931 80.813 77.8755C81.3464 77.6579 81.831 77.339 82.2393 76.9369C82.6475 76.5349 82.9713 76.0576 83.1922 75.5323C83.4132 75.007 83.5269 74.444 83.5269 73.8754Z" fill="#1A3F3D"/>
<path d="M97.7474 79.7204C96.9908 79.6565 96.2546 79.4444 95.5808 79.0962C94.9071 78.748 94.3089 78.2705 93.8204 77.6909C93.332 77.1114 92.9629 76.4411 92.7341 75.7185C92.5054 74.9958 92.4215 74.2349 92.4873 73.4792C92.6202 71.9529 93.3546 70.5405 94.5289 69.5524C95.7032 68.5644 97.2213 68.0819 98.7492 68.2109C99.5058 68.2747 100.242 68.4868 100.916 68.8351C101.59 69.1833 102.188 69.6608 102.676 70.2403C103.165 70.8199 103.534 71.4901 103.762 72.2128C103.991 72.9354 104.075 73.6963 104.009 74.4521C103.876 75.9783 103.142 77.3908 101.968 78.3788C100.793 79.3668 99.2753 79.8494 97.7474 79.7204ZM97.9415 78.372C99.0929 78.4453 100.227 78.0528 101.096 77.2808C101.964 76.5089 102.495 75.4207 102.571 74.2557C102.609 73.6788 102.534 73.1005 102.351 72.5536C102.168 72.0067 101.88 71.5021 101.504 71.0685C101.127 70.635 100.67 70.2809 100.158 70.0266C99.6455 69.7723 99.0884 69.6227 98.5183 69.5864C97.367 69.5131 96.2324 69.9056 95.3642 70.6775C94.4959 71.4495 93.9652 72.5377 93.8887 73.7027C93.8508 74.2796 93.9256 74.8579 94.1088 75.4048C94.2919 75.9516 94.5799 76.4563 94.9563 76.8898C95.3326 77.3234 95.7899 77.6775 96.3021 77.9318C96.8143 78.1861 97.3714 78.3357 97.9415 78.372Z" fill="#1A3F3D"/>
<path d="M108.472 69.6396C108.451 70.2422 108.65 70.3251 109.069 69.8882C110.152 68.7674 111.721 67.9946 113.259 68.2522C115.556 68.6348 116.734 70.1699 116.792 72.8575C116.838 74.9425 116.833 77.0244 116.778 79.1034C116.772 79.3203 116.659 79.4303 116.439 79.4333L115.833 79.4378C115.729 79.4378 115.63 79.3975 115.556 79.3256C115.482 79.2537 115.44 79.156 115.438 79.0537C115.426 77.0802 115.412 75.1097 115.397 73.1422C115.383 71.348 114.713 69.4137 112.534 69.5312C110.254 69.6517 108.968 70.8599 108.674 73.1558C108.472 74.7466 108.417 76.6885 108.509 78.9814C108.521 79.2857 108.373 79.4363 108.064 79.4333L107.504 79.4288C107.235 79.4258 107.1 79.2917 107.1 79.0266L107.096 68.7764C107.096 68.4872 107.241 68.3576 107.532 68.3878L108.055 68.442C108.361 68.4721 108.509 68.6408 108.5 68.9482L108.472 69.6396Z" fill="#1A3F3D"/>
<path d="M161.773 69.92C161.834 70.2575 161.975 70.2921 162.195 70.024C164.421 67.2987 169.281 67.6061 169.822 71.5832C170.113 73.7103 170.18 76.2894 170.024 79.3205C170.018 79.447 169.949 79.5043 169.818 79.4922L168.941 79.3973C168.702 79.3732 168.583 79.2437 168.583 79.0086C168.595 77.2762 168.6 75.5648 168.597 73.8745C168.592 71.7414 168.349 69.5494 165.701 69.5133C163.333 69.4771 161.874 71.4566 161.805 73.6576C161.744 75.5317 161.715 77.3364 161.718 79.0719C161.721 79.3913 161.562 79.5284 161.241 79.4832L160.842 79.4289C160.539 79.3838 160.387 79.2105 160.387 78.9092L160.328 68.7359C160.328 68.6902 160.337 68.645 160.355 68.603C160.373 68.561 160.4 68.523 160.433 68.4913C160.467 68.4597 160.506 68.435 160.55 68.4188C160.593 68.4026 160.639 68.3951 160.686 68.397L161.319 68.4196C161.625 68.4286 161.762 68.5838 161.732 68.8851C161.695 69.2346 161.709 69.5796 161.773 69.92Z" fill="#1A3F3D"/>
<path d="M180.427 77.1104C182.423 79.0312 185.567 78.7374 187.499 76.8483C187.62 76.731 187.78 76.6622 187.949 76.6555C188.118 76.6488 188.283 76.7047 188.412 76.8122L188.568 76.9387C188.788 77.1225 188.805 77.3229 188.618 77.5398C184.543 82.2807 175.916 78.7962 177.963 72.234C179.367 67.7145 185.269 67.0547 188.412 70.0285C188.706 70.3026 188.755 70.6145 188.559 70.964C188.519 71.0393 188.462 71.1026 188.389 71.1538C188.092 71.3617 187.812 71.3406 187.549 71.0905C186.102 69.7046 184.413 69.2406 182.483 69.6985C179.023 70.5211 177.885 74.6745 180.427 77.1104Z" fill="#1A3F3D"/>
<path d="M198.095 77.9241L198.076 82.9904C198.076 83.1203 198.028 83.2455 197.941 83.3422C197.853 83.4389 197.733 83.5003 197.603 83.5147L197.278 83.5554C197.213 83.563 197.147 83.5569 197.085 83.5375C197.022 83.5181 196.965 83.4857 196.916 83.4426C196.867 83.3995 196.827 83.3466 196.8 83.2874C196.773 83.2281 196.759 83.1639 196.759 83.0989L196.741 68.9847C196.738 68.5628 196.949 68.367 197.374 68.3971C197.405 68.3971 197.451 68.4001 197.512 68.4062C197.919 68.4303 198.113 68.6427 198.095 69.0434L198.058 69.9835C198.042 70.354 198.171 70.4128 198.443 70.1597C199.035 69.6129 199.623 69.0163 200.384 68.6954C206.561 66.1103 211.265 74.3357 206.153 78.4484C203.684 80.4279 200.527 79.9986 198.379 77.8066C198.356 77.7837 198.327 77.7681 198.295 77.7618C198.263 77.7556 198.23 77.7589 198.2 77.7714C198.169 77.784 198.143 77.8052 198.125 77.8323C198.106 77.8595 198.095 77.8914 198.095 77.9241ZM202.29 78.3912C202.868 78.4121 203.444 78.3185 203.987 78.1158C204.529 77.9131 205.027 77.6053 205.451 77.2099C205.875 76.8145 206.217 76.3393 206.458 75.8114C206.7 75.2834 206.835 74.7132 206.856 74.1331C206.878 73.5531 206.786 72.9746 206.584 72.4307C206.383 71.8868 206.077 71.3882 205.683 70.9632C205.29 70.5383 204.817 70.1954 204.291 69.9542C203.765 69.7129 203.197 69.578 202.618 69.5571C202.04 69.5362 201.464 69.6298 200.921 69.8325C200.379 70.0351 199.881 70.343 199.457 70.7384C199.033 71.1338 198.691 71.609 198.45 72.1369C198.208 72.6648 198.073 73.2351 198.052 73.8151C198.03 74.3952 198.122 74.9737 198.324 75.5176C198.525 76.0615 198.831 76.5601 199.225 76.985C199.618 77.41 200.091 77.7528 200.617 77.9941C201.143 78.2354 201.711 78.3703 202.29 78.3912Z" fill="#1A3F3D"/>
<path d="M220.769 77.8702C216.606 82.01 210.186 78.5527 211.058 72.8988C211.751 68.3884 217.588 66.5716 220.672 70.0561C221.009 70.4357 221.177 70.3724 221.177 69.8663L221.172 68.9172C221.172 68.6038 221.332 68.4396 221.65 68.4246L222.044 68.4065C222.106 68.4028 222.167 68.4115 222.225 68.4321C222.283 68.4527 222.336 68.4847 222.38 68.5262C222.425 68.5677 222.461 68.6178 222.485 68.6734C222.509 68.729 222.522 68.7889 222.522 68.8494L222.531 79.0136C222.531 79.3179 222.376 79.4716 222.067 79.4746L221.65 79.4791C221.377 79.4822 221.234 79.3496 221.218 79.0814L221.154 78.0148C221.136 77.6834 221.007 77.6352 220.769 77.8702ZM216.889 78.4031C218.058 78.387 219.172 77.905 219.986 77.0631C220.8 76.2212 221.248 75.0884 221.232 73.9139C221.215 72.7393 220.735 71.6193 219.897 70.8001C219.059 69.9809 217.932 69.5298 216.764 69.5458C215.596 69.5619 214.482 70.0439 213.668 70.8858C212.853 71.7276 212.405 72.8605 212.422 74.035C212.438 75.2095 212.918 76.3296 213.756 77.1488C214.594 77.9679 215.721 78.4191 216.889 78.4031Z" fill="#1A3F3D"/>
<path d="M231.609 68.3024L230.966 68.3013C230.867 68.3011 230.787 68.3799 230.787 68.4772L230.768 79.2064C230.768 79.3037 230.848 79.3828 230.946 79.383L231.589 79.3841C231.688 79.3842 231.768 79.3055 231.768 79.2081L231.787 68.4789C231.787 68.3816 231.707 68.3025 231.609 68.3024Z" fill="#1A3F3D"/>
<path d="M32.4702 68.402H31.8644C31.6617 68.402 31.4973 68.5639 31.4973 68.7636V79.0589C31.4973 79.2586 31.6617 79.4205 31.8644 79.4205H32.4702C32.6729 79.4205 32.8373 79.2586 32.8373 79.0589V68.7636C32.8373 68.5639 32.6729 68.402 32.4702 68.402Z" fill="#1A3F3D"/>
<path d="M89.2211 68.4147L88.496 68.4159C88.2679 68.4163 88.0833 68.5988 88.0837 68.8234L88.1019 79.0554C88.1023 79.2801 88.2875 79.4619 88.5156 79.4615L89.2406 79.4602C89.4687 79.4598 89.6533 79.2774 89.6529 79.0528L89.6348 68.8207C89.6344 68.5961 89.4492 68.4143 89.2211 68.4147Z" fill="#1A3F3D"/>
<path d="M151.65 78.2951C153.747 78.4352 155.183 77.0703 155.211 75.0591C155.238 73.0495 155.237 70.9901 155.206 68.881C155.203 68.5858 155.35 68.4336 155.647 68.4246L156.289 68.402C156.598 68.3929 156.753 68.5421 156.753 68.8494C156.744 71.2221 156.955 73.8344 156.5 76.1528C155.482 81.3502 147.235 80.7898 147.07 75.2941C147.012 73.3146 147 71.1829 147.033 68.8991C147.04 68.5074 147.24 68.3357 147.635 68.3839L148.089 68.4427C148.182 68.4538 148.267 68.4986 148.329 68.5686C148.391 68.6387 148.425 68.729 148.424 68.8223C148.39 70.8982 148.395 72.9003 148.438 74.8286C148.487 76.998 149.557 78.1535 151.65 78.2951Z" fill="#1A3F3D"/>
<path d="M174.448 68.4198H173.631C173.443 68.4198 173.291 68.5696 173.291 68.7543V79.1038C173.291 79.2885 173.443 79.4383 173.631 79.4383H174.448C174.635 79.4383 174.787 79.2885 174.787 79.1038V68.7543C174.787 68.5696 174.635 68.4198 174.448 68.4198Z" fill="#1A3F3D"/>
<path d="M193.033 68.4065H192.225C192.033 68.4065 191.877 68.5603 191.877 68.75V79.1176C191.877 79.3073 192.033 79.4611 192.225 79.4611H193.033C193.226 79.4611 193.382 79.3073 193.382 79.1176V68.75C193.382 68.5603 193.226 68.4065 193.033 68.4065Z" fill="#1A3F3D"/>
<path d="M247.233 76.5682L250.794 68.501C250.809 68.4663 250.835 68.4371 250.868 68.4177C250.901 68.3982 250.939 68.3894 250.978 68.3925L252.038 68.4829C252.067 68.4848 252.096 68.4937 252.121 68.5087C252.146 68.5238 252.167 68.5446 252.183 68.5695C252.198 68.5943 252.207 68.6224 252.209 68.6514C252.211 68.6804 252.206 68.7094 252.194 68.736L245.723 83.3112C245.71 83.3417 245.688 83.3679 245.661 83.387C245.633 83.4062 245.601 83.4175 245.567 83.4197L244.489 83.5101C244.458 83.5124 244.426 83.5068 244.398 83.4938C244.37 83.4809 244.345 83.461 244.327 83.4361C244.308 83.4112 244.297 83.3821 244.293 83.3516C244.289 83.321 244.293 83.29 244.305 83.2615L246.269 78.6336C246.279 78.6108 246.285 78.5862 246.285 78.5613C246.285 78.5364 246.279 78.5118 246.269 78.489L241.859 68.6998C241.847 68.6719 241.842 68.6412 241.845 68.6108C241.848 68.5804 241.858 68.5512 241.876 68.5259C241.893 68.5006 241.917 68.4801 241.944 68.4663C241.972 68.4524 242.003 68.4457 242.034 68.4467L243.135 68.4784C243.17 68.4798 243.203 68.4907 243.231 68.5099C243.26 68.5291 243.282 68.5558 243.296 68.5868L246.898 76.5727C246.913 76.6044 246.937 76.6311 246.967 76.6496C246.997 76.6682 247.032 76.6778 247.067 76.6773C247.102 76.6768 247.137 76.6663 247.166 76.6469C247.196 76.6276 247.219 76.6002 247.233 76.5682Z" fill="#1A3F3D"/>
<path d="M328.329 1.55921C327.837 1.10727 327.255 0.967163 326.585 1.1389C326.007 1.28352 325.958 1.18259 326.439 0.836099C327.433 0.112986 328.397 0.204882 329.33 1.11179C329.446 1.22327 329.533 1.20519 329.591 1.05755L329.986 0.0949085C330.035 -0.0316362 330.084 -0.0316362 330.133 0.0949085L330.518 1.1389C330.526 1.1596 330.539 1.17789 330.556 1.19183C330.573 1.20577 330.594 1.21484 330.616 1.21808C330.638 1.22132 330.661 1.21862 330.682 1.21025C330.702 1.20188 330.72 1.18816 330.734 1.17054C331.385 0.293764 333.106 -0.0271168 333.818 1.01236C333.894 1.12685 333.865 1.17054 333.73 1.14342C333.18 1.03495 331.991 1.07563 331.665 1.63604C331.552 1.83189 331.607 1.90721 331.831 1.86201C333.024 1.61796 335.35 1.78066 335.341 3.46642C335.341 3.66829 335.286 3.68335 335.176 3.51162C334.717 2.7885 333.966 2.48118 332.923 2.58965C332.602 2.62279 332.585 2.71017 332.872 2.85178C334.41 3.6246 335.704 4.67312 335.433 6.57581C335.402 6.8078 335.318 6.82739 335.181 6.63456C334.853 6.1796 334.547 5.6915 334.263 5.17025C333.883 4.46823 333.383 3.96356 332.762 3.65624C332.236 3.3911 332.192 3.45437 332.629 3.84605C334.153 5.21997 334.556 6.65113 333.841 8.13953C333.83 8.15984 333.813 8.17626 333.791 8.18596C333.77 8.19566 333.746 8.19804 333.724 8.19269C333.702 8.18734 333.682 8.17459 333.669 8.15664C333.656 8.13869 333.65 8.11666 333.652 8.09434C333.671 7.70868 333.533 7.40136 333.239 7.17237C333.083 7.05185 333.048 6.90271 333.134 6.72495C333.239 6.51253 333.235 6.33175 333.148 6.1103C332.875 5.42636 332.519 4.80418 332.078 4.24377C331.999 4.14133 331.902 4.12475 331.789 4.19405C331.74 4.22418 331.717 4.27691 331.72 4.35223C331.72 4.39442 331.73 4.43509 331.748 4.47426C332.43 6.05004 332.407 7.58967 331.679 9.09314C331.6 9.25584 331.537 9.24981 331.491 9.07506C331.366 8.6201 331.34 8.16364 331.413 7.70567C331.42 7.66727 331.418 7.62793 331.407 7.59031C331.397 7.5527 331.378 7.51769 331.352 7.48768C331.326 7.45766 331.294 7.43334 331.258 7.41636C331.222 7.39939 331.182 7.39016 331.142 7.38931L330.715 7.38479C330.575 7.38177 330.501 7.44957 330.495 7.58816C330.37 10.2667 330.463 13.5569 330.775 17.4587C330.824 18.0522 331.021 18.5689 331.367 19.0088C331.493 19.1685 331.453 19.2484 331.248 19.2484L328.889 19.2529C328.617 19.2559 328.557 19.1474 328.71 18.9275L329.031 18.471C329.123 18.3414 329.178 18.1983 329.197 18.0417C329.588 14.5617 329.707 11.1148 329.554 7.70115C329.542 7.42998 329.398 7.29892 329.123 7.30796L328.94 7.31248C328.9 7.31376 328.862 7.32342 328.827 7.3408C328.792 7.35819 328.761 7.3829 328.736 7.41329C328.711 7.44367 328.693 7.47903 328.683 7.51698C328.673 7.55493 328.671 7.59461 328.678 7.63336C328.761 8.07626 328.71 8.55683 328.527 9.07506C328.462 9.26488 328.393 9.26639 328.32 9.07958C327.846 7.88042 327.751 6.69632 328.036 5.52729C328.146 5.08439 328.49 4.72735 328.375 4.24377C328.368 4.21668 328.355 4.19171 328.335 4.17156C328.316 4.15141 328.291 4.13683 328.264 4.1294C328.237 4.12196 328.209 4.12195 328.182 4.12936C328.156 4.13677 328.132 4.15132 328.114 4.17146C327.609 4.69571 326.48 6.33175 327.086 6.99611C327.147 7.05939 327.133 7.09554 327.044 7.10458C326.552 7.1558 326.383 7.44203 326.54 7.96328C326.555 8.00847 326.541 8.04312 326.498 8.06722L326.383 8.13502C326.363 8.14673 326.341 8.15368 326.317 8.15536C326.294 8.15704 326.27 8.15341 326.248 8.14473C326.226 8.13605 326.206 8.12255 326.19 8.10522C326.174 8.08789 326.161 8.06719 326.154 8.04463C325.608 6.26396 326.232 4.93524 327.586 3.81442C327.644 3.76621 327.664 3.70746 327.645 3.63816C327.63 3.58091 327.601 3.54476 327.558 3.52969C327.522 3.51162 327.485 3.51463 327.448 3.53873C326.527 4.11722 325.834 4.94127 325.369 6.01087C325.262 6.25794 325.08 6.43269 324.823 6.53513C324.793 6.54696 324.761 6.55137 324.729 6.54797C324.697 6.54456 324.666 6.53345 324.639 6.5156C324.612 6.49775 324.59 6.47372 324.575 6.4456C324.56 6.41749 324.552 6.38616 324.552 6.35435C324.568 4.80267 325.42 3.66829 327.109 2.9512C327.522 2.77344 327.505 2.65593 327.058 2.59869C326.143 2.48419 325.417 2.77645 324.878 3.47546C324.762 3.62611 324.71 3.60652 324.722 3.41671C324.814 1.79422 326.971 1.60441 328.187 1.8349C328.56 1.90721 328.608 1.81531 328.329 1.55921Z" fill="#105655"/>
<path d="M295.734 21.8116L306.1 4.19479C306.115 4.17139 306.135 4.15203 306.159 4.13859C306.183 4.12515 306.21 4.11809 306.238 4.11809C306.266 4.11809 306.293 4.12515 306.317 4.13859C306.341 4.15203 306.361 4.17139 306.376 4.19479L316.742 21.8116C316.756 21.8355 316.763 21.8624 316.762 21.8897C316.762 21.9171 316.755 21.9439 316.741 21.9675C316.727 21.9912 316.707 22.0109 316.683 22.0248C316.659 22.0386 316.632 22.0462 316.604 22.0466H295.872C295.844 22.0462 295.817 22.0386 295.793 22.0248C295.769 22.0109 295.749 21.9912 295.735 21.9675C295.721 21.9439 295.714 21.9171 295.714 21.8897C295.713 21.8624 295.72 21.8355 295.734 21.8116Z" fill="#15958B"/>
<path d="M329.908 23.5104L326.948 26.1227C326.89 26.1742 326.848 26.2406 326.827 26.3142C326.806 26.3878 326.807 26.4656 326.829 26.5384C326.905 26.7885 327.043 26.9256 327.242 26.9497C327.386 26.9678 327.482 26.9105 327.531 26.778C328.095 25.2504 330.211 26.1995 329.49 27.7271C329.442 27.832 329.37 27.9251 329.282 28C329.193 28.075 329.089 28.1299 328.976 28.1609C327.869 28.4773 326.922 28.1097 326.136 27.0582C326.032 26.9196 325.916 26.909 325.787 27.0265C324.97 27.7632 322.804 28.997 321.772 28.0389C321.59 27.8683 321.476 27.6387 321.451 27.3922C321.427 27.1457 321.493 26.8988 321.639 26.6966C322.119 26.0338 322.706 25.978 323.401 26.5294C323.514 26.6228 323.641 26.6439 323.782 26.5927C324.311 26.4089 324.723 26.1001 325.016 25.6662C325.142 25.4794 325.134 25.2971 324.993 25.1193C324.951 25.0647 324.89 25.0266 324.821 25.0117C324.752 24.9968 324.68 25.0061 324.617 25.038C322.336 26.1995 322.286 22.4303 324.273 23.1082C325.074 23.3824 325.544 23.9654 325.682 24.8572C325.688 24.8957 325.706 24.9318 325.731 24.9615C325.757 24.9912 325.791 25.0134 325.828 25.026C325.866 25.0385 325.906 25.0407 325.945 25.0325C325.984 25.0243 326.02 25.0059 326.049 24.9792L328.797 22.4574C328.944 22.3218 328.943 22.1892 328.793 22.0597C324.97 18.6972 319.881 17.2103 314.829 17.0792C314.81 17.0792 314.798 17.0717 314.792 17.0566C314.786 17.0416 314.781 17.0265 314.778 17.0114C314.775 16.9934 314.783 16.9828 314.801 16.9798C320.276 16.1121 325.512 17.5402 329.931 20.9343C330.084 21.0518 330.235 21.0488 330.385 20.9253C334.286 17.7345 340.192 15.8906 345.396 17.016C345.549 17.0491 345.546 17.0687 345.387 17.0747C340.348 17.2329 335.392 18.6701 331.514 21.9783C331.309 22.1531 331.306 22.3323 331.505 22.5161L334.139 24.934C334.335 25.1118 334.466 25.0741 334.534 24.8211C334.644 24.4053 334.814 24.0332 335.043 23.7047C335.58 22.941 336.851 22.7873 337.342 23.7228C337.93 24.8436 336.576 25.5442 335.58 25.0651C335.433 24.9958 335.308 25.0229 335.204 25.1465C335.09 25.279 335.075 25.4206 335.158 25.5713C335.399 26.0051 335.817 26.3441 336.411 26.5882C336.573 26.6544 336.72 26.6318 336.851 26.5204C337.435 26.0353 337.997 26.0579 338.535 26.5882C338.641 26.6919 338.72 26.8183 338.768 26.9574C338.815 27.0966 338.829 27.2447 338.809 27.3901C338.789 27.5356 338.734 27.6743 338.65 27.7955C338.566 27.9167 338.454 28.0171 338.324 28.0886C337.104 28.762 335.341 27.8446 334.428 27.0175C334.303 26.9 334.19 26.9105 334.089 27.0491C333.409 27.9982 331.666 28.9518 330.762 27.7225C330.61 27.5186 330.538 27.2672 330.56 27.0147C330.582 26.7622 330.696 26.5257 330.881 26.3486C331.367 25.8831 332.565 25.8198 332.684 26.6785C332.69 26.7213 332.706 26.7623 332.729 26.7986C332.753 26.8349 332.785 26.8655 332.821 26.8884C332.858 26.9113 332.9 26.9258 332.942 26.9309C332.985 26.9361 333.029 26.9317 333.07 26.9181C333.263 26.8548 333.356 26.7237 333.35 26.5249C333.344 26.3652 333.284 26.2236 333.171 26.1001C332.296 25.1359 331.331 24.2667 330.275 23.4923C330.147 23.3989 330.024 23.405 329.908 23.5104Z" fill="#105655"/>
<path d="M316.751 23.9395L306.376 41.6015C306.363 41.6241 306.344 41.6429 306.322 41.6561C306.299 41.6692 306.273 41.6761 306.247 41.6761C306.221 41.6761 306.195 41.6692 306.173 41.6561C306.15 41.6429 306.131 41.6241 306.119 41.6015L295.711 23.935C295.698 23.9129 295.691 23.8878 295.691 23.8623C295.691 23.8368 295.698 23.8118 295.711 23.7898C295.724 23.7677 295.743 23.7495 295.765 23.7369C295.788 23.7243 295.813 23.7178 295.839 23.718L316.627 23.7225C316.653 23.7231 316.678 23.7302 316.7 23.7431C316.721 23.756 316.74 23.7743 316.752 23.7962C316.765 23.8181 316.771 23.8428 316.771 23.868C316.771 23.8931 316.764 23.9177 316.751 23.9395Z" fill="#15958B"/>
<path d="M283.752 42.6548L294.123 25.0244C294.136 25.0008 294.155 24.9811 294.179 24.9674C294.202 24.9537 294.229 24.9464 294.256 24.9464C294.284 24.9464 294.31 24.9537 294.334 24.9674C294.357 24.9811 294.376 25.0008 294.389 25.0244L304.76 42.6548C304.773 42.6772 304.78 42.7024 304.779 42.7281C304.779 42.7537 304.772 42.7789 304.759 42.8011C304.747 42.8234 304.728 42.842 304.706 42.8552C304.683 42.8683 304.658 42.8756 304.632 42.8762H283.881C283.855 42.8756 283.829 42.8683 283.807 42.8552C283.785 42.842 283.766 42.8234 283.753 42.8011C283.74 42.7789 283.733 42.7537 283.733 42.7281C283.733 42.7024 283.74 42.6772 283.752 42.6548Z" fill="#15958B"/>
<path d="M308.101 42.6682L318.495 25.0107C318.508 24.989 318.526 24.971 318.547 24.9585C318.569 24.946 318.594 24.9394 318.619 24.9394C318.644 24.9394 318.669 24.946 318.691 24.9585C318.713 24.971 318.731 24.989 318.743 25.0107L329.137 42.6682C329.149 42.6894 329.155 42.7134 329.155 42.7378C329.154 42.7621 329.148 42.7859 329.135 42.8069C329.123 42.8279 329.105 42.8453 329.083 42.8574C329.062 42.8695 329.038 42.876 329.013 42.8761H308.225C308.2 42.876 308.176 42.8695 308.155 42.8574C308.133 42.8453 308.116 42.8279 308.103 42.8069C308.091 42.7859 308.084 42.7621 308.084 42.7378C308.083 42.7134 308.089 42.6894 308.101 42.6682Z" fill="#105655"/>
<path d="M359.69 33.6877L349.296 51.3407C349.284 51.3623 349.266 51.3803 349.244 51.3928C349.222 51.4053 349.198 51.4119 349.172 51.4119C349.147 51.4119 349.122 51.4053 349.101 51.3928C349.079 51.3803 349.061 51.3623 349.048 51.3407L338.654 33.6877C338.641 33.6663 338.634 33.6418 338.634 33.6168C338.634 33.5918 338.64 33.5672 338.653 33.5456C338.666 33.5239 338.684 33.506 338.706 33.4936C338.728 33.4812 338.753 33.4749 338.778 33.4753H359.566C359.592 33.4749 359.617 33.4812 359.639 33.4936C359.661 33.506 359.679 33.5239 359.692 33.5456C359.704 33.5672 359.711 33.5918 359.711 33.6168C359.71 33.6418 359.703 33.6663 359.69 33.6877Z" fill="#105655"/>
<path d="M326.668 52.4031L337.067 34.7366C337.079 34.7159 337.096 34.6987 337.117 34.6868C337.138 34.6749 337.162 34.6686 337.186 34.6686C337.21 34.6686 337.234 34.6749 337.255 34.6868C337.276 34.6987 337.293 34.7159 337.305 34.7366L347.704 52.4031C347.716 52.4237 347.722 52.4471 347.722 52.4709C347.722 52.4947 347.716 52.5181 347.704 52.5387C347.692 52.5593 347.674 52.5764 347.653 52.5883C347.632 52.6002 347.609 52.6065 347.585 52.6065H326.787C326.763 52.6065 326.74 52.6002 326.719 52.5883C326.698 52.5764 326.68 52.5593 326.668 52.5387C326.656 52.5181 326.65 52.4947 326.65 52.4709C326.65 52.4471 326.656 52.4237 326.668 52.4031Z" fill="#105655"/>
<path d="M351.054 52.367L361.411 34.7683C361.425 34.7449 361.446 34.7255 361.47 34.7121C361.494 34.6986 361.521 34.6916 361.549 34.6916C361.577 34.6916 361.604 34.6986 361.628 34.7121C361.652 34.7255 361.672 34.7449 361.687 34.7683L372.044 52.367C372.058 52.391 372.066 52.4184 372.067 52.4464C372.067 52.4744 372.06 52.5019 372.046 52.5263C372.032 52.5506 372.011 52.5709 371.987 52.585C371.962 52.5991 371.934 52.6065 371.906 52.6066H351.192C351.163 52.6065 351.135 52.5991 351.111 52.585C351.086 52.5709 351.066 52.5506 351.052 52.5263C351.038 52.5019 351.031 52.4744 351.031 52.4464C351.031 52.4184 351.039 52.391 351.054 52.367Z" fill="#0F3331"/>
<path d="M304.77 44.783L294.385 62.4405C294.372 62.4632 294.354 62.482 294.331 62.4951C294.309 62.5082 294.283 62.5152 294.257 62.5152C294.23 62.5152 294.205 62.5082 294.182 62.4951C294.159 62.482 294.141 62.4632 294.128 62.4405L283.743 44.783C283.73 44.761 283.724 44.7359 283.724 44.7104C283.724 44.6849 283.731 44.6599 283.744 44.6379C283.757 44.6158 283.775 44.5976 283.798 44.585C283.82 44.5724 283.846 44.5659 283.872 44.5661H304.641C304.667 44.5659 304.693 44.5724 304.715 44.585C304.738 44.5976 304.757 44.6158 304.77 44.6379C304.783 44.6599 304.79 44.6849 304.79 44.7104C304.79 44.7359 304.783 44.761 304.77 44.783Z" fill="#15958B"/>
<path d="M329.132 44.783L318.743 62.436C318.73 62.4586 318.712 62.4775 318.689 62.4906C318.666 62.5037 318.641 62.5106 318.614 62.5106C318.588 62.5106 318.563 62.5037 318.54 62.4906C318.517 62.4775 318.499 62.4586 318.486 62.436L308.097 44.783C308.084 44.761 308.077 44.7359 308.077 44.7104C308.077 44.6849 308.084 44.6599 308.097 44.6379C308.11 44.6158 308.129 44.5976 308.151 44.585C308.174 44.5724 308.199 44.5659 308.225 44.5661H329.004C329.03 44.5659 329.055 44.5724 329.078 44.585C329.1 44.5976 329.119 44.6158 329.132 44.6379C329.145 44.6599 329.152 44.6849 329.152 44.7104C329.152 44.7359 329.145 44.761 329.132 44.783Z" fill="#105655"/>
<path d="M271.564 63.5074L281.944 45.8679C281.958 45.8455 281.978 45.827 282.001 45.8141C282.024 45.8012 282.051 45.7945 282.077 45.7945C282.104 45.7945 282.13 45.8012 282.154 45.8141C282.177 45.827 282.197 45.8455 282.211 45.8679L292.591 63.5074C292.604 63.5306 292.612 63.5569 292.612 63.5837C292.612 63.6105 292.605 63.6369 292.591 63.6602C292.578 63.6835 292.558 63.7029 292.535 63.7165C292.512 63.7302 292.485 63.7375 292.458 63.7379H271.697C271.67 63.7375 271.643 63.7302 271.62 63.7165C271.596 63.7029 271.577 63.6835 271.564 63.6602C271.55 63.6369 271.543 63.6105 271.543 63.5837C271.543 63.5569 271.551 63.5306 271.564 63.5074Z" fill="#15958B"/>
<path d="M347.704 54.4007L337.319 72.0447C337.306 72.0682 337.287 72.0879 337.263 72.1017C337.24 72.1154 337.213 72.1226 337.186 72.1226C337.159 72.1226 337.132 72.1154 337.109 72.1017C337.085 72.0879 337.066 72.0682 337.053 72.0447L326.668 54.4007C326.656 54.3783 326.649 54.353 326.649 54.3274C326.649 54.3018 326.656 54.2766 326.669 54.2544C326.682 54.2321 326.701 54.2135 326.723 54.2003C326.745 54.1872 326.771 54.1799 326.797 54.1793H347.575C347.601 54.1799 347.627 54.1872 347.649 54.2003C347.672 54.2135 347.69 54.2321 347.703 54.2544C347.716 54.2766 347.723 54.3018 347.723 54.3274C347.723 54.353 347.717 54.3783 347.704 54.4007Z" fill="#105655"/>
<path d="M372.094 54.3775L361.682 72.0712C361.67 72.0918 361.652 72.109 361.631 72.1209C361.61 72.1328 361.587 72.1391 361.563 72.1391C361.538 72.1391 361.515 72.1328 361.494 72.1209C361.473 72.109 361.455 72.0918 361.443 72.0712L351.031 54.3775C351.019 54.3569 351.012 54.3335 351.012 54.3097C351.012 54.2859 351.019 54.2625 351.031 54.2419C351.043 54.2213 351.06 54.2042 351.081 54.1923C351.102 54.1804 351.126 54.1741 351.15 54.1741H371.975C371.999 54.1741 372.023 54.1804 372.044 54.1923C372.065 54.2042 372.082 54.2213 372.094 54.2419C372.106 54.2625 372.113 54.2859 372.113 54.3097C372.113 54.3335 372.106 54.3569 372.094 54.3775Z" fill="#0F3331"/>
<path d="M338.829 72.9027L349.232 55.2271C349.245 55.2055 349.263 55.1875 349.284 55.175C349.306 55.1625 349.331 55.1559 349.356 55.1559C349.381 55.1559 349.406 55.1625 349.428 55.175C349.45 55.1875 349.468 55.2055 349.48 55.2271L359.883 72.9027C359.896 72.9241 359.903 72.9486 359.904 72.9736C359.904 72.9985 359.897 73.0231 359.885 73.0448C359.872 73.0665 359.854 73.0844 359.832 73.0968C359.81 73.1092 359.785 73.1155 359.759 73.1151H338.953C338.928 73.1155 338.903 73.1092 338.88 73.0968C338.858 73.0844 338.84 73.0665 338.827 73.0448C338.815 73.0231 338.808 72.9985 338.809 72.9736C338.809 72.9486 338.816 72.9241 338.829 72.9027Z" fill="#0F3331"/>
<path d="M363.215 72.8899L373.6 55.246C373.613 55.2224 373.632 55.2027 373.655 55.189C373.679 55.1752 373.705 55.168 373.733 55.168C373.76 55.168 373.787 55.1752 373.81 55.189C373.834 55.2027 373.853 55.2224 373.866 55.246L384.251 72.8899C384.263 72.9123 384.27 72.9376 384.27 72.9632C384.269 72.9889 384.263 73.014 384.25 73.0363C384.237 73.0585 384.218 73.0771 384.196 73.0903C384.174 73.1034 384.148 73.1107 384.122 73.1114H363.343C363.317 73.1107 363.292 73.1034 363.27 73.0903C363.247 73.0771 363.229 73.0585 363.216 73.0363C363.203 73.014 363.196 72.9889 363.196 72.9632C363.196 72.9376 363.202 72.9123 363.215 72.8899Z" fill="#0F3331"/>
<path d="M335.41 73.3594L314.599 73.3549C314.574 73.3552 314.549 73.3489 314.527 73.3365C314.505 73.3242 314.486 73.3062 314.474 73.2846C314.461 73.2629 314.455 73.2383 314.455 73.2133C314.455 73.1883 314.462 73.1639 314.475 73.1424L324.897 55.4623C324.909 55.4407 324.927 55.4227 324.949 55.4102C324.971 55.3977 324.995 55.3911 325.021 55.3911C325.046 55.3911 325.071 55.3977 325.092 55.4102C325.114 55.4227 325.132 55.4407 325.145 55.4623L335.534 73.147C335.547 73.1684 335.554 73.1928 335.554 73.2178C335.555 73.2428 335.548 73.2674 335.535 73.2891C335.523 73.3108 335.505 73.3287 335.483 73.3411C335.46 73.3534 335.435 73.3598 335.41 73.3594Z" fill="#105655"/>
<path d="M292.581 65.6357L282.219 83.2751C282.206 83.2987 282.187 83.3184 282.164 83.3321C282.14 83.3459 282.114 83.3531 282.086 83.3531C282.059 83.3531 282.032 83.3459 282.009 83.3321C281.985 83.3184 281.966 83.2987 281.953 83.2751L271.559 65.6357C271.545 65.6132 271.538 65.5875 271.538 65.5612C271.537 65.5349 271.544 65.5089 271.557 65.486C271.57 65.4631 271.589 65.4439 271.612 65.4305C271.635 65.4171 271.661 65.41 271.688 65.4097H292.453C292.479 65.41 292.506 65.4171 292.529 65.4305C292.552 65.4439 292.571 65.4631 292.584 65.486C292.597 65.5089 292.603 65.5349 292.603 65.5612C292.602 65.5875 292.595 65.6132 292.581 65.6357Z" fill="#15958B"/>
<path d="M259.357 84.1345L269.765 66.4409C269.777 66.4202 269.795 66.4031 269.815 66.3911C269.836 66.3792 269.86 66.3729 269.884 66.3729C269.909 66.3729 269.932 66.3792 269.953 66.3911C269.974 66.4031 269.992 66.4202 270.004 66.4409L280.411 84.1345C280.424 84.1551 280.43 84.1785 280.43 84.2023C280.43 84.2261 280.423 84.2495 280.411 84.2702C280.399 84.2908 280.382 84.3079 280.361 84.3198C280.34 84.3317 280.316 84.3379 280.292 84.3379H259.477C259.452 84.3379 259.429 84.3317 259.408 84.3198C259.387 84.3079 259.369 84.2908 259.357 84.2702C259.345 84.2495 259.339 84.2261 259.339 84.2023C259.339 84.1785 259.345 84.1551 259.357 84.1345Z" fill="#15958B"/>
<path d="M375.508 93.7966L385.907 76.1165C385.919 76.0958 385.936 76.0787 385.957 76.0668C385.978 76.0548 386.002 76.0486 386.026 76.0486C386.051 76.0486 386.074 76.0548 386.095 76.0668C386.116 76.0787 386.134 76.0958 386.146 76.1165L396.544 93.7966C396.556 93.8172 396.563 93.8406 396.563 93.8644C396.563 93.8882 396.556 93.9116 396.544 93.9322C396.532 93.9528 396.515 93.9699 396.494 93.9818C396.473 93.9937 396.449 94 396.425 94H375.628C375.604 94 375.58 93.9937 375.559 93.9818C375.538 93.9699 375.521 93.9528 375.508 93.9322C375.496 93.9116 375.49 93.8882 375.49 93.8644C375.49 93.8406 375.496 93.8172 375.508 93.7966Z" fill="#0F3331"/>
<path d="M376.926 77.2741C377.143 77.3133 377.353 77.3133 377.555 77.2741C377.656 77.253 377.712 77.2937 377.725 77.3961L377.743 77.5769C377.746 77.5949 377.744 77.6133 377.739 77.6307C377.733 77.6482 377.724 77.6643 377.711 77.6781C377.699 77.6918 377.683 77.7028 377.665 77.7103C377.648 77.7178 377.629 77.7216 377.61 77.7215L376.454 77.717C376.218 77.717 376.138 77.6055 376.215 77.3826C376.288 77.1747 376.353 76.9577 376.408 76.7318C376.463 76.4847 376.62 76.3325 376.88 76.2753C377.162 76.212 377.393 76.2497 377.573 76.3883C377.842 76.5992 377.807 76.6835 377.468 76.6414C377.177 76.6082 376.949 76.6745 376.784 76.8402C376.751 76.8738 376.727 76.9157 376.716 76.9614C376.705 77.007 376.707 77.0548 376.722 77.0994C376.737 77.1441 376.763 77.184 376.799 77.2148C376.835 77.2455 376.879 77.266 376.926 77.2741Z" fill="#1A3F3D"/>
<path d="M321.529 78.2948H321.093C320.918 78.2948 320.831 78.2089 320.831 78.0372V77.8248C320.831 77.7662 320.843 77.7082 320.867 77.6545C320.89 77.6008 320.925 77.5525 320.969 77.5126C321.012 77.4727 321.063 77.4421 321.12 77.4227C321.176 77.4033 321.235 77.3956 321.295 77.3999C321.747 77.4331 321.934 77.6425 321.854 78.0281C321.84 78.1031 321.8 78.1709 321.741 78.2196C321.681 78.2684 321.606 78.295 321.529 78.2948Z" fill="#1A3F3D"/>
<path d="M322.524 77.8928C322.491 77.7301 322.586 77.5915 322.809 77.477C322.878 77.4387 322.956 77.4214 323.034 77.4273C323.453 77.4424 323.63 77.6352 323.566 78.0058C323.539 78.1444 323.458 78.2318 323.323 78.2679C323.121 78.3191 322.911 78.3236 322.694 78.2815C322.587 78.2604 322.535 78.1956 322.538 78.0871C322.541 78.0239 322.537 77.9591 322.524 77.8928Z" fill="#1A3F3D"/>
<path d="M356.882 78.2949L356.414 78.2814C356.264 78.2783 356.17 78.2045 356.134 78.0599C356.112 77.9665 356.105 77.8746 356.111 77.7842C356.121 77.6796 356.171 77.5828 356.25 77.5132C356.329 77.4436 356.432 77.4064 356.537 77.4091C357.113 77.4212 357.295 77.6727 357.084 78.1638C357.067 78.2026 357.039 78.2357 357.003 78.2591C356.967 78.2824 356.925 78.2949 356.882 78.2949Z" fill="#1A3F3D"/>
<path d="M358.855 77.7169L358.814 78.0468C358.796 78.2125 358.702 78.2954 358.534 78.2954H358.08C357.859 78.2954 357.765 78.1884 357.795 77.9745L357.827 77.7531C357.855 77.5693 357.962 77.4759 358.149 77.4729L358.617 77.4638C358.65 77.463 358.683 77.4692 358.713 77.4819C358.744 77.4945 358.771 77.5135 358.794 77.5374C358.816 77.5613 358.833 77.5897 358.844 77.6207C358.855 77.6516 358.858 77.6844 358.855 77.7169Z" fill="#1A3F3D"/>
<path d="M315.15 82.38C314.728 80.8705 313.48 80.4095 312.167 81.4445C312.063 81.5289 311.962 81.5243 311.864 81.4309L311.387 80.979C311.28 80.8766 311.28 80.7756 311.387 80.6762C312.436 79.6789 313.594 79.5087 314.861 80.1655C315.959 80.7349 316.484 81.8045 316.435 83.3743C316.429 83.5641 316.329 83.659 316.137 83.659H309.478C309.113 83.659 308.763 83.5162 308.504 83.2619C308.246 83.0076 308.101 82.6628 308.101 82.3032L308.097 78.1137C308.097 78.0978 308.1 78.0822 308.106 78.0676C308.112 78.0531 308.122 78.0399 308.133 78.0289C308.145 78.018 308.158 78.0094 308.174 78.0038C308.189 77.9981 308.205 77.9955 308.221 77.9962L309.244 78.0052C309.274 78.0052 309.304 78.0171 309.325 78.0383C309.347 78.0595 309.359 78.0882 309.359 78.1182V81.901C309.359 82.0951 309.437 82.2814 309.576 82.4187C309.716 82.556 309.905 82.6331 310.102 82.6331L314.948 82.6376C314.98 82.6381 315.012 82.6312 315.041 82.6174C315.07 82.6037 315.095 82.5835 315.114 82.5585C315.134 82.5335 315.147 82.5044 315.154 82.4734C315.16 82.4424 315.158 82.4105 315.15 82.38Z" fill="#1A3F3D"/>
<path d="M328.756 78.5023C328.805 78.0775 329.054 77.9087 329.504 77.9961C329.627 78.0202 329.72 78.079 329.784 78.1724C329.854 78.2748 329.885 78.3863 329.876 78.5068C329.858 78.7147 329.743 78.8277 329.532 78.8458C329.321 78.8669 329.123 78.8458 328.94 78.7825C328.802 78.7373 328.741 78.6439 328.756 78.5023Z" fill="#1A3F3D"/>
<path d="M330.973 78.8915C330.903 78.8942 330.833 78.8814 330.77 78.854C330.706 78.8266 330.65 78.7853 330.606 78.7333C330.498 78.6067 330.456 78.4621 330.477 78.2994C330.505 78.1036 330.619 78.0072 330.821 78.0102L331.216 78.0147C331.387 78.0177 331.494 78.1006 331.537 78.2633C331.635 78.6549 331.447 78.8643 330.973 78.8915Z" fill="#1A3F3D"/>
<path d="M335.401 80.6993C335.401 80.8048 335.438 80.8199 335.511 80.7445C337.347 78.887 340.843 79.1672 340.981 82.2902C340.993 82.5252 341.119 82.6427 341.357 82.6427L342.349 82.6337C342.765 82.6306 342.971 82.4243 342.968 82.0145L342.959 80.279C342.958 80.2486 342.964 80.2183 342.975 80.1901C342.987 80.1619 343.004 80.1362 343.026 80.1147C343.048 80.0931 343.074 80.0762 343.103 80.0648C343.131 80.0535 343.162 80.0479 343.193 80.0485L344.125 80.0531C344.277 80.0531 344.352 80.1284 344.349 80.279L344.294 82.3309C344.291 82.5357 344.394 82.6382 344.602 82.6382H347.465C347.704 82.6382 347.854 82.5252 347.915 82.2992C348.279 80.9344 349.201 80.4432 350.682 80.8259C351.352 81.0006 351.767 81.4044 351.926 82.0371C352.458 84.1522 349.787 85.0651 348.42 83.8178C348.307 83.7153 348.172 83.6641 348.016 83.6641C341.295 83.6611 333.478 83.6596 324.566 83.6596C323.808 83.6596 323.249 83.3764 322.891 82.8099C322.769 82.6201 322.619 82.5945 322.442 82.7331C322.328 82.8205 322.205 82.8807 322.07 82.9139C318.858 83.6957 318.408 79.7728 320.845 79.0136C321.603 78.7786 322.55 78.7153 323.685 78.8238C323.887 78.8418 323.982 78.9503 323.97 79.1492C323.887 80.2971 323.933 81.4209 324.107 82.5207C324.111 82.5388 324.121 82.5478 324.14 82.5478C325.535 82.6623 326.894 82.6834 328.219 82.6111C328.283 82.608 328.306 82.5764 328.288 82.5162C326.962 78.7063 333.474 78.6339 332.413 82.4936C332.386 82.59 332.423 82.6382 332.524 82.6382H334.047C334.151 82.6382 334.203 82.587 334.203 82.4845L334.194 78.1458C334.194 78.0464 334.244 77.9967 334.345 77.9967L335.282 78.0103C335.296 78.0103 335.31 78.0131 335.324 78.0185C335.337 78.024 335.349 78.032 335.359 78.042C335.37 78.0521 335.378 78.0641 335.383 78.0772C335.389 78.0904 335.392 78.1045 335.392 78.1187L335.401 80.6993ZM321.634 82.1456C321.758 82.1686 321.885 82.1648 322.007 82.1343C322.129 82.1038 322.243 82.0474 322.34 81.969C322.438 81.8907 322.517 81.7922 322.571 81.6806C322.626 81.569 322.656 81.447 322.657 81.323L322.68 79.8226C322.683 79.6659 322.607 79.58 322.451 79.565C320.386 79.3435 319.996 81.8518 321.634 82.1456ZM330.087 82.7726C330.216 82.7935 330.349 82.7856 330.477 82.7494C330.606 82.7133 330.728 82.6496 330.836 82.5621C330.944 82.4745 331.037 82.3647 331.108 82.239C331.18 82.1133 331.229 81.9742 331.253 81.8295C331.302 81.5373 331.245 81.2404 331.095 81.0041C330.945 80.7678 330.714 80.6114 330.454 80.5694C330.325 80.5486 330.192 80.5565 330.064 80.5926C329.935 80.6287 329.813 80.6924 329.705 80.78C329.597 80.8675 329.504 80.9773 329.433 81.103C329.361 81.2287 329.312 81.3679 329.288 81.5125C329.239 81.8047 329.296 82.1016 329.446 82.3379C329.596 82.5742 329.827 82.7306 330.087 82.7726ZM335.713 81.9874C335.331 82.4212 335.43 82.6367 336.011 82.6337L339.393 82.6246C339.439 82.6247 339.484 82.6147 339.526 82.5956C339.567 82.5764 339.604 82.5485 339.634 82.5137C339.664 82.4789 339.685 82.4381 339.698 82.394C339.71 82.35 339.713 82.3037 339.705 82.2585C339.513 81.0654 338.858 80.5155 337.741 80.6089C337.182 80.6555 336.662 80.9148 336.291 81.3321L335.713 81.9874ZM349.899 83.5319C350.02 83.5376 350.142 83.5165 350.257 83.47C350.372 83.4235 350.477 83.3524 350.568 83.2609C350.658 83.1693 350.732 83.059 350.784 82.9362C350.837 82.8135 350.867 82.6808 350.874 82.5456C350.88 82.4105 350.863 82.2755 350.822 82.1484C350.782 82.0214 350.719 81.9048 350.637 81.8052C350.556 81.7056 350.458 81.625 350.348 81.5681C350.238 81.5112 350.119 81.4789 349.997 81.4733C349.876 81.4676 349.754 81.4887 349.639 81.5352C349.524 81.5817 349.419 81.6528 349.328 81.7443C349.237 81.8359 349.164 81.9462 349.111 82.069C349.059 82.1917 349.028 82.3244 349.022 82.4596C349.015 82.5947 349.033 82.7297 349.074 82.8568C349.114 82.9838 349.177 83.1004 349.258 83.2C349.34 83.2996 349.438 83.3802 349.548 83.4371C349.658 83.494 349.777 83.5263 349.899 83.5319Z" fill="#1A3F3D"/>
<path d="M371.539 82.2947C371.654 80.0666 375.517 80.1932 375.582 82.4936C375.632 84.3149 373.209 84.9205 371.998 83.8358C371.869 83.7183 371.718 83.6596 371.543 83.6596L369.125 83.6551C368.79 83.6551 368.469 83.5241 368.233 83.291C367.996 83.058 367.863 82.7418 367.863 82.4122V78.1187C367.863 78.0374 367.904 77.9967 367.987 77.9967L369.01 78.0057C369.039 78.0057 369.068 78.0176 369.088 78.0388C369.109 78.06 369.12 78.0888 369.12 78.1187L369.111 81.8925C369.111 82.3836 369.361 82.6306 369.859 82.6337L371.167 82.6427C371.403 82.6427 371.527 82.5267 371.539 82.2947ZM373.489 83.5236C373.612 83.5268 373.735 83.5035 373.85 83.4552C373.965 83.4068 374.07 83.3342 374.159 83.2417C374.249 83.1491 374.321 83.0383 374.371 82.9156C374.421 82.793 374.449 82.6608 374.452 82.5267C374.46 82.2559 374.368 81.9937 374.198 81.7977C374.027 81.6017 373.792 81.488 373.544 81.4816C373.421 81.4784 373.299 81.5017 373.184 81.55C373.069 81.5984 372.964 81.671 372.874 81.7635C372.785 81.8561 372.713 81.9669 372.662 82.0896C372.612 82.2122 372.584 82.3444 372.581 82.4785C372.574 82.7493 372.665 83.0115 372.836 83.2075C373.006 83.4035 373.241 83.5172 373.489 83.5236Z" fill="#1A3F3D"/>
<path d="M377.312 78.0235H376.458C376.342 78.0235 376.247 78.1166 376.247 78.2314V83.4559C376.247 83.5707 376.342 83.6638 376.458 83.6638H377.312C377.429 83.6638 377.523 83.5707 377.523 83.4559V78.2314C377.523 78.1166 377.429 78.0235 377.312 78.0235Z" fill="#1A3F3D"/>
<path d="M299.892 82.6379L305.582 82.6333C305.673 82.6333 305.761 82.5976 305.825 82.5341C305.89 82.4705 305.926 82.3843 305.926 82.2944L305.949 80.3601C305.95 80.3173 305.959 80.2751 305.976 80.2359C305.993 80.1966 306.018 80.1611 306.049 80.1313C306.08 80.1015 306.117 80.078 306.157 80.0622C306.198 80.0464 306.241 80.0386 306.284 80.0392L306.917 80.0527C307.086 80.0557 307.167 80.1401 307.161 80.3058C307.115 81.5216 307.665 83.6276 305.747 83.6457C303.713 83.6668 301.681 83.6698 299.653 83.6547C299.482 83.6517 299.355 83.724 299.272 83.8717C298.44 85.3089 297.196 85.8979 295.541 85.6388C293.443 85.3104 292.448 83.8702 292.559 81.3182C292.562 81.2519 292.597 81.2188 292.664 81.2188L293.632 81.2413C293.709 81.2413 293.746 81.2805 293.742 81.3589C293.617 83.254 294.327 84.3086 295.872 84.5225C296.759 84.649 297.45 84.3673 297.946 83.6773C298.744 82.5701 298.437 79.5827 298.451 78.254C298.451 78.1666 298.495 78.1229 298.584 78.1229H299.488C299.561 78.1229 299.598 78.1591 299.598 78.2314L299.603 82.3577C299.603 82.5445 299.699 82.6379 299.892 82.6379Z" fill="#1A3F3D"/>
<path d="M306.449 79.0991L307.271 79.212C307.341 79.2211 307.376 79.2587 307.376 79.325L307.381 79.4606C307.384 79.5118 307.361 79.5374 307.312 79.5374H306.119C305.911 79.5374 305.824 79.4365 305.857 79.2346C306.023 78.2976 306.52 77.9963 307.349 78.3307C307.367 78.3398 307.373 78.3533 307.367 78.3714L307.33 78.4844C307.306 78.5658 307.252 78.5989 307.17 78.5838C306.836 78.5236 306.564 78.6049 306.353 78.8279C306.209 78.9815 306.241 79.0719 306.449 79.0991Z" fill="#1A3F3D"/>
<path d="M343.563 79.5947C343.876 79.5672 344.112 79.3494 344.09 79.1083C344.068 78.8671 343.797 78.6939 343.484 78.7214C343.171 78.7489 342.935 78.9667 342.957 79.2079C342.978 79.449 343.25 79.6222 343.563 79.5947Z" fill="#1A3F3D"/>
<path d="M365.803 79.3931C365.616 78.9441 365.813 78.7182 366.395 78.7151C366.463 78.715 366.53 78.7312 366.59 78.7624C366.65 78.7935 366.702 78.8387 366.74 78.8939C366.778 78.9491 366.803 79.0128 366.81 79.0793C366.818 79.1458 366.809 79.2132 366.785 79.2756C366.693 79.5136 366.468 79.6251 366.11 79.61C365.963 79.601 365.861 79.5287 365.803 79.3931Z" fill="#1A3F3D"/>
<path d="M357.813 82.7195C356.662 83.3116 354.766 83.063 354.633 81.4767C354.413 78.7966 357.01 78.6113 359.002 78.8328C359.176 78.8509 359.264 78.9473 359.264 79.122V81.906C359.264 82.1002 359.342 82.2864 359.481 82.4237C359.621 82.561 359.81 82.6382 360.007 82.6382H365.238C365.299 82.6382 365.359 82.6264 365.416 82.6034C365.472 82.5805 365.523 82.5469 365.566 82.5045C365.609 82.4621 365.643 82.4118 365.667 82.3564C365.69 82.301 365.702 82.2416 365.702 82.1817L365.711 80.3739C365.711 80.157 365.821 80.0485 366.041 80.0485L366.638 80.044C366.707 80.044 366.774 80.0711 366.823 80.1194C366.872 80.1678 366.9 80.2333 366.9 80.3016L366.895 82.5478C366.894 82.8391 366.776 83.1182 366.567 83.3246C366.359 83.5311 366.076 83.6481 365.78 83.6505C363.963 83.6626 362.011 83.6656 359.924 83.6596C359.15 83.6565 358.554 83.3688 358.135 82.7963C358.049 82.6788 357.942 82.6532 357.813 82.7195ZM356.983 82.1365C358.135 82.1501 358.084 80.6044 357.974 79.7909C357.959 79.6523 357.879 79.5755 357.735 79.5604C356.414 79.4248 355.446 80.4146 356.143 81.6484C356.226 81.7953 356.348 81.9178 356.496 82.0035C356.643 82.0893 356.811 82.1351 356.983 82.1365Z" fill="#1A3F3D"/>
<path d="M299.795 93.3179C295.321 95.9572 293.591 87.8358 298.579 87.9126C299.576 87.9277 300.286 88.4429 300.708 89.4582C300.773 89.6089 300.736 89.7294 300.598 89.8198C300.464 89.9102 300.314 89.9298 300.148 89.8785C300.011 89.8334 299.905 89.7505 299.832 89.63C299.293 88.7532 298.544 88.5122 297.583 88.9069C295.954 89.5757 296.138 92.7529 298.051 92.997C298.923 93.1115 299.563 92.7544 299.969 91.9259C299.999 91.865 300.012 91.7978 300.007 91.7307C300.003 91.6636 299.981 91.5988 299.944 91.5425C299.907 91.4863 299.857 91.4405 299.797 91.4095C299.737 91.3785 299.67 91.3633 299.602 91.3655L298.464 91.3971C298.442 91.3977 298.42 91.3939 298.399 91.3859C298.379 91.3779 298.36 91.3658 298.344 91.3505C298.329 91.3352 298.317 91.317 298.309 91.297C298.301 91.277 298.298 91.2557 298.299 91.2344L298.317 90.787C298.324 90.6303 298.406 90.5519 298.565 90.5519H300.571C300.754 90.5519 300.846 90.6423 300.846 90.8231L300.837 93.458C300.837 93.6448 300.742 93.7382 300.552 93.7382C300.341 93.7382 300.21 93.6463 300.158 93.4625C300.1 93.2576 299.979 93.2094 299.795 93.3179Z" fill="#1A3F3D"/>
<path d="M306.925 93.8682C306.555 93.8746 306.187 93.8032 305.843 93.658C305.498 93.5129 305.184 93.2969 304.917 93.0223C304.651 92.7478 304.437 92.4201 304.289 92.0579C304.141 91.6958 304.061 91.3063 304.054 90.9117C304.047 90.517 304.113 90.125 304.249 89.758C304.384 89.391 304.585 89.0562 304.842 88.7726C305.099 88.4891 305.405 88.2624 305.744 88.1055C306.083 87.9486 306.448 87.8646 306.818 87.8582C307.188 87.8519 307.556 87.9233 307.901 88.0684C308.245 88.2136 308.56 88.4296 308.826 88.7041C309.093 88.9787 309.306 89.3064 309.454 89.6685C309.602 90.0307 309.682 90.4202 309.689 90.8148C309.696 91.2094 309.63 91.6014 309.495 91.9684C309.36 92.3354 309.158 92.6703 308.901 92.9538C308.645 93.2374 308.338 93.464 307.999 93.6209C307.66 93.7778 307.295 93.8619 306.925 93.8682ZM306.875 93.0235C307.123 93.0231 307.367 92.9668 307.595 92.8579C307.823 92.7489 308.03 92.5894 308.205 92.3885C308.379 92.1876 308.517 91.9492 308.611 91.6869C308.705 91.4247 308.754 91.1437 308.753 90.86C308.752 90.287 308.553 89.7379 308.199 89.3334C307.846 88.9288 307.367 88.7021 306.868 88.7029C306.621 88.7033 306.376 88.7596 306.148 88.8686C305.92 88.9776 305.713 89.137 305.539 89.3379C305.364 89.5388 305.226 89.7772 305.132 90.0395C305.038 90.3018 304.99 90.5828 304.99 90.8665C304.991 91.4394 305.19 91.9885 305.544 92.3931C305.898 92.7976 306.376 93.0244 306.875 93.0235Z" fill="#1A3F3D"/>
<path d="M341.982 92.9834C342.638 92.9834 343.124 92.4275 343.28 91.84C343.345 91.5839 343.511 91.4559 343.781 91.4559H344.001C344.285 91.4528 344.382 91.5839 344.29 91.849C343.17 95.1708 339.196 94.05 339.371 90.7463C339.468 88.8993 340.33 87.9593 341.954 87.9262C342.997 87.9021 343.742 88.464 344.189 89.6119C344.203 89.648 344.208 89.6871 344.202 89.7255C344.197 89.7639 344.181 89.8002 344.156 89.8311C344.132 89.8619 344.1 89.8863 344.063 89.9017C344.026 89.9171 343.986 89.9232 343.946 89.9192L343.537 89.874C343.375 89.859 343.267 89.7761 343.212 89.6255C342.757 88.4188 341.188 88.4775 340.605 89.5486C339.972 90.7056 340.21 92.9789 341.982 92.9834Z" fill="#1A3F3D"/>
<path d="M265.135 91.3294L265.139 93.4626C265.139 93.5134 265.119 93.5621 265.083 93.5985C265.047 93.6348 264.998 93.6558 264.947 93.657L264.401 93.6615C264.374 93.6621 264.348 93.6575 264.324 93.648C264.299 93.6385 264.277 93.6243 264.258 93.6062C264.239 93.5881 264.224 93.5665 264.214 93.5426C264.204 93.5187 264.199 93.493 264.199 93.4671L264.208 88.1703C264.208 88.144 264.213 88.118 264.224 88.0938C264.234 88.0696 264.25 88.0478 264.269 88.0296C264.288 88.0115 264.311 87.9973 264.336 87.9881C264.361 87.9789 264.388 87.9748 264.414 87.976L264.951 87.9941C264.977 87.9947 265.003 88.0003 265.026 88.0106C265.05 88.0209 265.072 88.0357 265.09 88.0542C265.107 88.0727 265.121 88.0944 265.131 88.1182C265.14 88.142 265.145 88.1674 265.144 88.1929L265.126 90.1544C265.125 90.1807 265.13 90.2068 265.14 90.2312C265.15 90.2556 265.165 90.2778 265.183 90.2964C265.202 90.315 265.225 90.3296 265.25 90.3394C265.274 90.3491 265.301 90.3539 265.328 90.3532L267.576 90.3352C267.629 90.3352 267.679 90.3147 267.716 90.2782C267.753 90.2418 267.774 90.1924 267.774 90.1408L267.76 88.1839C267.759 88.1576 267.764 88.1315 267.774 88.1071C267.784 88.0827 267.799 88.0605 267.817 88.0419C267.836 88.0233 267.859 88.0087 267.884 87.9989C267.908 87.9892 267.935 87.9844 267.962 87.9851L268.494 87.9941C268.546 87.9941 268.596 88.0146 268.633 88.051C268.671 88.0875 268.691 88.1369 268.691 88.1884V93.4581C268.691 93.5089 268.671 93.5576 268.635 93.5939C268.599 93.6303 268.55 93.6513 268.499 93.6524L267.966 93.666C267.94 93.6666 267.914 93.662 267.889 93.6525C267.865 93.643 267.843 93.6288 267.824 93.6107C267.805 93.5926 267.79 93.571 267.78 93.5471C267.77 93.5232 267.764 93.4976 267.764 93.4717L267.769 91.3294C267.769 91.2779 267.748 91.2285 267.711 91.192C267.674 91.1556 267.624 91.1351 267.572 91.1351H265.332C265.28 91.1351 265.23 91.1556 265.193 91.192C265.156 91.2285 265.135 91.2779 265.135 91.3294Z" fill="#1A3F3D"/>
<path d="M272.867 92.0213L271.362 92.0168C271.184 92.0168 271.067 92.0997 271.008 92.2654L270.568 93.5173C270.561 93.5405 270.548 93.5616 270.531 93.5783C270.513 93.595 270.491 93.6067 270.467 93.6122C270.225 93.6755 269.97 93.686 269.701 93.6438C269.603 93.6288 269.571 93.576 269.604 93.4856L271.568 88.1888C271.591 88.127 271.633 88.0737 271.688 88.0365C271.743 87.9992 271.809 87.9798 271.876 87.9809L272.44 87.999C272.587 88.002 272.683 88.0713 272.729 88.2069L274.611 93.4856C274.617 93.5045 274.619 93.5246 274.616 93.5443C274.613 93.564 274.606 93.5828 274.594 93.5991C274.583 93.6154 274.567 93.6288 274.549 93.6381C274.532 93.6474 274.512 93.6525 274.491 93.6529L273.849 93.6619C273.721 93.6649 273.635 93.6062 273.592 93.4856L273.188 92.2518C273.136 92.0982 273.029 92.0213 272.867 92.0213ZM271.449 91.0271C271.441 91.0501 271.439 91.0747 271.442 91.0989C271.446 91.123 271.455 91.146 271.469 91.1658C271.484 91.1857 271.503 91.2019 271.525 91.2132C271.547 91.2244 271.571 91.2303 271.596 91.2304L272.582 91.2485C272.607 91.2489 272.631 91.2435 272.654 91.2328C272.676 91.2221 272.695 91.2065 272.71 91.1871C272.724 91.1677 272.734 91.1451 272.738 91.1212C272.743 91.0974 272.741 91.0728 272.734 91.0497L272.266 89.6351C272.257 89.6035 272.237 89.5757 272.211 89.5557C272.184 89.5358 272.152 89.5247 272.118 89.5242C272.085 89.5237 272.052 89.5338 272.025 89.5529C271.998 89.5721 271.978 89.5993 271.968 89.6306L271.449 91.0271Z" fill="#1A3F3D"/>
<path d="M276.304 87.9892H275.726C275.622 87.9892 275.538 88.0722 275.538 88.1745V93.4713C275.538 93.5736 275.622 93.6566 275.726 93.6566H276.304C276.408 93.6566 276.493 93.5736 276.493 93.4713V88.1745C276.493 88.0722 276.408 87.9892 276.304 87.9892Z" fill="#1A3F3D"/>
<path d="M278.741 92.8251L281.077 92.816C281.127 92.816 281.175 92.8355 281.21 92.8703C281.245 92.905 281.265 92.9522 281.265 93.0013V93.4714C281.265 93.5205 281.245 93.5676 281.21 93.6024C281.175 93.6371 281.127 93.6566 281.077 93.6566L277.814 93.6612C277.764 93.6612 277.716 93.6416 277.681 93.6069C277.646 93.5721 277.626 93.525 277.626 93.4759L277.635 88.1746C277.635 88.1498 277.64 88.1254 277.65 88.1026C277.66 88.0798 277.674 88.0592 277.692 88.0419C277.71 88.0246 277.731 88.0111 277.754 88.002C277.778 87.993 277.803 87.9886 277.828 87.9893L278.374 87.9938C278.423 87.9949 278.47 88.015 278.504 88.0496C278.538 88.0842 278.558 88.1307 278.558 88.1791L278.553 92.6398C278.553 92.6889 278.573 92.736 278.608 92.7708C278.643 92.8055 278.691 92.8251 278.741 92.8251Z" fill="#1A3F3D"/>
<path d="M285.588 91.574L285.606 93.4631C285.607 93.4884 285.602 93.5136 285.593 93.5371C285.583 93.5607 285.569 93.5821 285.551 93.6003C285.533 93.6184 285.512 93.6327 285.488 93.6426C285.464 93.6524 285.439 93.6574 285.413 93.6574L284.808 93.6529C284.697 93.6529 284.642 93.5987 284.642 93.4902L284.661 88.2748C284.661 88.097 284.751 88.0051 284.931 87.9991C286.125 87.9539 287.163 87.9825 288.047 88.085C289.291 88.2341 289.374 89.9605 288.671 90.6656C288.577 90.759 288.566 90.8599 288.639 90.9684C288.964 91.4625 289.098 92.0335 289.043 92.6812C289.031 92.8439 289.06 92.9991 289.13 93.1467C289.164 93.216 289.208 93.2778 289.263 93.332C289.401 93.4706 289.375 93.567 289.185 93.6213C288.947 93.6876 288.705 93.6921 288.46 93.6348C288.265 93.5897 288.159 93.4676 288.144 93.2688L288.034 91.7819C288.012 91.4836 287.85 91.3344 287.547 91.3344L285.835 91.3254C285.667 91.3254 285.585 91.4083 285.588 91.574ZM285.556 89.0612L285.565 90.2724C285.565 90.3347 285.59 90.3945 285.635 90.4385C285.679 90.4826 285.74 90.5074 285.803 90.5074L287.364 90.4983C287.582 90.4971 287.791 90.4142 287.945 90.2677C288.098 90.1212 288.185 89.923 288.185 89.7165V89.599C288.185 89.4959 288.164 89.3938 288.122 89.2987C288.08 89.2035 288.019 89.1171 287.942 89.0445C287.864 88.9718 287.773 88.9143 287.672 88.8753C287.571 88.8363 287.463 88.8165 287.354 88.8171L285.794 88.8261C285.731 88.8261 285.67 88.8509 285.625 88.895C285.581 88.9391 285.556 88.9988 285.556 89.0612Z" fill="#1A3F3D"/>
<path d="M291.384 89.0061L291.407 90.1676C291.408 90.2147 291.428 90.2596 291.462 90.2925C291.496 90.3254 291.543 90.3438 291.59 90.3438L294.229 90.3303C294.278 90.3303 294.324 90.3493 294.359 90.3832C294.393 90.4171 294.413 90.4631 294.413 90.5111L294.417 90.9856C294.417 91.0097 294.412 91.0336 294.403 91.0558C294.393 91.0781 294.379 91.0982 294.362 91.1151C294.344 91.1319 294.324 91.1451 294.301 91.1539C294.278 91.1627 294.254 91.167 294.229 91.1664L291.59 91.1302C291.566 91.1296 291.542 91.1338 291.519 91.1427C291.496 91.1515 291.475 91.1647 291.458 91.1815C291.44 91.1984 291.426 91.2185 291.417 91.2408C291.407 91.263 291.402 91.2869 291.402 91.311L291.398 92.6442C291.398 92.6922 291.417 92.7382 291.451 92.7721C291.486 92.806 291.533 92.825 291.581 92.825L294.481 92.816C294.529 92.816 294.575 92.8344 294.61 92.8673C294.644 92.9002 294.664 92.9451 294.665 92.9922L294.674 93.4713C294.675 93.4954 294.67 93.5194 294.662 93.5419C294.653 93.5643 294.639 93.5848 294.622 93.6021C294.605 93.6193 294.585 93.633 294.562 93.6424C294.539 93.6518 294.515 93.6566 294.491 93.6566L290.654 93.6611C290.63 93.6611 290.606 93.6564 290.584 93.6473C290.562 93.6383 290.541 93.625 290.524 93.6082C290.507 93.5914 290.494 93.5714 290.485 93.5495C290.475 93.5276 290.471 93.5041 290.471 93.4803L290.475 88.17C290.475 88.122 290.495 88.076 290.529 88.0421C290.563 88.0082 290.61 87.9892 290.659 87.9892L294.348 87.9937C294.396 87.9937 294.442 88.0121 294.477 88.0451C294.511 88.078 294.531 88.1228 294.532 88.17L294.541 88.64C294.542 88.6641 294.537 88.6881 294.528 88.7106C294.52 88.733 294.506 88.7535 294.489 88.7708C294.472 88.788 294.451 88.8017 294.429 88.8111C294.406 88.8205 294.382 88.8253 294.358 88.8253L291.567 88.8208C291.543 88.8208 291.519 88.8256 291.496 88.835C291.474 88.8443 291.453 88.858 291.436 88.8753C291.419 88.8926 291.405 88.913 291.397 88.9355C291.388 88.958 291.383 88.982 291.384 89.0061Z" fill="#1A3F3D"/>
<path d="M302.769 87.9847H302.191C302.094 87.9847 302.016 88.0616 302.016 88.1564V93.4894C302.016 93.5843 302.094 93.6611 302.191 93.6611H302.769C302.865 93.6611 302.943 93.5843 302.943 93.4894V88.1564C302.943 88.0616 302.865 87.9847 302.769 87.9847Z" fill="#1A3F3D"/>
<path d="M314.402 91.673V88.1433C314.402 88.0378 314.454 87.9866 314.558 87.9896L315.122 87.9987C315.257 88.0017 315.324 88.0695 315.324 88.2021V93.3859C315.324 93.5666 315.232 93.6646 315.049 93.6796C314.85 93.6917 314.662 93.6751 314.484 93.6299C314.347 93.5938 314.24 93.5169 314.163 93.3994L311.892 89.8381C311.739 89.6001 311.662 89.6212 311.662 89.9014L311.676 93.3949C311.676 93.5727 311.586 93.6616 311.405 93.6616H311.029C310.839 93.6616 310.744 93.5682 310.744 93.3813L310.754 88.2653C310.754 88.0876 310.842 87.9912 311.02 87.9761C311.228 87.955 311.431 87.9701 311.63 88.0213C311.762 88.0514 311.863 88.1237 311.933 88.2382L314.126 91.7453C314.31 92.0376 314.402 92.0135 314.402 91.673Z" fill="#1A3F3D"/>
<path d="M323.217 90.3484C322.853 91.3005 322.515 92.2948 322.203 93.3312C322.163 93.4638 322.079 93.5602 321.951 93.6205C321.733 93.7199 321.516 93.7154 321.299 93.6069C321.177 93.5436 321.094 93.4412 321.051 93.2996C320.742 92.2902 320.415 91.3246 320.069 90.4026C319.929 90.02 319.858 90.032 319.858 90.4388V93.4939C319.858 93.5163 319.854 93.5384 319.844 93.559C319.835 93.5796 319.822 93.5982 319.806 93.6138C319.789 93.6294 319.769 93.6416 319.747 93.6497C319.726 93.6579 319.702 93.6617 319.679 93.6611L319.101 93.6521C318.988 93.6491 318.931 93.5918 318.931 93.4804L318.936 88.283C318.936 88.0871 319.035 87.9892 319.234 87.9892L319.909 87.9937C320.037 87.9937 320.121 88.054 320.161 88.1745L321.529 92.1336C321.605 92.3565 321.681 92.3565 321.758 92.1336L323.08 88.2016C323.132 88.057 323.236 87.9847 323.392 87.9847L324.043 87.9937C324.242 87.9968 324.342 88.0962 324.342 88.292V93.4758C324.342 93.5873 324.285 93.6446 324.172 93.6476L323.589 93.6657C323.47 93.6687 323.41 93.6114 323.41 93.4939L323.415 90.3845C323.415 90.023 323.349 90.0109 323.217 90.3484Z" fill="#1A3F3D"/>
<path d="M327.93 93.0331C328.774 93.0482 329.197 92.6399 329.197 91.8083V88.2018C329.197 88.1455 329.219 88.0914 329.26 88.0516C329.3 88.0118 329.355 87.9894 329.412 87.9894H329.912C330.053 87.9894 330.124 88.0587 330.124 88.1973V91.7044C330.124 92.9728 329.484 93.6779 328.205 93.8195C327.985 93.8436 327.762 93.8421 327.535 93.815C326.275 93.6583 325.645 92.9548 325.645 91.7044V88.1792C325.645 88.1493 325.651 88.1197 325.663 88.0923C325.675 88.065 325.693 88.0404 325.715 88.0204C325.737 88.0003 325.763 87.9852 325.791 87.976C325.819 87.9667 325.849 87.9636 325.879 87.9668L326.374 88.0075C326.503 88.0165 326.567 88.0858 326.567 88.2154V91.8354C326.567 92.6158 326.963 93.0135 327.756 93.0286L327.93 93.0331Z" fill="#1A3F3D"/>
<path d="M335.048 91.6725L335.052 88.1383C335.052 88.0359 335.106 87.9846 335.213 87.9846L335.768 87.9982C335.906 88.0012 335.975 88.069 335.975 88.2016V93.3809C335.975 93.5526 335.889 93.6505 335.718 93.6746C335.309 93.7289 334.97 93.6656 334.736 93.2995C333.977 92.0943 333.244 90.9389 332.537 89.8331C332.385 89.5921 332.31 89.6132 332.313 89.8964L332.331 93.417C332.331 93.5797 332.25 93.6611 332.088 93.6611H331.679C331.493 93.6611 331.399 93.5677 331.399 93.3809L331.404 88.2603C331.404 88.0856 331.493 87.9892 331.67 87.9711C331.878 87.953 332.077 87.9681 332.267 88.0163C332.404 88.0494 332.511 88.1262 332.588 88.2468L334.777 91.7493C334.957 92.0386 335.048 92.013 335.048 91.6725Z" fill="#1A3F3D"/>
<path d="M338.122 87.9936H337.461C337.388 87.9936 337.328 88.0523 337.328 88.1247V93.5209C337.328 93.5933 337.388 93.652 337.461 93.652H338.122C338.196 93.652 338.255 93.5933 338.255 93.5209V88.1247C338.255 88.0523 338.196 87.9936 338.122 87.9936Z" fill="#1A3F3D"/>
<path d="M346.089 87.9892L345.502 87.9882C345.405 87.988 345.327 88.0648 345.327 88.1596L345.317 93.4835C345.317 93.5784 345.395 93.6554 345.491 93.6556L346.079 93.6566C346.175 93.6567 346.253 93.58 346.254 93.4851L346.263 88.1612C346.263 88.0664 346.185 87.9894 346.089 87.9892Z" fill="#1A3F3D"/>
<path d="M348.576 91.5822L348.571 93.4668C348.571 93.5873 348.51 93.6491 348.388 93.6521L347.874 93.6656C347.846 93.6662 347.818 93.6613 347.791 93.6511C347.765 93.6409 347.741 93.6257 347.721 93.6064C347.701 93.587 347.685 93.5639 347.674 93.5383C347.664 93.5128 347.658 93.4854 347.658 93.4577V88.2604C347.658 88.0796 347.751 87.9892 347.938 87.9892L350.453 87.9982C350.701 87.9983 350.944 88.0692 351.152 88.2025C351.359 88.3357 351.523 88.5254 351.623 88.7485C352.017 89.6282 351.904 90.3664 351.283 90.963C350.687 91.537 349.604 91.3381 348.833 91.3336C348.661 91.3306 348.576 91.4134 348.576 91.5822ZM348.548 89.0603V90.3077C348.548 90.3712 348.574 90.4321 348.619 90.477C348.665 90.522 348.727 90.5472 348.791 90.5472H350.063C350.289 90.5472 350.506 90.4633 350.666 90.3142C350.826 90.165 350.916 89.9627 350.916 89.7518V89.6162C350.916 89.5117 350.894 89.4083 350.851 89.3118C350.808 89.2153 350.745 89.1276 350.666 89.0537C350.587 88.9798 350.493 88.9212 350.389 88.8813C350.286 88.8413 350.175 88.8208 350.063 88.8208H348.791C348.727 88.8208 348.665 88.846 348.619 88.8909C348.574 88.9358 348.548 88.9968 348.548 89.0603Z" fill="#1A3F3D"/>
<path d="M353.545 92.3011L353.16 93.4355C353.108 93.5892 352.999 93.6645 352.834 93.6615H352.357C352.186 93.6585 352.129 93.5771 352.187 93.4174L354.092 88.2472C354.114 88.1874 354.151 88.1342 354.199 88.0923C354.247 88.0505 354.305 88.0214 354.367 88.0077C354.572 87.9625 354.78 87.961 354.991 88.0031C355.147 88.0333 355.253 88.1237 355.308 88.2743L357.143 93.422C357.201 93.5817 357.143 93.6615 356.969 93.6615H356.482C356.299 93.6615 356.178 93.5741 356.12 93.3994L355.753 92.274C355.695 92.1053 355.575 92.0209 355.395 92.0209H353.945C353.743 92.0179 353.61 92.1113 353.545 92.3011ZM354.004 91.0267C353.996 91.0494 353.994 91.0736 353.997 91.0974C354.001 91.1212 354.01 91.1439 354.023 91.1636C354.037 91.1834 354.056 91.1997 354.077 91.2112C354.098 91.2228 354.122 91.2292 354.147 91.23L355.138 91.2526C355.163 91.2532 355.188 91.2478 355.21 91.2369C355.233 91.226 355.253 91.2099 355.267 91.1899C355.282 91.1699 355.292 91.1467 355.296 91.1222C355.3 91.0977 355.297 91.0727 355.289 91.0493L354.821 89.6437C354.811 89.6137 354.791 89.5877 354.765 89.569C354.739 89.5504 354.708 89.5402 354.676 89.5397C354.644 89.5392 354.612 89.5485 354.586 89.5663C354.559 89.5841 354.539 89.6096 354.527 89.6392L354.004 91.0267Z" fill="#1A3F3D"/>
<path d="M358.969 92.8213H361.36C361.403 92.8213 361.445 92.8378 361.476 92.8673C361.506 92.8969 361.524 92.9371 361.526 92.9795L361.535 93.4902C361.535 93.5119 361.532 93.5336 361.524 93.5538C361.515 93.5741 361.503 93.5926 361.488 93.6082C361.473 93.6237 361.454 93.6361 361.434 93.6446C361.413 93.6531 361.392 93.6574 361.37 93.6574L358.033 93.6619C357.99 93.6619 357.948 93.6448 357.917 93.6143C357.886 93.5837 357.868 93.5424 357.868 93.4992L357.887 88.1437C357.887 88.1219 357.891 88.1004 357.9 88.0803C357.908 88.0603 357.921 88.0422 357.937 88.027C357.952 88.0118 357.971 87.9999 357.992 87.992C358.012 87.9841 358.034 87.9804 358.056 87.981L358.644 87.9945C358.687 87.9957 358.728 88.0134 358.758 88.0437C358.788 88.0741 358.804 88.1148 358.804 88.1572V92.6586C358.804 92.7017 358.822 92.7431 358.853 92.7736C358.884 92.8042 358.926 92.8213 358.969 92.8213Z" fill="#1A3F3D"/>
<path d="M363.426 87.9936H362.774C362.693 87.9936 362.627 88.0584 362.627 88.1382V93.5074C362.627 93.5872 362.693 93.652 362.774 93.652H363.426C363.507 93.652 363.573 93.5872 363.573 93.5074V88.1382C363.573 88.0584 363.507 87.9936 363.426 87.9936Z" fill="#1A3F3D"/>
<path d="M367.179 88.997L367.184 93.4894C367.184 93.5139 367.179 93.5382 367.169 93.5607C367.159 93.5832 367.145 93.6036 367.127 93.6205C367.109 93.6374 367.088 93.6505 367.064 93.6591C367.041 93.6676 367.016 93.6714 366.991 93.6701L366.431 93.6476C366.384 93.6452 366.34 93.6252 366.307 93.5915C366.275 93.5579 366.257 93.5132 366.257 93.4668L366.262 89.0061C366.262 88.9581 366.242 88.9121 366.208 88.8782C366.173 88.8443 366.127 88.8253 366.078 88.8253L364.614 88.8208C364.565 88.8208 364.519 88.8017 364.484 88.7678C364.45 88.7339 364.431 88.6879 364.431 88.64L364.426 88.17C364.426 88.122 364.445 88.076 364.48 88.0421C364.514 88.0082 364.561 87.9892 364.61 87.9892L368.813 88.0028C368.838 88.0027 368.863 88.0077 368.885 88.0173C368.908 88.027 368.929 88.0411 368.946 88.0589C368.963 88.0766 368.977 88.0976 368.985 88.1206C368.994 88.1436 368.998 88.1681 368.997 88.1926L368.965 88.6762C368.961 88.7217 368.94 88.7643 368.906 88.7953C368.872 88.8263 368.827 88.8435 368.781 88.8434L367.368 88.8163C367.343 88.8157 367.319 88.8199 367.296 88.8287C367.273 88.8375 367.252 88.8507 367.235 88.8676C367.217 88.8844 367.203 88.9046 367.194 88.9268C367.184 88.949 367.179 88.9729 367.179 88.997Z" fill="#1A3F3D"/>
<path d="M372.159 90.2174L373.388 88.1204C373.413 88.0779 373.45 88.0428 373.494 88.0189C373.539 87.9951 373.589 87.9833 373.641 87.9848L374.32 88.0074C374.491 88.0135 374.533 88.0888 374.444 88.2334C373.933 89.074 373.378 89.9403 372.778 90.8321C372.264 91.5914 372.42 92.5811 372.438 93.4398C372.442 93.5784 372.373 93.6492 372.232 93.6522L371.746 93.6613C371.556 93.6673 371.467 93.5769 371.479 93.3901C371.534 92.5178 371.681 91.6366 371.154 90.8547C370.554 89.9719 369.994 89.0981 369.474 88.2334C369.37 88.0647 369.417 87.9803 369.616 87.9803L370.084 87.9758C370.305 87.9758 370.471 88.0692 370.585 88.256L371.759 90.222C371.894 90.4449 372.027 90.4434 372.159 90.2174Z" fill="#1A3F3D"/>
</svg>
