<svg width="88" height="111" viewBox="0 0 88 111" fill="none" xmlns="http://www.w3.org/2000/svg">
<ellipse cx="46.8388" cy="6.11328" rx="6.15054" ry="6.11328" fill="url(#paint0_linear_1704_1927)" fill-opacity="0.6"/>
<ellipse cx="85.6343" cy="30.5663" rx="2.36559" ry="2.35126" fill="url(#paint1_linear_1704_1927)" fill-opacity="0.6"/>
<path d="M85.0301 6.90915C87.0204 11.7857 84.6584 17.3435 79.7545 19.3227C79.2136 19.541 78.6643 19.7067 78.1124 19.8221C75.0414 20.4643 71.6118 21.3378 69.9686 23.9964C68.0501 27.1005 69.0986 31.1315 71.9316 33.442C77.5801 38.049 82.1508 44.1211 84.9903 51.3729C93.8054 73.8852 82.5993 99.2411 59.961 108.007C37.3227 116.773 11.8247 105.629 3.00967 83.1171C-5.80535 60.6049 5.40067 35.2489 28.039 26.4829C37.927 22.6542 48.3605 22.6237 57.7111 25.6797C61.098 26.7867 64.9594 25.7378 66.8261 22.7175L67.5203 21.5944C68.8968 19.3672 68.2601 16.4988 67.2715 14.0765C65.2812 9.19991 67.6431 3.64219 72.547 1.66298C77.4509 -0.316226 83.0398 2.03256 85.0301 6.90915Z" fill="white"/>
<path d="M85.0301 6.88864C87.0204 11.7652 84.6584 17.323 79.7545 19.3022C79.2136 19.5205 78.6643 19.6861 78.1124 19.8016C75.0414 20.4438 71.6118 21.3172 69.9686 23.9759C68.0501 27.0799 69.0986 31.111 71.9316 33.4215C77.5801 38.0285 82.1508 44.1006 84.9903 51.3524C93.8054 73.8647 82.5993 99.2206 59.961 107.987C37.3227 116.753 11.8247 105.609 3.00967 83.0966C-5.80535 60.5844 5.40067 35.2284 28.039 26.4624C37.927 22.6337 48.3605 22.6031 57.7111 25.6592C61.098 26.7662 64.9594 25.7173 66.8261 22.697L67.5203 21.5739C68.8968 19.3467 68.2601 16.4783 67.2715 14.056C65.2812 9.1794 67.6431 3.62168 72.547 1.64247C77.4509 -0.336734 83.0398 2.01206 85.0301 6.88864Z" fill="url(#paint2_linear_1704_1927)" fill-opacity="0.6"/>
<ellipse cx="44.468" cy="68.1867" rx="36.9787" ry="37.1499" fill="white"/>
<path d="M43.9498 30.0971C44.0915 30.0974 44.2332 30.0976 44.3792 30.0979C46.4756 30.1046 48.5155 30.1787 50.5782 30.5832C50.7748 30.6187 50.7748 30.6187 50.9753 30.6548C54.3932 31.2761 57.693 32.4114 60.8037 33.9586C60.9038 34.0083 61.0038 34.0581 61.1069 34.1093C64.2707 35.7032 67.2117 37.798 69.7328 40.2919C70.0216 40.5773 70.3134 40.8594 70.6053 41.1416C71.8342 42.3404 72.9387 43.5779 73.9509 44.9653C74.0129 45.0488 74.075 45.1324 74.1389 45.2185C75.0909 46.5015 75.9411 47.8293 76.7264 49.2212C76.7844 49.3226 76.8423 49.4241 76.9021 49.5286C80.036 55.0611 81.4712 61.3281 81.4466 67.6574C81.4462 67.8709 81.4462 67.8709 81.4458 68.0887C81.4391 70.1949 81.3653 72.2441 80.9627 74.3164C80.9392 74.4481 80.9157 74.5797 80.8914 74.7153C79.6045 81.8605 76.1799 88.4681 71.1754 93.6882C71.083 93.7849 70.9907 93.8817 70.8956 93.9814C69.5597 95.3739 68.2016 96.6565 66.6469 97.7973C66.4788 97.9233 66.3106 98.0492 66.1425 98.1751C64.9459 99.0613 63.7034 99.8495 62.4106 100.586C62.3096 100.644 62.2087 100.702 62.1046 100.762C56.5976 103.911 50.3595 105.352 44.0594 105.328C43.8469 105.327 43.8469 105.327 43.6301 105.327C41.5336 105.32 39.4938 105.246 37.4311 104.842C37.3 104.818 37.169 104.794 37.034 104.77C29.9217 103.477 23.3446 100.037 18.1486 95.009C18.0523 94.9162 17.9559 94.8234 17.8567 94.7279C16.4707 93.3859 15.1939 92.0214 14.0584 90.4595C13.933 90.2906 13.8077 90.1217 13.6823 89.9528C12.8004 88.7509 12.014 87.5031 11.2828 86.2036C11.2241 86.0998 11.1653 85.9961 11.1048 85.8891C8.9498 82.0437 7.5569 77.7965 6.90047 73.4359C6.86177 73.1888 6.86177 73.1888 6.82229 72.9367C6.58026 71.2324 6.55006 69.5422 6.55353 67.8225C6.55361 67.674 6.55369 67.5254 6.55377 67.3724C6.55972 64.9468 6.69169 62.6084 7.19263 60.2279C7.22471 60.075 7.25679 59.9221 7.28985 59.7645C8.7378 53.0955 11.9257 46.7469 16.7105 41.8651C16.9946 41.575 17.2754 41.2818 17.5563 40.9885C18.7495 39.754 19.9813 38.6444 21.3623 37.6275C21.4455 37.5652 21.5286 37.5028 21.6143 37.4386C22.8912 36.4824 24.2125 35.6264 25.5986 34.8391C25.7019 34.7801 25.8052 34.7211 25.9117 34.6603C29.7313 32.4998 33.9707 31.0764 38.3075 30.4365C38.4835 30.4104 38.6595 30.3844 38.8408 30.3576C40.5437 30.123 42.233 30.0904 43.9498 30.0971ZM37.1389 40.4159C37.0362 40.4406 36.9335 40.4653 36.8276 40.4907C30.7193 41.9989 25.239 45.9564 21.5084 50.9823C21.4171 51.1041 21.3257 51.2259 21.2317 51.3514C18.9176 54.5527 17.4334 58.1488 16.5417 61.9889C16.5136 62.1068 16.4856 62.2247 16.4567 62.3461C15.6262 66.0208 15.8186 70.3844 16.6878 74.0229C16.7175 74.1517 16.7473 74.2806 16.7779 74.4133C18.2872 80.7682 22.162 86.4249 27.3516 90.3128C27.5335 90.4504 27.5335 90.4504 27.7191 90.5908C33.5647 94.8555 41.023 96.678 48.1609 95.5671C55.5103 94.3282 62.035 90.459 66.5008 84.4426C66.5922 84.3207 66.6835 84.1989 66.7776 84.0734C69.0916 80.8721 70.5758 77.276 71.4675 73.4359C71.5096 73.2591 71.5096 73.2591 71.5526 73.0787C72.383 69.404 72.1907 65.0404 71.3215 61.4019C71.2917 61.2731 71.262 61.1443 71.2313 61.0115C69.7221 54.6566 65.8473 48.9999 60.6577 45.112C60.5364 45.0203 60.4151 44.9285 60.2902 44.834C53.608 39.959 45.1207 38.4425 37.1389 40.4159Z" fill="url(#paint3_linear_1704_1927)"/>
<path d="M43.9498 30.0971C44.0915 30.0974 44.2332 30.0976 44.3792 30.0979C46.4756 30.1046 48.5155 30.1787 50.5782 30.5832C50.7748 30.6187 50.7748 30.6187 50.9753 30.6548C54.3932 31.2761 57.693 32.4114 60.8038 33.9586C60.9038 34.0083 61.0038 34.0581 61.1069 34.1093C64.2707 35.7032 67.2117 37.798 69.7328 40.2919C70.0216 40.5773 70.3134 40.8594 70.6053 41.1416C71.8342 42.3404 72.9387 43.5779 73.9509 44.9653C74.0129 45.0488 74.075 45.1324 74.1389 45.2185C75.0909 46.5015 75.9411 47.8293 76.7264 49.2212C76.7844 49.3226 76.8424 49.4241 76.9021 49.5286C80.036 55.0611 81.4712 61.3281 81.4466 67.6574C81.4462 67.8709 81.4462 67.8709 81.4458 68.0887C81.4392 70.1949 81.3653 72.2441 80.9627 74.3164C80.9392 74.4481 80.9157 74.5797 80.8914 74.7153C79.6045 81.8605 76.1799 88.4681 71.1754 93.6882C71.083 93.7849 70.9907 93.8817 70.8956 93.9814C69.5598 95.3738 68.2016 96.6565 66.6469 97.7973C66.4788 97.9233 66.3106 98.0492 66.1425 98.1751C64.9459 99.0613 63.7034 99.8495 62.4106 100.586C62.3096 100.644 62.2087 100.702 62.1046 100.762C56.5976 103.911 50.3595 105.352 44.0594 105.328C43.8469 105.327 43.8469 105.327 43.6301 105.327C41.5336 105.32 39.4938 105.246 37.4311 104.842C37.3 104.818 37.169 104.794 37.034 104.77C29.9217 103.477 23.3446 100.037 18.1486 95.009C18.0523 94.9162 17.9559 94.8234 17.8567 94.7279C16.4707 93.3859 15.1939 92.0214 14.0584 90.4595C13.933 90.2906 13.8077 90.1217 13.6823 89.9528C12.8004 88.7509 12.014 87.5031 11.2829 86.2036C11.2241 86.0998 11.1653 85.9961 11.1048 85.8891C8.9498 82.0437 7.5569 77.7965 6.90047 73.4359C6.86177 73.1888 6.86177 73.1888 6.82229 72.9367C6.58026 71.2324 6.55006 69.5422 6.55353 67.8225C6.55361 67.674 6.55369 67.5254 6.55377 67.3724C6.55972 64.9468 6.69169 62.6084 7.19263 60.2279C7.22471 60.075 7.25679 59.9221 7.28985 59.7645C8.7378 53.0955 11.9257 46.7469 16.7105 41.8651C16.9946 41.575 17.2754 41.2818 17.5563 40.9885C18.7495 39.754 19.9813 38.6444 21.3623 37.6275C21.4455 37.5652 21.5286 37.5028 21.6143 37.4386C22.8912 36.4824 24.2125 35.6264 25.5986 34.8391C25.7019 34.7801 25.8052 34.7211 25.9117 34.6603C29.7313 32.4998 33.9707 31.0764 38.3075 30.4365C38.4835 30.4104 38.6595 30.3844 38.8408 30.3576C40.5437 30.123 42.233 30.0904 43.9498 30.0971ZM37.285 33.0781C37.181 33.0975 37.0769 33.1169 36.9698 33.137C30.9214 34.2847 25.3664 37.2168 20.778 41.2964C20.6492 41.4095 20.5204 41.5226 20.3877 41.6392C17.5224 44.187 15.2012 47.1949 13.328 50.542C13.2746 50.6354 13.2212 50.7289 13.1662 50.8251C11.407 53.9195 10.2827 57.2708 9.57555 60.7507C9.54594 60.8963 9.51633 61.042 9.48582 61.192C9.07517 63.3054 8.88574 65.3711 8.8908 67.5198C8.89078 67.6365 8.89077 67.7531 8.89075 67.8733C8.89562 70.1586 9.11676 72.3598 9.5299 74.6099C9.55096 74.7291 9.57203 74.8483 9.59374 74.971C10.8293 81.7253 14.5333 87.7462 19.1711 92.6609C19.3271 92.8269 19.3271 92.8269 19.4861 92.9962C20.2497 93.787 21.0875 94.4728 21.9466 95.1557C22.1582 95.328 22.1582 95.328 22.374 95.5037C27.2318 99.3794 32.8358 101.542 38.8918 102.64C38.9962 102.66 39.1005 102.68 39.208 102.701C47.4224 104.233 56.8215 101.66 63.6158 96.9993C66.4965 94.9751 69.1324 92.6432 71.3215 89.8725C71.436 89.7306 71.5504 89.5888 71.6684 89.4426C74.0983 86.3677 75.8277 82.98 77.1646 79.3061C77.2038 79.1989 77.243 79.0918 77.2834 78.9814C77.8005 77.5497 78.1616 76.0963 78.4794 74.6099C78.5093 74.4735 78.5392 74.3371 78.5701 74.1966C78.6503 73.7973 78.7138 73.3989 78.7715 72.9956C78.7986 72.8074 78.8257 72.6192 78.8537 72.4252C79.3422 68.6109 79.2035 64.7306 78.4794 60.9617C78.4575 60.8403 78.4357 60.719 78.4132 60.594C77.1714 53.7472 73.5464 47.7533 68.8381 42.7639C68.7342 42.6533 68.6302 42.5426 68.5231 42.4286C67.7596 41.6379 66.9222 40.9513 66.0626 40.2691C65.9131 40.1492 65.7636 40.0292 65.6095 39.9057C64.4929 39.0188 63.3376 38.2187 62.1185 37.4807C61.9749 37.3934 61.9749 37.3934 61.8284 37.3042C54.499 32.8981 45.6468 31.4555 37.285 33.0781Z" fill="url(#paint4_linear_1704_1927)"/>
<path d="M49.9569 37.5069C50.1233 37.5364 50.1233 37.5364 50.2931 37.5664C56.4232 38.6753 61.8187 41.9249 66.1717 46.3122C66.2715 46.4074 66.3713 46.5026 66.4741 46.6006C71.6031 51.5476 74.6797 59.1775 74.8263 66.2607C74.8569 68.2304 74.8598 70.1993 74.4982 72.1412C74.4754 72.2744 74.4527 72.4075 74.4292 72.5446C73.4105 78.4678 70.8422 83.6327 66.9021 88.1376C66.8076 88.2506 66.7131 88.3635 66.6157 88.4799C66.0334 89.172 65.4007 89.7567 64.7109 90.339C64.5691 90.4632 64.4273 90.5875 64.2812 90.7156C59.3748 95.0001 52.7251 98.018 46.1588 98.117C46.0233 98.1206 45.8877 98.1241 45.7481 98.1278C37.4833 98.3328 29.6853 95.6395 23.6379 89.891C18.0544 84.5202 14.2603 77.1646 14.0053 69.2969C13.8734 61.0827 16.1963 53.4812 21.701 47.2836C21.9264 47.027 22.1459 46.7658 22.3656 46.5043C22.6689 46.148 22.9752 45.8249 23.3339 45.5234C23.6519 45.2532 23.9642 44.9825 24.2669 44.6951C30.9848 38.3357 40.9883 35.83 49.9569 37.5069ZM37.5402 40.2953C37.4374 40.32 37.3347 40.3447 37.2289 40.3701C31.1206 41.8783 25.6403 45.8358 21.9097 50.8617C21.8183 50.9835 21.727 51.1053 21.6329 51.2308C19.3189 54.4321 17.8347 58.0282 16.943 61.8683C16.9149 61.9862 16.8869 62.1041 16.8579 62.2255C16.0275 65.9002 16.2198 70.2638 17.0891 73.9023C17.1188 74.0311 17.1486 74.16 17.1792 74.2927C18.6884 80.6477 22.5632 86.3043 27.7528 90.1922C27.9347 90.3298 27.9347 90.3298 28.1203 90.4702C33.966 94.7349 41.4242 96.5574 48.5621 95.4465C55.9116 94.2076 62.4362 90.3384 66.9021 84.322C66.9934 84.2001 67.0848 84.0783 67.1789 83.9528C69.4929 80.7515 70.9771 77.1554 71.8688 73.3153C71.9109 73.1385 71.9109 73.1385 71.9538 72.9581C72.7843 69.2834 72.5919 64.9198 71.7227 61.2813C71.693 61.1525 71.6632 61.0237 71.6326 60.8909C70.1234 54.536 66.2486 48.8793 61.0589 44.9914C60.9377 44.8997 60.8164 44.8079 60.6915 44.7134C54.0093 39.8384 45.522 38.3219 37.5402 40.2953Z" fill="url(#paint5_linear_1704_1927)"/>
<path fill-rule="evenodd" clip-rule="evenodd" d="M45.7272 52.2362C45.7272 51.5534 45.1778 51 44.5 51C43.8222 51 43.2728 51.5534 43.2728 52.2362V52.7223C42.5403 52.8085 41.8153 52.9666 41.1097 53.1959C37.4334 54.3905 34.5605 57.3872 33.5431 61.1513L32.5695 64.7534L31.7985 68.2537C31.7306 68.5622 31.6473 68.9028 31.5597 69.261C31.3779 70.0043 31.1777 70.8226 31.0594 71.5807C31.0202 71.8315 31 72.088 31 72.3485C31 74.6855 32.6345 76.6992 34.9085 77.1636L35.5101 77.2864C36.5133 77.4914 37.5217 77.6616 38.5335 77.7972C38.5429 77.8388 38.5527 77.8804 38.5629 77.922L38.697 78.4688C39.2274 80.6313 40.9126 82.3144 43.0639 82.8303C44.0081 83.0566 44.9919 83.0566 45.9361 82.8303C48.0875 82.3144 49.7727 80.6313 50.3031 78.4688L50.4372 77.922C50.4473 77.8804 50.4571 77.8388 50.4665 77.7972C51.4784 77.6616 52.4868 77.4914 53.49 77.2864L54.0914 77.1636C56.3655 76.6992 58 74.6855 58 72.3485C58 72.088 57.9798 71.8315 57.9406 71.5807C57.8223 70.8226 57.6222 70.0045 57.4403 69.2612C57.3527 68.903 57.2694 68.562 57.2015 68.2537L56.4316 64.7584L55.4711 61.0884C54.4989 57.3737 51.7252 54.4077 48.1021 53.2081C47.3282 52.9519 46.5313 52.7834 45.7272 52.702V52.2362ZM43.6325 80.4251C42.4396 80.1391 41.4922 79.2393 41.1332 78.0688C43.3745 78.2374 45.6255 78.2374 47.8668 78.0688C47.5078 79.2393 46.5604 80.1391 45.3675 80.4251C44.7972 80.562 44.2028 80.562 43.6325 80.4251Z" fill="url(#paint6_linear_1704_1927)"/>
<defs>
<linearGradient id="paint0_linear_1704_1927" x1="45.6306" y1="7.68376e-08" x2="51.9014" y2="11.1817" gradientUnits="userSpaceOnUse">
<stop offset="0.0185047" stop-color="#0C588B" stop-opacity="0.81"/>
<stop offset="0.437019" stop-color="#155A8A" stop-opacity="0.93"/>
<stop offset="0.96875" stop-color="#265E87" stop-opacity="0.92"/>
</linearGradient>
<linearGradient id="paint1_linear_1704_1927" x1="85.1697" y1="28.2151" x2="87.5815" y2="32.5157" gradientUnits="userSpaceOnUse">
<stop offset="0.0185047" stop-color="#0C588B" stop-opacity="0.81"/>
<stop offset="0.437019" stop-color="#155A8A" stop-opacity="0.93"/>
<stop offset="0.96875" stop-color="#265E87" stop-opacity="0.92"/>
</linearGradient>
<linearGradient id="paint2_linear_1704_1927" x1="35.3571" y1="0.94043" x2="97.6704" y2="89.2621" gradientUnits="userSpaceOnUse">
<stop offset="0.0185047" stop-color="#0C588B" stop-opacity="0.81"/>
<stop offset="0.437019" stop-color="#155A8A" stop-opacity="0.93"/>
<stop offset="0.96875" stop-color="#265E87" stop-opacity="0.92"/>
</linearGradient>
<linearGradient id="paint3_linear_1704_1927" x1="36.6445" y1="30.0963" x2="75.4411" y2="98.5487" gradientUnits="userSpaceOnUse">
<stop offset="0.0185047" stop-color="#0C588B" stop-opacity="0.81"/>
<stop offset="0.437019" stop-color="#155A8A" stop-opacity="0.93"/>
<stop offset="0.96875" stop-color="#265E87" stop-opacity="0.92"/>
</linearGradient>
<linearGradient id="paint4_linear_1704_1927" x1="36.6445" y1="30.0963" x2="75.4411" y2="98.5487" gradientUnits="userSpaceOnUse">
<stop offset="0.0185047" stop-color="#0C588B" stop-opacity="0.81"/>
<stop offset="0.437019" stop-color="#155A8A" stop-opacity="0.93"/>
<stop offset="0.96875" stop-color="#265E87" stop-opacity="0.92"/>
</linearGradient>
<linearGradient id="paint5_linear_1704_1927" x1="38.4442" y1="37" x2="69.9798" y2="92.6182" gradientUnits="userSpaceOnUse">
<stop offset="0.0185047" stop-color="#0C588B" stop-opacity="0.81"/>
<stop offset="0.437019" stop-color="#155A8A" stop-opacity="0.93"/>
<stop offset="0.96875" stop-color="#265E87" stop-opacity="0.92"/>
</linearGradient>
<linearGradient id="paint6_linear_1704_1927" x1="41.8482" y1="51" x2="59.6241" y2="77.5825" gradientUnits="userSpaceOnUse">
<stop offset="0.0185047" stop-color="#0C588B" stop-opacity="0.81"/>
<stop offset="0.437019" stop-color="#155A8A" stop-opacity="0.93"/>
<stop offset="0.96875" stop-color="#265E87" stop-opacity="0.92"/>
</linearGradient>
</defs>
</svg>
