<svg width="103" height="41" viewBox="0 0 103 41" fill="none" xmlns="http://www.w3.org/2000/svg">
<path d="M36.9885 0.921955C32.028 1.45226 27.2553 2.88849 22.1732 5.37428C11.6887 10.4895 3.36962 18.7091 0.762308 26.52C0.209911 28.1662 0 29.4035 0 31.0055C0 33.1819 0.408774 34.585 1.52462 36.2533C3.12657 38.6617 6.10951 40.2747 10.0315 40.8602C11.4457 41.0702 15.0915 41.037 16.9033 40.805C19.2234 40.5067 22.1732 39.8107 24.5264 39.0152C30.4481 37.0045 36.3367 33.6901 41.2861 29.5914L42.7113 28.4092L40.8553 28.3761L39.0103 28.354L38.2148 29.0942C31.0447 35.8997 22.0517 40.1642 14.8374 40.1974C10.142 40.2195 6.79448 38.496 5.22567 35.2589C3.97726 32.6848 3.96621 29.6687 5.19253 25.8682C6.452 21.9462 9.30236 17.4939 12.9592 13.7265C15.4008 11.2076 17.5994 9.34048 20.2398 7.52862C29.2107 1.37492 38.9108 -0.591614 44.3022 2.62334C45.2413 3.18678 46.5339 4.46834 47.0532 5.33008C47.9922 6.92099 48.3347 8.29093 48.3347 10.4011C48.3237 11.8484 48.0696 13.6381 47.705 14.6656C47.6166 14.9197 47.5393 15.1406 47.5393 15.1627C47.5393 15.1848 48.5557 15.2069 49.782 15.2069H52.0358L52.2126 14.5662C52.9749 11.9147 52.9638 9.46201 52.1573 7.3629C51.1078 4.63406 48.6109 2.53495 45.2744 1.57378C43.4294 1.04348 42.5567 0.933002 39.9162 0.89986C38.5463 0.877762 37.2315 0.888809 36.9885 0.921955Z" fill="white"/>
<path d="M59.7804 16.7204C59.5926 16.7646 59.5815 17.0739 59.5815 21.1285V25.4814H60.7416H61.9016V21.0733V16.6762L60.9404 16.6652C60.3991 16.6652 59.8798 16.6873 59.7804 16.7204Z" fill="white"/>
<path d="M65.0171 16.8752C64.4758 17.1514 64.056 17.6485 63.9455 18.1568L63.8682 18.5213H68.0222H72.1762L72.1983 21.9683L72.2315 25.4263L73.2589 25.4594L74.2753 25.4926V22.0014V18.5213H78.3078C82.2961 18.5213 82.3403 18.5213 82.3403 18.3004C82.3403 17.7148 81.6553 16.9525 80.9593 16.7647C80.661 16.6874 78.0758 16.6432 73.0048 16.6432C65.5695 16.6432 65.4922 16.6432 65.0171 16.8752Z" fill="white"/>
<path d="M85.9862 16.82C84.9918 17.2509 84.6604 17.9027 84.6604 19.4053C84.6604 20.72 84.8482 21.2171 85.5111 21.6259L85.9309 21.891L93.4435 21.9242L100.956 21.9463L100.989 22.8854L101.022 23.8244H92.8911C87.3009 23.8244 84.7709 23.8576 84.7709 23.9349C84.7709 24.189 85.1244 24.7083 85.4559 24.9734C86.1298 25.4816 86.3618 25.4927 94.1616 25.4595L101.509 25.4264L102.006 25.0949C102.779 24.5646 103 24.0785 103 22.8522C103 21.8027 102.923 21.5375 102.514 21.0845C101.984 20.4879 102.138 20.499 95.5758 20.51C92.2393 20.51 88.8255 20.4769 88.0079 20.4438L86.5275 20.3664L86.5606 19.4163L86.5938 18.4662L94.8024 18.433C99.31 18.422 103 18.3778 103 18.3557C103 18.3226 102.901 18.1016 102.779 17.8696C102.514 17.3393 102.006 16.9084 101.475 16.7537C101.21 16.6875 98.4482 16.6433 93.7197 16.6433C87.4113 16.6543 86.3176 16.6764 85.9862 16.82Z" fill="white"/>
<path d="M19.6876 17.0077C19.4003 17.1624 19.0578 17.4717 18.87 17.759L18.5386 18.2451V21.8909V25.5367H19.5881H20.6377V23.7912C20.6377 22.134 20.6487 22.0456 20.8586 21.9903C20.9802 21.9682 23.6869 21.9572 26.8798 21.9682L32.6689 22.0014L33.6411 23.6475C34.1714 24.5535 34.6465 25.3379 34.6907 25.3821C34.779 25.4594 37.0439 25.5809 37.0439 25.5036C37.0439 25.4815 36.5688 24.7192 35.9943 23.8132C35.4198 22.9073 34.9448 22.1229 34.9448 22.0566C34.9448 22.0014 35.0552 21.9461 35.1989 21.9461C35.6076 21.9461 36.2926 21.4821 36.6572 20.9739C36.9665 20.521 36.9886 20.4326 36.9886 19.4162C36.9886 18.4108 36.9665 18.3003 36.6572 17.8032C36.4362 17.4496 36.16 17.1845 35.8396 17.0077L35.3535 16.7536H27.7636H20.1737L19.6876 17.0077ZM34.8122 19.372L34.8453 20.289H27.7636H20.6929V19.3499V18.4108L27.7415 18.4329L34.779 18.466L34.8122 19.372Z" fill="white"/>
<path d="M39.3085 16.8975C39.2754 16.9638 39.2643 18.8972 39.2754 21.173L39.3085 25.316H47.8375H56.3555L56.8416 24.9846C57.1399 24.7747 57.4161 24.4543 57.5929 24.1008C57.858 23.5594 57.8691 23.4931 57.8691 21.0626C57.8691 18.6652 57.858 18.5547 57.6039 18.0575C57.3056 17.483 56.9189 17.1516 56.245 16.9085C55.6263 16.6876 39.3859 16.6765 39.3085 16.8975ZM55.8252 19.2397V20.1787L48.5667 20.1566L41.2972 20.1235L41.264 19.3612C41.2419 18.9414 41.253 18.5326 41.2861 18.4442C41.3303 18.3227 42.6119 18.3006 48.5888 18.3006H55.8252V19.2397ZM55.8252 22.7198V23.6036H48.644C44.6999 23.6036 41.4297 23.6146 41.3855 23.6257C41.2861 23.6588 41.1977 22.2116 41.2861 21.9795C41.3303 21.858 42.6119 21.8359 48.5888 21.8359H55.8252V22.7198Z" fill="white"/>
<path d="M16.7156 26.8514V27.1387H59.8025C84.572 27.1387 102.889 27.0945 102.889 27.0392C102.889 26.8956 93.8302 26.8183 70.9057 26.752C59.67 26.7188 42.8771 26.6636 33.5968 26.6305L16.7156 26.5531V26.8514Z" fill="white"/>
<path d="M47.9812 29.9005V31.4472H49.1965C50.3344 31.4472 50.4117 31.4362 50.4117 31.2263C50.4117 31.0274 50.3344 31.0053 49.4616 31.0053H48.5226L48.5557 30.5303L48.5888 30.0662H49.3953C50.1466 30.0662 50.1908 30.0552 50.1908 29.8121C50.1908 29.5801 50.1466 29.5691 49.3622 29.5691H48.5336V29.1824V28.7957H49.4174C50.2239 28.7957 50.3013 28.7736 50.3013 28.5748C50.3013 28.3649 50.2239 28.3538 49.1412 28.3538H47.9812V29.9005Z" fill="white"/>
<path d="M60.134 28.5752C60.134 28.7409 60.2114 28.7961 60.4102 28.7961C60.6091 28.7961 60.6864 28.7409 60.6864 28.5752C60.6864 28.4094 60.6091 28.3542 60.4102 28.3542C60.2114 28.3542 60.134 28.4094 60.134 28.5752Z" fill="white"/>
<path d="M76.8937 28.5089C76.8164 28.7188 76.9048 28.7961 77.2251 28.7961C77.4019 28.7961 77.4793 28.7298 77.4793 28.5752C77.4793 28.4205 77.4019 28.3542 77.2141 28.3542C77.0705 28.3542 76.9269 28.4205 76.8937 28.5089Z" fill="white"/>
<path d="M89.7424 29.9005V31.4472H90.0186C90.2617 31.4472 90.2838 31.403 90.3169 30.8065L90.3501 30.1767L91.0461 30.1436C91.6316 30.1104 91.7311 30.0773 91.7311 29.9005C91.7311 29.7238 91.6316 29.6906 91.0461 29.6575L90.3501 29.6243L90.3169 29.2045L90.2838 28.7957H91.1124C91.8747 28.7957 91.952 28.7736 91.952 28.5748C91.952 28.3649 91.8747 28.3538 90.8472 28.3538H89.7424V29.9005Z" fill="white"/>
<path d="M93.7195 28.5752C93.7195 28.7409 93.7968 28.7961 93.9957 28.7961C94.1945 28.7961 94.2719 28.7409 94.2719 28.5752C94.2719 28.4094 94.1945 28.3542 93.9957 28.3542C93.7968 28.3542 93.7195 28.4094 93.7195 28.5752Z" fill="white"/>
<path d="M52.9749 29.3039C52.8423 29.3923 52.7318 29.4144 52.7318 29.3592C52.7318 29.2929 52.6103 29.2376 52.4556 29.2376H52.1794V30.3424V31.4472H52.4556C52.7208 31.4472 52.7318 31.4251 52.7318 30.7181C52.7318 29.8674 52.8644 29.5691 53.229 29.5691C53.5936 29.5691 53.7262 29.8674 53.7262 30.7181C53.7262 31.4362 53.7372 31.4472 54.0134 31.4472H54.3006L54.2565 30.4419C54.2233 29.6133 54.1681 29.4034 54.0024 29.2818C53.7262 29.083 53.2842 29.083 52.9749 29.3039Z" fill="white"/>
<path d="M56.3223 29.4036C56.0903 29.6246 56.0461 29.7792 56.0461 30.2874C56.0461 30.8067 56.0903 30.9503 56.3334 31.1823C56.6096 31.4696 57.0073 31.5027 57.5155 31.2818C57.6591 31.2155 57.7033 31.2597 57.7033 31.4696C57.7033 31.6132 57.6481 31.79 57.5708 31.8673C57.4161 32.022 56.8637 32.0441 56.7753 31.9004C56.6869 31.7679 56.1677 31.6795 56.0903 31.79C56.0572 31.8452 56.1677 32.022 56.3223 32.1766C56.5875 32.4418 56.6759 32.4639 57.2172 32.4197C58.1342 32.3424 58.1894 32.2429 58.2447 30.6189L58.2778 29.2379H57.9906C57.8359 29.2379 57.7033 29.2931 57.7033 29.3594C57.7033 29.4147 57.5929 29.3926 57.4603 29.3042C57.0957 29.0501 56.6317 29.0832 56.3223 29.4036ZM57.5266 29.7461C57.8911 30.1107 57.6039 31.116 57.1288 31.116C56.698 31.116 56.4328 30.2985 56.709 29.7792C56.8526 29.5251 57.2946 29.503 57.5266 29.7461Z" fill="white"/>
<path d="M63.3378 29.315C63.15 29.4476 63.0616 29.4586 63.0285 29.3702C63.0064 29.2929 62.8959 29.2376 62.7744 29.2376C62.5865 29.2376 62.5645 29.326 62.5645 30.3424V31.4472H62.8407C63.1058 31.4472 63.1168 31.4251 63.1168 30.6297C63.1168 29.7459 63.2384 29.5249 63.6913 29.5912C63.9344 29.6243 63.9454 29.6796 63.9786 30.5303L64.0117 31.4472H64.3432H64.6857L64.6415 30.4419C64.6194 29.6022 64.5752 29.4144 64.3984 29.2818C64.1112 29.0719 63.6692 29.083 63.3378 29.315Z" fill="white"/>
<path d="M66.8401 29.2489C66.3651 29.5251 66.1773 30.42 66.4866 30.9945C66.807 31.6132 67.8786 31.7236 68.2432 31.1823C68.3979 30.9392 68.3979 30.9171 68.1769 30.8619C68.0554 30.8288 67.8786 30.8729 67.7903 30.9613C67.7019 31.0497 67.5362 31.116 67.4257 31.116C67.2047 31.116 66.8512 30.6962 66.9396 30.5415C66.9727 30.4973 67.3152 30.4531 67.7129 30.4531H68.42V30.1106C68.42 29.4036 67.4699 28.8843 66.8401 29.2489ZM67.6908 29.6356C67.7903 29.6687 67.8676 29.8013 67.8676 29.9118C67.8676 30.0885 67.7792 30.1217 67.3704 30.1217C66.8401 30.1217 66.7628 30.0223 67.0501 29.7461C67.2268 29.5582 67.4146 29.5251 67.6908 29.6356Z" fill="white"/>
<path d="M70.3864 29.4808C70.0881 29.8012 70.055 29.8896 70.0992 30.4309C70.1655 31.138 70.4196 31.4363 71.0272 31.5247C71.3587 31.5689 71.5244 31.5247 71.7674 31.3369C71.9332 31.2043 72.0657 31.0607 72.0657 31.0054C72.0657 30.8286 71.7011 30.7845 71.5133 30.9502C71.2813 31.1601 71.0272 31.1601 70.8063 30.9391C70.4306 30.5745 70.5853 30.453 71.4139 30.453H72.2094L72.1431 30.0332C71.9994 29.1273 71.0051 28.8179 70.3864 29.4808ZM71.4912 29.7018C71.7674 29.978 71.6349 30.1216 71.1267 30.1216C70.7952 30.1216 70.6295 30.0774 70.6295 29.978C70.6295 29.768 70.8615 29.5692 71.1267 29.5692C71.2592 29.5692 71.4139 29.6244 71.4912 29.7018Z" fill="white"/>
<path d="M74.6509 29.315C74.5073 29.4586 74.441 29.4697 74.4079 29.3702C74.3858 29.3039 74.2753 29.2376 74.1538 29.2376C73.9659 29.2376 73.9438 29.326 73.9438 30.3424V31.4472H74.22C74.4852 31.4472 74.4962 31.4251 74.4962 30.7402C74.4962 29.8342 74.5625 29.6796 74.9382 29.6796C75.1481 29.6796 75.2586 29.6133 75.3027 29.4697C75.3359 29.3481 75.3248 29.2266 75.2917 29.1935C75.1702 29.0609 74.8387 29.1272 74.6509 29.315Z" fill="white"/>
<path d="M80.1308 29.315C79.943 29.4476 79.8546 29.4586 79.8214 29.3702C79.7993 29.2929 79.6889 29.2376 79.5673 29.2376C79.3795 29.2376 79.3574 29.326 79.3574 30.3424V31.4472H79.6336C79.8988 31.4472 79.9098 31.4251 79.9098 30.6849C79.9098 29.8674 80.0645 29.5691 80.4622 29.5691C80.7716 29.5691 80.9041 29.9116 80.9041 30.7181C80.9041 31.4251 80.9152 31.4472 81.1914 31.4472H81.4786L81.4344 30.4419C81.4123 29.6022 81.3681 29.4144 81.1914 29.2818C80.9041 29.0719 80.4622 29.083 80.1308 29.315Z" fill="white"/>
<path d="M83.5444 29.3593C83.3124 29.5582 83.2793 29.6908 83.2793 30.2874C83.2793 30.8177 83.3345 31.0386 83.4892 31.2154C83.7433 31.4916 84.2847 31.5247 84.6382 31.2706C84.8702 31.1049 84.8812 31.116 84.8812 31.4143C84.8812 31.591 84.826 31.7899 84.7487 31.8672C84.594 32.0219 84.0416 32.044 83.9532 31.9004C83.9201 31.8451 83.7654 31.7788 83.6107 31.7567C83.4008 31.7125 83.3345 31.7457 83.3345 31.9004C83.3345 32.4196 84.594 32.6516 85.1133 32.2318C85.3674 32.0329 85.3784 31.9335 85.4115 30.6298L85.4557 29.2378H85.1685C85.0138 29.2378 84.8812 29.293 84.8812 29.3593C84.8812 29.4146 84.7708 29.3925 84.6382 29.3041C84.2957 29.061 83.8648 29.0831 83.5444 29.3593ZM84.8039 29.978C85.0249 30.7293 84.5719 31.3038 84.0416 30.9502C83.8427 30.8287 83.7765 30.6851 83.7765 30.3868C83.7765 29.7902 83.9532 29.5471 84.362 29.5913C84.6492 29.6134 84.7266 29.6908 84.8039 29.978Z" fill="white"/>
<path d="M96.8572 29.315C96.7136 29.4586 96.6473 29.4697 96.6142 29.3702C96.5921 29.3039 96.4816 29.2376 96.3601 29.2376C96.1722 29.2376 96.1501 29.326 96.1501 30.3424V31.4472H96.4263C96.6915 31.4472 96.7025 31.4251 96.7025 30.7181C96.7025 29.8342 96.8351 29.547 97.1887 29.6354C97.3875 29.6796 97.4649 29.6464 97.509 29.4697C97.5311 29.3481 97.5311 29.2266 97.498 29.1935C97.3765 29.0609 97.045 29.1272 96.8572 29.315Z" fill="white"/>
<path d="M99.8403 29.315C99.6966 29.4586 99.6303 29.4697 99.5972 29.3702C99.5751 29.3039 99.4315 29.2376 99.2879 29.2376C99.0227 29.2376 99.0227 29.2487 99.0227 30.3424V31.4472H99.2989C99.5641 31.4472 99.5751 31.4141 99.5861 30.8065C99.6082 29.8342 99.6966 29.6243 100.072 29.6243H100.404L100.437 30.5303C100.47 31.4251 100.47 31.4472 100.735 31.4472C101 31.4472 101.011 31.4141 101.011 30.7954C101.011 29.8674 101.155 29.547 101.542 29.5912C101.84 29.6243 101.84 29.6354 101.873 30.5303C101.906 31.4251 101.906 31.4472 102.171 31.4472C102.448 31.4472 102.448 31.4362 102.448 30.464C102.448 29.558 102.425 29.4586 102.205 29.3039C101.884 29.083 101.564 29.083 101.254 29.3039C101.022 29.4697 100.978 29.4697 100.801 29.3039C100.547 29.0719 100.083 29.083 99.8403 29.315Z" fill="white"/>
<path d="M60.134 30.3424V31.4472H60.4102H60.6864V30.3424V29.2376H60.4102H60.134V30.3424Z" fill="white"/>
<path d="M76.9268 30.2321C76.9268 30.7734 76.9157 31.2595 76.9047 31.3037C76.8826 31.359 77.0041 31.4032 77.1809 31.4253L77.4792 31.4584V30.3536V29.2378H77.203C76.9268 29.2378 76.9268 29.2488 76.9268 30.2321Z" fill="white"/>
<path d="M93.7195 30.3424V31.4472H93.9957H94.2719V30.3424V29.2376H93.9957H93.7195V30.3424Z" fill="white"/>
<path d="M49.0859 34.3198V34.7617H49.5831H50.0803V34.3198V33.8779H49.5831H49.0859V34.3198Z" fill="white"/>
<path d="M50.4116 34.3198V34.7617H50.9088H51.4059V34.3198V33.8779H50.9088H50.4116V34.3198Z" fill="white"/>
<path d="M64.1113 34.3198V34.7617H64.6085H65.1056V34.3198V33.8779H64.6085H64.1113V34.3198Z" fill="white"/>
<path d="M71.6238 35.9216V37.9655H71.0161H70.4085V37.2363C70.4085 35.7448 69.9776 35.3803 68.1989 35.3692H67.0389L67.0278 35.9437C67.0168 36.4409 66.9726 36.5624 66.6743 36.8386C66.4754 37.0264 66.3097 37.3136 66.2655 37.5567C66.1882 37.9655 66.1772 37.9655 65.6468 37.9655H65.1165L65.0834 36.6618L65.0503 35.3692L64.5862 35.3361L64.1112 35.3029V36.6287V37.9655H63.5035H62.8959V37.4241C62.8959 36.1978 62.2883 35.5239 61.0399 35.3582L60.4654 35.2808V35.7338C60.4654 36.1978 60.5758 36.3083 61.073 36.3083C61.2166 36.3083 61.4707 36.4188 61.6254 36.5624C61.8574 36.7612 61.9237 36.9159 61.9347 37.3578L61.9568 37.9102L60.8852 37.9434L59.8025 37.9765V38.4074V38.8493H67.2598H74.7172V36.3635V33.8777H74.22H73.7229V35.9326V37.9765L73.1484 37.9434L72.5629 37.9102L72.5297 35.8885L72.5076 33.8777H72.0657H71.6238V35.9216ZM69.3479 36.485C69.3811 36.5845 69.4142 36.9601 69.4142 37.3136C69.4142 37.9765 69.4142 37.9765 69.1159 37.9434C68.8618 37.9213 68.7955 37.8439 68.7403 37.5015C68.674 37.0374 68.4972 36.7944 68.1879 36.695C68.0774 36.6508 67.978 36.5513 67.978 36.463C67.978 36.2309 69.2595 36.242 69.3479 36.485ZM67.7349 37.4352C67.8122 37.5125 67.8675 37.6561 67.8675 37.7666C67.8675 37.9102 67.7791 37.9655 67.536 37.9655C67.2598 37.9655 67.2046 37.9213 67.2046 37.7114C67.2046 37.3026 67.4698 37.17 67.7349 37.4352Z" fill="white"/>
<path d="M84.7708 36.3635V38.8493H85.2127H85.6546L85.6656 36.6066C85.6656 35.3803 85.6877 34.2644 85.6988 34.1208C85.7209 33.8998 85.6767 33.8777 85.2458 33.8777H84.7708V36.3635Z" fill="white"/>
<path d="M88.969 36.3747V38.8605L89.4441 38.8273L89.9081 38.7942L89.9412 36.3305L89.9633 33.8779H89.4662H88.969V36.3747Z" fill="white"/>
<path d="M50.7765 35.4244C49.3844 35.7006 48.2907 36.8828 48.0366 38.3742L47.9592 38.8493H48.4453H48.9314L49.1303 38.2196C49.3623 37.4241 49.6717 36.927 50.0915 36.6287L50.4119 36.4077V37.623V38.8493H54.7206H59.0403L59.0072 37.1037L58.974 35.3692H58.5321H58.0902L58.057 36.6618L58.0239 37.9655H57.4826H56.9302V36.9601V35.9658L56.4661 35.9989L56.0021 36.0321V36.9712L55.9911 37.9102H55.4387H54.8863L54.8531 37.2694L54.82 36.6397H54.3891H53.9472V37.3026V37.9655H52.6767H51.4062V36.6397C51.4062 35.9106 51.373 35.314 51.3288 35.325C51.2736 35.3361 51.0306 35.3803 50.7765 35.4244Z" fill="white"/>
<path d="M79.5784 35.8117V36.3088H80.0203H80.4622V35.8117V35.3145H80.0203H79.5784V35.8117Z" fill="white"/>
<path d="M80.9041 35.8113V36.3195L81.3791 36.2863C81.8431 36.2532 81.8431 36.2532 81.8431 35.8113C81.8431 35.3693 81.8431 35.3693 81.3791 35.3362L80.9041 35.303V35.8113Z" fill="white"/>
<path d="M83.0031 36.6397V37.9655H81.0255C79.9318 37.9655 78.9154 37.9213 78.7607 37.855C78.4845 37.7556 78.4734 37.7224 78.4734 36.7723C78.4734 36.2309 78.4513 35.7669 78.4292 35.7448C78.3961 35.7117 78.1641 35.7117 77.91 35.7338L77.457 35.778L77.5012 36.8607C77.5786 38.783 77.7111 38.8493 81.2796 38.8493H83.8869V37.0816V35.314H83.445H83.0031V36.6397Z" fill="white"/>
<path d="M87.2787 35.3803C87.2345 35.4245 87.2013 36.2862 87.2013 37.3026C87.2013 39.2471 87.1571 39.4017 86.6821 39.4017C86.4611 39.4017 86.428 39.457 86.428 39.8437V40.2856H86.8809C87.2455 40.2856 87.4002 40.2193 87.6985 39.921C88.1625 39.457 88.2177 39.0924 88.1736 36.9712L88.1404 35.3693L87.7537 35.3361C87.5328 35.314 87.3229 35.3361 87.2787 35.3803Z" fill="white"/>
<path d="M91.4215 35.7671C91.4547 36.2532 91.4547 36.2532 91.9408 36.3195C92.5816 36.4079 92.8357 36.7172 92.8357 37.4243V37.9656H91.7861H90.7366V38.4076V38.8495H94.4929H98.2492V39.192V39.5345L99.2324 39.4903C100.094 39.4571 100.26 39.424 100.503 39.192C100.934 38.7942 101.022 38.286 100.989 36.7504L100.956 35.3694L100.05 35.3804C98.6469 35.4025 98.2492 35.8113 98.2492 37.2475V37.9656H96.0396H93.83V37.4685C93.83 36.9271 93.609 36.2753 93.2997 35.9439C93.0124 35.6235 92.6037 35.4467 91.9629 35.3583L91.3884 35.281L91.4215 35.7671ZM100.017 37.2586C100.017 38.3302 99.9064 38.6285 99.5197 38.6285C99.2435 38.6285 99.2435 38.6285 99.2435 37.5458C99.2435 36.9492 99.2766 36.4189 99.3208 36.3858C99.354 36.3416 99.5307 36.3085 99.7075 36.3085H100.017V37.2586Z" fill="white"/>
</svg>
