<svg width="118" height="148" viewBox="0 0 118 148" fill="none" xmlns="http://www.w3.org/2000/svg">
<ellipse cx="62.4517" cy="8.15104" rx="8.20072" ry="8.15104" fill="white"/>
<ellipse cx="114.179" cy="40.7551" rx="3.15412" ry="3.13502" fill="white"/>
<path d="M113.373 9.2122C116.027 15.7143 112.878 23.1246 106.339 25.7636C105.618 26.0547 104.886 26.2755 104.15 26.4294C100.055 27.2857 95.4825 28.4503 93.2915 31.9952C90.7335 36.1339 92.1315 41.5086 95.9088 44.5894C103.44 50.732 109.534 58.8281 113.32 68.4972C125.074 98.5135 110.132 132.322 79.948 144.009C49.7636 155.697 15.7662 140.839 4.01289 110.823C-7.74046 80.8065 7.20089 46.9985 37.3853 35.3106C50.5693 30.2055 64.4807 30.1649 76.9482 34.2396C81.464 35.7155 86.6125 34.3171 89.1015 30.29L90.027 28.7925C91.8624 25.8229 91.0135 21.9984 89.6953 18.7687C87.0416 12.2665 90.1908 4.85625 96.7294 2.21731C103.268 -0.421635 110.72 2.71008 113.373 9.2122Z" fill="white"/>
<path d="M113.373 9.18486C116.027 15.687 112.878 23.0973 106.339 25.7362C105.618 26.0273 104.886 26.2482 104.15 26.4021C100.055 27.2584 95.4825 28.423 93.2915 31.9679C90.7335 36.1066 92.1315 41.4813 95.9088 44.562C103.44 50.7046 109.534 58.8008 113.32 68.4698C125.074 98.4862 110.132 132.294 79.948 143.982C49.7636 155.67 15.7662 140.812 4.01289 110.795C-7.74046 80.7791 7.20089 46.9711 37.3853 35.2832C50.5693 30.1782 64.4807 30.1375 76.9482 34.2123C81.464 35.6882 86.6125 34.2898 89.1015 30.2626L90.027 28.7652C91.8624 25.7956 91.0135 21.9711 89.6953 18.7413C87.0416 12.2392 90.1908 4.82891 96.7294 2.18996C103.268 -0.448979 110.72 2.68274 113.373 9.18486Z" fill="white"/>
<ellipse cx="59.2906" cy="90.9156" rx="49.305" ry="49.5332" fill="white"/>
<path d="M58.5996 40.1294C58.7885 40.1298 58.9774 40.1301 59.1721 40.1305C61.9674 40.1394 64.6871 40.2383 67.4374 40.7776C67.6995 40.8249 67.6995 40.8249 67.9669 40.8731C72.5241 41.7015 76.9238 43.2152 81.0715 45.2781C81.2049 45.3444 81.3383 45.4107 81.4757 45.479C85.6941 47.6042 89.6155 50.3973 92.9769 53.7225C93.362 54.103 93.751 54.4792 94.1403 54.8554C95.7787 56.4538 97.2514 58.1038 98.601 59.9537C98.6838 60.0651 98.7665 60.1765 98.8517 60.2912C100.121 62.0019 101.255 63.7724 102.302 65.6282C102.379 65.7635 102.456 65.8988 102.536 66.0381C106.714 73.4148 108.628 81.7707 108.595 90.2098C108.595 90.4945 108.595 90.4945 108.594 90.7849C108.585 93.5931 108.487 96.3255 107.95 99.0885C107.919 99.2641 107.887 99.4396 107.855 99.6204C106.139 109.147 101.573 117.957 94.9003 124.918C94.7772 125.047 94.6541 125.176 94.5273 125.308C92.7462 127.165 90.9353 128.875 88.8624 130.396C88.6382 130.564 88.414 130.732 88.1898 130.9C86.5944 132.082 84.9377 133.133 83.214 134.114C83.0794 134.192 82.9447 134.27 82.806 134.35C75.4633 138.547 67.1459 140.47 58.7457 140.437C58.4623 140.436 58.4623 140.436 58.1733 140.436C55.378 140.427 52.6582 140.328 49.9079 139.789C49.7332 139.757 49.5585 139.726 49.3785 139.693C39.8954 137.969 31.126 133.382 24.1979 126.679C24.0695 126.555 23.9411 126.431 23.8088 126.304C21.9607 124.514 20.2584 122.695 18.7443 120.613C18.5772 120.387 18.4101 120.162 18.2429 119.937C17.067 118.335 16.0186 116.671 15.0436 114.938C14.9653 114.8 14.887 114.661 14.8063 114.519C11.9329 109.392 10.0757 103.729 9.20046 97.9145C9.14887 97.585 9.14887 97.585 9.09623 97.2489C8.77351 94.9765 8.73326 92.7229 8.73788 90.4299C8.73798 90.2319 8.73809 90.0339 8.7382 89.8299C8.74613 86.5956 8.92209 83.4778 9.59001 80.3038C9.63279 80.0999 9.67556 79.8961 9.71963 79.686C11.6502 70.794 15.9008 62.3292 22.2805 55.8202C22.6592 55.4333 23.0337 55.0424 23.4082 54.6514C24.9992 53.0053 26.6416 51.5259 28.4829 50.17C28.5938 50.0869 28.7047 50.0037 28.8189 49.9181C30.5214 48.6432 32.2831 47.5018 34.1313 46.4522C34.2691 46.3735 34.4068 46.2948 34.5487 46.2137C39.6416 43.3331 45.2941 41.4352 51.0765 40.5819C51.3112 40.5472 51.5458 40.5125 51.7875 40.4768C54.0581 40.1639 56.3104 40.1204 58.5996 40.1294ZM49.5184 53.8878C49.3814 53.9207 49.2444 53.9537 49.1033 53.9876C40.9589 55.9985 33.6519 61.2751 28.6777 67.9763C28.5559 68.1388 28.4342 68.3012 28.3087 68.4686C25.2233 72.7369 23.2444 77.5317 22.0554 82.6519C22.018 82.809 21.9806 82.9662 21.9421 83.1281C20.8348 88.0277 21.0913 93.8459 22.2502 98.6972C22.2899 98.8689 22.3296 99.0407 22.3704 99.2177C24.3827 107.691 29.5491 115.233 36.4686 120.417C36.7111 120.601 36.7111 120.601 36.9586 120.788C44.7528 126.474 54.6971 128.904 64.2143 127.423C74.0136 125.771 82.7131 120.612 88.6676 112.59C88.7894 112.428 88.9112 112.265 89.0366 112.098C92.122 107.829 94.1009 103.035 95.2899 97.9145C95.346 97.6788 95.346 97.6788 95.4033 97.4383C96.5105 92.5387 96.2541 86.7205 95.0951 81.8692C95.0555 81.6974 95.0158 81.5256 94.9749 81.3487C92.9626 72.8754 87.7962 65.3332 80.8767 60.1494C80.715 60.027 80.5533 59.9047 80.3868 59.7786C71.4772 53.2787 60.1608 51.2567 49.5184 53.8878Z" fill="url(#paint0_linear_4226_4061)"/>
<path d="M58.5996 40.1294C58.7885 40.1298 58.9775 40.1301 59.1721 40.1305C61.9674 40.1394 64.6871 40.2383 67.4374 40.7776C67.6995 40.8249 67.6995 40.8249 67.9669 40.8731C72.5241 41.7015 76.9238 43.2152 81.0715 45.2781C81.2049 45.3444 81.3383 45.4107 81.4757 45.479C85.6941 47.6042 89.6155 50.3973 92.9769 53.7225C93.362 54.103 93.751 54.4792 94.1403 54.8554C95.7788 56.4538 97.2514 58.1038 98.601 59.9537C98.6838 60.0651 98.7665 60.1765 98.8517 60.2912C100.121 62.0019 101.255 63.7724 102.302 65.6282C102.379 65.7635 102.456 65.8988 102.536 66.0381C106.714 73.4148 108.628 81.7707 108.595 90.2098C108.595 90.4945 108.595 90.4945 108.594 90.7849C108.585 93.5931 108.487 96.3255 107.95 99.0885C107.919 99.2641 107.887 99.4396 107.855 99.6204C106.139 109.147 101.573 117.957 94.9004 124.918C94.7772 125.047 94.6541 125.176 94.5273 125.308C92.7462 127.165 90.9353 128.875 88.8624 130.396C88.6382 130.564 88.414 130.732 88.1898 130.9C86.5944 132.082 84.9377 133.133 83.214 134.114C83.0794 134.192 82.9447 134.27 82.806 134.35C75.4633 138.547 67.1459 140.47 58.7457 140.437C58.4623 140.436 58.4623 140.436 58.1733 140.436C55.378 140.427 52.6582 140.328 49.9079 139.789C49.7332 139.757 49.5585 139.726 49.3785 139.693C39.8955 137.969 31.126 133.382 24.1979 126.679C24.0695 126.555 23.9411 126.431 23.8088 126.304C21.9607 124.514 20.2584 122.695 18.7443 120.613C18.5772 120.387 18.4101 120.162 18.2429 119.937C17.067 118.335 16.0186 116.671 15.0436 114.938C14.9653 114.8 14.887 114.661 14.8063 114.519C11.9329 109.392 10.0757 103.729 9.20046 97.9145C9.14887 97.585 9.14887 97.585 9.09623 97.2489C8.77351 94.9765 8.73326 92.7229 8.73788 90.4299C8.73798 90.2319 8.73809 90.0339 8.7382 89.8299C8.74613 86.5956 8.92209 83.4778 9.59001 80.3038C9.63279 80.0999 9.67556 79.8961 9.71963 79.686C11.6502 70.794 15.9008 62.3292 22.2805 55.8202C22.6592 55.4333 23.0337 55.0424 23.4082 54.6514C24.9992 53.0053 26.6416 51.5259 28.4829 50.17C28.5938 50.0869 28.7047 50.0037 28.8189 49.9181C30.5214 48.6432 32.2831 47.5018 34.1313 46.4522C34.2691 46.3735 34.4068 46.2948 34.5487 46.2137C39.6416 43.3331 45.2941 41.4352 51.0765 40.5819C51.3112 40.5472 51.5458 40.5125 51.7875 40.4768C54.0581 40.1639 56.3104 40.1204 58.5996 40.1294ZM49.7131 44.1041C49.5745 44.13 49.4358 44.1559 49.2929 44.1826C41.2284 45.7129 33.8216 49.6223 27.7038 55.0618C27.5321 55.2127 27.3604 55.3635 27.1834 55.5189C23.3631 58.9159 20.2681 62.9266 17.7705 67.3893C17.6993 67.5139 17.6281 67.6384 17.5548 67.7668C15.2092 71.8927 13.7102 76.3611 12.7672 81.0009C12.7278 81.1951 12.6883 81.3893 12.6476 81.5893C12.1001 84.4072 11.8475 87.1614 11.8542 90.0264C11.8542 90.1819 11.8542 90.3375 11.8542 90.4978C11.8607 93.5448 12.1555 96.4798 12.7064 99.4799C12.7345 99.6388 12.7625 99.7976 12.7915 99.9613C14.4389 108.967 19.3775 116.995 25.5613 123.548C25.7692 123.769 25.7692 123.769 25.9813 123.995C26.9995 125.049 28.1165 125.964 29.262 126.874C29.5441 127.104 29.5441 127.104 29.8319 127.338C36.3089 132.506 43.7809 135.389 51.8556 136.854C51.9947 136.88 52.1338 136.907 52.2771 136.934C63.2297 138.977 75.7618 135.547 84.8209 129.332C88.6618 126.633 92.1764 123.524 95.0951 119.83C95.2478 119.641 95.4004 119.452 95.5577 119.257C98.7975 115.157 101.103 110.64 102.886 105.741C102.938 105.599 102.991 105.456 103.044 105.308C103.734 103.4 104.215 101.462 104.639 99.4799C104.679 99.298 104.719 99.1162 104.76 98.9288C104.867 98.3963 104.952 97.8652 105.029 97.3275C105.065 97.0765 105.101 96.8255 105.138 96.5669C105.789 91.4812 105.605 86.3074 104.639 81.2822C104.61 81.1204 104.581 80.9587 104.551 80.792C102.895 71.663 98.0617 63.671 91.784 57.0186C91.6454 56.871 91.5068 56.7234 91.364 56.5714C90.346 55.5172 89.2294 54.6018 88.0833 53.6921C87.884 53.5322 87.6846 53.3723 87.4792 53.2075C85.9903 52.0251 84.4499 50.9583 82.8245 49.9743C82.633 49.8578 82.633 49.8578 82.4377 49.739C72.6651 43.8641 60.8623 41.9406 49.7131 44.1041Z" fill="url(#paint1_linear_4226_4061)"/>
<path d="M65.9425 49.6759C66.1645 49.7152 66.1645 49.7152 66.3909 49.7553C74.5643 51.2337 81.7582 55.5665 87.5623 61.4163C87.6954 61.5432 87.8284 61.6701 87.9655 61.8008C94.8041 68.3967 98.9063 78.57 99.1018 88.0143C99.1426 90.6406 99.1464 93.2657 98.6643 95.855C98.6339 96.0325 98.6036 96.2099 98.5723 96.3928C97.214 104.29 93.7895 111.177 88.5361 117.183C88.4101 117.334 88.2841 117.485 88.1542 117.64C87.3778 118.563 86.5342 119.342 85.6146 120.119C85.4255 120.284 85.2364 120.45 85.0417 120.621C78.4998 126.333 69.6335 130.357 60.8785 130.489C60.6977 130.494 60.517 130.499 60.3308 130.504C49.3111 130.777 38.9137 127.186 30.8506 119.521C23.4059 112.36 18.3471 102.553 18.0071 92.0626C17.8312 81.1102 20.9284 70.9749 28.268 62.7115C28.5685 62.3693 28.8612 62.0211 29.1541 61.6724C29.5585 61.1973 29.9669 60.7665 30.4453 60.3646C30.8692 60.0042 31.2856 59.6434 31.6892 59.2601C40.6464 50.7809 53.9844 47.4401 65.9425 49.6759ZM49.3869 53.3937C49.2499 53.4266 49.113 53.4596 48.9718 53.4935C40.8274 55.5044 33.5204 60.781 28.5462 67.4822C28.4245 67.6447 28.3027 67.8071 28.1772 67.9745C25.0919 72.2428 23.1129 77.0376 21.924 82.1578C21.8866 82.3149 21.8491 82.4721 21.8106 82.634C20.7033 87.5336 20.9598 93.3518 22.1187 98.2031C22.1584 98.3749 22.1981 98.5466 22.2389 98.7236C24.2512 107.197 29.4176 114.739 36.3371 119.923C36.5797 120.106 36.5797 120.106 36.8271 120.294C44.6213 125.98 54.5656 128.41 64.0828 126.929C73.8821 125.277 82.5816 120.118 88.5361 112.096C88.6579 111.934 88.7797 111.771 88.9052 111.604C91.9905 107.335 93.9694 102.541 95.1584 97.4204C95.2145 97.1847 95.2145 97.1847 95.2718 96.9442C96.379 92.0446 96.1226 86.2264 94.9636 81.3751C94.924 81.2033 94.8843 81.0315 94.8434 80.8546C92.8311 72.3813 87.6647 64.8391 80.7452 59.6553C80.5836 59.5329 80.4219 59.4106 80.2553 59.2845C71.3457 52.7846 60.0293 50.7625 49.3869 53.3937Z" fill="url(#paint2_linear_4226_4061)"/>
<path d="M65.3974 102.598H52.8455H65.3974Z" fill="white"/>
<path d="M65.3974 102.598H52.8455" stroke="white" stroke-width="1.8" stroke-linecap="round"/>
<path d="M41.9772 89.9999C42.1 89.9994 42.2227 89.999 42.3492 89.9985C42.5517 89.9985 42.5517 89.9985 42.7583 89.9986C42.9031 89.9982 43.0479 89.9978 43.1926 89.9974C43.5909 89.9964 43.9892 89.996 44.3875 89.9957C44.8169 89.9953 45.2463 89.9944 45.6757 89.9935C46.7131 89.9914 47.7505 89.9904 48.7879 89.9895C49.2766 89.989 49.7653 89.9885 50.254 89.988C51.879 89.9862 53.5039 89.9847 55.1289 89.984C55.5506 89.9838 55.9722 89.9836 56.3939 89.9834C56.5511 89.9833 56.5511 89.9833 56.7115 89.9832C58.4084 89.9824 60.1053 89.9798 61.8022 89.9765C63.545 89.9731 65.2878 89.9712 67.0306 89.9709C68.0088 89.9707 68.9871 89.9698 69.9653 89.9672C70.7986 89.965 71.632 89.9641 72.4653 89.9651C72.8902 89.9656 73.315 89.9654 73.7399 89.9634C74.1296 89.9616 74.5193 89.9617 74.9091 89.9633C75.1152 89.9637 75.3214 89.962 75.5275 89.9603C77.345 89.973 78.9547 90.6977 80.2401 91.9712C81.4293 93.2635 81.978 94.8112 81.9765 96.5409C81.9772 96.6588 81.9779 96.7767 81.9786 96.8981C81.9805 97.2864 81.9809 97.6746 81.9812 98.0628C81.9816 98.2655 81.9821 98.4681 81.9827 98.6707C81.9843 99.3076 81.9849 99.9444 81.9847 100.581C81.9846 101.235 81.9867 101.889 81.99 102.542C81.9927 103.106 81.9938 103.67 81.9936 104.234C81.9936 104.57 81.9943 104.905 81.9963 105.241C81.9984 105.616 81.9977 105.992 81.9965 106.367C81.9977 106.476 81.9988 106.585 82 106.697C81.9856 108.441 81.2039 110.028 79.9892 111.254C78.577 112.553 76.9569 112.993 75.0847 112.987C74.9403 112.987 74.7959 112.988 74.6514 112.988C74.2564 112.989 73.8614 112.989 73.4664 112.989C73.0397 112.988 72.613 112.989 72.1862 112.99C71.3509 112.991 70.5156 112.992 69.6802 112.991C69.001 112.991 68.3218 112.991 67.6426 112.992C67.4975 112.992 67.4975 112.992 67.3494 112.992C67.1529 112.992 66.9563 112.992 66.7597 112.992C64.9171 112.993 63.0745 112.993 61.2319 112.993C59.5476 112.992 57.8632 112.993 56.1789 112.995C54.448 112.997 52.7172 112.998 50.9863 112.998C50.0151 112.997 49.0439 112.998 48.0727 112.999C47.2459 113 46.419 113 45.5922 112.999C45.1706 112.999 44.7491 112.999 44.3276 113C43.941 113.001 43.5545 113.001 43.168 112.999C42.9633 112.999 42.7586 113 42.554 113.001C40.6799 112.99 39.0759 112.324 37.7527 110.999C36.573 109.698 36.022 108.165 36.0235 106.433C36.0228 106.315 36.0221 106.197 36.0214 106.076C36.0195 105.688 36.0191 105.299 36.0188 104.911C36.0184 104.709 36.0179 104.506 36.0173 104.303C36.0157 103.666 36.0151 103.03 36.0153 102.393C36.0154 101.739 36.0133 101.085 36.01 100.432C36.0073 99.8676 36.0062 99.3037 36.0064 98.7397C36.0064 98.4041 36.0057 98.0685 36.0037 97.7329C36.0016 97.3576 36.0023 96.9825 36.0035 96.6072C36.0023 96.4983 36.0012 96.3894 36 96.2773C36.0144 94.5386 36.7913 92.948 38.0052 91.7271C38.8732 90.9006 39.8395 90.4556 40.9704 90.1161C41.0321 90.0975 41.0938 90.079 41.1574 90.0599C41.4348 90.0023 41.6938 90.0004 41.9772 89.9999ZM42.872 98.2729C42.6533 98.7452 42.6349 99.1313 42.7119 99.6431C42.9971 100.369 43.5885 100.856 44.1461 101.385C43.9987 101.726 43.8145 101.937 43.5442 102.191C43.0362 102.695 42.6936 103.046 42.6543 103.786C42.6763 104.342 42.8144 104.693 43.2241 105.072C43.6783 105.385 44.116 105.469 44.6583 105.38C45.4191 105.078 45.9474 104.425 46.5022 103.843C46.6036 103.93 46.7051 104.016 46.8095 104.106C46.8746 104.161 46.9397 104.217 47.0068 104.274C47.1507 104.398 47.2934 104.524 47.435 104.651C47.5054 104.714 47.5758 104.777 47.6483 104.842C47.7131 104.901 47.778 104.959 47.8448 105.02C48.2402 105.336 48.5472 105.421 49.0608 105.405C49.5159 105.349 49.8037 105.156 50.1133 104.829C50.4369 104.344 50.5488 104.024 50.4482 103.43C50.2445 102.66 49.5108 102.121 48.9608 101.589C49.1198 101.199 49.3656 100.972 49.6715 100.687C50.3033 100.07 50.3033 100.07 50.5054 99.2337C50.4649 98.6385 50.2247 98.2145 49.7739 97.8183C49.3574 97.5631 48.924 97.5096 48.4486 97.5943C47.7105 97.9365 47.1539 98.5466 46.6047 99.1309C46.1187 98.7173 45.6422 98.2959 45.1721 97.8644C44.8276 97.5846 44.4925 97.5586 44.0564 97.5658C43.543 97.6329 43.2159 97.9025 42.872 98.2729ZM55.3826 98.2729C55.091 98.6832 55.0353 99.0437 55.1073 99.5406C55.3189 100.078 55.639 100.418 56.0484 100.808C56.1057 100.864 56.1629 100.92 56.2219 100.978C56.3619 101.114 56.5028 101.249 56.6439 101.385C56.4572 101.857 56.0833 102.158 55.7207 102.496C55.2768 102.922 55.1268 103.228 55.0688 103.837C55.0813 104.278 55.2314 104.528 55.517 104.868C55.9707 105.267 56.2149 105.389 56.8215 105.413C57.477 105.318 57.8858 104.895 58.3213 104.439C58.3772 104.381 58.433 104.324 58.4906 104.265C58.627 104.125 58.7624 103.984 58.8976 103.843C59.3697 104.03 59.6708 104.404 60.0086 104.766C60.4353 105.21 60.7414 105.36 61.3497 105.418C61.7908 105.406 62.0408 105.256 62.3805 104.97C62.7802 104.516 62.9025 104.272 62.9264 103.665C62.8314 103.01 62.4081 102.601 61.9516 102.166C61.8943 102.11 61.8371 102.054 61.7781 101.996C61.6381 101.86 61.4972 101.725 61.3561 101.589C61.5428 101.117 61.9167 100.816 62.2793 100.478C62.7232 100.052 62.8732 99.7456 62.9312 99.1373C62.9187 98.6962 62.7686 98.4462 62.483 98.1065C62.0294 97.7068 61.7851 97.5845 61.1785 97.5606C60.523 97.6556 60.1142 98.0789 59.6787 98.5354C59.6228 98.5927 59.567 98.6499 59.5094 98.7089C59.373 98.8489 59.2376 98.9898 59.1024 99.1309C58.6303 98.9442 58.3292 98.5703 57.9914 98.2077C57.5647 97.7638 57.2586 97.6138 56.6503 97.5558C56.0805 97.5719 55.7506 97.8552 55.3826 98.2729ZM67.8867 98.1449C67.5631 98.6303 67.4512 98.9503 67.5518 99.5442C67.7555 100.315 68.4892 100.853 69.0392 101.385C68.8802 101.775 68.6344 102.002 68.3285 102.287C67.6967 102.904 67.6967 102.904 67.4946 103.74C67.5351 104.335 67.7753 104.76 68.2261 105.156C68.6426 105.411 69.076 105.464 69.5514 105.38C70.2895 105.037 70.8461 104.427 71.3953 103.843C71.8813 104.257 72.3578 104.678 72.8279 105.11C73.1724 105.389 73.5075 105.415 73.9436 105.408C74.4543 105.342 74.7815 105.072 75.128 104.707C75.3578 104.202 75.4003 103.774 75.2881 103.229C75.0961 102.872 74.852 102.596 74.571 102.307C74.5026 102.235 74.4342 102.164 74.3637 102.09C74.1966 101.92 74.0272 101.753 73.8539 101.589C74.001 101.248 74.1839 101.041 74.4558 100.789C74.9667 100.285 75.3018 99.8759 75.3457 99.1309C75.3223 98.6013 75.1588 98.2653 74.7759 97.9016C74.3217 97.5887 73.884 97.5049 73.3417 97.5943C72.5809 97.8957 72.0526 98.5489 71.4978 99.1309C71.3964 99.0442 71.2949 98.9576 71.1905 98.8684C71.1254 98.8128 71.0603 98.7572 70.9932 98.6999C70.8493 98.5755 70.7066 98.4498 70.565 98.3229C70.4946 98.26 70.4242 98.197 70.3517 98.1321C70.2869 98.0734 70.222 98.0148 70.1552 97.9544C69.7598 97.638 69.4528 97.5534 68.9392 97.5686C68.4841 97.6249 68.1964 97.8181 67.8867 98.1449Z" fill="url(#paint3_linear_4226_4061)"/>
<path d="M55.2098 69.0133C56.0986 69.7394 56.9805 70.5729 57.5361 71.5863C57.7426 71.9079 57.7426 71.9079 58.0787 71.9577C58.1999 71.9574 58.3211 71.957 58.446 71.9567C58.5136 71.9573 58.5813 71.958 58.6511 71.9586C58.8778 71.9601 59.1043 71.9572 59.331 71.9543C59.4935 71.9545 59.6561 71.9549 59.8187 71.9556C60.1687 71.9565 60.5187 71.9555 60.8687 71.953C61.4223 71.9492 61.9759 71.9497 62.5295 71.951C63.605 71.9527 64.6804 71.9498 65.7558 71.9465C67.124 71.9426 68.4922 71.9409 69.8603 71.9429C70.4105 71.9436 70.9607 71.9421 71.5109 71.939C71.8534 71.9374 72.1959 71.9375 72.5384 71.9381C72.6971 71.9379 72.8557 71.9371 73.0144 71.9356C73.2313 71.9335 73.4481 71.934 73.665 71.935C73.7863 71.9346 73.9076 71.9342 74.0325 71.9338C74.5939 72.0184 74.9748 72.3623 75.3671 72.7536C75.4361 72.8219 75.5052 72.8903 75.5763 72.9608C75.6486 73.0336 75.721 73.1063 75.7956 73.1813C75.9095 73.295 75.9095 73.295 76.0257 73.4109C76.1854 73.5705 76.3449 73.7303 76.5041 73.8903C76.7479 74.1352 76.9927 74.379 77.2378 74.6227C77.3931 74.7782 77.5483 74.9337 77.7035 75.0893C77.8133 75.1985 77.8133 75.1985 77.9254 75.3099C77.9931 75.3782 78.0608 75.4466 78.1306 75.5171C78.1902 75.5768 78.2497 75.6365 78.3111 75.6981C78.6358 76.078 78.7008 76.3936 78.7071 76.8884C78.71 76.9917 78.7129 77.0949 78.7159 77.2013C78.6057 77.9354 77.9753 78.4442 77.4714 78.9452C77.3957 79.0212 77.3199 79.0971 77.2419 79.1754C77.0823 79.3351 76.9225 79.4945 76.7625 79.6537C76.5176 79.8975 76.2738 80.1424 76.0301 80.3874C75.8746 80.5427 75.7191 80.698 75.5635 80.8532C75.4907 80.9264 75.4179 80.9996 75.3429 81.075C75.2404 81.1766 75.2404 81.1766 75.1357 81.2803C75.076 81.3398 75.0163 81.3994 74.9547 81.4608C74.5343 81.82 74.193 81.8474 73.644 81.8611C73.572 81.8631 73.4999 81.8651 73.4257 81.8672C73.187 81.8733 72.9483 81.8777 72.7095 81.8816C72.6271 81.8829 72.5446 81.8843 72.4597 81.8857C72.0211 81.8924 71.5826 81.8974 71.144 81.9014C70.7859 81.905 70.428 81.912 70.07 81.9224C67.9997 81.9808 66.3848 81.9813 64.5786 80.8448C64.2632 80.6499 64.1582 80.5893 63.7782 80.5868C63.52 80.6867 63.3069 80.7911 63.0769 80.9444C61.6907 81.7908 60.5546 81.9399 58.9672 81.8426C58.1759 81.794 58.1759 81.794 57.5018 82.1562C57.2933 82.4444 57.1203 82.7351 56.9513 83.0477C55.3593 84.9974 53.1396 86.4401 50.5999 86.7355C47.6923 86.9411 45.146 86.4396 42.8509 84.5683C40.9227 82.8859 39.492 80.6059 39.3081 78.0058C39.1778 75.0744 39.7608 72.5781 41.726 70.3258C45.2426 66.5751 51.0597 65.8005 55.2098 69.0133ZM45.4363 73.732C44.428 74.9577 44.201 76.279 44.3511 77.8232C44.5908 79.0933 45.3864 80.2149 46.4319 80.9636C47.6696 81.7527 49.0091 81.9195 50.4439 81.6487C51.7779 81.2488 52.8667 80.3177 53.5411 79.1113C54.1176 77.9602 54.1905 76.5481 53.8204 75.3134C53.2692 73.9101 52.232 72.9155 50.8837 72.2874C48.9221 71.5649 46.8299 72.2595 45.4363 73.732Z" fill="url(#paint4_linear_4226_4061)"/>
<path d="M49.7803 75.2622C50.2807 75.4945 50.5724 75.7862 50.8047 76.2866C50.8819 76.8602 50.8839 77.3453 50.6382 77.8744C50.1697 78.3676 49.8511 78.5661 49.1656 78.5915C48.4802 78.5661 48.1616 78.3676 47.693 77.8744C47.4474 77.3453 47.4493 76.8602 47.5266 76.2866C47.9853 75.2986 48.7709 75.1263 49.7803 75.2622Z" fill="url(#paint5_linear_4226_4061)"/>
<defs>
<linearGradient id="paint0_linear_4226_4061" x1="48.8591" y1="40.1284" x2="100.588" y2="131.398" gradientUnits="userSpaceOnUse">
<stop stop-color="#16968C"/>
<stop offset="1" stop-color="#0E3434"/>
</linearGradient>
<linearGradient id="paint1_linear_4226_4061" x1="48.8591" y1="40.1284" x2="100.588" y2="131.398" gradientUnits="userSpaceOnUse">
<stop stop-color="#16968C"/>
<stop offset="1" stop-color="#0E3434"/>
</linearGradient>
<linearGradient id="paint2_linear_4226_4061" x1="50.5923" y1="49" x2="92.6397" y2="123.158" gradientUnits="userSpaceOnUse">
<stop stop-color="#16968C"/>
<stop offset="1" stop-color="#0E3434"/>
</linearGradient>
<linearGradient id="paint3_linear_4226_4061" x1="54.4821" y1="89.9603" x2="61.7311" y2="115.61" gradientUnits="userSpaceOnUse">
<stop stop-color="#16968C"/>
<stop offset="1" stop-color="#0E3434"/>
</linearGradient>
<linearGradient id="paint4_linear_4226_4061" x1="55.1312" y1="67" x2="61.3622" y2="89.0134" gradientUnits="userSpaceOnUse">
<stop stop-color="#16968C"/>
<stop offset="1" stop-color="#0E3434"/>
</linearGradient>
<linearGradient id="paint5_linear_4226_4061" x1="48.8346" y1="75.2216" x2="50.5683" y2="78.2947" gradientUnits="userSpaceOnUse">
<stop stop-color="#16968C"/>
<stop offset="1" stop-color="#0E3434"/>
</linearGradient>
</defs>
</svg>
